<svg id="Layer_1" data-name="Layer 1" xmlns="http://www.w3.org/2000/svg" viewBox="0 0 60 60"><defs><style>.cls-1{fill:none;}</style></defs><title>aiicon</title><rect class="cls-1" width="60" height="60"/><path d="M29.48,42H23.84c0,.12,0,.21,0,.31,0,1.38,0,2.76,0,4.15a.41.41,0,0,0,.3.44,2.17,2.17,0,1,1-3,2.45,2.22,2.22,0,0,1,1.29-2.48c.11,0,.25-.18.25-.28,0-1.51,0-3,0-4.59l-.38,0c-.57,0-1.14,0-1.71,0a3.66,3.66,0,0,1-3.5-3.68c0-.62,0-1.23,0-1.9H12.6a.41.41,0,0,0-.45.29A2.15,2.15,0,0,1,9.85,38a2.18,2.18,0,0,1-.7-4.09,2.15,2.15,0,0,1,2.55.41,5.47,5.47,0,0,1,.49.73c.06.09.17.2.25.2H17l.08,0V29.56h-.35c-3.32,0-6.64,0-10,0a.43.43,0,0,0-.47.32,2.15,2.15,0,0,1-2.45,1.24A2.14,2.14,0,0,1,2.11,29a2.16,2.16,0,0,1,4.14-.91.47.47,0,0,0,.52.34H17V22.76H12.6a.41.41,0,0,0-.45.29,2.17,2.17,0,1,1,0-1.81l.15.34h4.79V19.72a3.64,3.64,0,0,1,1-2.49A3.6,3.6,0,0,1,20.76,16h1.9v-.35c0-1.38,0-2.76,0-4.14a.39.39,0,0,0-.28-.42,2.17,2.17,0,1,1,3-2.47,2.17,2.17,0,0,1-1.24,2.46.43.43,0,0,0-.31.47c0,1.35,0,2.69,0,4V16h5.66V15.6c0-3.3,0-6.59,0-9.89a.44.44,0,0,0-.32-.5,2.17,2.17,0,0,1,.9-4.15,2.14,2.14,0,0,1,2.11,1.75,2.15,2.15,0,0,1-1.29,2.42.36.36,0,0,0-.28.39c0,3.35,0,6.71,0,10.06,0,.1,0,.2,0,.32h5.64v-.38c0-1.34,0-2.69,0-4a.46.46,0,0,0-.32-.5,2.17,2.17,0,1,1,3-2.5,2.17,2.17,0,0,1-1.14,2.47l-.38.17V16h1.75a3.77,3.77,0,0,1,2.23.66A3.64,3.64,0,0,1,43,19.73c0,.61,0,1.23,0,1.87h4.49a.37.37,0,0,0,.42-.28,2.17,2.17,0,1,1,0,1.72c-.07-.16-.1-.3-.34-.29H43.22l-.16,0v5.64H53.4c.28,0,.35-.13.45-.34a2.14,2.14,0,0,1,2.62-1.18A2.19,2.19,0,0,1,58,29.39a2.17,2.17,0,0,1-2.19,1.78,2.1,2.1,0,0,1-2-1.36.35.35,0,0,0-.37-.25c-3.36,0-6.73,0-10.1,0l-.28,0v5.63h.35c1.36,0,2.72,0,4.08,0a.44.44,0,0,0,.47-.31,2.18,2.18,0,1,1,0,1.77.45.45,0,0,0-.51-.31H43c0,.18,0,.32,0,.46A15.34,15.34,0,0,1,43,39a3.64,3.64,0,0,1-3.63,3c-.61,0-1.22,0-1.85,0,0,.14,0,.24,0,.34,0,1.39,0,2.78,0,4.17a.36.36,0,0,0,.27.4,2.17,2.17,0,1,1-1.72,0,.4.4,0,0,0,.3-.44c0-1.47,0-2.94,0-4.45H30.63c0,.12,0,.24,0,.36q0,5,0,10a.41.41,0,0,0,.3.45,2.18,2.18,0,1,1-1.78,0,.52.52,0,0,0,.36-.58q0-4.89,0-9.79ZM41.89,29c0-3,0-6.07,0-9.11a2.57,2.57,0,0,0-2.74-2.74H21a2.57,2.57,0,0,0-2.74,2.75q0,9.09,0,18.2A2.56,2.56,0,0,0,21,40.84H39.09A2.57,2.57,0,0,0,41.89,38ZM3.27,29a1,1,0,1,0,1-1A1,1,0,0,0,3.27,29ZM31.07,3.23a1,1,0,1,0-1,1A1,1,0,0,0,31.07,3.23ZM55.83,30a1,1,0,1,0-1-1A1,1,0,0,0,55.83,30ZM30.07,55.78a1,1,0,1,0-1-1A1,1,0,0,0,30.07,55.78ZM11.17,35.87a1,1,0,1,0-2-.11,1,1,0,0,0,2,.11ZM23.25,8.1a1,1,0,0,0,0,2,1,1,0,1,0,0-2ZM10.14,23.19a1,1,0,1,0-1-1A1,1,0,0,0,10.14,23.19ZM50,34.8a1,1,0,1,0,1,1.05A1,1,0,0,0,50,34.8ZM36.88,8.1a1,1,0,1,0,1,1A1,1,0,0,0,36.88,8.1ZM50,21.18a1,1,0,1,0,1,1A1,1,0,0,0,50,21.18ZM36.86,49.9a1,1,0,0,0,1-1,1,1,0,0,0-1-1,1,1,0,0,0,0,2Zm-13.63,0a1,1,0,1,0,0-2,1,1,0,0,0,0,2Z"/><path d="M27.39,22.87c.59,0,1.14,0,1.69,0a.45.45,0,0,1,.3.22L33.45,35a.83.83,0,0,0,0,.12c-.52,0-1,0-1.55,0-.08,0-.17-.16-.21-.26q-.57-1.64-1.11-3.27a.38.38,0,0,0-.43-.32c-1.24,0-2.48,0-3.72,0a.32.32,0,0,0-.39.27c-.34,1.1-.72,2.19-1.07,3.28a.36.36,0,0,1-.43.31c-.42,0-.84,0-1.32,0ZM30.12,30l-1.81-5.58L26.51,30Z"/><path d="M35.3,22.89h1.55V35.1H35.3Z"/></svg>