<svg width="443" height="225" viewBox="0 0 443 225" fill="none" xmlns="http://www.w3.org/2000/svg">
<path opacity="0.7" d="M362.253 88.4189C360.394 88.4189 358.534 88.4809 356.736 88.605C350.537 52.7411 319.293 25.3778 281.663 25.3778C264.43 25.3778 248.56 31.0862 235.851 40.7037C222.089 16.4428 195.99 0 166.048 0C121.724 0 85.8301 35.926 85.8301 80.2906C85.8301 83.0827 85.954 85.8749 86.264 88.605C84.4662 88.4809 82.6065 88.4189 80.7467 88.4189C36.4223 88.4189 0.528793 124.345 0.528793 168.709C0.528793 213.074 36.4223 249 80.7467 249H362.253C406.578 249 442.471 213.074 442.471 168.709C442.471 124.345 406.578 88.4189 362.253 88.4189Z" fill="url(#paint0_linear_36_382)" fill-opacity="0.5"/>
<path d="M198.594 17.8081C191.155 15.4502 183.22 14.1472 175.037 14.1472C132.262 14.1472 97.6085 48.8322 97.6085 91.6456C97.6085 94.3757 97.7325 97.0438 98.0424 99.6498C96.3067 99.5257 94.5089 99.4637 92.7111 99.4637C49.9365 99.4637 15.2829 134.149 15.2829 176.962C15.2829 190.985 19.0024 204.201 25.5736 215.556C22.5979 180.623 27.9293 113.859 111.619 115.472C110.751 92.6384 114.842 21.0966 198.594 17.8081Z" fill="url(#paint1_linear_36_382)" fill-opacity="0.5"/>
<path d="M119.554 249H362.253C406.578 249 442.471 213.074 442.471 168.71C442.471 159.216 440.797 150.157 437.822 141.719C385.066 245.712 206.715 236.466 119.554 249Z" fill="url(#paint2_linear_36_382)" fill-opacity="0.5"/>
<defs>
<linearGradient id="paint0_linear_36_382" x1="221.5" y1="0" x2="221.5" y2="221.623" gradientUnits="userSpaceOnUse">
<stop stop-color="white"/>
<stop offset="1" stop-color="#161632"/>
</linearGradient>
<linearGradient id="paint1_linear_36_382" x1="106.938" y1="14.1472" x2="106.938" y2="193.412" gradientUnits="userSpaceOnUse">
<stop stop-color="white"/>
<stop offset="1" stop-color="#161632"/>
</linearGradient>
<linearGradient id="paint2_linear_36_382" x1="281.012" y1="141.719" x2="281.012" y2="237.205" gradientUnits="userSpaceOnUse">
<stop stop-color="white"/>
<stop offset="1" stop-color="#161632"/>
</linearGradient>
</defs>
</svg>
