<svg id="Layer_1" data-name="Layer 1" xmlns="http://www.w3.org/2000/svg" viewBox="0 0 60 60"><defs><style>.cls-1{fill:none;}</style></defs><title>cloud-c</title><path d="M28.63,52.52V48.16h.84c0,.19,0,.38,0,.57,0,1.06,0,2.12,0,3.19,0,.43.08.65.55.79a3.09,3.09,0,0,1,2.22,2.78,3.21,3.21,0,1,1-4.38-2.72C28.11,52.68,28.35,52.61,28.63,52.52Zm.42.89a2.34,2.34,0,1,0,2.35,2.32A2.34,2.34,0,0,0,29.05,53.41Z"/><path d="M21,43.81c0,1.08,0,2.17,0,3.27a.58.58,0,0,0,.47.69,2.84,2.84,0,0,1,2,3.21,2.9,2.9,0,0,1-5.71,0,2.84,2.84,0,0,1,2-3.25.54.54,0,0,0,.44-.64c0-.91,0-1.81,0-2.71C20.14,43.66,20.18,43.63,21,43.81Zm1.6,6.68a2.06,2.06,0,0,0-2-2,2,2,0,0,0,0,4.07A2.06,2.06,0,0,0,22.61,50.49Z"/><path d="M37.14,47.58V43.76H38V46a3.35,3.35,0,0,1,0,.55,1.08,1.08,0,0,0,.84,1.37,2.74,2.74,0,0,1,1.56,3.22,2.9,2.9,0,0,1-5.64,0,2.9,2.9,0,0,1,1.51-3.28C36.52,47.8,36.8,47.71,37.14,47.58Zm.45.89a2,2,0,1,0,2,2.06A2.06,2.06,0,0,0,37.59,48.47Z"/><path d="M12.67,36.68h.84c0,.21,0,.38,0,.56,0,1.69,0,3.39,0,5.08A.55.55,0,0,0,14,43a2.24,2.24,0,0,1,1.37,2.59,2.26,2.26,0,0,1-4.42,0A2.21,2.21,0,0,1,12.21,43a.63.63,0,0,0,.46-.71c0-1.64,0-3.29,0-4.93Zm.41,9.75a1.39,1.39,0,1,0,.06-2.78,1.39,1.39,0,1,0-.06,2.78Z"/><path d="M44.71,36.69h.85v.65c0,1.66,0,3.32,0,5A.56.56,0,0,0,46,43a2.21,2.21,0,0,1,1.37,2.53A2.26,2.26,0,1,1,44.27,43a.55.55,0,0,0,.42-.62c0-1.7,0-3.4,0-5.09C44.69,37.06,44.7,36.89,44.71,36.69Zm.4,9.74a1.39,1.39,0,1,0,0-2.77,1.39,1.39,0,1,0,0,2.77Z"/><path d="M37.18,36.69H38v5.43h-.78Z"/><path d="M21,42.14h-.79V36.69H21Z"/><path d="M29.43,41.69h-.75v-5l.75,0Z"/><path d="M28.67,47V43.25h.83c0,1.14,0,2.26,0,3.39C29.46,46.76,29,46.86,28.67,47Z"/><path class="cls-1" d="M20.64,28a1.34,1.34,0,0,1,1.23-1.4,1,1,0,0,0,.71-1.7A1.34,1.34,0,0,1,22.69,23q.48-.51,1-1a1.35,1.35,0,0,1,1.91-.11,1.15,1.15,0,0,0,1.71-.72,1.38,1.38,0,0,1,1.47-1.29h1.35a1.36,1.36,0,0,1,1.41,1.23,1.17,1.17,0,0,0,1.85.75A1.33,1.33,0,0,1,35.2,22c.33.31.64.63.95,1a1.37,1.37,0,0,1,.11,2,1,1,0,0,0,.66,1.66,1.38,1.38,0,0,1,1.35,1.57v.47H47a5.08,5.08,0,0,0,1.82-9.87.52.52,0,0,1-.39-.58,6.79,6.79,0,0,0-8.86-6.79l-.54.12a8.61,8.61,0,0,0-1.67-5.67,7.78,7.78,0,0,0-4.85-3.21c-5.11-1-8.43,1.3-10.33,6a6.42,6.42,0,0,0-7.39,0c-2.42,1.66-3.2,4.06-2.69,7-.16,0-.28.08-.41.1a6.54,6.54,0,0,0-5.55,6.86,6.47,6.47,0,0,0,6.54,6.08h8Z"/><path class="cls-1" d="M36.42,27.43c-.48,0-.82-.14-.89-.7a2.09,2.09,0,0,0-.36-.9.74.74,0,0,1,.14-1,7,7,0,0,0,.57-.79c-.13-.18-.2-.32-.3-.44L35,22.94c-.69-.69-.72-.71-1.46-.1-.37.32-.68.44-1.12.12a3,3,0,0,0-1-.44.67.67,0,0,1-.6-.75,3.88,3.88,0,0,0,0-.48.59.59,0,0,0-.66-.57h-1.3c-.34,0-.61.17-.58.49a1.29,1.29,0,0,1-1.27,1.5l-.1.05a1.09,1.09,0,0,1-1.67-.15.57.57,0,0,0-.93.05c-.23.25-.49.49-.73.73-.46.47-.5.64,0,1.13s.58.85.18,1.41a2,2,0,0,0-.33.85.6.6,0,0,1-.68.53c-.16,0-.32,0-.48,0a.6.6,0,0,0-.63.71q0,.3,0,.6H26v-.13a3.42,3.42,0,0,1,6.83.13h4.61v-.13C37.42,27.55,37.41,27.52,36.42,27.43Z"/><path class="cls-1" d="M29.35,32.06a3.44,3.44,0,0,1-3.24-2.54h-4.6a.46.46,0,0,0,.51.4,1.23,1.23,0,0,1,1.46,1.17.08.08,0,0,0,0,.05A1.2,1.2,0,0,1,23.29,33a.54.54,0,0,0,0,.85,10.74,10.74,0,0,0,1,.95c.16.12.58.18.66.09.74-.88,1.53-.68,2.36-.19.14.08.33.07.45.16a.79.79,0,0,1,.34.41c.27,1.41.27,1.41,1.74,1.41.12,0,.28,0,.37,0s.52-.3.51-.44c-.08-1.11.59-1.5,1.5-1.85a1,1,0,0,1,1.22.15c.8.68.82.66,1.54-.06,1-1,1.11-.9.14-2.07a.49.49,0,0,1-.08-.66c.22-.4.34-.84.55-1.24a.72.72,0,0,1,.44-.35c1-.13,1.31-.08,1.39-.62h-4.7A3.41,3.41,0,0,1,29.35,32.06Z"/><path class="cls-1" d="M29.42,31.21a2.59,2.59,0,0,0,2.41-1.69H27A2.57,2.57,0,0,0,29.42,31.21Z"/><path class="cls-1" d="M32,28.67s0,0,0-.06a2.58,2.58,0,0,0-5.15,0v0Z"/><path d="M49.71,18.28a.75.75,0,0,1-.47-.74,7.62,7.62,0,0,0-6.87-7.23,22.94,22.94,0,0,0-2.49,0C39.2,5.69,36.72,2.51,32,1.72S23.86,3.13,21.69,7.37c-.17-.06-.34-.11-.5-.18a7.35,7.35,0,0,0-10.13,7.17.63.63,0,0,1-.54.75,7.35,7.35,0,0,0,2.15,14.4h8c0-.12,0-.24,0-.38v-.47h-8a6.47,6.47,0,0,1-6.54-6.08,6.54,6.54,0,0,1,5.55-6.86c.13,0,.25-.06.41-.1-.51-2.91.27-5.31,2.69-7a6.42,6.42,0,0,1,7.39,0C24,4,27.35,1.7,32.46,2.66a7.78,7.78,0,0,1,4.85,3.21A8.61,8.61,0,0,1,39,11.54l.54-.12a6.79,6.79,0,0,1,8.86,6.79.52.52,0,0,0,.39.58A5.08,5.08,0,0,1,47,28.66H38.27c0,.22,0,.45,0,.67a1.09,1.09,0,0,1,0,.18H47a5.93,5.93,0,0,0,2.72-11.23Z"/><path d="M21.49,28.07a.6.6,0,0,1,.63-.71c.16,0,.32,0,.48,0a.6.6,0,0,0,.68-.53,2,2,0,0,1,.33-.85c.4-.56.23-1-.18-1.41s-.42-.66,0-1.13c.24-.24.5-.48.73-.73a.57.57,0,0,1,.93-.05,1.09,1.09,0,0,0,1.67.15l.1-.05a1.29,1.29,0,0,0,1.27-1.5c0-.32.24-.5.58-.49h1.3a.59.59,0,0,1,.66.57,3.88,3.88,0,0,1,0,.48.67.67,0,0,0,.6.75,3,3,0,0,1,1,.44c.44.32.75.2,1.12-.12.74-.61.77-.59,1.46.1l.61.62c.1.12.17.26.3.44a7,7,0,0,1-.57.79.74.74,0,0,0-.14,1,2.09,2.09,0,0,1,.36.9c.07.56.41.66.89.7,1,.09,1,.12,1,1.11v.13h.84V28.2a1.38,1.38,0,0,0-1.35-1.57A1,1,0,0,1,36.26,25a1.37,1.37,0,0,0-.11-2c-.31-.33-.62-.65-.95-1a1.33,1.33,0,0,0-1.82-.12,1.17,1.17,0,0,1-1.85-.75,1.36,1.36,0,0,0-1.41-1.23H28.77a1.38,1.38,0,0,0-1.47,1.29,1.15,1.15,0,0,1-1.71.72,1.35,1.35,0,0,0-1.91.11q-.51.48-1,1a1.34,1.34,0,0,0-.11,1.86,1,1,0,0,1-.71,1.7A1.34,1.34,0,0,0,20.64,28v.72h.85Q21.51,28.37,21.49,28.07Z"/><path d="M36,30.14a.72.72,0,0,0-.44.35c-.21.4-.33.84-.55,1.24a.49.49,0,0,0,.08.66c1,1.17.89,1-.14,2.07-.72.72-.74.74-1.54.06a1,1,0,0,0-1.22-.15c-.91.35-1.58.74-1.5,1.85,0,.14-.31.32-.51.44s-.25,0-.37,0c-1.47,0-1.47,0-1.74-1.41a.79.79,0,0,0-.34-.41c-.12-.09-.31-.08-.45-.16-.83-.49-1.62-.69-2.36.19-.08.09-.5,0-.66-.09a10.74,10.74,0,0,1-1-.95.54.54,0,0,1,0-.85,1.2,1.2,0,0,0,.21-1.85.08.08,0,0,1,0-.05A1.23,1.23,0,0,0,22,29.92a.46.46,0,0,1-.51-.4h-.85c.09.8.5,1.14,1.42,1.27a1.12,1.12,0,0,1,.62,1.58,10.41,10.41,0,0,0-.56,1,5.85,5.85,0,0,0,.51,1,10.1,10.1,0,0,0,.91.94,1.4,1.4,0,0,0,2.11.14c.14-.1.32-.29.44-.26a3.28,3.28,0,0,1,1.05.41c.14.1.16.41.2.63a1.34,1.34,0,0,0,1.44,1.3h1.3a1.32,1.32,0,0,0,1.48-1.37c0-.61.43-.68.81-.9s.6,0,.85.21a1.36,1.36,0,0,0,2-.1l.85-.84a1.39,1.39,0,0,0,.13-2.07.93.93,0,0,1,.64-1.57,1.34,1.34,0,0,0,1.37-1.36h-.84C37.33,30.06,37.05,30,36,30.14Z"/><path d="M21.49,29.31v-.64h-.85v.47c0,.14,0,.26,0,.38h.85A.71.71,0,0,1,21.49,29.31Z"/><path d="M38.27,28.67h-.84c0,.38,0,.65,0,.85h.84a1.09,1.09,0,0,0,0-.18C38.27,29.12,38.27,28.89,38.27,28.67Z"/><path d="M29.42,31.21A2.57,2.57,0,0,1,27,29.52h-.89a3.41,3.41,0,0,0,6.6,0h-.88A2.59,2.59,0,0,1,29.42,31.21Z"/><path d="M26.84,28.63a2.58,2.58,0,0,1,5.15,0s0,0,0,.06h.84A3.42,3.42,0,0,0,26,28.54v.13h.85Z"/><path d="M31.83,29.52h.88a3.1,3.1,0,0,0,.11-.81v0H32A2.66,2.66,0,0,1,31.83,29.52Z"/><path d="M26.11,29.52H27a2.67,2.67,0,0,1-.16-.85H26A3,3,0,0,0,26.11,29.52Z"/><rect class="cls-1" width="60" height="60"/></svg>