<svg width="339" height="191" viewBox="0 0 339 191" fill="none" xmlns="http://www.w3.org/2000/svg">
<path opacity="0.7" d="M277.467 67.8233C276.041 67.8233 274.614 67.8709 273.235 67.9661C268.48 40.456 244.514 19.4665 215.649 19.4665C202.43 19.4665 190.257 23.8453 180.508 31.2225C169.952 12.6128 149.932 0 126.965 0C92.9646 0 65.4319 27.5577 65.4319 61.5883C65.4319 63.7301 65.527 65.8719 65.7648 67.9661C64.3857 67.8709 62.9592 67.8233 61.5326 67.8233C27.5327 67.8233 0 95.381 0 129.412C0 163.442 27.5327 191 61.5326 191H277.467C311.467 191 339 163.442 339 129.412C339 95.381 311.467 67.8233 277.467 67.8233Z" fill="url(#paint0_linear_36_373)" fill-opacity="0.5"/>
<path d="M151.929 13.6599C146.223 11.8513 140.136 10.8518 133.86 10.8518C101.049 10.8518 74.4668 37.4576 74.4668 70.2984C74.4668 72.3925 74.5619 74.4392 74.7997 76.4382C73.4682 76.343 72.0892 76.2954 70.7102 76.2954C37.8991 76.2954 11.3174 102.901 11.3174 135.742C11.3174 146.498 14.1706 156.636 19.2111 165.346C16.9286 138.55 21.0181 87.3375 85.2136 88.575C84.5479 71.0599 87.6864 16.1825 151.929 13.6599Z" fill="url(#paint1_linear_36_373)" fill-opacity="0.5"/>
<path d="M91.3003 191H277.467C311.467 191 339 163.442 339 129.412C339 122.13 337.716 115.181 335.434 108.708C294.967 188.478 158.159 181.386 91.3003 191Z" fill="url(#paint2_linear_36_373)" fill-opacity="0.5"/>
<defs>
<linearGradient id="paint0_linear_36_373" x1="169.5" y1="0" x2="169.5" y2="170" gradientUnits="userSpaceOnUse">
<stop stop-color="white"/>
<stop offset="1" stop-color="#161632"/>
</linearGradient>
<linearGradient id="paint1_linear_36_373" x1="81.6234" y1="10.8518" x2="81.6234" y2="148.36" gradientUnits="userSpaceOnUse">
<stop stop-color="white"/>
<stop offset="1" stop-color="#161632"/>
</linearGradient>
<linearGradient id="paint2_linear_36_373" x1="215.15" y1="108.708" x2="215.15" y2="181.952" gradientUnits="userSpaceOnUse">
<stop stop-color="white"/>
<stop offset="1" stop-color="#161632"/>
</linearGradient>
</defs>
</svg>
