<svg id="Layer_1" data-name="Layer 1" xmlns="http://www.w3.org/2000/svg" viewBox="0 0 426.94 244.84"><defs><style>.cls-1{fill:#d8d8d8;}.cls-2{fill:#f9f9f9;}.cls-3{fill:#fff;}</style></defs><title>cloud3</title><path class="cls-1" d="M375.05,190.72c-1.8,0-3.6,0-5.34.08a73.74,73.74,0,0,0-71.27-62.66,73,73,0,0,0-44.56,13.93,77.47,77.47,0,0,0-145.69,35.36,69.49,69.49,0,0,0,.25,8c-1.73-.16-3.53-.25-5.32-.29A77.71,77.71,0,0,0,100,340.58l271.93,5.53a77.71,77.71,0,0,0,3.17-155.39Z" transform="translate(-24.03 -101.29)"/><path class="cls-2" d="M218.34,119.18a74.8,74.8,0,0,0-99,69.46,66.18,66.18,0,0,0,.26,7.76c-1.67-.16-3.41-.25-5.15-.29a75,75,0,0,0-67.14,111c-2.18-33.86,4.28-98.36,85.09-95.15C132,189.86,137.38,120.71,218.34,119.18Z" transform="translate(-24.03 -101.29)"/><path class="cls-3" d="M137.44,341.34l234.44,4.77A77.58,77.58,0,0,0,451,270a78.81,78.81,0,0,0-4-26.21C394,343.38,221.88,330.93,137.44,341.34Z" transform="translate(-24.03 -101.29)"/></svg>