<svg width="403" height="329" viewBox="0 0 403 329" fill="none" xmlns="http://www.w3.org/2000/svg">
<g clip-path="url(#clip0_50_714)">
<path d="M217.923 47.2235C275.237 56.017 314.567 109.604 305.774 166.919C299.389 208.542 269.38 240.686 231.469 251.777C231.436 251.788 231.419 251.802 231.386 251.81C217.119 255.989 201.739 257.174 186.08 254.768C160.6 250.86 138.653 238.09 122.936 220.08C110.273 205.559 101.631 187.649 98.414 168.228C98.2097 167.04 98.0219 165.856 97.8838 164.649C97.8782 164.585 97.8561 164.522 97.8479 164.475C97.3646 160.702 97.0884 156.866 97.0193 153.002C97.0249 152.972 97.0138 152.939 97.0193 152.925C96.9172 147.053 97.3093 141.085 98.2317 135.078C99.0437 129.779 100.237 124.628 101.783 119.654C101.811 119.582 101.836 119.524 101.847 119.447C102.535 117.273 103.28 115.119 104.114 113.012C109.591 98.8245 118.02 86.275 128.52 76.0012C137.28 67.4341 147.493 60.4303 158.675 55.3652C159.123 55.1553 159.553 54.962 159.97 54.7631C162 53.8876 164.069 53.0646 166.162 52.2748C166.684 52.0925 166.958 52.0124 166.958 52.0124C168.653 51.4103 170.371 50.8552 172.1 50.3498L172.117 50.336C172.13 50.336 172.164 50.3277 172.197 50.3167C172.296 50.2697 172.376 50.2504 172.47 50.2366C172.597 50.2007 172.757 50.1592 172.945 50.1095C187.113 46.0055 202.388 44.8428 217.923 47.2235Z" fill="url(#paint0_radial_50_714)"/>
</g>
<g clip-path="url(#clip1_50_714)">
<path d="M381.815 69.8792C382.161 69.9904 382.488 70.0893 382.797 70.2128C383.056 70.2807 383.297 70.3672 383.538 70.4599C384.094 70.6514 384.637 70.8552 385.156 71.0529C393.72 74.3824 399.345 79.3302 401.722 85.8409C403.006 89.3124 403.303 93.1484 402.673 97.2562C400.326 112.545 385.038 131.91 358.204 153.221C343.718 164.717 326.596 176.231 307.542 187.374C306.764 187.844 305.973 188.288 305.183 188.739C285.394 200.204 263.573 211.236 240.498 221.435H240.48C234.917 223.9 229.279 226.309 223.568 228.662C223.506 228.681 223.457 228.705 223.389 228.742C170.226 250.671 117.977 265.194 76.2741 269.61C73.6499 269.882 71.0752 270.117 68.5621 270.321C68.241 270.345 67.9261 270.376 67.6174 270.389C33.9168 272.884 11.5402 267.627 3.38982 255.36C3.02553 254.81 2.67975 254.229 2.36485 253.636C1.94498 252.833 1.57451 252.012 1.25961 251.153C-4.76057 234.753 10.6881 210.823 44.7778 183.761C58.8063 172.629 80.1001 159.585 98.4324 148.769C98.1175 150.115 97.784 151.629 97.5 153C80.2669 163.279 59.9178 175.761 46.624 186.312C20.6724 206.937 5.56326 225.926 3.3713 240.244C2.86499 243.561 3.05023 246.625 3.96406 249.411C4.00728 249.596 4.08755 249.788 4.14312 249.979C4.32218 250.473 4.53212 250.955 4.74822 251.425C10.9413 264.323 34.2564 269.913 69.6118 267.028C69.9329 267.003 70.2478 266.979 70.5688 266.948C72.3656 266.787 74.181 266.614 76.0271 266.417C117.502 262.006 169.51 247.539 222.481 225.672C233.898 220.959 245.068 216.018 255.904 210.903C261.535 208.253 267.074 205.553 272.495 202.811C286.561 195.713 299.935 188.344 312.401 180.833C313.197 180.351 313.975 179.888 314.753 179.406C330.215 169.967 344.225 160.306 356.37 150.67C388.78 124.954 404.266 101.753 398.863 87.0269C397.196 82.5053 393.571 78.8052 388.181 75.9637C387.459 75.5869 386.718 75.2286 385.927 74.8827C384.927 74.4441 383.865 74.0117 382.754 73.6287C382.525 73.5361 382.284 73.4558 382.025 73.3693C369.441 69.1071 350.646 68.0755 326.973 70.5834C311.302 72.2512 297.659 76.1019 279.5 80.5C278.327 79.734 277.236 77.8782 276.5 77C295.931 72.1695 310.036 69.1565 326.701 67.3713C350.171 64.8881 368.824 65.7962 381.809 69.8792H381.815Z" fill="#CDEDF6"/>
</g>
<g clip-path="url(#clip2_50_714)">
<path d="M384.429 68.8203C384.664 69.0002 384.869 69.21 385.08 69.4439C385.581 69.8876 386.033 70.3793 386.467 70.9129C387.576 72.1901 388.486 73.6112 389.204 75.1522C389.282 75.326 389.366 75.5119 389.415 75.6798C390.97 79.3015 391.368 83.4508 390.662 88.0378C388.432 102.476 375.224 121.394 352.044 142.902C345.474 149 338.258 155.17 330.487 161.334C329.498 162.132 328.498 162.911 327.467 163.703C312.293 175.539 295.1 187.369 276.466 198.81C266.453 204.968 256.018 211.018 245.239 216.888H245.221C239.151 220.204 232.972 223.466 226.702 226.65C176.546 252.199 126.751 270.475 86.4635 278.162C80.1939 279.35 74.256 280.267 68.7038 280.909C68.4024 280.939 68.107 280.963 67.8237 281.005C37.8806 284.284 18.5958 279.416 12.7904 266.842C10.3972 261.631 10.4152 255.347 12.7422 248.146C13.1823 246.815 13.6887 245.43 14.2855 244.033C19.7171 231.255 31.7678 215.965 49.9615 199.092C63.9474 186.11 80.8149 172.889 99.7561 159.907C99.6717 160.639 99.5813 161.34 99.515 161.94C81.056 174.628 64.5985 187.567 50.9562 200.249C32.1958 217.65 20.0366 233.24 15.0511 245.987C14.5447 247.294 14.1107 248.572 13.7429 249.813C13.327 251.282 13.0075 252.691 12.7904 254.07C12.0911 258.603 12.5372 262.639 14.1529 266.14C19.7351 278.24 38.8211 282.773 68.5832 279.35C68.8847 279.308 69.1801 279.278 69.4815 279.236C74.7382 278.606 80.3145 277.737 86.2103 276.609C126.359 268.964 176.021 250.724 226.045 225.241C226.871 224.815 227.703 224.401 228.529 223.97C239.41 218.381 250.008 212.589 260.256 206.653C287.306 191.027 311.841 174.406 332.314 157.881C333.32 157.071 334.309 156.262 335.298 155.446C340.874 150.853 346.131 146.272 351.038 141.727C381.385 113.563 394.454 90.1604 387.835 75.8297C387.648 75.422 387.431 75.0083 387.202 74.6065C386.515 73.3653 385.665 72.2141 384.664 71.1707C384.465 70.9369 384.266 70.733 384.043 70.5352C383.766 70.2593 383.483 69.9835 383.181 69.7497C367.959 56.5282 326.78 59.5383 274.387 75.9197C273.772 75.5359 273.169 75.1761 272.632 74.8464C287.758 70.0795 302.16 66.3559 315.518 63.8135C349.621 57.3197 373.542 59.1306 384.417 68.7963L384.429 68.8203Z" fill="#5FB1BF"/>
</g>
<g clip-path="url(#clip3_50_714)">
<path d="M352.542 30.947C353.017 31.0577 353.469 31.1796 353.91 31.318C357.562 32.4699 360.505 34.3417 362.683 36.9777C366.587 41.6959 367.815 48.5794 366.469 57.307C366.313 58.3205 366.123 59.356 365.894 60.4138C365.838 60.6907 365.783 60.962 365.716 61.2334C365.66 61.4936 365.593 61.7705 365.526 62.0253C365.369 62.7009 365.191 63.3876 365.006 64.0743C361.873 75.6428 355.027 89.7587 344.634 105.924C337.62 116.822 329.272 128.213 319.795 139.854C318.337 141.654 316.846 143.459 315.327 145.275C311.541 149.794 307.593 154.341 303.505 158.904C301.372 161.274 299.211 163.667 296.994 166.053C283.049 181.111 267.564 196.257 251.022 210.982C211.758 245.937 171.148 274.362 136.715 291.004C102.147 307.717 77.8605 310.574 68.3167 299.028C61.4758 290.738 62.8495 275.78 72.0136 255.805C72.2425 255.301 72.4827 254.797 72.7284 254.282C73.1305 253.429 73.5493 252.576 73.9849 251.696C75.7496 248.096 77.7711 244.364 80.0161 240.476C80.5913 239.485 81.1944 238.472 81.7975 237.464C82.6073 236.09 83.4617 234.711 84.3273 233.31C84.9918 232.253 85.6787 231.173 86.3767 230.093C92.9049 219.959 100.6 209.381 109.267 198.588C109.368 198.832 109.474 199.092 109.574 199.319C101.008 209.996 93.4131 220.452 86.9519 230.492C85.4497 232.834 84.0034 235.138 82.6631 237.397C82.0432 238.405 81.4401 239.419 80.8649 240.421C80.3846 241.252 79.9156 242.071 79.452 242.874C77.2406 246.795 75.2693 250.577 73.5605 254.182C73.3036 254.697 73.0635 255.196 72.8345 255.716C71.874 257.793 70.9916 259.803 70.1986 261.769C67.6689 268.038 65.9992 273.742 65.2118 278.798C63.8938 287.315 65.0777 293.988 68.8528 298.563C71.349 301.581 74.8616 303.547 79.2845 304.544C79.3236 304.544 79.3627 304.555 79.4018 304.577C87.1139 306.26 97.5456 304.992 109.977 301.105C145.812 289.918 198.328 256.962 250.559 210.45C266.648 196.124 281.519 181.587 294.86 167.288C297.072 164.918 299.25 162.554 301.377 160.194C305.247 155.919 308.961 151.672 312.529 147.474C314.06 145.674 315.556 143.891 317.03 142.108C342.026 111.838 358.858 84.1101 364.353 63.8472C364.576 63.0332 364.783 62.2302 364.956 61.4493C364.99 61.3054 365.029 61.1669 365.051 61.0174C365.157 60.6131 365.241 60.2255 365.302 59.8434C367.296 50.2186 366.374 42.5598 362.164 37.4595C360.114 34.9785 357.361 33.2009 353.971 32.1044C353.536 31.9438 353.067 31.8164 352.598 31.6946C334.549 26.993 300.556 39.6081 260.538 64.7111C260.276 64.5616 260.053 64.4232 259.84 64.3069C271.791 56.8031 283.368 50.3017 294.307 45.002C320.018 32.5419 340.055 27.7904 352.542 30.947Z" fill="#CDEDF6"/>
</g>
<g clip-path="url(#clip4_50_714)">
<path d="M371.253 18.2947C374.694 21.9283 376.57 27.0178 376.922 33.4198C376.952 33.7002 376.97 33.9807 376.97 34.2551C377.084 37.2921 376.863 40.6273 376.313 44.2132C374.276 57.4588 367.759 74.3739 356.881 94.1767C336.625 131.038 303.729 173.662 264.22 214.223C224.723 254.783 183.339 288.416 147.689 308.935C136.005 315.665 125.372 320.731 115.976 324.078C102.32 328.952 91.2573 330.217 83.2707 327.819C83.2289 327.795 83.187 327.789 83.1452 327.783C79.7881 326.745 76.9806 325.05 74.7584 322.694C67.5126 315.009 67.1482 300.886 73.4263 281.698C74.5553 278.243 75.9113 274.615 77.4764 270.851C80.5348 263.422 84.4295 255.397 89.1307 246.829C95.833 234.616 103.951 221.77 113.216 208.584C113.383 209.02 113.61 209.605 113.873 210.255C104.865 223.131 96.9739 235.666 90.421 247.581C89.7758 248.745 89.1486 249.896 88.5393 251.036C86.6577 254.58 84.9253 258.017 83.3244 261.34C76.7058 275.176 72.608 287.193 71.0967 297.05C69.4002 308.082 70.9533 316.435 75.8277 321.596C86.4486 332.86 111.717 327.89 146.984 307.574C182.521 287.121 223.785 253.572 263.181 213.113C302.588 172.66 335.406 130.149 355.585 93.407C369.485 68.1031 376.241 47.6976 375.495 33.8076C375.495 33.5451 375.471 33.2826 375.453 33.0201C375.029 27.2624 373.29 22.6861 370.178 19.3926C359.557 8.12784 334.289 13.1099 299.022 33.4139C286.286 40.7347 272.822 49.7621 258.969 60.1676C258.707 60.3586 258.211 60.8478 258.211 60.8478L256.359 60.2273C256.359 60.2273 257.052 59.7082 257.398 59.4397C271.55 48.7776 285.313 39.5176 298.317 32.0475C334.224 11.3855 360.119 6.49898 371.253 18.2947Z" fill="#00FCDF"/>
</g>
<g clip-path="url(#clip5_50_714)">
<g style="mix-blend-mode:multiply" opacity="0.19">
<path d="M161.31 127.697C175.288 129.414 186.811 129.251 187.046 127.332C187.282 125.413 176.141 122.466 162.163 120.75C148.185 119.033 136.662 119.196 136.427 121.115C136.191 123.034 147.332 125.981 161.31 127.697Z" fill="#161632"/>
</g>
<g style="mix-blend-mode:multiply" opacity="0.44">
<path d="M152.031 124.634C158.976 125.487 164.71 125.33 164.838 124.284C164.967 123.237 159.441 121.698 152.497 120.845C145.552 119.992 139.818 120.149 139.69 121.195C139.561 122.242 145.087 123.781 152.031 124.634Z" fill="#161632"/>
</g>
</g>
<path d="M203.66 9.53033C197.903 4.86681 182.982 3.80442 175.496 3.8446C175.026 3.84712 174.628 4.18159 174.535 4.64205L166.48 44.6266C166.456 44.7439 166.446 44.869 166.507 44.972C167.064 45.9159 171.215 46.732 184.453 43.4138C198.376 39.9239 221.263 48.6826 231.183 53.5967C231.324 53.6666 231.422 53.8218 231.578 53.8413C232.032 53.8977 232.457 51.6906 231.461 42.2006C230.473 32.7861 233.453 23.9777 235.685 19.4486C236.045 18.7173 235.476 17.7932 234.661 17.7804C227.404 17.6658 210.411 14.9985 203.66 9.53033Z" fill="white"/>
<g clip-path="url(#clip6_50_714)">
<path d="M187.545 27.3615L187.528 27.4845L187.202 27.4403L187.062 28.4734L186.911 28.4529L187.051 27.4198L186.726 27.3758L186.743 27.2528L187.545 27.3615Z" fill="#012F6B"/>
<path d="M189.572 27.7616L189.52 28.1481L189.952 28.2067L189.935 28.3306L189.503 28.272L189.45 28.6673L189.933 28.7327L189.916 28.8575L189.278 28.7711L189.435 27.6158L190.072 27.7023L190.055 27.827L189.572 27.7616Z" fill="#012F6B"/>
<path d="M191.99 28.2421C192.052 28.1607 192.135 28.0977 192.231 28.0597C192.33 28.0206 192.437 28.0081 192.542 28.0237C192.662 28.0359 192.775 28.0822 192.868 28.1568C192.958 28.2325 193.019 28.3345 193.044 28.4471L192.858 28.4219C192.838 28.3517 192.796 28.289 192.739 28.2422C192.677 28.1942 192.603 28.1641 192.524 28.1554C192.446 28.1437 192.367 28.1529 192.294 28.182C192.223 28.2108 192.162 28.2589 192.118 28.3207C192.068 28.3907 192.038 28.4718 192.028 28.5565C192.015 28.6398 192.023 28.7252 192.052 28.8049C192.078 28.8764 192.124 28.9394 192.185 28.9865C192.248 29.0336 192.322 29.0633 192.4 29.0725C192.478 29.0851 192.557 29.0765 192.629 29.0476C192.697 29.0178 192.754 28.9684 192.792 28.9062L192.978 28.9314C192.924 29.0313 192.838 29.1113 192.733 29.1593C192.623 29.206 192.501 29.2204 192.383 29.2007C192.277 29.188 192.177 29.148 192.092 29.085C192.01 29.0233 191.946 28.9409 191.908 28.8467C191.869 28.7459 191.855 28.6372 191.87 28.5306C191.884 28.4239 191.926 28.3226 191.991 28.2359L191.99 28.2421Z" fill="#012F6B"/>
<path d="M195.931 28.498L195.774 29.6541L195.619 29.6331L195.69 29.1096L195.092 29.0285L195.021 29.552L194.866 29.5311L195.023 28.375L195.178 28.3959L195.109 28.9011L195.712 28.9828L195.781 28.475L195.931 28.498Z" fill="#012F6B"/>
<path d="M198.668 30.0464L198.514 30.0254L198.013 29.0201L197.888 29.9406L197.733 29.9196L197.89 28.7618L198.045 28.7827L198.546 29.7864L198.671 28.8676L198.825 28.8886L198.668 30.0464Z" fill="#012F6B"/>
<path d="M200.876 30.2808C200.793 30.2186 200.729 30.1355 200.69 30.0405C200.65 29.9398 200.637 29.831 200.651 29.7243C200.666 29.6175 200.708 29.5162 200.773 29.4297C200.835 29.3486 200.919 29.286 201.016 29.2486C201.115 29.2114 201.223 29.1995 201.328 29.2138C201.434 29.2281 201.534 29.2682 201.62 29.3304C201.703 29.3916 201.767 29.4741 201.805 29.5687C201.844 29.6696 201.857 29.7782 201.843 29.8848C201.828 29.9914 201.787 30.0927 201.722 30.1795C201.66 30.2606 201.576 30.3233 201.48 30.3608C201.381 30.3975 201.274 30.4093 201.168 30.395C201.063 30.3807 200.962 30.3408 200.876 30.279L200.876 30.2808ZM201.416 30.2402C201.488 30.211 201.55 30.1624 201.595 30.1C201.643 30.0295 201.673 29.9492 201.685 29.8652C201.696 29.7812 201.688 29.6956 201.66 29.6149C201.634 29.5435 201.588 29.4808 201.526 29.4341C201.463 29.3878 201.389 29.3579 201.311 29.3473C201.232 29.3367 201.153 29.3457 201.079 29.3735C201.008 29.401 200.946 29.4478 200.901 29.5084C200.853 29.5789 200.822 29.6591 200.811 29.7432C200.799 29.8272 200.808 29.9128 200.835 29.9935C200.861 30.0655 200.908 30.1288 200.97 30.1761C201.033 30.2232 201.107 30.253 201.186 30.2623C201.263 30.275 201.343 30.2674 201.416 30.2402Z" fill="#012F6B"/>
<path d="M203.838 30.6218L204.253 30.678L204.236 30.801L203.667 30.7238L203.823 29.5677L203.978 29.5887L203.838 30.6218Z" fill="#012F6B"/>
<path d="M206.346 31.022C206.262 30.9599 206.198 30.8768 206.16 30.7818C206.12 30.6811 206.106 30.5723 206.121 30.4655C206.135 30.3588 206.177 30.2575 206.242 30.171C206.305 30.0899 206.389 30.0272 206.485 29.9898C206.585 29.9527 206.692 29.9408 206.798 29.9551C206.903 29.9694 207.003 30.0095 207.089 30.0716C207.172 30.1329 207.236 30.2154 207.274 30.31C207.314 30.4109 207.326 30.5195 207.312 30.6261C207.298 30.7327 207.256 30.834 207.192 30.9208C207.13 31.0019 207.046 31.0646 206.949 31.1021C206.85 31.1388 206.743 31.1506 206.637 31.1363C206.532 31.122 206.432 31.0821 206.346 31.0203L206.346 31.022ZM206.885 30.9814C206.957 30.9523 207.019 30.9037 207.063 30.8412C207.111 30.7707 207.142 30.6904 207.153 30.6064C207.165 30.5223 207.156 30.4367 207.129 30.356C207.103 30.2847 207.056 30.222 206.995 30.1753C206.932 30.129 206.857 30.0991 206.779 30.0885C206.701 30.0779 206.621 30.0869 206.548 30.1147C206.476 30.1434 206.415 30.1915 206.371 30.2533C206.323 30.3237 206.292 30.404 206.28 30.4881C206.269 30.5721 206.277 30.6577 206.305 30.7384C206.331 30.8105 206.378 30.8739 206.439 30.921C206.503 30.9671 206.577 30.9968 206.655 31.0074C206.734 31.018 206.813 31.0092 206.887 30.9816L206.885 30.9814Z" fill="#012F6B"/>
<path d="M210.145 30.7657C210.123 30.6967 210.081 30.6356 210.023 30.5901C209.963 30.5431 209.89 30.5135 209.813 30.5048C209.735 30.4929 209.655 30.5017 209.582 30.5304C209.51 30.5584 209.449 30.6062 209.404 30.668C209.355 30.7368 209.324 30.8166 209.315 30.9002C209.302 30.9828 209.31 31.0673 209.339 31.1461C209.366 31.2173 209.413 31.2798 209.474 31.3261C209.538 31.3728 209.612 31.4025 209.69 31.4123C209.795 31.4302 209.902 31.4078 209.989 31.3497C210.076 31.288 210.137 31.1967 210.158 31.0936L209.685 31.0295L209.702 30.9064L210.339 30.9928L210.324 31.1089C210.303 31.2008 210.26 31.2865 210.199 31.3585C210.137 31.4298 210.057 31.4844 209.968 31.5174C209.875 31.5521 209.774 31.5626 209.675 31.5479C209.569 31.535 209.469 31.495 209.384 31.432C209.301 31.3701 209.237 31.2877 209.197 31.1935C209.158 31.0927 209.145 30.984 209.159 30.8774C209.174 30.7707 209.215 30.6694 209.28 30.5827C209.343 30.5016 209.427 30.439 209.523 30.4015C209.628 30.3624 209.742 30.3513 209.853 30.3691C209.964 30.387 210.069 30.4333 210.156 30.5033C210.245 30.5771 210.308 30.6773 210.333 30.7885L210.145 30.7657Z" fill="#012F6B"/>
<path d="M212.469 30.7395L212.312 31.8956L212.158 31.8746L212.314 30.7185L212.469 30.7395Z" fill="#012F6B"/>
<path d="M214.571 31.1496L214.519 31.5362L214.95 31.5946L214.933 31.7185L214.502 31.6601L214.448 32.0553L214.93 32.1207L214.913 32.2454L214.277 32.1591L214.433 31.0039L215.07 31.0902L215.053 31.215L214.571 31.1496Z" fill="#012F6B"/>
<path d="M217.017 32.5038C216.962 32.4719 216.917 32.4258 216.887 32.3708C216.858 32.3173 216.847 32.2564 216.855 32.1967L217.02 32.219C217.017 32.2721 217.035 32.3242 217.07 32.3653C217.114 32.413 217.176 32.4418 217.241 32.4454C217.305 32.4584 217.372 32.4477 217.428 32.4156C217.45 32.4014 217.47 32.3823 217.484 32.3598C217.498 32.3373 217.507 32.3118 217.51 32.2854C217.517 32.2466 217.509 32.2065 217.487 32.173C217.466 32.142 217.439 32.1163 217.406 32.0981C217.359 32.0731 217.311 32.0506 217.261 32.0305C217.199 32.0071 217.139 31.9787 217.081 31.9457C217.036 31.9187 216.999 31.8809 216.973 31.836C216.944 31.7801 216.934 31.7161 216.947 31.6547C216.954 31.5951 216.979 31.5391 217.019 31.4938C217.059 31.4483 217.113 31.4157 217.173 31.4C217.241 31.3807 217.313 31.3765 217.383 31.3877C217.479 31.3978 217.57 31.4391 217.64 31.5052C217.671 31.5357 217.695 31.572 217.71 31.6119C217.726 31.6518 217.733 31.6944 217.731 31.7369L217.561 31.7139C217.56 31.6664 217.54 31.621 217.505 31.5873C217.462 31.5455 217.406 31.5197 217.346 31.5141C217.289 31.5039 217.231 31.5136 217.181 31.5415C217.158 31.5554 217.139 31.5742 217.125 31.5965C217.111 31.6188 217.103 31.644 217.1 31.6702C217.094 31.7076 217.102 31.7461 217.123 31.7781C217.144 31.8084 217.172 31.8335 217.204 31.8513C217.238 31.8695 217.286 31.892 217.348 31.9188C217.41 31.9438 217.471 31.9731 217.529 32.0063C217.574 32.0336 217.612 32.0717 217.638 32.1171C217.668 32.173 217.678 32.2369 217.666 32.2985C217.658 32.3546 217.635 32.4074 217.598 32.4512C217.558 32.4985 217.506 32.5341 217.446 32.554C217.376 32.5774 217.3 32.5834 217.227 32.5714C217.153 32.564 217.081 32.5409 217.017 32.5038Z" fill="#012F6B"/>
<path d="M199.27 23.102L199.09 24.4266L200.842 23.0689C200.908 23.0154 200.978 22.9678 201.053 22.927C201.12 22.8964 201.195 22.8873 201.268 22.901C201.369 22.9103 201.463 22.9585 201.529 23.0349C201.558 23.0692 201.58 23.1092 201.593 23.1523C201.605 23.1954 201.608 23.2405 201.601 23.2847C201.588 23.3485 201.561 23.4088 201.522 23.4618C201.484 23.5149 201.434 23.5595 201.377 23.5929L200.306 24.3452L201.196 26.0297C201.252 26.1267 201.299 26.2283 201.337 26.3332C201.364 26.411 201.373 26.4935 201.364 26.5749C201.357 26.6168 201.341 26.6568 201.318 26.692C201.294 26.7273 201.262 26.757 201.225 26.7791C201.142 26.8318 201.042 26.8519 200.944 26.8352C200.849 26.8266 200.759 26.7902 200.685 26.7308C200.62 26.6739 200.567 26.6041 200.531 26.526C200.493 26.4444 200.461 26.3699 200.432 26.3028L199.694 24.7811L198.971 25.2954L198.865 26.078C198.857 26.2052 198.801 26.3245 198.707 26.412C198.665 26.4449 198.617 26.4688 198.565 26.482C198.513 26.4952 198.459 26.4974 198.406 26.4885C198.338 26.4789 198.274 26.4522 198.22 26.4109C198.164 26.37 198.122 26.315 198.096 26.252C198.077 26.196 198.069 26.137 198.073 26.0783C198.077 26.0147 198.087 25.922 198.104 25.8016L198.484 22.9955C198.49 22.8693 198.544 22.7501 198.635 22.6605C198.676 22.6266 198.724 22.602 198.776 22.5886C198.828 22.5751 198.882 22.5733 198.935 22.583C198.989 22.5884 199.04 22.6048 199.087 22.6312C199.134 22.6576 199.174 22.6933 199.206 22.7361C199.274 22.8459 199.297 22.9768 199.27 23.102Z" fill="#F58020"/>
<path d="M204.653 25.8816C204.629 26.0793 204.568 26.2709 204.475 26.4474C204.389 26.6093 204.269 26.7514 204.122 26.8643C203.977 26.9752 203.808 27.0539 203.628 27.095C203.429 27.1398 203.223 27.1471 203.021 27.1167C202.819 27.0921 202.624 27.03 202.445 26.9338C202.283 26.8443 202.142 26.7223 202.032 26.5759C201.921 26.4294 201.843 26.2619 201.804 26.0845C201.761 25.8897 201.754 25.6893 201.783 25.4925C201.808 25.2929 201.869 25.0993 201.962 24.9206C202.048 24.7601 202.167 24.6191 202.312 24.5068C202.457 24.3965 202.626 24.3184 202.805 24.2778C203.003 24.2342 203.208 24.227 203.408 24.2565C203.612 24.2811 203.808 24.3434 203.988 24.4399C204.152 24.528 204.294 24.6494 204.405 24.7958C204.517 24.9421 204.595 25.11 204.634 25.288C204.676 25.4834 204.682 25.6843 204.653 25.8816ZM203.93 25.7835C203.969 25.4968 203.934 25.2646 203.827 25.0871C203.776 25.0009 203.706 24.9275 203.621 24.873C203.536 24.8185 203.439 24.7845 203.338 24.7739C203.206 24.7535 203.071 24.7733 202.951 24.8307C202.827 24.8941 202.726 24.9924 202.66 25.113C202.502 25.4103 202.456 25.7528 202.529 26.0815C202.559 26.215 202.629 26.3372 202.729 26.4329C202.857 26.5406 203.02 26.599 203.188 26.597C203.356 26.5951 203.518 26.5329 203.641 26.4224C203.796 26.2798 203.892 26.0669 203.93 25.7835Z" fill="#012F6B"/>
<path d="M207.057 27.2541L207.067 27.1843C206.968 27.2697 206.86 27.3444 206.745 27.4073C206.643 27.462 206.533 27.5001 206.418 27.5202C206.297 27.5409 206.174 27.5425 206.053 27.5249C205.886 27.5039 205.727 27.4448 205.588 27.3526C205.449 27.2599 205.332 27.1378 205.247 26.9955C205.155 26.8417 205.094 26.6723 205.066 26.4965C205.035 26.3004 205.034 26.1011 205.062 25.905C205.122 25.4652 205.278 25.1375 205.531 24.9218C205.655 24.8155 205.802 24.7378 205.961 24.6945C206.12 24.6511 206.287 24.6433 206.45 24.6714C206.632 24.6907 206.807 24.7506 206.962 24.8465C207.108 24.9504 207.233 25.0791 207.332 25.2264L207.473 24.188C207.481 24.0712 207.528 23.9604 207.607 23.873C207.642 23.8402 207.684 23.8161 207.731 23.8028C207.777 23.7894 207.826 23.7872 207.874 23.7963C207.922 23.8 207.968 23.8141 208.009 23.8375C208.05 23.861 208.086 23.8932 208.112 23.9317C208.166 24.0274 208.183 24.1384 208.161 24.2449L207.741 27.3467C207.735 27.4566 207.686 27.5599 207.605 27.6358C207.569 27.6644 207.528 27.6852 207.483 27.6967C207.438 27.7083 207.391 27.7104 207.345 27.7028C207.299 27.6977 207.255 27.6827 207.215 27.6588C207.175 27.635 207.141 27.603 207.116 27.565C207.057 27.472 207.036 27.3609 207.057 27.2541ZM205.779 26.0288C205.751 26.1947 205.759 26.3647 205.803 26.5278C205.837 26.6572 205.91 26.7742 206.011 26.8644C206.104 26.9454 206.22 26.9973 206.343 27.0134C206.466 27.0311 206.592 27.0138 206.704 26.9637C206.826 26.9061 206.927 26.8147 206.995 26.701C207.084 26.5525 207.139 26.387 207.156 26.2155C207.183 26.0502 207.173 25.8811 207.128 25.7194C207.091 25.5884 207.018 25.4696 206.917 25.3762C206.824 25.292 206.706 25.2379 206.581 25.2214C206.453 25.2018 206.322 25.2234 206.208 25.2828C206.088 25.348 205.989 25.4456 205.924 25.5642C205.845 25.7082 205.796 25.866 205.779 26.0288Z" fill="#012F6B"/>
<path d="M210.594 26.8626L209.181 26.6711C209.16 26.8173 209.174 26.9664 209.222 27.1068C209.264 27.2284 209.34 27.3361 209.441 27.4173C209.54 27.4936 209.657 27.5421 209.781 27.5575C209.861 27.5694 209.942 27.5702 210.021 27.5599C210.098 27.5494 210.172 27.5277 210.241 27.4955C210.312 27.4638 210.38 27.4269 210.445 27.3853C210.508 27.345 210.59 27.2895 210.69 27.2196C210.74 27.1916 210.799 27.1824 210.855 27.1939C210.921 27.2001 210.981 27.2299 211.026 27.2775C211.046 27.302 211.061 27.3305 211.069 27.3611C211.077 27.3916 211.078 27.4235 211.072 27.4544C211.056 27.5333 211.019 27.6067 210.965 27.6673C210.892 27.7541 210.802 27.8264 210.701 27.8803C210.572 27.9513 210.433 28.0005 210.287 28.0259C210.106 28.0565 209.921 28.0582 209.74 28.0309C209.277 27.9681 208.934 27.7904 208.712 27.4979C208.49 27.2054 208.41 26.8373 208.472 26.3938C208.495 26.1969 208.551 26.0054 208.64 25.8274C208.721 25.6655 208.837 25.5225 208.979 25.4077C209.121 25.2951 209.287 25.2159 209.466 25.176C209.665 25.1311 209.872 25.1235 210.075 25.1538C210.329 25.1812 210.571 25.2755 210.776 25.4265C210.953 25.5581 211.089 25.7354 211.168 25.9382C211.242 26.1233 211.267 26.3231 211.242 26.5196C211.219 26.6941 211.151 26.8048 211.04 26.8475C210.894 26.8859 210.742 26.8911 210.594 26.8626ZM209.235 26.2715L210.542 26.4486C210.568 26.2516 210.524 26.0513 210.416 25.8816C210.365 25.8147 210.3 25.759 210.226 25.7183C210.151 25.6776 210.069 25.6527 209.984 25.6453C209.901 25.6315 209.817 25.6352 209.736 25.6562C209.656 25.6772 209.581 25.7149 209.517 25.7668C209.369 25.9004 209.27 26.0775 209.235 26.2715Z" fill="#012F6B"/>
<path d="M214.426 25.3508L212.882 25.1414L212.751 26.1073L214.042 26.2824C214.139 26.2881 214.231 26.3291 214.3 26.3972C214.326 26.4284 214.345 26.4648 214.356 26.5038C214.366 26.5428 214.368 26.5836 214.36 26.6231C214.357 26.6625 214.345 26.7005 214.324 26.7345C214.304 26.7685 214.276 26.7976 214.243 26.8196C214.158 26.8664 214.059 26.8811 213.964 26.8608L212.672 26.6858L212.504 27.9266C212.497 28.0536 212.441 28.173 212.347 28.2607C212.306 28.2937 212.259 28.3176 212.208 28.331C212.156 28.3443 212.103 28.3466 212.051 28.3378C211.997 28.3329 211.945 28.3168 211.899 28.2905C211.852 28.2643 211.812 28.2285 211.781 28.1857C211.714 28.0759 211.692 27.9462 211.719 27.8219L212.113 24.9137C212.122 24.8211 212.151 24.7317 212.199 24.6518C212.24 24.5881 212.304 24.5413 212.378 24.5204C212.469 24.4979 212.564 24.4944 212.657 24.5103L214.505 24.7608C214.606 24.7666 214.702 24.809 214.773 24.8798C214.799 24.9107 214.818 24.9468 214.829 24.9855C214.839 25.0242 214.841 25.0646 214.834 25.1039C214.83 25.1443 214.818 25.1834 214.798 25.2185C214.777 25.2536 214.749 25.2839 214.715 25.3073C214.628 25.3564 214.525 25.3719 214.426 25.3508Z" fill="#F58020"/>
<path d="M217.576 27.633C217.551 27.8307 217.491 28.0223 217.397 28.1987C217.311 28.3607 217.191 28.5028 217.045 28.6157C216.899 28.7263 216.73 28.805 216.551 28.8464C216.352 28.8912 216.145 28.8985 215.943 28.868C215.741 28.8435 215.546 28.7814 215.368 28.6852C215.205 28.5957 215.064 28.4737 214.954 28.3272C214.843 28.1808 214.766 28.0133 214.726 27.8358C214.683 27.6411 214.676 27.4406 214.705 27.2439C214.73 27.0442 214.791 26.8507 214.885 26.672C214.97 26.5113 215.089 26.3703 215.234 26.2582C215.379 26.1479 215.548 26.0698 215.728 26.0292C215.925 25.9856 216.13 25.9784 216.331 26.0078C216.534 26.0325 216.731 26.0948 216.91 26.1913C217.074 26.2794 217.216 26.4008 217.328 26.5471C217.439 26.6935 217.517 26.8614 217.556 27.0394C217.598 27.2348 217.605 27.4357 217.576 27.633ZM216.852 27.5349C216.891 27.2481 216.857 27.016 216.749 26.8385C216.699 26.7523 216.628 26.6789 216.543 26.6244C216.458 26.5699 216.361 26.5359 216.261 26.5253C216.128 26.5048 215.993 26.5246 215.873 26.582C215.749 26.6454 215.648 26.7438 215.583 26.8643C215.424 27.1616 215.378 27.5042 215.451 27.8328C215.483 27.9659 215.553 28.0873 215.654 28.182C215.782 28.2897 215.946 28.3481 216.114 28.3462C216.282 28.3442 216.443 28.2821 216.567 28.1715C216.719 28.0305 216.814 27.8183 216.852 27.5349Z" fill="#012F6B"/>
<path d="M218.803 28.2213L218.722 28.8138C218.715 28.9292 218.662 29.0371 218.576 29.1156C218.538 29.1461 218.494 29.1683 218.446 29.1807C218.399 29.1931 218.349 29.1955 218.3 29.1875C218.252 29.1821 218.205 29.1666 218.163 29.1419C218.122 29.1172 218.086 29.084 218.058 29.0445C217.999 28.9452 217.979 28.8284 218.002 28.7161L218.268 26.7529C218.311 26.437 218.449 26.295 218.683 26.3267C218.733 26.329 218.782 26.3436 218.824 26.3691C218.867 26.3946 218.902 26.4302 218.927 26.4726C218.974 26.5795 218.99 26.6971 218.972 26.8119C219.058 26.6976 219.163 26.5991 219.285 26.521C219.399 26.4567 219.533 26.4349 219.663 26.4594C219.817 26.4809 219.963 26.5396 220.089 26.63C220.146 26.6618 220.193 26.7091 220.224 26.7663C220.255 26.8234 220.268 26.888 220.262 26.9521C220.259 26.992 220.246 27.0305 220.226 27.0651C220.205 27.0997 220.177 27.1297 220.144 27.1529C220.086 27.1994 220.011 27.2211 219.936 27.2135C219.871 27.1957 219.809 27.1709 219.751 27.1396C219.668 27.0989 219.58 27.0707 219.489 27.0561C219.396 27.0396 219.301 27.0559 219.219 27.1022C219.137 27.1567 219.072 27.2328 219.031 27.322C218.974 27.4399 218.931 27.564 218.903 27.692C218.865 27.8337 218.831 28.0102 218.803 28.2213Z" fill="#012F6B"/>
<path d="M222.904 28.4075L222.777 29.3429C222.77 29.4637 222.717 29.5772 222.628 29.6613C222.59 29.693 222.544 29.7161 222.495 29.729C222.446 29.7418 222.395 29.7441 222.345 29.7357C222.294 29.731 222.245 29.7154 222.202 29.6899C222.158 29.6645 222.12 29.6298 222.092 29.5885C222.031 29.4834 222.011 29.3603 222.036 29.2424L222.188 28.1212C222.209 27.9841 222.223 27.8459 222.227 27.7072C222.231 27.6179 222.208 27.5294 222.16 27.4528C222.131 27.4147 222.094 27.3834 222.051 27.361C222.009 27.3386 221.962 27.3258 221.913 27.3234C221.678 27.2915 221.512 27.349 221.415 27.4976C221.301 27.7027 221.232 27.929 221.211 28.1621L221.083 29.1132C221.075 29.2331 221.023 29.346 220.936 29.4301C220.896 29.4611 220.851 29.4839 220.802 29.4971C220.753 29.5103 220.702 29.5136 220.652 29.5068C220.602 29.5 220.554 29.4832 220.51 29.4575C220.467 29.4318 220.429 29.3977 220.399 29.3574C220.336 29.2536 220.314 29.1304 220.339 29.0125L220.612 26.9995C220.619 26.8902 220.667 26.7874 220.747 26.7112C220.782 26.6817 220.823 26.6602 220.868 26.6481C220.913 26.6361 220.96 26.6338 221.006 26.6415C221.052 26.6466 221.096 26.6607 221.136 26.6831C221.177 26.7055 221.212 26.7357 221.24 26.7718C221.269 26.8119 221.29 26.8573 221.301 26.9054C221.312 26.9535 221.312 27.0031 221.303 27.0514L221.294 27.1186C221.421 27 221.573 26.9088 221.739 26.851C221.896 26.801 222.064 26.7878 222.228 26.8124C222.391 26.8299 222.547 26.8881 222.681 26.9814C222.806 27.0752 222.903 27.2008 222.96 27.3444C223.084 27.227 223.232 27.1358 223.394 27.0762C223.546 27.026 223.708 27.0118 223.867 27.0346C224.045 27.0537 224.215 27.1165 224.361 27.2171C224.491 27.3078 224.587 27.4368 224.636 27.5849C224.682 27.7866 224.685 27.9951 224.645 28.1974L224.458 29.5707C224.451 29.6913 224.398 29.8048 224.31 29.8892C224.271 29.9213 224.225 29.9445 224.175 29.9573C224.125 29.97 224.073 29.972 224.023 29.9631C223.972 29.9579 223.923 29.9419 223.879 29.9162C223.836 29.8904 223.798 29.8556 223.77 29.8142C223.709 29.7096 223.691 29.587 223.719 29.4705L223.879 28.2873C223.898 28.1663 223.907 28.0441 223.909 27.9217C223.909 27.8348 223.883 27.7496 223.832 27.6777C223.802 27.6401 223.764 27.6093 223.721 27.5872C223.678 27.5651 223.63 27.5522 223.581 27.5494C223.485 27.5374 223.388 27.5533 223.302 27.5951C223.209 27.6388 223.13 27.706 223.072 27.7897C223.001 27.9008 222.945 28.1068 222.904 28.4075Z" fill="#012F6B"/>
<path d="M181.789 19.5333C182.095 19.5747 182.348 19.5735 182.576 19.6497C182.849 19.74 183.056 19.6943 183.299 19.5602C184.156 19.0872 185.018 19.1223 185.87 19.6109C186.307 19.8622 186.411 19.8407 186.753 19.4729C189.088 16.9532 193.651 17.7972 194.871 20.9713C194.889 21.0177 194.917 21.06 194.952 21.0954C194.988 21.1309 195.03 21.1587 195.078 21.177C195.325 21.2345 195.581 21.2541 195.87 21.2932C195.856 21.1286 195.83 20.9651 195.793 20.8039C195.564 20.0674 195.22 19.3934 194.662 18.8282C192.523 16.6722 188.655 16.5327 186.399 18.5372C186.254 18.6661 186.153 18.7528 185.928 18.6512C184.593 18.0571 183.18 18.2725 181.789 19.5333Z" fill="#012F6B"/>
<path d="M194.974 22.6832C196.405 22.5769 197.398 23.8115 196.906 25.0262C196.589 25.8113 195.847 26.2155 194.901 26.0944C193.638 25.933 192.377 25.7524 191.114 25.5865C190.98 25.5683 190.817 25.5187 190.715 25.5705C190.559 25.6499 190.374 25.791 190.338 25.9335C190.311 26.0401 190.48 26.2282 190.604 26.3251C190.699 26.401 190.86 26.4086 190.993 26.4266C192.304 26.6044 193.616 26.7798 194.929 26.9529C195.547 27.0431 196.176 26.9104 196.699 26.5797C197.239 26.2435 197.635 25.7257 197.811 25.1231C197.988 24.5205 197.933 23.8744 197.657 23.3055C197.047 22.0223 195.652 21.6121 194.447 21.8717C194.302 21.9027 194.105 22.0822 194.082 22.2186C193.934 23.0989 193.811 23.9826 193.714 24.8699C193.675 25.2272 194.052 25.4889 194.356 25.3194C194.52 25.2072 194.633 25.0361 194.669 24.843C194.794 24.1321 194.875 23.4136 194.974 22.6832Z" fill="#012F6B"/>
<path d="M182.495 20.9849L182.372 21.8906C182.329 22.2126 182.509 22.3632 182.807 22.4027C183.105 22.4422 183.313 22.3379 183.352 22.0136C183.397 21.6306 183.441 21.2464 183.507 20.8671C183.556 20.5919 183.433 20.4233 183.203 20.3105C183.058 20.2419 182.908 20.1858 182.753 20.1429C181.703 19.8308 180.733 19.9579 179.945 20.7344C179.193 21.481 178.953 22.3887 179.311 23.3959C179.68 24.4305 180.461 24.9956 181.563 25.1477C182.787 25.3136 184.01 25.4874 185.235 25.6524C185.382 25.6705 185.531 25.6758 185.679 25.6682C185.893 25.6599 186.069 25.5905 186.087 25.3424C186.105 25.0942 185.999 24.943 185.763 24.8799C185.595 24.8395 185.425 24.8081 185.253 24.7859C183.993 24.608 182.726 24.4692 181.475 24.2463C181.24 24.2048 181.016 24.1164 180.817 23.9868C180.618 23.8571 180.449 23.689 180.319 23.4928C180.189 23.2967 180.102 23.0767 180.064 22.8468C180.025 22.6169 180.035 22.3819 180.093 22.1566C180.379 21.1291 181.387 20.6171 182.495 20.9849Z" fill="#012F6B"/>
<path d="M193.107 23.1997L193.132 23.2031C193.167 22.9414 193.203 22.6796 193.238 22.4178C193.274 22.1561 193.197 21.9263 192.881 21.8878C192.565 21.8494 192.445 22.0446 192.408 22.3177C192.343 22.795 192.284 23.274 192.213 23.7513C192.148 24.1671 191.963 24.3154 191.608 24.2636C191.252 24.2119 191.125 24.0205 191.174 23.6015C191.233 23.0986 191.31 22.5972 191.368 22.0941C191.395 21.8455 191.279 21.6715 191.007 21.6338C190.752 21.5993 190.586 21.7278 190.553 21.9553C190.468 22.5879 190.37 23.2207 190.336 23.8576C190.309 24.34 190.58 24.6957 191.061 24.8364C191.356 24.9252 191.662 24.9713 191.97 24.973C192.208 24.9756 192.439 24.8964 192.621 24.7493C192.804 24.6021 192.928 24.3965 192.97 24.1684C193.043 23.8504 193.063 23.5226 193.107 23.1997Z" fill="#012F6B"/>
<path d="M184.679 23.2615C184.703 23.087 184.72 22.957 184.738 22.8253C184.808 22.3122 184.877 21.7992 184.941 21.2853C184.977 21.0174 184.902 20.793 184.581 20.7568C184.261 20.7205 184.144 20.9205 184.107 21.1901C184.01 21.9065 183.913 22.6228 183.816 23.3383C183.766 23.7065 183.882 23.8563 184.254 23.9147C184.705 23.9856 185.159 24.0374 185.611 24.0987C185.852 24.1313 186.076 24.1075 186.124 23.8252C186.174 23.5201 185.959 23.4315 185.701 23.3982C185.375 23.3576 185.048 23.3116 184.679 23.2615Z" fill="#012F6B"/>
<path d="M181.789 19.5333C183.18 18.2725 184.593 18.0571 185.927 18.6528C186.153 18.7537 186.254 18.667 186.397 18.5389C188.653 16.5344 192.521 16.6739 194.661 18.8298C195.222 19.3928 195.563 20.069 195.792 20.8055C195.829 20.9664 195.854 21.1296 195.867 21.2938C195.578 21.2546 195.322 21.235 195.075 21.1775C195.028 21.1592 194.985 21.1314 194.949 21.096C194.914 21.0605 194.886 21.0183 194.869 20.9719C193.651 17.7972 189.088 16.9532 186.753 19.4729C186.411 19.8407 186.307 19.8622 185.87 19.6109C185.018 19.1223 184.156 19.0872 183.299 19.5602C183.061 19.695 182.849 19.74 182.576 19.6497C182.348 19.5736 182.095 19.5748 181.789 19.5333Z" fill="#012F6B"/>
<path d="M194.974 22.6833C194.875 23.4136 194.794 24.1321 194.669 24.8438C194.632 25.0369 194.519 25.2075 194.354 25.3192C194.051 25.4887 193.674 25.227 193.712 24.8696C193.81 23.9825 193.933 23.0987 194.08 22.2183C194.103 22.0819 194.3 21.9024 194.445 21.8715C195.65 21.6154 197.045 22.0221 197.655 23.3053C197.931 23.874 197.986 24.52 197.81 25.1227C197.634 25.7253 197.239 26.2433 196.699 26.5797C196.177 26.9116 195.548 27.0456 194.929 26.9566C193.617 26.784 192.305 26.6086 190.993 26.4303C190.86 26.4122 190.699 26.4046 190.605 26.3287C190.481 26.2284 190.312 26.0403 190.338 25.9371C190.375 25.7911 190.559 25.6534 190.715 25.5742C190.818 25.5223 190.98 25.5728 191.114 25.5901C192.377 25.7612 193.639 25.9322 194.902 26.098C195.847 26.2147 196.588 25.8139 196.909 25.0266C197.398 23.815 196.405 22.5769 194.974 22.6833Z" fill="#012F6B"/>
<path d="M182.495 20.9849C181.387 20.617 180.379 21.129 180.093 22.1566C180.034 22.382 180.024 22.6173 180.062 22.8475C180.101 23.0777 180.188 23.2979 180.317 23.4944C180.447 23.6908 180.617 23.8592 180.816 23.9891C181.015 24.1189 181.239 24.2074 181.474 24.2489C182.725 24.4717 183.992 24.6106 185.252 24.7885C185.424 24.8107 185.594 24.8421 185.762 24.8825C185.999 24.943 186.105 25.1067 186.089 25.3426C186.072 25.5785 185.895 25.6602 185.68 25.6684C185.532 25.676 185.384 25.6707 185.236 25.6526C184.012 25.4867 182.788 25.3208 181.564 25.1479C180.463 24.9986 179.682 24.4307 179.313 23.3962C178.953 22.3886 179.193 21.481 179.947 20.7346C180.735 19.9529 181.703 19.8308 182.755 20.1431C182.909 20.1861 183.06 20.2421 183.204 20.3107C183.434 20.4235 183.557 20.5921 183.509 20.8673C183.442 21.2465 183.398 21.6307 183.353 22.0138C183.314 22.3381 183.113 22.4433 182.809 22.4029C182.505 22.3626 182.33 22.2128 182.374 21.8908L182.495 20.9849Z" fill="#F58020"/>
<path d="M193.107 23.1997C193.063 23.5226 193.043 23.8504 192.97 24.1658C192.928 24.3942 192.803 24.6 192.62 24.7469C192.436 24.8939 192.205 24.9725 191.967 24.969C191.659 24.9673 191.353 24.9213 191.058 24.8324C190.577 24.6917 190.305 24.336 190.333 23.8536C190.367 23.2167 190.46 22.5833 190.55 21.9514C190.581 21.7236 190.749 21.5935 191.004 21.6298C191.272 21.6662 191.392 21.8415 191.365 22.0902C191.309 22.5936 191.229 23.0945 191.17 23.5975C191.121 24.0209 191.25 24.208 191.604 24.2597C191.959 24.3113 192.145 24.1632 192.21 23.7473C192.285 23.2705 192.345 22.7881 192.405 22.3137C192.442 22.0406 192.559 21.8451 192.878 21.8839C193.197 21.9227 193.271 22.1397 193.235 22.4139C193.2 22.6881 193.164 22.9374 193.129 23.1992L193.107 23.1997Z" fill="#012F6B"/>
<path d="M184.679 23.2615C185.048 23.3116 185.375 23.3558 185.702 23.4002C185.961 23.4352 186.176 23.5221 186.125 23.8272C186.078 24.1095 185.853 24.1333 185.613 24.1007C185.16 24.0394 184.707 23.9868 184.255 23.9167C183.883 23.8583 183.771 23.7089 183.818 23.3403C183.909 22.624 184.012 21.9085 184.109 21.1921C184.146 20.9216 184.263 20.7261 184.583 20.7614C184.902 20.7967 184.976 21.0208 184.939 21.2886C184.877 21.8026 184.805 22.3153 184.737 22.8286C184.721 22.9615 184.703 23.0853 184.679 23.2615Z" fill="#012F6B"/>
<path d="M188.36 21.2662C187.41 21.1427 186.736 21.6725 186.604 22.6428C186.469 23.6517 186.984 24.3425 187.977 24.4691C188.938 24.5923 189.612 24.0483 189.734 23.0545C189.856 22.0607 189.34 21.3919 188.36 21.2662ZM188.232 23.7715C187.703 23.8402 187.37 23.4129 187.457 22.7716C187.544 22.1303 187.962 21.804 188.47 22.0107C188.811 22.1457 188.954 22.476 188.889 22.9559C188.824 23.4358 188.586 23.7261 188.232 23.7715Z" fill="#012F6B"/>
</g>
<rect x="171.138" width="7" height="124.912" rx="3.5" transform="rotate(11.142 171.138 0)" fill="url(#paint1_linear_50_714)"/>
<defs>
<radialGradient id="paint0_radial_50_714" cx="0" cy="0" r="1" gradientUnits="userSpaceOnUse" gradientTransform="translate(152.278 162.147) rotate(-81.2801) scale(154.226 154.224)">
<stop offset="0.05" stop-color="#A0EAFF"/>
<stop offset="0.26" stop-color="#4CC0E1"/>
<stop offset="0.36" stop-color="#2BB0D5"/>
<stop offset="0.42" stop-color="#2AABD0"/>
<stop offset="0.49" stop-color="#289EC2"/>
<stop offset="0.56" stop-color="#2589AC"/>
<stop offset="0.64" stop-color="#216C8D"/>
<stop offset="0.71" stop-color="#1C4564"/>
<stop offset="0.79" stop-color="#161632"/>
<stop offset="0.84" stop-color="#171834"/>
<stop offset="0.87" stop-color="#1D203C"/>
<stop offset="0.9" stop-color="#262E4A"/>
<stop offset="0.92" stop-color="#33425D"/>
<stop offset="0.94" stop-color="#445D76"/>
<stop offset="0.96" stop-color="#597C95"/>
<stop offset="0.97" stop-color="#71A3BA"/>
<stop offset="0.99" stop-color="#8DCDE3"/>
<stop offset="1" stop-color="#A0EAFF"/>
</radialGradient>
<linearGradient id="paint1_linear_50_714" x1="174.638" y1="0" x2="174.638" y2="124.912" gradientUnits="userSpaceOnUse">
<stop stop-color="#197C9B"/>
<stop offset="0.63397" stop-color="#197C9B" stop-opacity="0.6"/>
<stop offset="1" stop-color="#436D86"/>
</linearGradient>
<clipPath id="clip0_50_714">
<rect width="210" height="210" fill="white" transform="translate(97 46)"/>
</clipPath>
<clipPath id="clip1_50_714">
<rect width="403" height="205" fill="white" transform="translate(0 66)"/>
</clipPath>
<clipPath id="clip2_50_714">
<rect width="380" height="222" fill="white" transform="translate(11 60)"/>
</clipPath>
<clipPath id="clip3_50_714">
<rect width="303" height="276" fill="white" transform="translate(64 30)"/>
</clipPath>
<clipPath id="clip4_50_714">
<rect width="308" height="317" fill="white" transform="translate(69 12)"/>
</clipPath>
<clipPath id="clip5_50_714">
<rect width="51" height="7" fill="white" transform="translate(136.853 117.641) rotate(7.00188)"/>
</clipPath>
<clipPath id="clip6_50_714">
<rect width="45.875" height="11.7628" fill="white" transform="translate(180.055 15.6649) rotate(7.71832)"/>
</clipPath>
</defs>
</svg>
