<svg width="20" height="21" viewBox="0 0 20 21" fill="none" xmlns="http://www.w3.org/2000/svg">
<path d="M10 1C11.0406 1 12.0568 1.00044 13.0781 1.03027L14.1025 1.07031L14.1055 1.07129C15.5429 1.13546 16.7509 1.44725 17.7607 2.35059L17.96 2.53906L17.9619 2.54102C18.9424 3.50963 19.3131 4.6985 19.4121 6.1084L19.4277 6.39355L19.4287 6.39746C19.4993 7.76811 19.499 9.11239 19.499 10.5C19.499 11.7197 19.51 12.9073 19.4561 14.0908L19.4287 14.5977L19.4277 14.6064C19.3635 16.0439 19.0518 17.2519 18.1484 18.2617L17.96 18.4609L17.958 18.4629C16.9894 19.4435 15.8006 19.8141 14.3906 19.9131L14.1055 19.9287L14.1025 19.9297C12.732 20.0003 11.3875 20 10 20C8.9592 20 7.94235 19.9996 6.9209 19.9697L5.89648 19.9297L5.89355 19.9287L5.60938 19.9131C4.29605 19.8209 3.18088 19.4926 2.23828 18.6494L2.03906 18.4609L2.03711 18.459L1.84863 18.2617C1.00818 17.3304 0.679279 16.2074 0.586914 14.8916L0.571289 14.6064L0.570312 14.6025L0.530273 13.5791C0.500422 12.5575 0.5 11.541 0.5 10.5C0.5 9.45905 0.500421 8.4425 0.530273 7.4209L0.570312 6.39746L0.571289 6.39355C0.635482 4.95608 0.947252 3.74814 1.85059 2.73828L2.03906 2.53906L2.04102 2.53711C3.00964 1.55648 4.19846 1.18586 5.6084 1.08691L5.89355 1.07129L5.89648 1.07031C7.26718 0.999655 8.61234 1 10 1ZM10 4.87109C6.88111 4.87109 4.37109 7.38102 4.37109 10.5C4.37109 13.619 6.88111 16.1289 10 16.1289C13.1187 16.1287 15.6279 13.6188 15.6279 10.5C15.6279 7.38117 13.1187 4.87133 10 4.87109ZM10 7.67188C11.5521 7.67212 12.8281 8.9477 12.8281 10.5C12.8281 12.0523 11.5521 13.3279 10 13.3281C8.44767 13.3281 7.1709 12.0524 7.1709 10.5C7.1709 8.94615 8.43478 7.67188 10 7.67188ZM15.3418 3.45703C14.3944 3.45723 13.6426 4.2098 13.6426 5.15723C13.6426 6.10848 14.4126 6.85722 15.3418 6.85742H15.5488L15.5762 6.8291C15.6663 6.81841 15.7556 6.80276 15.8428 6.77734L16.002 6.72168C16.207 6.63825 16.392 6.5135 16.5479 6.35645L16.5488 6.35742C16.55 6.35623 16.5505 6.35374 16.5518 6.35254C16.553 6.3513 16.5554 6.35085 16.5566 6.34961L16.5557 6.34863C16.6728 6.23237 16.7724 6.10026 16.8496 5.95508L16.9209 5.80273C17.0057 5.59432 17.0472 5.37045 17.042 5.14551H17.041C17.0349 4.20344 16.2855 3.45703 15.3418 3.45703Z" stroke="white"/>
</svg>
