<svg width="20" height="19" viewBox="0 0 20 19" fill="none" xmlns="http://www.w3.org/2000/svg">
<path d="M12.585 6.43506C13.3981 6.11603 14.3452 6.00685 15.2393 6.15869C16.1299 6.31006 16.9521 6.71641 17.5518 7.4126C18.1488 8.10598 18.5596 9.12722 18.5596 10.5708V18.0005H15.6104V11.9302C15.6103 10.8302 15.2803 9.96957 14.7285 9.38525C14.1772 8.80157 13.4389 8.53202 12.707 8.55811C11.2257 8.61098 9.83999 9.85163 9.83984 11.9302V18.0005H6.90039V6.48096H9.86719L9.83984 7.64893L10.7783 7.90088C11.1234 7.27104 11.7694 6.75515 12.585 6.43506ZM3.55957 6.48096V18.0005H0.55957V6.48096H3.55957ZM2.00098 0.999512C2.3987 0.999771 2.78042 1.1576 3.06152 1.43896C3.34269 1.72041 3.5002 2.10266 3.5 2.50049C3.49974 2.89821 3.34191 3.27993 3.06055 3.56104C2.7791 3.8422 2.39685 3.99971 1.99902 3.99951C1.65109 3.99929 1.31555 3.87836 1.04883 3.65967L0.938477 3.56006C0.657313 3.27861 0.499801 2.89636 0.5 2.49854L0.507812 2.3501C0.537248 2.05603 0.652457 1.77688 0.839844 1.54834L0.939453 1.43799C1.18574 1.19195 1.5091 1.04025 1.85254 1.00635L2.00098 0.999512Z" stroke="white"/>
</svg>
