<svg width="185" height="51" viewBox="0 0 185 51" fill="none" xmlns="http://www.w3.org/2000/svg">
<g clip-path="url(#clip0_2_6)">
<path d="M36.2653 45.8939V46.4322H34.937V50.9523H34.3219V46.4322H33.0009V45.8939H36.2653Z" fill="white"/>
<path d="M44.5848 46.4322V48.1234H46.3425V48.6655H44.5848V50.3949H46.55V50.9409H43.9552V45.8863H46.55V46.4322H44.5848Z" fill="white"/>
<path d="M54.5055 47.0889C54.7081 46.7035 55.0077 46.3839 55.3717 46.165C55.7429 45.9394 56.1654 45.8234 56.5945 45.829C57.0788 45.812 57.5572 45.9448 57.9701 46.2108C58.3676 46.4843 58.6692 46.8864 58.829 47.3561H58.072C57.9527 47.0662 57.7521 46.8212 57.497 46.6536C57.2246 46.4831 56.9116 46.397 56.5945 46.4055C56.2765 46.4005 55.9633 46.4863 55.6883 46.6536C55.4184 46.8177 55.1997 47.0604 55.0587 47.3523C54.8996 47.682 54.8208 48.0479 54.8294 48.4174C54.8215 48.7831 54.9003 49.1452 55.0587 49.4711C55.1996 49.764 55.4183 50.0079 55.6883 50.1735C55.9636 50.3397 56.2769 50.4242 56.5945 50.4178C56.9107 50.427 57.2232 50.3437 57.497 50.1773C57.7521 50.0097 57.9527 49.7648 58.072 49.4749H58.829C58.6651 49.9361 58.3639 50.3297 57.9701 50.5973C57.5566 50.8618 57.0786 50.9945 56.5945 50.979C56.1663 50.9855 55.7442 50.8722 55.3717 50.6507C55.0078 50.4334 54.7081 50.115 54.5055 49.7307C54.288 49.327 54.1775 48.8696 54.1852 48.4059C54.18 47.945 54.2904 47.4908 54.5055 47.0889Z" fill="white"/>
<path d="M70.391 45.8939V50.9523H69.7614V48.6617H67.3267V50.9523H66.6971V45.8939H67.3267V48.1043H69.7796V45.8825L70.391 45.8939Z" fill="white"/>
<path d="M82.1714 50.9523H81.5418L78.9943 46.9247V50.9523H78.3647V45.8863H78.9943L81.5418 49.9063V45.8863H82.1714V50.9523Z" fill="white"/>
<path d="M91.1205 50.6736C90.7544 50.4551 90.4523 50.1356 90.247 49.7498C90.0326 49.3403 89.9202 48.8807 89.9202 48.4136C89.9202 47.9464 90.0326 47.4868 90.247 47.0774C90.4524 46.6926 90.7545 46.3744 91.1205 46.1574C91.4967 45.9401 91.9192 45.8262 92.3487 45.8262C92.7782 45.8262 93.2007 45.9401 93.577 46.1574C93.9425 46.372 94.2437 46.6893 94.4468 47.0736C94.6576 47.4842 94.768 47.9433 94.768 48.4098C94.768 48.8762 94.6576 49.3353 94.4468 49.7459C94.2427 50.1304 93.9418 50.4487 93.577 50.666C93.2002 50.8815 92.7779 50.9944 92.3487 50.9944C91.9196 50.9944 91.4973 50.8815 91.1205 50.666V50.6736ZM93.2531 50.1812C93.5274 50.0176 93.7501 49.7734 93.8936 49.4787C94.0468 49.148 94.1264 48.7851 94.1264 48.4174C94.1264 48.0497 94.0468 47.6868 93.8936 47.3561C93.7501 47.0648 93.5304 46.8225 93.2604 46.6575C92.982 46.4953 92.6689 46.4103 92.3505 46.4103C92.0322 46.4103 91.7191 46.4953 91.4407 46.6575C91.17 46.8172 90.9479 47.0542 90.8002 47.3408C90.647 47.6715 90.5674 48.0344 90.5674 48.4021C90.5674 48.7698 90.647 49.1327 90.8002 49.4634C90.9428 49.7576 91.1641 50.0018 91.4371 50.1659C91.715 50.3294 92.0283 50.4153 92.3469 50.4153C92.6655 50.4153 92.9788 50.3294 93.2567 50.1659L93.2531 50.1812Z" fill="white"/>
<path d="M103.141 50.414H104.83V50.9523H102.511V45.8939H103.141V50.414Z" fill="white"/>
<path d="M113.378 50.6736C113.012 50.4551 112.71 50.1356 112.505 49.7498C112.291 49.3403 112.178 48.8807 112.178 48.4136C112.178 47.9464 112.291 47.4868 112.505 47.0774C112.71 46.6926 113.012 46.3744 113.378 46.1574C113.755 45.9401 114.177 45.8262 114.607 45.8262C115.036 45.8262 115.459 45.9401 115.835 46.1574C116.2 46.372 116.502 46.6893 116.705 47.0736C116.916 47.4842 117.026 47.9433 117.026 48.4098C117.026 48.8762 116.916 49.3353 116.705 49.7459C116.501 50.1304 116.2 50.4487 115.835 50.666C115.458 50.8815 115.036 50.9944 114.607 50.9944C114.178 50.9944 113.755 50.8815 113.378 50.666V50.6736ZM115.511 50.1812C115.784 50.017 116.005 49.7729 116.148 49.4787C116.301 49.148 116.381 48.7851 116.381 48.4174C116.381 48.0497 116.301 47.6868 116.148 47.3561C116.004 47.0648 115.785 46.8225 115.515 46.6575C115.236 46.4953 114.923 46.4103 114.605 46.4103C114.286 46.4103 113.973 46.4953 113.695 46.6575C113.425 46.8225 113.205 47.0648 113.062 47.3561C112.909 47.6868 112.829 48.0497 112.829 48.4174C112.829 48.7851 112.909 49.148 113.062 49.4787C113.204 49.7729 113.426 50.017 113.699 50.1812C113.977 50.3447 114.29 50.4306 114.608 50.4306C114.927 50.4306 115.24 50.3447 115.518 50.1812H115.511Z" fill="white"/>
<path d="M128.423 47.3599C128.298 47.0763 128.096 46.8383 127.841 46.6766C127.574 46.5096 127.267 46.425 126.957 46.4322C126.638 46.4264 126.324 46.5108 126.047 46.6766C125.775 46.8388 125.554 47.0801 125.41 47.3714C125.251 47.6957 125.171 48.0564 125.177 48.4212C125.17 48.7836 125.25 49.1419 125.41 49.4634C125.555 49.7539 125.776 49.995 126.047 50.1582C126.324 50.3218 126.638 50.4061 126.957 50.4026C127.384 50.418 127.8 50.2593 128.118 49.9597C128.432 49.6447 128.622 49.2166 128.649 48.761H126.727V48.2227H129.322V48.7304C129.291 49.1374 129.166 49.5303 128.958 49.8757C128.749 50.2178 128.461 50.4989 128.121 50.6927C127.768 50.8963 127.37 51.0002 126.968 50.9943C126.538 51.0004 126.115 50.8871 125.741 50.666C125.376 50.4479 125.074 50.1299 124.868 49.7459C124.65 49.3422 124.54 48.8849 124.547 48.4212C124.54 47.9552 124.65 47.4953 124.868 47.0889C125.073 46.7041 125.375 46.3858 125.741 46.1688C126.139 45.9397 126.588 45.8254 127.042 45.8375C127.496 45.8496 127.938 45.9876 128.325 46.2375C128.72 46.5045 129.023 46.8982 129.187 47.3599H128.423Z" fill="white"/>
<path d="M137.696 45.8939V50.9523H137.067V45.8939H137.696Z" fill="white"/>
<path d="M146.299 46.4322V48.1234H148.057V48.6655H146.299V50.3949H148.265V50.9409H145.673V45.8863H148.265V46.4322H146.299Z" fill="white"/>
<path d="M156.824 50.8263C156.588 50.721 156.384 50.5493 156.235 50.33C156.09 50.1171 156.013 49.8622 156.013 49.6009H156.682C156.702 49.8302 156.802 50.0439 156.963 50.2002C157.165 50.3795 157.427 50.4673 157.69 50.4446C157.953 50.4631 158.212 50.3788 158.418 50.2079C158.502 50.1337 158.569 50.0405 158.614 49.9354C158.659 49.8303 158.68 49.7159 158.677 49.6009C158.683 49.4298 158.629 49.2624 158.524 49.1313C158.426 49.01 158.301 48.9156 158.16 48.8564C157.959 48.775 157.754 48.7062 157.545 48.6503C157.284 48.5861 157.028 48.4992 156.781 48.3907C156.586 48.301 156.417 48.1603 156.289 47.9822C156.141 47.7593 156.069 47.4901 156.086 47.2187C156.081 46.9588 156.151 46.7035 156.286 46.4857C156.423 46.2667 156.62 46.0954 156.85 45.9932C157.112 45.8706 157.396 45.8106 157.683 45.8176C158.075 45.8047 158.459 45.9297 158.775 46.1726C158.914 46.2858 159.029 46.428 159.113 46.5903C159.197 46.7527 159.248 46.9315 159.263 47.1156H158.571C158.54 46.9122 158.436 46.729 158.28 46.604C158.086 46.4497 157.846 46.3713 157.603 46.3826C157.371 46.3717 157.143 46.4475 156.959 46.5964C156.876 46.669 156.81 46.761 156.766 46.865C156.723 46.969 156.703 47.0823 156.708 47.1958C156.702 47.3603 156.755 47.5212 156.857 47.6462C156.956 47.7645 157.081 47.855 157.221 47.9097C157.367 47.9707 157.585 48.0395 157.832 48.1196C158.095 48.1894 158.351 48.28 158.6 48.3907C158.797 48.4813 158.969 48.6233 159.099 48.803C159.248 49.0257 159.321 49.2947 159.306 49.5665C159.306 49.8116 159.242 50.052 159.121 50.2613C158.986 50.4881 158.795 50.6717 158.568 50.792C158.299 50.9334 158.002 51.0029 157.701 50.9943C157.401 51.0057 157.102 50.9484 156.824 50.8263Z" fill="white"/>
<path d="M80.8142 20.7642V26.5594L87.0775 19.7067C87.3115 19.4382 87.5685 19.1928 87.8454 18.9737C88.096 18.8034 88.3915 18.7205 88.6897 18.737C89.0997 18.7181 89.5002 18.8705 89.8033 19.1608C89.9404 19.2907 90.0493 19.4499 90.1228 19.6277C90.1963 19.8055 90.2325 19.9978 90.2291 20.1916C90.2097 20.4735 90.1351 20.7482 90.0098 20.9985C89.8846 21.2488 89.7114 21.4692 89.5012 21.6461L85.629 25.5019L90.0981 32.221C90.3741 32.6052 90.6177 33.014 90.8259 33.4426C90.9753 33.76 91.0561 34.108 91.0625 34.4619C91.0593 34.6464 91.0179 34.828 90.9412 34.9941C90.8646 35.1602 90.7545 35.3069 90.6185 35.424C90.3163 35.6987 89.9263 35.8432 89.5267 35.8287C89.1425 35.8469 88.762 35.7431 88.4349 35.5309C88.1417 35.3245 87.8936 35.0551 87.7071 34.7406C87.5105 34.4123 87.3431 34.1107 87.1903 33.8397L83.4163 27.7314L80.807 30.358V33.7938C80.846 34.3444 80.6847 34.89 80.3557 35.3209C80.2074 35.4866 80.0272 35.6172 79.827 35.7041C79.6268 35.791 79.4113 35.8322 79.1947 35.8248C78.9184 35.8232 78.6474 35.7455 78.4087 35.5996C78.1656 35.4561 77.9653 35.2446 77.83 34.9888C77.7231 34.7595 77.6601 34.5105 77.6444 34.2558C77.6226 33.9809 77.6116 33.5762 77.6116 33.0494V20.7642C77.5704 20.2176 77.7219 19.6742 78.0374 19.2371C78.1821 19.0674 78.361 18.9336 78.5613 18.8458C78.7615 18.7579 78.978 18.7182 79.1947 18.7294C79.4116 18.721 79.6277 18.7613 79.8285 18.8476C80.0293 18.9338 80.2103 19.064 80.3593 19.2295C80.6928 19.6611 80.8556 20.2104 80.8142 20.7642Z" fill="white"/>
<path d="M103.833 29.5715C103.842 30.4352 103.704 31.2937 103.425 32.1064C103.17 32.8522 102.767 33.5327 102.242 34.1031C101.721 34.664 101.09 35.1003 100.394 35.382C99.6224 35.6902 98.8024 35.8418 97.9772 35.8287C97.1576 35.8406 96.3435 35.6876 95.5789 35.3782C94.8824 35.088 94.2526 34.6459 93.7313 34.0812C93.2099 33.5165 92.8088 32.8421 92.5546 32.1026C92.2776 31.2908 92.1408 30.4337 92.1506 29.5715C92.1422 28.6992 92.2802 27.8321 92.5582 27.0099C92.8123 26.2706 93.2115 25.5956 93.7301 25.0285C94.2518 24.4699 94.8825 24.0363 95.5789 23.7572C96.3452 23.4548 97.1585 23.3046 97.9772 23.3144C98.8026 23.302 99.6228 23.4549 100.394 23.7649C101.094 24.0483 101.729 24.487 102.253 25.051C102.777 25.6149 103.18 26.2909 103.432 27.0328C103.706 27.848 103.842 28.7072 103.833 29.5715ZM100.889 29.5715C100.889 28.3168 100.625 27.3395 100.099 26.6396C99.8512 26.2984 99.5295 26.0241 99.1605 25.8395C98.7915 25.6549 98.3858 25.5653 97.9772 25.5783C97.4373 25.5673 96.9073 25.7312 96.4596 26.0478C95.9992 26.3923 95.648 26.8737 95.4515 27.4298C94.9807 28.7992 94.9807 30.298 95.4515 31.6674C95.6445 32.2234 95.9887 32.7078 96.4414 33.0609C97.01 33.449 97.6947 33.6048 98.3655 33.4985C99.0363 33.3923 99.6467 33.0314 100.081 32.4844C100.622 31.7819 100.891 30.811 100.889 29.5715Z" fill="white"/>
<path d="M114.183 34.0687V33.7633C113.835 34.1874 113.444 34.5713 113.018 34.9086C112.64 35.203 112.218 35.4312 111.77 35.5843C111.3 35.7433 110.808 35.822 110.314 35.8172C109.638 35.8236 108.97 35.6627 108.364 35.3476C107.757 35.0302 107.226 34.5735 106.81 34.0115C106.358 33.4044 106.021 32.7125 105.816 31.9728C105.585 31.1487 105.471 30.2932 105.478 29.4341C105.478 27.51 105.925 26.0109 106.821 24.9369C107.258 24.4079 107.803 23.9886 108.415 23.7098C109.027 23.4309 109.691 23.2997 110.358 23.3258C111.095 23.3028 111.827 23.4583 112.498 23.7801C113.137 24.1414 113.708 24.6213 114.183 25.1965V20.6535C114.15 20.1472 114.278 19.6436 114.547 19.2219C114.668 19.0607 114.825 18.9326 115.004 18.8482C115.182 18.7638 115.378 18.7257 115.573 18.737C115.765 18.7251 115.957 18.7588 116.135 18.8354C116.312 18.9121 116.471 19.0298 116.599 19.1799C116.865 19.5599 116.994 20.0266 116.963 20.497V34.0687C116.999 34.5444 116.861 35.0164 116.578 35.3896C116.45 35.5333 116.295 35.6468 116.122 35.7226C115.95 35.7983 115.764 35.8344 115.577 35.8287C115.389 35.8335 115.203 35.795 115.031 35.7158C114.86 35.6366 114.707 35.5187 114.583 35.3705C114.298 35.005 114.155 34.5401 114.183 34.0687ZM108.411 29.5486C108.39 30.2775 108.514 31.003 108.775 31.6789C108.983 32.2148 109.336 32.6752 109.79 33.0036C110.207 33.2971 110.697 33.4527 111.199 33.4503C111.699 33.4553 112.189 33.3081 112.611 33.0265C113.067 32.7099 113.423 32.2581 113.633 31.7285C113.908 31.039 114.038 30.2956 114.016 29.5486C114.033 28.8231 113.903 28.1021 113.633 27.4336C113.415 26.8924 113.059 26.4247 112.603 26.0822C112.186 25.7749 111.687 25.6108 111.177 25.6126C110.655 25.6032 110.144 25.772 109.721 26.0936C109.275 26.4437 108.934 26.9207 108.739 27.468C108.502 28.1327 108.391 28.8394 108.411 29.5486Z" fill="white"/>
<path d="M128.103 30.3274H122.353C122.347 30.9678 122.484 31.6007 122.753 32.1752C122.985 32.6733 123.347 33.0919 123.798 33.3815C124.231 33.6523 124.727 33.7923 125.232 33.7862C125.556 33.7908 125.88 33.7471 126.193 33.6564C126.492 33.5669 126.777 33.4305 127.037 33.2517C127.302 33.0743 127.553 32.8765 127.79 32.66C128.02 32.45 128.318 32.1637 128.682 31.8049C128.865 31.6556 129.094 31.5822 129.326 31.5987C129.591 31.5873 129.85 31.6798 130.054 31.8583C130.149 31.9518 130.223 32.0658 130.271 32.1924C130.319 32.319 130.341 32.4551 130.334 32.5913C130.312 32.94 130.204 33.2767 130.021 33.5686C129.776 33.9841 129.457 34.3469 129.082 34.6375C128.607 35.0173 128.074 35.3103 127.506 35.5042C126.801 35.7409 126.063 35.8557 125.323 35.8439C123.438 35.8439 121.972 35.2802 120.927 34.1527C119.881 33.0252 119.362 31.4905 119.369 29.5486C119.354 28.6894 119.477 27.8337 119.733 27.0175C119.97 26.2746 120.354 25.5928 120.861 25.0171C121.367 24.4506 121.989 24.0131 122.681 23.7382C123.454 23.4287 124.277 23.2758 125.104 23.2877C126.135 23.2575 127.154 23.5214 128.052 24.0512C128.831 24.5138 129.47 25.1963 129.897 26.0211C130.292 26.7734 130.503 27.617 130.509 28.4759C130.509 29.2394 130.298 29.7548 129.876 30.0029C129.316 30.2524 128.71 30.3635 128.103 30.3274ZM122.353 28.5789H127.67C127.669 27.7164 127.382 26.8812 126.859 26.2158C126.619 25.9581 126.33 25.7567 126.011 25.625C125.691 25.4934 125.349 25.4345 125.006 25.4523C124.669 25.4411 124.334 25.5063 124.023 25.6433C123.712 25.7804 123.433 25.986 123.205 26.2464C122.687 26.9064 122.388 27.7251 122.353 28.5789Z" fill="white"/>
<path d="M142.599 21.6003H136.314V25.8264H141.569C141.961 25.7944 142.35 25.9169 142.66 26.17C142.783 26.2882 142.879 26.4334 142.942 26.595C143.005 26.7567 143.033 26.9309 143.024 27.1053C143.033 27.2763 143.004 27.447 142.941 27.6049C142.878 27.7628 142.782 27.9038 142.66 28.0177C142.349 28.2682 141.96 28.3891 141.569 28.3575H136.314V33.7862C136.354 34.3363 136.194 34.8818 135.866 35.3133C135.721 35.4787 135.544 35.6093 135.347 35.6963C135.15 35.7833 134.937 35.8245 134.723 35.8172C134.507 35.8273 134.291 35.7881 134.091 35.7024C133.89 35.6168 133.71 35.4866 133.562 35.3209C133.238 34.8875 133.08 34.3431 133.118 33.7938V21.0696C133.103 20.6655 133.173 20.2628 133.322 19.89C133.452 19.5943 133.679 19.3582 133.963 19.2257C134.315 19.0757 134.693 19.0055 135.073 19.0195H142.595C143.002 18.9855 143.407 19.1121 143.73 19.3746C143.852 19.4923 143.947 19.6362 144.01 19.7964C144.072 19.9566 144.101 20.1292 144.094 20.3023C144.102 20.4777 144.074 20.6529 144.011 20.8157C143.948 20.9785 143.852 21.125 143.73 21.2452C143.408 21.5068 143.005 21.6334 142.599 21.6003Z" fill="white"/>
<path d="M156.421 29.5715C156.43 30.4352 156.292 31.2937 156.013 32.1064C155.758 32.8522 155.355 33.5327 154.83 34.1031C154.308 34.6632 153.678 35.0993 152.981 35.382C152.21 35.6902 151.39 35.8418 150.565 35.8287C149.745 35.8406 148.931 35.6876 148.167 35.3782C147.47 35.088 146.84 34.6459 146.319 34.0812C145.798 33.5165 145.397 32.8421 145.142 32.1026C144.865 31.2908 144.729 30.4337 144.738 29.5715C144.728 28.699 144.866 27.8316 145.146 27.0099C145.399 26.2699 145.798 25.5946 146.318 25.0285C146.84 24.4699 147.47 24.0363 148.167 23.7572C148.933 23.4548 149.746 23.3046 150.565 23.3144C151.39 23.302 152.211 23.4549 152.981 23.7649C153.682 24.0477 154.316 24.4862 154.84 25.0503C155.364 25.6144 155.765 26.2907 156.017 27.0328C156.294 27.8473 156.43 28.7069 156.421 29.5715ZM153.476 29.5715C153.476 28.3168 153.213 27.3395 152.687 26.6396C152.439 26.2984 152.117 26.0241 151.748 25.8395C151.379 25.6549 150.974 25.5653 150.565 25.5783C150.025 25.5673 149.495 25.7312 149.047 26.0478C148.587 26.3923 148.236 26.8737 148.039 27.4298C147.569 28.7992 147.569 30.298 148.039 31.6674C148.237 32.2207 148.585 32.7011 149.04 33.0494C149.609 33.4376 150.293 33.5933 150.964 33.4871C151.635 33.3808 152.245 33.0199 152.679 32.4729C153.213 31.7781 153.479 30.811 153.476 29.5715Z" fill="white"/>
<path d="M161.643 31.3849V33.9771C161.675 34.4773 161.524 34.9716 161.221 35.3591C161.086 35.5124 160.921 35.6336 160.738 35.7145C160.555 35.7955 160.357 35.8344 160.158 35.8287C159.962 35.8337 159.767 35.794 159.586 35.7123C159.406 35.6306 159.245 35.5088 159.114 35.3553C158.824 34.9628 158.68 34.4728 158.71 33.9771V25.3874C158.71 24.0054 159.186 23.3144 160.14 23.3144C160.34 23.2952 160.542 23.3296 160.726 23.4144C160.91 23.4992 161.07 23.6316 161.192 23.7992C161.439 24.2309 161.565 24.7272 161.556 25.2309C161.836 24.6899 162.206 24.2053 162.647 23.7992C163.068 23.4566 163.593 23.2844 164.125 23.3144C164.752 23.3171 165.369 23.4837 165.919 23.7992C166.167 23.9022 166.381 24.078 166.535 24.3057C166.689 24.5333 166.778 24.8029 166.789 25.082C166.795 25.2554 166.765 25.4283 166.703 25.5889C166.64 25.7495 166.545 25.8942 166.425 26.0135C166.217 26.247 165.929 26.3843 165.624 26.3952C165.358 26.3559 165.097 26.2855 164.846 26.1853C164.494 26.0584 164.126 25.9889 163.754 25.9791C163.374 25.9621 163.001 26.0881 162.702 26.3342C162.401 26.6162 162.182 26.9813 162.069 27.3878C161.903 27.9279 161.798 28.4866 161.756 29.0523C161.681 29.6835 161.643 30.461 161.643 31.3849Z" fill="white"/>
<path d="M178.133 29.7968V33.8893C178.17 34.4124 178.019 34.9311 177.71 35.3438C177.572 35.502 177.403 35.6272 177.215 35.7108C177.027 35.7945 176.823 35.8347 176.619 35.8287C176.414 35.837 176.21 35.7979 176.021 35.7141C175.833 35.6303 175.664 35.5039 175.527 35.3438C175.225 34.9279 175.079 34.4105 175.116 33.8893V28.9836C175.127 28.3821 175.105 27.7805 175.05 27.1817C175.017 26.7958 174.875 26.429 174.643 26.128C174.507 25.9813 174.342 25.8681 174.159 25.7968C173.977 25.7255 173.781 25.6978 173.587 25.7157C172.63 25.7157 171.997 26.0593 171.691 26.7541C171.346 27.7019 171.191 28.7144 171.236 29.7281V33.8893C171.272 34.4087 171.125 34.9239 170.821 35.3362C170.681 35.4924 170.512 35.6169 170.324 35.702C170.136 35.7871 169.934 35.831 169.73 35.831C169.525 35.831 169.323 35.7871 169.135 35.702C168.947 35.6169 168.778 35.4924 168.638 35.3362C168.327 34.9273 168.175 34.4106 168.212 33.8893V25.082C168.179 24.6084 168.315 24.1388 168.594 23.7649C168.719 23.6176 168.872 23.5008 169.045 23.423C169.217 23.3451 169.404 23.308 169.591 23.3144C169.777 23.3094 169.962 23.3444 170.135 23.4173C170.308 23.4902 170.465 23.5994 170.596 23.7382C170.735 23.8932 170.843 24.0764 170.912 24.2766C170.982 24.4768 171.011 24.6898 171 24.9025V25.1965C171.444 24.6122 172.001 24.1323 172.634 23.7878C173.235 23.4814 173.897 23.3271 174.566 23.3373C175.228 23.3176 175.883 23.4767 176.469 23.7992C177.021 24.1294 177.474 24.613 177.78 25.1965C178.213 24.6199 178.755 24.142 179.37 23.7916C179.949 23.4876 180.589 23.3319 181.237 23.3373C181.957 23.3161 182.671 23.4868 183.311 23.8336C183.879 24.1479 184.335 24.646 184.611 25.2538C184.903 26.0936 185.027 26.9878 184.975 27.8803V33.8893C185.011 34.4117 184.862 34.9298 184.556 35.3438C184.415 35.5029 184.242 35.6285 184.051 35.7121C183.86 35.7957 183.653 35.8354 183.446 35.8287C183.241 35.8361 183.036 35.7957 182.848 35.7106C182.659 35.6255 182.49 35.4976 182.354 35.3362C182.057 34.9218 181.918 34.4057 181.965 33.8893V28.7126C181.973 28.1819 181.946 27.6513 181.885 27.1244C181.841 26.7507 181.688 26.4002 181.448 26.1204C181.307 25.9767 181.138 25.8663 180.953 25.7965C180.768 25.7267 180.571 25.6992 180.374 25.7157C179.985 25.7198 179.605 25.8446 179.283 26.0746C178.935 26.3166 178.655 26.6513 178.471 27.0442C178.245 27.5634 178.133 28.481 178.133 29.7968Z" fill="white"/>
<path d="M9.02546 15.6104C10.2701 15.6104 11.2818 15.4577 12.2317 15.6524C13.3708 15.8814 14.1751 15.5646 15.074 14.8468C18.2402 12.3157 21.7048 11.9645 25.3732 13.5679C27.2583 14.3925 27.6623 14.2398 28.8269 12.4608C36.7969 0.274871 55.4847 1.24455 62.0827 14.1711C62.1789 14.3601 62.3118 14.5257 62.473 14.6572C62.6341 14.7888 62.8198 14.8833 63.0181 14.9346C64.0371 15.0377 65.0706 14.9728 66.2461 14.9728C66.102 14.2737 65.911 13.5861 65.6747 12.9151C64.361 9.8839 62.6214 7.18864 60.0848 5.08511C50.3679 -2.93196 34.8353 -1.27891 26.9053 8.64698C26.3995 9.28453 26.0428 9.71592 25.0857 9.41051C19.4302 7.6353 13.8985 9.38379 9.02546 15.6104Z" fill="white"/>
<path d="M63.4184 21.4667C69.0811 20.1763 73.7176 24.9025 72.4111 30.4076C71.5668 33.9656 68.8227 36.1341 64.976 36.1646C59.841 36.2066 54.7059 36.1646 49.5672 36.1875C49.0213 36.1875 48.3444 36.0692 47.9623 36.3517C47.3836 36.7831 46.7213 37.497 46.6522 38.1307C46.6048 38.6041 47.38 39.3142 47.9295 39.6578C48.3481 39.9288 48.9959 39.8677 49.5381 39.8677C54.8757 39.8677 60.2134 39.8575 65.551 39.8372C68.0705 39.8647 70.5132 38.9282 72.422 37.203C74.4007 35.4438 75.7009 32.9888 76.0793 30.2971C76.4577 27.6053 75.8886 24.8611 74.4782 22.5776C71.3448 17.4199 65.551 16.4693 60.8745 18.2865C60.3104 18.5042 59.6226 19.3898 59.6044 19.9892C59.488 23.8578 59.4758 27.7263 59.568 31.5949C59.608 33.1525 61.2566 34.0573 62.3776 33.1525C62.9743 32.5745 63.3311 31.774 63.3711 30.923C63.4839 27.7963 63.4184 24.662 63.4184 21.4667Z" fill="white"/>
<path d="M12.6321 21.4361V25.3988C12.6321 26.8075 13.4363 27.3497 14.6482 27.3458C15.8601 27.342 16.6316 26.7732 16.6134 25.3568C16.588 23.6847 16.5552 22.0088 16.6134 20.3404C16.6571 19.1302 16.0748 18.4774 15.0959 18.1262C14.4802 17.9161 13.8482 17.7628 13.2071 17.6681C8.8399 16.9389 5.0332 18.0499 2.30737 21.8446C-0.294729 25.4905 -0.760559 29.5295 1.21558 33.6488C3.24995 37.8787 6.67452 39.8525 11.1618 39.8639C16.144 39.8639 21.1262 39.8983 26.1084 39.8945C26.707 39.8863 27.3038 39.8224 27.8916 39.7036C28.7432 39.5432 29.4092 39.1424 29.3473 38.0658C29.2855 36.9892 28.7796 36.4013 27.8006 36.2677C27.1067 36.192 26.4093 36.1563 25.7117 36.1608C20.5803 36.1302 15.4416 36.2715 10.3211 36.0424C9.36018 36.0009 8.41777 35.7517 7.55288 35.3105C6.688 34.8693 5.91925 34.2455 5.29476 33.4783C4.67028 32.711 4.20351 31.8168 3.92367 30.8516C3.64383 29.8863 3.55695 28.8709 3.66846 27.8689C4.25439 23.2877 8.00651 20.5008 12.6321 21.4361Z" fill="white"/>
<path d="M56.2381 24.7727H56.34C56.34 23.6274 56.34 22.4821 56.34 21.3369C56.34 20.1916 55.9105 19.2486 54.6259 19.2677C53.3412 19.2868 52.9663 20.1954 52.9663 21.3903C52.9663 23.4786 52.9918 25.5706 52.9663 27.6627C52.9299 29.4875 52.2712 30.232 50.8228 30.2167C49.3743 30.2014 48.7629 29.4532 48.7302 27.6245C48.6938 25.4294 48.7302 23.2304 48.6902 21.0353C48.6647 19.951 48.1042 19.2715 46.9979 19.2677C45.9607 19.2677 45.3675 19.9167 45.3602 20.9131C45.3602 23.6809 45.3129 26.4563 45.5203 29.2127C45.6768 31.3009 46.9506 32.6715 48.9485 32.996C50.1753 33.2058 51.4249 33.2251 52.657 33.0532C53.6082 32.9261 54.4862 32.4516 55.1371 31.7129C55.788 30.9743 56.17 30.0188 56.2162 29.0141C56.3363 27.6054 56.2381 26.1853 56.2381 24.7727Z" fill="white"/>
<path d="M22.5928 29.9457C22.5928 29.1821 22.5928 28.6133 22.5928 28.0368C22.5928 25.7921 22.5928 23.5473 22.5673 21.3025C22.5673 20.1305 22.1451 19.2104 20.8459 19.241C19.5467 19.2715 19.1864 20.1992 19.1864 21.3788C19.1864 24.5131 19.1864 27.6474 19.1864 30.7779C19.1864 32.389 19.7286 32.9654 21.2462 32.9998C23.0877 33.0418 24.9292 32.9998 26.7707 32.9998C27.7496 32.9998 28.634 32.7669 28.6704 31.5262C28.7068 30.1862 27.8006 29.9304 26.7488 29.938C25.4241 29.9533 24.0958 29.9457 22.5928 29.9457Z" fill="white"/>
<path d="M9.02546 15.6104C13.8985 9.38379 19.4302 7.6353 25.082 9.41815C26.0428 9.71974 26.3995 9.28834 26.9017 8.65461C34.8317 -1.27128 50.3642 -2.92432 60.0812 5.09275C62.6287 7.18482 64.3573 9.89153 65.6711 12.9227C65.9048 13.5927 66.0933 14.279 66.2352 14.9766C65.0597 14.9766 64.0262 15.0415 63.0072 14.9385C62.8089 14.8871 62.6232 14.7926 62.4621 14.6611C62.3009 14.5295 62.168 14.3639 62.0718 14.1749C55.4847 1.24455 36.7969 0.27487 28.8269 12.4608C27.6623 14.2398 27.2583 14.3925 25.3732 13.5679C21.7048 11.9645 18.2402 12.3157 15.074 14.8468C14.1933 15.5646 13.3708 15.8814 12.2317 15.6524C11.2818 15.4577 10.2701 15.6104 9.02546 15.6104Z" fill="white"/>
<path d="M63.4184 21.4667C63.4184 24.662 63.4839 27.7963 63.3711 30.9268C63.3282 31.7776 62.9689 32.5767 62.3703 33.1525C61.2494 34.0573 59.6008 33.1525 59.5607 31.5949C59.471 27.7263 59.4831 23.8578 59.5971 19.9892C59.6153 19.3899 60.3031 18.5042 60.8672 18.2866C65.5437 16.4846 71.3375 17.4199 74.4709 22.5776C75.8821 24.8602 76.4525 27.6039 76.0754 30.2956C75.6983 32.9873 74.3996 35.4428 72.422 37.203C70.5162 38.9329 68.0748 39.8748 65.5547 39.8525C60.217 39.8754 54.8794 39.8855 49.5417 39.883C48.9995 39.883 48.3517 39.9441 47.9332 39.673C47.3836 39.3142 46.6085 38.6041 46.6558 38.146C46.7249 37.497 47.3836 36.7983 47.9659 36.3669C48.3481 36.0844 49.025 36.2066 49.5709 36.2028C54.7095 36.2028 59.8446 36.2028 64.9796 36.1799C68.8227 36.1302 71.5668 33.9771 72.422 30.4076C73.7176 24.9178 69.0811 20.1763 63.4184 21.4667Z" fill="white"/>
<path d="M12.632 21.4361C8.00648 20.5008 4.25437 23.2877 3.66844 27.8689C3.55531 28.8718 3.64098 29.8885 3.92008 30.8551C4.19918 31.8216 4.66568 32.7173 5.29033 33.4858C5.91497 34.2543 6.68428 34.8792 7.54999 35.3211C8.41569 35.763 9.35912 36.0125 10.3211 36.0539C15.4416 36.283 20.5803 36.1417 25.7117 36.1722C26.4093 36.1678 27.1067 36.2035 27.8006 36.2791C28.7796 36.4013 29.2927 37.0427 29.3546 38.0658C29.4165 39.0889 28.7541 39.5432 27.8989 39.7036C27.311 39.8224 26.7143 39.8863 26.1156 39.8945C21.1334 39.8945 16.1512 39.8945 11.169 39.8639C6.68542 39.8639 3.2572 37.8787 1.22284 33.6488C-0.760581 29.5295 -0.294751 25.4905 2.31462 21.8446C5.04046 18.027 8.84352 16.9389 13.2143 17.6681C13.8554 17.7628 14.4874 17.9161 15.1031 18.1262C16.0821 18.4774 16.6644 19.1303 16.6207 20.3404C16.5588 22.0088 16.5916 23.6847 16.6207 25.3568C16.6389 26.7732 15.8928 27.342 14.6555 27.3458C13.4181 27.3497 12.6393 26.8075 12.6393 25.3988L12.632 21.4361Z" fill="white"/>
<path d="M56.2381 24.7727C56.2381 26.1853 56.3363 27.6054 56.2162 29.0027C56.1687 30.009 55.7841 30.9654 55.1304 31.7036C54.4767 32.4417 53.5956 32.9143 52.6424 33.038C51.4103 33.2098 50.1608 33.1905 48.934 32.9807C46.936 32.6562 45.6586 31.2857 45.5058 29.1974C45.2983 26.4411 45.3274 23.6656 45.3456 20.8978C45.3456 19.9014 45.9461 19.2448 46.9833 19.2524C48.0751 19.2524 48.6501 19.9358 48.6756 21.02C48.7266 23.2151 48.6756 25.4141 48.7156 27.6093C48.7484 29.457 49.3634 30.1862 50.8082 30.2014C52.253 30.2167 52.9154 29.4723 52.9518 27.6474C52.9918 25.5554 52.97 23.448 52.9518 21.375C52.9518 20.1801 53.3157 19.2715 54.6113 19.2524C55.9069 19.2333 56.3181 20.1228 56.3254 21.3216C56.3327 22.5203 56.3254 23.6122 56.3254 24.7575L56.2381 24.7727Z" fill="white"/>
<path d="M22.5928 29.9457C24.0958 29.9457 25.4241 29.9457 26.7561 29.9457C27.8079 29.9457 28.7141 30.1938 28.6777 31.5338C28.6413 32.7745 27.7569 33.0074 26.7779 33.0074C24.9365 33.0074 23.095 33.0456 21.2535 33.0074C19.7359 32.9731 19.2046 32.3966 19.1937 30.7855C19.1682 27.6551 19.1937 24.5208 19.1937 21.3865C19.1937 20.203 19.5576 19.2944 20.8532 19.26C22.1488 19.2257 22.5636 20.1457 22.5636 21.3178C22.5928 23.5625 22.5818 25.8073 22.5891 28.0521C22.5964 28.6324 22.5928 29.1745 22.5928 29.9457Z" fill="white"/>
<path d="M36.2219 19.2295C32.357 19.2524 29.9514 21.921 29.9514 26.1662C29.9587 30.5794 32.3897 33.2479 36.4257 33.2136C40.3343 33.183 42.7326 30.4534 42.6817 26.1127C42.6307 21.7721 40.207 19.199 36.2219 19.2295ZM37.0662 30.0678C34.9918 30.671 33.4269 29.0294 33.4269 26.2234C33.4269 23.4175 34.9227 21.7721 37.0662 22.3638C38.5001 22.7456 39.2498 24.0817 39.2498 26.1815C39.2498 28.2812 38.4564 29.667 37.0662 30.0678Z" fill="white"/>
</g>
<defs>
<clipPath id="clip0_2_6">
<rect width="185" height="51" fill="white"/>
</clipPath>
</defs>
</svg>
