<svg id="Layer_1" data-name="Layer 1" xmlns="http://www.w3.org/2000/svg" viewBox="0 0 60 60"><defs><style>.cls-1{fill:none;}</style></defs><title>micro</title><rect class="cls-1" width="60" height="60"/><path d="M41.78,38.11c0,.75-.24,1.63.07,2.2s1.17.8,1.8,1.18c.47.28.94.58,1.43.84a.76.76,0,0,1,.47.79c0,1.39,0,2.78,0,4.17a.7.7,0,0,1-.39.68c-1,.58-2,1.2-3,1.78a.66.66,0,0,0-.38.67c0,1.22,0,2.43,0,3.64a.67.67,0,0,1-.37.68q-1.83,1-3.63,2.16a.57.57,0,0,1-.67,0c-1-.61-2-1.19-3-1.79a.75.75,0,0,0-1,0c-1,.63-2,1.18-3,1.79a.65.65,0,0,1-.77,0c-1-.61-2-1.19-3-1.82a.7.7,0,0,0-.86,0c-1,.62-2,1.19-3,1.81a.6.6,0,0,1-.76,0c-1.19-.72-2.38-1.43-3.58-2.12a.61.61,0,0,1-.35-.64c0-1.23,0-2.46,0-3.69a.63.63,0,0,0-.36-.63c-1-.6-2.07-1.2-3.08-1.84a.84.84,0,0,1-.35-.61c0-1.43,0-2.86,0-4.28a.67.67,0,0,1,.4-.67c1-.59,2-1.21,3-1.79a.68.68,0,0,0,.38-.68c0-1.23,0-2.46,0-3.69a.6.6,0,0,1,.36-.63c1.21-.71,2.41-1.44,3.64-2.14a.78.78,0,0,1,.65,0c1,.56,2,1.16,3,1.77a.8.8,0,0,0,1,0c1-.63,2-1.18,3-1.79a.6.6,0,0,1,.72,0c1,.64,2.08,1.26,3.13,1.85a.76.76,0,0,0,.66,0c1-.59,2.09-1.22,3.12-1.85a.62.62,0,0,1,.73,0q1.8,1.1,3.63,2.16a.56.56,0,0,1,.32.59c0,.64,0,1.28,0,1.92ZM22.61,55.65c1-.56,1.83-1.07,2.69-1.6a.33.33,0,0,0,.16-.25c0-1,0-2.11,0-3.26-1,.57-1.83,1.08-2.69,1.61a.48.48,0,0,0-.16.35C22.6,53.51,22.61,54.53,22.61,55.65Zm2.86-18.73-2.69,1.61a.34.34,0,0,0-.16.24c0,1,0,2.11,0,3.26,1-.56,1.83-1.07,2.69-1.6a.49.49,0,0,0,.17-.34C25.48,39.07,25.47,38.06,25.47,36.92ZM25,36.07c-1-.57-1.84-1.1-2.72-1.61a.33.33,0,0,0-.25,0l-2.77,1.65c.94.56,1.79,1.08,2.65,1.58.09.05.25.1.33.05C23.13,37.18,24,36.64,25,36.07ZM17.81,48.86c0-1.14,0-2.16,0-3.19a.4.4,0,0,0-.16-.31l-2.71-1.62c0,1.15,0,2.17,0,3.2a.47.47,0,0,0,.2.33C16,47.79,16.85,48.29,17.81,48.86Zm8.63,1.69c0,1.13,0,2.15,0,3.16a.43.43,0,0,0,.13.32c.87.53,1.76,1,2.73,1.63,0-1.16,0-2.21,0-3.25a.37.37,0,0,0-.16-.26C28.28,51.63,27.4,51.12,26.44,50.55ZM18.76,36.92c0,1.15,0,2.16,0,3.18a.43.43,0,0,0,.14.31c.87.53,1.75,1.05,2.72,1.61,0-1.13,0-2.16,0-3.19a.39.39,0,0,0-.16-.3Zm8.15-.85c.95.57,1.83,1.1,2.71,1.61a.33.33,0,0,0,.29,0c.9-.52,1.79-1,2.75-1.62L30,34.47a.4.4,0,0,0-.34,0C28.74,35,27.86,35.5,26.91,36.07Zm7.63,0,2.73,1.62a.26.26,0,0,0,.24,0l2.78-1.64c-.92-.55-1.76-1.06-2.61-1.54a.61.61,0,0,0-.51,0C36.31,35,35.48,35.51,34.54,36.07Zm-.46.86c0,1.15,0,2.16,0,3.17a.43.43,0,0,0,.13.32c.87.53,1.75,1,2.71,1.61,0-1.13,0-2.16,0-3.18a.43.43,0,0,0-.16-.31C35.92,38,35.05,37.51,34.08,36.93Zm6.69,0c-1,.57-1.83,1.08-2.69,1.61a.33.33,0,0,0-.16.24c0,1.06,0,2.11,0,3.26,1-.57,1.83-1.08,2.69-1.61a.47.47,0,0,0,.17-.34C40.78,39.07,40.77,38.05,40.77,36.92Zm-22,13.62a17.24,17.24,0,0,1,0,2.17,1.62,1.62,0,0,0,1.08,1.9,15.51,15.51,0,0,1,1.81,1c0-1.13,0-2.14,0-3.15a.43.43,0,0,0-.13-.32C20.61,51.63,19.73,51.11,18.76,50.54Zm18.17,5.12c0-1.14,0-2.15,0-3.16a.45.45,0,0,0-.13-.33c-.87-.53-1.75-1-2.72-1.62,0,1.15,0,2.18,0,3.2a.41.41,0,0,0,.16.31Zm3.84-5.12c-1,.57-1.8,1.06-2.63,1.57-.1.06-.22.17-.22.27,0,1,0,2.11,0,3.27,1-.57,1.84-1.08,2.7-1.6a.43.43,0,0,0,.16-.31C40.78,52.72,40.77,51.69,40.77,50.54ZM23.09,42.89l2.71,1.62a.39.39,0,0,0,.3,0l2.73-1.62c-.94-.55-1.79-1.06-2.65-1.55a.48.48,0,0,0-.38-.05C24.91,41.8,24,42.33,23.09,42.89Zm3.35-6c0,1.14,0,2.19,0,3.23a.31.31,0,0,0,.1.23L29.31,42c0-1.16,0-2.18,0-3.21a.44.44,0,0,0-.18-.3Zm-5.27,6c-1-.57-1.8-1.08-2.66-1.58a.46.46,0,0,0-.38,0c-.89.51-1.76,1-2.71,1.59.94.56,1.81,1.09,2.68,1.59a.42.42,0,0,0,.38,0C19.36,44,20.22,43.46,21.17,42.9Zm15.3,0c-.95-.56-1.81-1.08-2.69-1.59a.4.4,0,0,0-.34,0c-.89.51-1.76,1-2.71,1.6.95.56,1.81,1.09,2.69,1.59a.51.51,0,0,0,.43-.05C34.7,44,35.53,43.45,36.47,42.9Zm-13.86.85a14,14,0,0,1,0,2,1.78,1.78,0,0,0,1.24,2.17,12.16,12.16,0,0,1,1.65,1c0-1.12,0-2.12,0-3.11a.56.56,0,0,0-.23-.42C24.41,44.8,23.56,44.31,22.61,43.75Zm15.76-.85c1,.56,1.81,1.08,2.69,1.59a.38.38,0,0,0,.33,0c.89-.51,1.77-1,2.72-1.61-1-.56-1.81-1.08-2.69-1.58a.42.42,0,0,0-.38,0C40.17,41.82,39.32,42.33,38.37,42.9Zm-4.29,5.93A12,12,0,0,1,35.56,48,2,2,0,0,0,37,45.56a10.7,10.7,0,0,1,0-1.8c-1,.56-1.79,1.05-2.63,1.56a.48.48,0,0,0-.21.32C34.07,46.67,34.08,47.7,34.08,48.83Zm6.68,0c0-1.15,0-2.17,0-3.2a.38.38,0,0,0-.14-.26c-.87-.53-1.75-1.05-2.7-1.61,0,1.11,0,2.12,0,3.13a.51.51,0,0,0,.21.37C39,47.78,39.82,48.27,40.76,48.84ZM21.64,43.75l-2.71,1.62a.28.28,0,0,0-.14.2c0,1.06,0,2.11,0,3.26l2.69-1.6a.42.42,0,0,0,.17-.3C21.65,45.9,21.64,44.88,21.64,43.75Zm7.66,0-2.62,1.56a.51.51,0,0,0-.22.27c0,1.05,0,2.1,0,3.24,1-.56,1.81-1.06,2.65-1.58a.47.47,0,0,0,.19-.34C29.3,45.89,29.3,44.88,29.3,43.75ZM25,49.7c-.93-.56-1.78-1.07-2.64-1.57a.5.5,0,0,0-.38,0l-2.68,1.59c.95.56,1.83,1.09,2.72,1.6a.43.43,0,0,0,.33,0Zm9.6,0c1,.56,1.81,1.08,2.69,1.58a.33.33,0,0,0,.29,0l2.71-1.6c-.94-.56-1.8-1.09-2.68-1.59a.52.52,0,0,0-.43.06C36.32,48.66,35.49,49.16,34.57,49.71Zm-7.64,0c.94.55,1.78,1.06,2.63,1.55a.43.43,0,0,0,.38,0c.87-.5,1.74-1,2.68-1.58-.93-.56-1.79-1.08-2.67-1.58a.38.38,0,0,0-.33,0C28.74,48.63,27.88,49.15,26.93,49.71Zm3.33,5.95a9.42,9.42,0,0,1,1.31-.76,2.18,2.18,0,0,0,1.55-2.69,9.91,9.91,0,0,1,0-1.65c-1,.57-1.8,1.06-2.63,1.57a.47.47,0,0,0-.2.33C30.25,53.49,30.26,54.52,30.26,55.66ZM33.1,36.94c-1,.57-1.83,1.08-2.69,1.61a.4.4,0,0,0-.15.26c0,1,0,2.08,0,3.23L33,40.44a.38.38,0,0,0,.14-.26C33.1,39.13,33.1,38.09,33.1,36.94Zm8.62,11.92a14.74,14.74,0,0,1,1.79-1,1.62,1.62,0,0,0,1.1-1.94,15.11,15.11,0,0,1,0-2.14c-1,.57-1.83,1.07-2.68,1.59a.4.4,0,0,0-.18.29C41.71,46.67,41.72,47.72,41.72,48.86ZM30.27,43.77c0,1.12,0,2.13,0,3.15a.42.42,0,0,0,.15.31l2.68,1.59c0-1.14,0-2.18,0-3.22a.41.41,0,0,0-.21-.28Z"/><path d="M30.33,28.68l1.16-1c.29-.25.61-.34.9,0s.15.65-.16.91c-.66.55-1.32,1.1-2,1.66a.67.67,0,0,1-1,0c-.66-.57-1.33-1.13-2-1.69-.3-.26-.42-.56-.12-.88a.56.56,0,0,1,.85,0l1.21,1a24.21,24.21,0,0,1,0-2.71,1.79,1.79,0,0,0-1.13-2c-2.52-1.41-5-2.93-7.46-4.39a.65.65,0,0,1-.38-.67q0-5.19,0-10.38a.67.67,0,0,1,.4-.67l8.78-5.21a.55.55,0,0,1,.67,0q4.4,2.63,8.82,5.24a.63.63,0,0,1,.35.63q0,5.21,0,10.39a.71.71,0,0,1-.42.7l-8.1,4.79a.74.74,0,0,0-.44.75C30.34,26.27,30.33,27.4,30.33,28.68ZM37.48,8.45l-.19-.12C34.87,6.89,32.45,5.45,30,4a.65.65,0,0,0-.56,0c-1.49.86-3,1.75-4.46,2.63L22.1,8.41c.07.08.1.13.14.15,2.42,1.44,4.84,2.88,7.27,4.3a.77.77,0,0,0,.61,0c1.88-1.1,3.74-2.21,5.61-3.32Zm-16,1.05c0,3,0,5.94,0,8.85a.82.82,0,0,0,.39.54c2.16,1.31,4.34,2.6,6.51,3.89l.74.42a1.57,1.57,0,0,0,.06-.23c0-2.85,0-5.7,0-8.55a.81.81,0,0,0-.37-.56c-1.3-.8-2.62-1.57-3.94-2.36Zm16.63,0-.6.33c-2.22,1.32-4.43,2.65-6.66,4a.8.8,0,0,0-.47.79c0,2.68,0,5.35,0,8v.57a1.42,1.42,0,0,0,.31-.13c2.38-1.4,4.76-2.8,7.12-4.23a.81.81,0,0,0,.28-.6c0-2,0-4,0-6.05Z"/></svg>