<svg width="24" height="13" viewBox="0 0 24 13" fill="none" xmlns="http://www.w3.org/2000/svg">
<path d="M19.6438 4.61625C19.5428 4.61625 19.4418 4.61949 19.3442 4.62597C19.0075 2.75355 17.3108 1.32494 15.2673 1.32494C14.3314 1.32494 13.4696 1.62298 12.7794 2.12509C12.0321 0.85846 10.6148 0 8.98873 0C6.58166 0 4.63244 1.87565 4.63244 4.19188C4.63244 4.33765 4.63917 4.48343 4.656 4.62597C4.55837 4.61949 4.45738 4.61625 4.35638 4.61625C1.94931 4.61625 9.15527e-05 6.4919 9.15527e-05 8.80812C9.15527e-05 11.1243 1.94931 13 4.35638 13H19.6438C22.0509 13 24.0001 11.1243 24.0001 8.80812C24.0001 6.4919 22.0509 4.61625 19.6438 4.61625Z" fill="white"/>
</svg>
