<svg width="25" height="25" viewBox="0 0 25 25" fill="none" xmlns="http://www.w3.org/2000/svg">
<path d="M16.0601 5C17.1823 5 18.1583 5.44297 18.8521 6.19824L19.0435 6.40723L19.3208 6.34961C19.8159 6.24752 20.2995 6.10674 20.7671 5.92969C20.4941 6.25863 20.1685 6.5411 19.8022 6.76172L20.1235 7.68555C20.4304 7.6463 20.7336 7.59086 21.0327 7.52246C20.7384 7.81401 20.4248 8.08364 20.0894 8.32324L19.8667 8.48242L19.8804 8.75586C19.8896 8.93067 19.8901 9.09822 19.8901 9.29004C19.8901 14.7446 15.7269 21 8.18018 21C6.56631 21 5.02724 20.6701 3.62646 20.0762C5.31223 19.8948 6.92026 19.2425 8.26025 18.1816L9.35498 17.3154L7.95947 17.29C7.16948 17.2756 6.40366 17.014 5.77002 16.542C5.35145 16.2302 5.00604 15.8358 4.74951 15.3877C5.084 15.3889 5.41828 15.3571 5.74658 15.2871L6.01221 15.2217L5.97803 14.25C4.49015 13.9539 3.31548 12.7737 3.01611 11.2793C3.44483 11.4166 3.90522 11.5 4.39014 11.5H6.08447L4.66162 10.5801C3.64381 9.92201 2.98012 8.7601 2.97998 7.44043C2.97998 7.00698 3.05382 6.58799 3.18896 6.19922C5.36963 8.5602 8.44786 10.0962 11.8745 10.2695L12.5327 10.3027L12.3882 9.66016C12.3259 9.38434 12.2905 9.09101 12.2905 8.79004C12.2905 6.69467 13.9877 5.00002 16.0601 5Z" stroke="white"/>
</svg>
