<svg width="171" height="40" viewBox="0 0 171 40" fill="none" xmlns="http://www.w3.org/2000/svg">
<g clip-path="url(#clip0_36_459)">
<path d="M16 36C24.8366 36 32 28.8366 32 20C32 11.1634 24.8366 4 16 4C7.16344 4 0 11.1634 0 20C0 28.8366 7.16344 36 16 36Z" fill="#6F6F6F"/>
<path d="M15.9958 35.2628C24.4233 35.2628 31.2552 28.4309 31.2552 20.0033C31.2552 11.5758 24.4233 4.7439 15.9958 4.7439C7.56821 4.7439 0.736328 11.5758 0.736328 20.0033C0.736328 28.4309 7.56821 35.2628 15.9958 35.2628Z" fill="#F2F3F4"/>
<path d="M15.9979 34.0139C23.7366 34.0139 30.0101 27.7404 30.0101 20.0017C30.0101 12.263 23.7366 5.9895 15.9979 5.9895C8.25918 5.9895 1.98572 12.263 1.98572 20.0017C1.98572 27.7404 8.25918 34.0139 15.9979 34.0139Z" fill="#4C4C4C" fill-opacity="0.3"/>
<path d="M13.4559 20.8349L16 22.2213V17.6271L12.6285 15.3054L9.25696 17.6271V27.0129L12.6285 29.3841L16 27.0129V24.6887L13.4559 25.7744V20.8349Z" fill="#F2F3F4"/>
<path d="M19.3715 15.3054L16 17.6271V22.2213L18.544 20.8349V25.7744L16 24.6887V27.0129L19.3715 29.3841L22.743 27.0129V17.6271L19.3715 15.3054Z" fill="#F2F3F4"/>
<path d="M12.6208 14.2502C13.6244 14.2502 14.4379 13.4366 14.4379 12.4331C14.4379 11.4295 13.6244 10.616 12.6208 10.616C11.6173 10.616 10.8037 11.4295 10.8037 12.4331C10.8037 13.4366 11.6173 14.2502 12.6208 14.2502Z" fill="#F2F3F4"/>
<path d="M19.3791 14.2502C20.3827 14.2502 21.1962 13.4366 21.1962 12.4331C21.1962 11.4295 20.3827 10.616 19.3791 10.616C18.3756 10.616 17.562 11.4295 17.562 12.4331C17.562 13.4366 18.3756 14.2502 19.3791 14.2502Z" fill="#F2F3F4"/>
</g>
<path d="M42.55 13.25H45.256L46.972 24.47H47.17L49.7 13.25H51.856L48.908 27H44.75L42.55 13.25ZM59.732 13.25L57.532 27H53.396L50.448 13.25H52.582L55.112 24.47H55.31L57.026 13.25H59.732ZM61.9772 20.136C61.9772 18.6693 62.0579 17.4667 62.2192 16.528C62.3952 15.5893 62.6885 14.856 63.0992 14.328C63.5245 13.8 64.1112 13.4333 64.8592 13.228C65.6219 13.0227 66.5972 12.92 67.7852 12.92C68.9439 12.92 69.9045 13.0227 70.6672 13.228C71.4299 13.4333 72.0165 13.8073 72.4272 14.35C72.8525 14.878 73.1532 15.6113 73.3292 16.55C73.5052 17.474 73.5932 18.6693 73.5932 20.136C73.5932 21.6027 73.5052 22.8053 73.3292 23.744C73.1532 24.668 72.8525 25.394 72.4272 25.922C72.0165 26.45 71.4299 26.8167 70.6672 27.022C69.9045 27.2273 68.9439 27.33 67.7852 27.33C66.5972 27.33 65.6219 27.2273 64.8592 27.022C64.1112 26.8167 63.5245 26.45 63.0992 25.922C62.6885 25.394 62.3952 24.668 62.2192 23.744C62.0579 22.8053 61.9772 21.6027 61.9772 20.136ZM64.8812 25.02H68.8192C69.5232 25.02 70.0072 24.91 70.2712 24.69C70.5499 24.47 70.6892 24.0813 70.6892 23.524V15.23H66.7072C66.0179 15.23 65.5412 15.34 65.2772 15.56C65.0132 15.78 64.8812 16.1687 64.8812 16.726V25.02ZM79.7664 22.336V27H77.0604V13.25H82.7584C83.7851 13.25 84.5991 13.404 85.2004 13.712C85.8164 14.02 86.2564 14.5187 86.5204 15.208C86.7991 15.8973 86.9384 16.8287 86.9384 18.002C86.9384 19.5273 86.6378 20.6347 86.0364 21.324C85.4351 21.9987 84.4524 22.336 83.0884 22.336H79.7664ZM79.7664 20.268H82.7364C83.2498 20.268 83.6018 20.202 83.7924 20.07C83.9978 19.938 84.1004 19.696 84.1004 19.344V16.418C84.1004 16.066 83.9978 15.824 83.7924 15.692C83.6018 15.56 83.2498 15.494 82.7364 15.494H79.7664V20.268ZM84.6064 20.84L87.5764 27H84.6284L82.0984 21.654L84.6064 20.84ZM98.045 27L96.395 23.524C96.2043 23.1133 96.021 22.688 95.845 22.248C95.6837 21.808 95.603 21.3827 95.603 20.972H92.831V18.904H95.603C95.603 18.4933 95.6837 18.068 95.845 17.628C96.0063 17.188 96.1897 16.7627 96.395 16.352L97.935 13.25H100.883L97.605 19.938L100.993 27H98.045ZM90.477 27V13.25H93.183V27H90.477ZM111.979 26.758C111.436 26.9633 110.864 27.11 110.263 27.198C109.662 27.286 108.958 27.33 108.151 27.33C107.095 27.33 106.23 27.22 105.555 27C104.88 26.7653 104.345 26.3767 103.949 25.834C103.568 25.2913 103.296 24.558 103.135 23.634C102.974 22.6953 102.893 21.5293 102.893 20.136C102.893 18.7133 102.974 17.54 103.135 16.616C103.311 15.6773 103.597 14.944 103.993 14.416C104.404 13.8733 104.968 13.492 105.687 13.272C106.406 13.0373 107.322 12.92 108.437 12.92C108.76 12.92 109.134 12.942 109.559 12.986C109.984 13.0153 110.395 13.0667 110.791 13.14C111.187 13.2133 111.51 13.3013 111.759 13.404L111.407 15.604C111.07 15.516 110.688 15.4427 110.263 15.384C109.852 15.3253 109.456 15.2813 109.075 15.252C108.694 15.208 108.378 15.186 108.129 15.186C107.293 15.186 106.692 15.2887 106.325 15.494C105.973 15.6993 105.797 16.1467 105.797 16.836V24.778C106.164 24.866 106.552 24.9393 106.963 24.998C107.374 25.042 107.792 25.064 108.217 25.064C108.818 25.064 109.42 25.0127 110.021 24.91C110.637 24.8073 111.209 24.6753 111.737 24.514L111.979 26.758ZM117.438 27H114.732V13.25H117.438V27ZM122.608 13.25H125.292V27H122.608V13.25ZM122.96 21.214H117.086V19.146H122.96V21.214ZM131.993 22.336V27H129.287V13.25H134.985C136.012 13.25 136.826 13.404 137.427 13.712C138.043 14.02 138.483 14.5187 138.747 15.208C139.026 15.8973 139.165 16.8287 139.165 18.002C139.165 19.5273 138.865 20.6347 138.263 21.324C137.662 21.9987 136.679 22.336 135.315 22.336H131.993ZM131.993 20.268H134.963C135.477 20.268 135.829 20.202 136.019 20.07C136.225 19.938 136.327 19.696 136.327 19.344V16.418C136.327 16.066 136.225 15.824 136.019 15.692C135.829 15.56 135.477 15.494 134.963 15.494H131.993V20.268ZM136.833 20.84L139.803 27H136.855L134.325 21.654L136.833 20.84ZM142.176 20.136C142.176 18.6693 142.256 17.4667 142.418 16.528C142.594 15.5893 142.887 14.856 143.298 14.328C143.723 13.8 144.31 13.4333 145.058 13.228C145.82 13.0227 146.796 12.92 147.984 12.92C149.142 12.92 150.103 13.0227 150.866 13.228C151.628 13.4333 152.215 13.8073 152.626 14.35C153.051 14.878 153.352 15.6113 153.528 16.55C153.704 17.474 153.792 18.6693 153.792 20.136C153.792 21.6027 153.704 22.8053 153.528 23.744C153.352 24.668 153.051 25.394 152.626 25.922C152.215 26.45 151.628 26.8167 150.866 27.022C150.103 27.2273 149.142 27.33 147.984 27.33C146.796 27.33 145.82 27.2273 145.058 27.022C144.31 26.8167 143.723 26.45 143.298 25.922C142.887 25.394 142.594 24.668 142.418 23.744C142.256 22.8053 142.176 21.6027 142.176 20.136ZM145.08 25.02H149.018C149.722 25.02 150.206 24.91 150.47 24.69C150.748 24.47 150.888 24.0813 150.888 23.524V15.23H146.906C146.216 15.23 145.74 15.34 145.476 15.56C145.212 15.78 145.08 16.1687 145.08 16.726V25.02ZM157.369 27V13.25H160.009L164.805 20.972C165.01 21.324 165.15 21.588 165.223 21.764C165.311 21.94 165.355 22.1453 165.355 22.38H165.487V13.25H168.193V27H165.553L160.779 19.278C160.559 18.926 160.412 18.662 160.339 18.486C160.266 18.31 160.222 18.1047 160.207 17.87H160.075V27H157.369Z" fill="#F2F3F4"/>
<defs>
<clipPath id="clip0_36_459">
<rect width="32" height="32" fill="white" transform="translate(0 4)"/>
</clipPath>
</defs>
</svg>
