<svg width="193" height="136" viewBox="0 0 193 136" fill="none" xmlns="http://www.w3.org/2000/svg">
<path d="M153.431 66.1972C152.716 66.032 151.995 65.8908 151.292 65.7789C152.098 51.4085 142.514 38.0895 128.039 34.7475C121.41 33.2169 114.797 34.0071 109.053 36.5845C105.918 26.0135 97.3412 17.3595 85.8233 14.7003C68.773 10.7637 51.7696 21.4196 47.8226 38.5151C47.5742 39.591 47.3734 40.6779 47.2498 41.7575C46.5693 41.55 45.8594 41.3609 45.144 41.1958C28.0937 37.2592 11.0903 47.9151 7.14326 65.0106C3.19625 82.106 13.8072 99.1375 30.8575 103.074L139.145 128.076C156.195 132.012 173.198 121.356 177.145 104.261C181.092 87.1653 170.482 70.1338 153.431 66.1972Z" fill="#525252"/>
<path d="M96.7584 24.4529C94.1066 22.8836 91.1702 21.6768 88.0224 20.95C71.5683 17.1511 55.1522 27.4389 51.3432 43.9366C51.1003 44.9886 50.9106 46.0278 50.798 47.0595C50.1414 46.8575 49.4553 46.674 48.7638 46.5143C32.3096 42.7153 15.8936 53.0032 12.0846 69.5009C10.837 74.9045 11.0919 80.3276 12.6095 85.2867C14.5728 71.5612 22.5634 46.3079 54.6128 54.3622C56.3104 45.4864 64.2491 18.2819 96.7584 24.4529Z" fill="#4C4C4C"/>
<path d="M45.7854 106.521L139.145 128.076C156.195 132.012 173.198 121.356 177.145 104.261C177.99 100.603 178.152 96.9631 177.758 93.4471C148.213 128.834 80.4287 109.432 45.7854 106.521Z" fill="#494949"/>
</svg>
