<svg width="403" height="244" viewBox="0 0 403 244" fill="none" xmlns="http://www.w3.org/2000/svg">
<path opacity="0.7" d="M362.253 83.4189C360.394 83.4189 358.534 83.4809 356.736 83.605C350.537 47.7411 319.293 20.3778 281.663 20.3778C264.43 20.3778 248.56 26.0862 235.851 35.7037C222.089 11.4428 195.99 -5 166.048 -5C121.724 -5 85.8301 30.926 85.8301 75.2906C85.8301 78.0827 85.9541 80.8749 86.264 83.605C84.4662 83.4809 82.6065 83.4189 80.7467 83.4189C36.4223 83.4189 0.528809 119.345 0.528809 163.709C0.528809 208.074 36.4223 244 80.7467 244H362.253C406.578 244 442.471 208.074 442.471 163.709C442.471 119.345 406.578 83.4189 362.253 83.4189Z" fill="url(#paint0_linear_36_378)" fill-opacity="0.5"/>
<path d="M198.594 12.8081C191.155 10.4502 183.22 9.14722 175.037 9.14722C132.262 9.14722 97.6085 43.8322 97.6085 86.6456C97.6085 89.3757 97.7325 92.0438 98.0424 94.6498C96.3066 94.5257 94.5089 94.4637 92.7111 94.4637C49.9365 94.4637 15.2828 129.149 15.2828 171.962C15.2828 185.985 19.0024 199.201 25.5735 210.556C22.5979 175.623 27.9292 108.859 111.619 110.472C110.751 87.6384 114.842 16.0966 198.594 12.8081Z" fill="url(#paint1_linear_36_378)" fill-opacity="0.5"/>
<path d="M119.554 244H362.253C406.578 244 442.471 208.074 442.471 163.71C442.471 154.216 440.797 145.157 437.822 136.719C385.066 240.712 206.715 231.466 119.554 244Z" fill="url(#paint2_linear_36_378)" fill-opacity="0.5"/>
<defs>
<linearGradient id="paint0_linear_36_378" x1="221.5" y1="-5" x2="221.5" y2="216.623" gradientUnits="userSpaceOnUse">
<stop stop-color="white"/>
<stop offset="1" stop-color="#161632"/>
</linearGradient>
<linearGradient id="paint1_linear_36_378" x1="106.938" y1="9.14722" x2="106.938" y2="188.412" gradientUnits="userSpaceOnUse">
<stop stop-color="white"/>
<stop offset="1" stop-color="#161632"/>
</linearGradient>
<linearGradient id="paint2_linear_36_378" x1="281.013" y1="136.719" x2="281.013" y2="232.205" gradientUnits="userSpaceOnUse">
<stop stop-color="white"/>
<stop offset="1" stop-color="#161632"/>
</linearGradient>
</defs>
</svg>
