<svg width="266" height="167" viewBox="0 0 266 167" fill="none" xmlns="http://www.w3.org/2000/svg">
<path opacity="0.7" d="M204.467 67.8233C203.041 67.8233 201.614 67.8709 200.235 67.9661C195.48 40.456 171.514 19.4665 142.649 19.4665C129.43 19.4665 117.257 23.8453 107.508 31.2225C96.9517 12.6128 76.9322 0 53.9645 0C19.9646 0 -7.5681 27.5577 -7.5681 61.5883C-7.5681 63.7301 -7.473 65.8719 -7.23524 67.9661C-8.61425 67.8709 -10.0408 67.8233 -11.4674 67.8233C-45.4673 67.8233 -73 95.381 -73 129.412C-73 163.442 -45.4673 191 -11.4674 191H204.467C238.467 191 266 163.442 266 129.412C266 95.381 238.467 67.8233 204.467 67.8233Z" fill="url(#paint0_linear_36_386)" fill-opacity="0.5"/>
<path d="M78.9294 13.6599C73.2232 11.8513 67.1365 10.8518 60.8596 10.8518C28.0485 10.8518 1.46682 37.4576 1.46682 70.2984C1.46682 72.3925 1.56192 74.4392 1.79968 76.4382C0.46822 76.343 -0.910797 76.2954 -2.28981 76.2954C-35.1009 76.2954 -61.6826 102.901 -61.6826 135.742C-61.6826 146.498 -58.8294 156.636 -53.7889 165.346C-56.0714 138.55 -51.9819 87.3375 12.2136 88.575C11.5479 71.0599 14.6863 16.1825 78.9294 13.6599Z" fill="url(#paint1_linear_36_386)" fill-opacity="0.5"/>
<path d="M18.3003 191H204.467C238.467 191 266 163.442 266 129.412C266 122.13 264.716 115.181 262.434 108.708C221.967 188.478 85.1588 181.386 18.3003 191Z" fill="url(#paint2_linear_36_386)" fill-opacity="0.5"/>
<defs>
<linearGradient id="paint0_linear_36_386" x1="96.5" y1="0" x2="96.5" y2="170" gradientUnits="userSpaceOnUse">
<stop stop-color="white"/>
<stop offset="1" stop-color="#161632"/>
</linearGradient>
<linearGradient id="paint1_linear_36_386" x1="8.62344" y1="10.8518" x2="8.62344" y2="148.36" gradientUnits="userSpaceOnUse">
<stop stop-color="white"/>
<stop offset="1" stop-color="#161632"/>
</linearGradient>
<linearGradient id="paint2_linear_36_386" x1="142.15" y1="108.708" x2="142.15" y2="181.952" gradientUnits="userSpaceOnUse">
<stop stop-color="white"/>
<stop offset="1" stop-color="#161632"/>
</linearGradient>
</defs>
</svg>
