<svg width="475" height="470" viewBox="0 0 475 470" fill="none" xmlns="http://www.w3.org/2000/svg">
<path d="M311.376 115.41C310.08 116.654 308.825 117.942 307.655 119.232C279.294 98.341 239.176 100.144 212.95 125.324C200.939 136.856 193.705 151.461 191.294 166.68C165.44 158.95 136.228 164.935 115.36 184.971C84.4676 214.631 83.5334 263.732 113.272 294.706C115.144 296.655 117.102 298.522 119.148 300.22C117.812 301.337 116.474 302.538 115.178 303.782C84.2854 333.442 83.3512 382.543 113.09 413.517C142.828 444.491 191.927 445.555 222.819 415.895L419.017 227.523C449.909 197.863 450.843 148.762 421.105 117.788C391.366 86.814 342.268 85.7499 311.376 115.41Z" fill="#525252"/>
<path d="M149.98 175.625C143.215 178.957 136.811 183.357 131.108 188.833C101.296 217.456 100.394 264.861 129.092 294.752C130.923 296.658 132.797 298.438 134.76 300.05C133.467 301.125 132.173 302.284 130.92 303.487C101.108 332.11 100.206 379.515 128.905 409.406C138.304 419.196 149.756 425.935 161.947 429.465C136.457 407.067 95.4191 356.887 154.828 302.012C138.918 286.651 93.8131 233.964 149.98 175.625Z" fill="#4C4C4C"/>
<path d="M249.866 389.927L419.017 227.523C449.909 197.863 450.843 148.762 421.105 117.788C414.741 111.16 407.502 105.955 399.772 102.055C432.712 209.961 302.212 322.852 249.866 389.927Z" fill="#494949"/>
</svg>
