<svg width="236" height="191" viewBox="0 0 236 191" fill="none" xmlns="http://www.w3.org/2000/svg">
<path opacity="0.7" d="M174.467 67.8233C173.041 67.8233 171.614 67.8709 170.235 67.9661C165.48 40.456 141.514 19.4665 112.649 19.4665C99.4299 19.4665 87.2565 23.8453 77.5083 31.2225C66.9517 12.6128 46.9322 0 23.9645 0C-10.0354 0 -37.5681 27.5577 -37.5681 61.5883C-37.5681 63.7301 -37.473 65.8719 -37.2352 67.9661C-38.6143 67.8709 -40.0408 67.8233 -41.4674 67.8233C-75.4673 67.8233 -103 95.381 -103 129.412C-103 163.442 -75.4673 191 -41.4674 191H174.467C208.467 191 236 163.442 236 129.412C236 95.381 208.467 67.8233 174.467 67.8233Z" fill="#C8C5C5"/>
<path d="M48.9294 13.6599C43.2232 11.8512 37.1365 10.8517 30.8596 10.8517C-1.95147 10.8517 -28.5332 37.4575 -28.5332 70.2983C-28.5332 72.3925 -28.4381 74.4391 -28.2003 76.4381C-29.5318 76.3429 -30.9108 76.2953 -32.2898 76.2953C-65.1009 76.2953 -91.6826 102.901 -91.6826 135.742C-91.6826 146.498 -88.8294 156.636 -83.7889 165.346C-86.0714 138.55 -81.9819 87.3374 -17.7864 88.5749C-18.4521 71.0598 -15.3137 16.1824 48.9294 13.6599Z" fill="#4C4C4C"/>
<path d="M-11.6997 191H174.467C208.467 191 236 163.442 236 129.412C236 122.13 234.716 115.181 232.434 108.708C191.967 188.477 55.1588 181.386 -11.6997 191Z" fill="white" fill-opacity="0.5"/>
</svg>
