<svg id="Layer_1" data-name="Layer 1" xmlns="http://www.w3.org/2000/svg" viewBox="0 0 60 60"><defs><style>.cls-1{fill:none;}</style></defs><title>devops</title><rect class="cls-1" width="60" height="60"/><path d="M38.06,44.88l-2.82-4L40,40.3l-.67,1.83a11.42,11.42,0,0,0,9-.48,11.74,11.74,0,0,0,6.41-13.1,11.89,11.89,0,0,0-11.64-9.24,11.75,11.75,0,0,0-11.34,9.3c-.31,1.53-.27,3.12-.52,4.66a12.66,12.66,0,0,1-25-.53,11.94,11.94,0,0,1,2.32-9.19,12.44,12.44,0,0,1,14-4.56l.9.25,1.06-1.58,2.34,4.18H22l1-1.73a11.2,11.2,0,0,0-9.11.33,11.76,11.76,0,0,0,5,22.42A11.86,11.86,0,0,0,30.61,31.18,12.68,12.68,0,0,1,55.8,29.05a7.27,7.27,0,0,0,.2.73V32.4a3.45,3.45,0,0,0-.18.51A12.57,12.57,0,0,1,41.47,43.59c-.82-.11-1.62-.32-2.57-.51l-.62,1.8ZM24.48,19.45l-.84,1.47h1.64ZM38.6,41.39l-1.71.25,1,1.37Z"/><path d="M14.63,38.34l-3.3-3.27a13,13,0,0,0,1.11-1,.87.87,0,0,0,.21-.64c0-.08-.34-.19-.54-.21-.47,0-.94,0-1.49,0V29c.29,0,.6,0,.9-.08s.79-.18,1.19-.28c-.23-.34-.44-.7-.7-1a3.23,3.23,0,0,0-.59-.46l3.17-3c.14.12.43.44.76.7a5.05,5.05,0,0,0,.81.39,5.32,5.32,0,0,0,.22-.78c0-.39,0-.79,0-1.27h4.2c.05.09.08.12.09.15.11.65.22,1.29.34,1.94l1.6-1.17,3.13,3.12c-.32.24-.73.49-1.07.8a2.06,2.06,0,0,0-.31.63,2.76,2.76,0,0,0,.66.24c.43,0,.87,0,1.39,0v4.26l-2.4.21,1.53,1.7-3,3-1.66-1.52L20.62,39H16.38c0-.51,0-1,0-1.5a.71.71,0,0,0-.25-.53.61.61,0,0,0-.54.18A15.54,15.54,0,0,0,14.63,38.34Zm3-14.22A6.76,6.76,0,0,1,16.73,26c-1,.95-1.62-.15-2.21-.62L12.82,27c.21.7,1.36.85.84,2.06s-1.4.58-2.1.93v2.37c1.4-.27,2.18.28,2.31,1.67l-1,1,1.53,1.79c.75-.45,1-1.37,2.18-.86s.41,1.49.85,2h2.3c.13-.82-.2-1.64.94-2.1s1.32.76,1.84.84l1.82-1.52c-.39-.76-1.4-1-.87-2.17s1.48-.44,2.06-.88V29.91c-.77-.24-1.63.23-2.12-.94s.74-1.32.85-1.95l-1.56-1.76-1.26,1.15c-1.43-.17-1.94-1-1.63-2.29Z"/><path d="M36.6,35l1.52-1.64-2.44-.22V28.9c.43,0,.86,0,1.27,0a3.72,3.72,0,0,0,.79-.22,2.63,2.63,0,0,0-.36-.71,9.52,9.52,0,0,0-1-.8l3.44-3.28a10.4,10.4,0,0,0,.77,1.1.8.8,0,0,0,.64.2c.09,0,.19-.34.2-.54,0-.46,0-.93,0-1.47h4.32c0,.52,0,1,0,1.52a.69.69,0,0,0,.24.52.62.62,0,0,0,.55-.17c.35-.36.65-.77,1-1.2l3.2,3.41c-.3.22-.72.5-1.1.83a.68.68,0,0,0-.19.56c.05.13.33.24.52.25.49,0,1,0,1.54,0v4.33c-.49,0-.92,0-1.34,0a3.51,3.51,0,0,0-.75.26,3.28,3.28,0,0,0,.38.72,9.16,9.16,0,0,0,.86.8l-3.16,3a10.37,10.37,0,0,0-.77-.72,4.47,4.47,0,0,0-.71-.4,3.89,3.89,0,0,0-.27.86,9.73,9.73,0,0,0,0,1.22H41.48l-.22-2.45-1.7,1.57Zm2.74,1.77c.81-.14.87-1.3,2-.93s1,1.29,1.06,2.14H44.7c.35-.68-.27-1.43.72-2,1.21-.65,1.57.34,2.15.73l1.79-1.6L48.17,33.9c.22-.5.31-1.15.66-1.37a4.72,4.72,0,0,1,1.7-.34V29.9c-.82-.2-1.65.22-2.12-1s.85-1.29.68-1.88L47.7,25.27l-1.21,1.11c-1.48-.1-1.94-.92-1.65-2.27h-2.5c.4,1.46-.36,2.08-1.66,2.32l-1.13-1.05L37.82,27c.35.69,1.37.9.86,2.1s-1.44.51-2.09.9V32.2c.73.32,1.63-.24,2.11.94s-.67,1.35-.84,2Z"/><path d="M18.53,28.37a2.7,2.7,0,0,1,0,5.39,2.7,2.7,0,1,1,0-5.39Zm0,.93a1.77,1.77,0,1,0,0,3.54,1.77,1.77,0,0,0,0-3.54Z"/><path d="M43.56,33.76a2.7,2.7,0,0,1,0-5.39,2.71,2.71,0,0,1,2.72,2.71A2.68,2.68,0,0,1,43.56,33.76Zm1.77-2.68a1.77,1.77,0,1,0-1.81,1.76A1.74,1.74,0,0,0,45.33,31.08Z"/></svg>