<svg xmlns="http://www.w3.org/2000/svg" viewBox="0 0 600 600"><defs><style>.cls-1{fill:#ff9c42;}.cls-2{fill:#2c28dd;}.cls-3{fill:none;}</style></defs><title>icosandro</title><g id="Layer_3" data-name="Layer 3"><path class="cls-1" d="M548.07,365c-2.17,5.77-5.72,10.18-11.91,12-10.61-1.06-21.26,0-31.88-.55,10.36.63,20.76-.73,31.11.71-2.81,1.5-5.85.78-8.78.81-10.43.12-20.85.1-31.28.13-1.64,1.56-.6,3.47-.6,5.2q-.06,35.6,0,71.2c0,1.93.52,4.14-2.73,4-9.6-.28-19.22.43-28.82-.38a5.12,5.12,0,0,1-.43-2.91q0-35.88,0-71.75a3.91,3.91,0,0,1,.39-2.22c.37-.59.82.35.25,0-.28-.16-.41-.1-.47.19a31.42,31.42,0,0,0-.16,5.9c0,22.09,0,44.18,0,66.27,0,1.79.48,3.65-.48,5.37h-1c-2.89-2.34-2.42-5.67-2.43-8.77-.09-19,0-37.93,0-56.89,0-1.83.07-3.66-.09-5.49-.43-5-2.19-6.84-7.12-7.24-2.81-.23-5.65-.22-8.47-.32-10.93.32-21.85.35-32.78,0-9,.32-18,.4-27.06-.18-11.67.86-23.36.18-35,.37q-95.25.11-190.5,0c-3.61,0-7.39-.5-10.42,2.26s-3.49,6.14-3.47,10q.1,29.64,0,59.27c0,6.37-.15,6.57-6.33,6.46-9.43-.19-18.88.59-28.3-.44-.78-5.63-.3-11.29-.32-16.94-.07-19.48,0-39-.07-58.44,0-1.52.89-3.33-.84-4.58-10.81,0-21.62,0-32.43-.09-2.47,0-5,.39-7.33-.88,7.87-1.28,15.8-.26,23.7-.57,2.15-.08,4.31,0,6.47-.05-10.33.38-20.67-.53-31,.46-3.48-.34-5.5-3.12-8.13-4.86-.16-2.76-2.5-4.49-3.22-7-1.27-4.43-.33-8.7.39-13,4.15-5.89,8.71-11.09,16.95-10.15,1,1,2.19.63,3.32.63q44.65,0,89.31,0c1.13,0,2.34.28,3.35-.55.07-3.44-2.52-5.56-4.49-7.6-8.48-8.76-14.28-19-18.34-30.39-.33-5.07-3-9.59-3.41-14.65-1.48-9.1-2.8-18.2-.82-27.4,1.26-18.9,15.31-33.66,32.1-36.7,5-.09,9.92,0,14.89,0,3.74.19,7.16,1.65,10.41,3.21,6.8,3.26,13.4,3.16,20.26.33,3.67-1.52,7.37-3.09,11.39-3.54,5.38.67,10.73-1.26,16.22.2,2,.54,4.32,2,6.71.83,7.35,1.77,11.88,7.62,17.38,12.06,1.31,1.06.68,1.84-.42,2.73a46.67,46.67,0,0,0-10.8,11.47c-10.91,17.38-4.25,38.68,12.31,48.5,4.61,2.73,4.21,4.91,2.47,8.83-5.19,11.65-12.62,21.73-21,31.22a3.76,3.76,0,0,0,2.41,1c20.75.1,41.51,0,62.26,0a12.78,12.78,0,0,0,4-.31c2.81-.88,4,1.15,5,3,4,7.58,10.67,9.67,18.56,8.55,23.05-3.26,46.16-6.1,69.23-9.23,10.38-1.41,20.74-3,31.15-4.17,2.49-.29,5-.45,7.1,1.42,1.85,1.11,3.9.68,5.86.68q33,0,65.93,0c3.16,0,6.32,0,9.47.18,6.73,1.32,10.18,6.18,12.85,11.9C548.19,357.74,548,361.37,548.07,365Z" transform="translate(-1.5 0.5)"/><path class="cls-2" d="M457,340.19c-9.23-.32-21.84,3.94-30.9,5.09-26.27,3.35-52.5,7-78.74,10.52-11.81,1.58-18.74-.32-22.72-11.66-.49-1.39-1.27-9.2-1.64-8.95" transform="translate(-1.5 0.5)"/><path class="cls-2" d="M323.7,335.88c-1.2-9.24-2.3-18.49-3.49-27.74a11.46,11.46,0,0,0-2.2-5.78c-.78,2.47-1.53,4.94-2.36,7.39-1.56,4.57-2.92,9.22-4.81,13.65-4.14,9.73-14.76,13.21-24.08,8.13-6.28-3.42-8.48-8.62-6.12-16.65,4.28-14.53,8.93-28.95,13.48-43.39,1.66-5.24,3.83-10.33,5.17-15.64,2.66-10.55,9.76-15.32,20-16.6q20.31-2.53,40.6-5.23,43-5.76,86.08-11.65c3.69-.51,6.48-.62,7.09,4.2q5.93,46.29,12.07,92.56c-.17,3.94-.16,7.89,0,11.84-.78,5-4.1,8.28-9.07,11" transform="translate(-1.5 0.5)"/><path class="cls-2" d="M395.14,160.22c7.87.84,7.86.83,10.75-6.43,1.35-3.41,2.72-6.81,4.18-10.17.76-1.77,1.46-4.41,4-3.44,2.27.87,1,3.24.41,4.84-1.79,4.65-3.68,9.28-5.75,13.82-1.25,2.72-.7,4,2.11,5.31,20.3,9.14,32.44,25.33,39.38,46,1.17,3.48.3,4.62-3.32,5.1q-65.61,8.69-131.17,17.64c-4.27.58-5.73-1.17-5.67-5.23.34-20.31,7-37.89,22.54-51.42,3.65-3.18,3.87-5.52,1-9.07a128.41,128.41,0,0,1-7.79-11c-.88-1.36-2.68-3.33-.34-4.69,2-1.14,3.36.64,4.44,2.19,2.67,3.82,5.47,7.56,7.94,11.51,2.15,3.46,4.32,4.14,8.19,2.2a66.18,66.18,0,0,1,25.31-7.17c4.22,1.08,8.4-.37,12.64-.2C387.67,160.15,391.41,160.67,395.14,160.22Z" transform="translate(-1.5 0.5)"/><path class="cls-2" d="M460,233.32c-.15-9,5.84-15.88,14.47-16.71A16,16,0,0,1,492,230.18c3,21.6,5.89,43.2,8.58,64.84,1.14,9.21-4.75,16.74-13.44,18-9.15,1.33-17.17-4.09-18.5-13.37-3.08-21.41-5.73-42.89-8.54-64.34C460,234.65,460,234,460,233.32Z" transform="translate(-1.5 0.5)"/><path class="cls-2" d="M395.14,160.22a65.93,65.93,0,0,1-23.81,0C379.26,159.1,387.2,158.48,395.14,160.22Z" transform="translate(-1.5 0.5)"/><path class="cls-1" d="M242.2,188.29c0-2-.52-3.33-2.89-2.12-12.43,2.52-21.1,9.84-26.81,21a31,31,0,0,0-3.29,13.8c0,1.74-.05,3.46,2.48,3.12,5.92-.77,11.73-1.81,15.74-6.92,6.83-5.15,12.12-11.35,13.7-20.08A24.74,24.74,0,0,0,242.2,188.29Z" transform="translate(-1.5 0.5)"/><path class="cls-2" d="M383.27,378.07c2.47,10.19,7.07,19.65,10.13,29.65.82,2.69,1.79,5.32,1.37,8.26-1,7.44-6.18,13.17-12.77,14.08-9.21,1.27-15.21-1.57-18.52-9.82-4.14-10.32-7.65-20.89-11.43-31.36-1.29-3.59-2.56-7.19-3.84-10.79Z" transform="translate(-1.5 0.5)"/><path class="cls-2" d="M443.31,378.16c-1.69,13.55-5.24,26.72-8.53,39.92-2.32,9.27-10.78,13.71-19.68,11.41-8.48-2.19-13.4-10.05-11.62-19.24,1.7-8.8,3.83-17.52,5.73-26.28.42-1.94.65-3.92,1-5.88Z" transform="translate(-1.5 0.5)"/></g><g id="rectangle"><rect class="cls-3" width="600" height="600"/></g></svg>