<svg id="Layer_1" data-name="Layer 1" xmlns="http://www.w3.org/2000/svg" viewBox="0 0 60 60"><defs><style>.cls-1{fill:none;}</style></defs><title>migrationserv</title><rect class="cls-1" width="60" height="60"/><path d="M19.19,22.92H11a7.39,7.39,0,0,1-1.24-.09A5,5,0,0,1,10.44,13c.32,0,.65,0,1,0C12,9.2,14,6.47,17.56,5.19a8.92,8.92,0,0,1,9.49,2.08,21.46,21.46,0,0,1,2.68-.88,5.74,5.74,0,0,1,6.55,4.74.75.75,0,0,0,.56.68,11.15,11.15,0,0,1,1.91.91A19.47,19.47,0,0,1,40.49,14a5.67,5.67,0,0,1,6.36-.21,5.76,5.76,0,0,1,2.8,5.75c.58.05,1.17.05,1.74.15a5,5,0,0,1-.68,9.86c-1.7,0-3.4,0-5.09,0h-.38a7.06,7.06,0,0,1,.27,1.2c.05.87,0,1.73,0,2.6s-.1,1-.94,1.24l-.21.09.22.41a.86.86,0,0,1-.15,1.13l-2.17,2.17c-.49.48-.65.47-1.63,0-.08,1.1-.82,1.28-1.74,1.13v10c.23,0,.46,0,.69,0a.82.82,0,0,1,.82,1A21.53,21.53,0,0,1,40,52.74a2.46,2.46,0,0,1-2.22,1.75,4.34,4.34,0,0,1-.51,0H8.92a2.53,2.53,0,0,1-2.86-2.42l-.24-1.33c-.16-.85.14-1.22,1-1.23h.46V34.07a2.55,2.55,0,0,1,2.86-2.84H30.46l.38-1.64-.28,0H24.12a5,5,0,0,1-5-6.37ZM31.75,34.64c-1.23,0-1.23-.88-1.19-1.73H10c-.74,0-1,.29-1,1.05V49.11c0,.13,0,.26,0,.4h.61c3.53,0,7.06,0,10.59,0,.64,0,1.13.13,1.26.82h3.25c.26-.7.42-.81,1.15-.81H37.19v-10c-.95.19-1.65,0-1.75-1.12-1,.54-1.11.53-1.89-.25L32,36.6C31.18,35.77,31.18,35.73,31.75,34.64Zm8.91-8.92c1.12-.5,1.12-.5,2,.39.51.51,1,1,1.54,1.53a.89.89,0,0,0,.53.26c2,0,4,0,6,0a3.3,3.3,0,0,0,.54-6.52,13.3,13.3,0,0,0-2.28-.1c-1.12,0-1.37-.35-1.09-1.44a4.15,4.15,0,0,0-6.68-4.25c-.81.67-1,.64-1.75-.14a7.25,7.25,0,0,0-7.65-2.16,7.4,7.4,0,0,0-5.38,6.94c0,.78-.29,1-1.08,1H24a3.33,3.33,0,1,0,0,6.65q3.61,0,7.22,0a1.06,1.06,0,0,0,.67-.28c.66-.61,1.29-1.25,1.91-1.9a.93.93,0,0,1,1.26-.18c.11.07.23.12.37.2.06-.21.09-.38.15-.54a.81.81,0,0,1,.81-.61c1.11,0,2.22,0,3.32,0,.27,0,.55.33.77.56S40.61,25.53,40.66,25.72Zm-6-14.42a4.13,4.13,0,0,0-6.69-2.37c-.82.68-1,.65-1.76-.13a7.21,7.21,0,0,0-7.09-2.31,7.4,7.4,0,0,0-5.94,7.12c0,.72-.31,1-1,1h-1.4a3.32,3.32,0,1,0,0,6.64q4.56,0,9.13,0a1,1,0,0,0,.63-.25,4.86,4.86,0,0,1,2.7-1.32c.52-.07,1.06-.08,1.61-.12a9.23,9.23,0,0,1,9.83-8.26ZM32.25,33.07c.34.09.66.16,1,.26a.83.83,0,0,1,.53,1.23c-.11.23-.28.44-.38.67a.44.44,0,0,0,0,.39c.38.45.79.87,1.14,1.26.68-.19,1.08-.87,1.77-.56s.46,1.06.77,1.53h2c.09-.32.15-.63.24-.92a.83.83,0,0,1,1.3-.54c.21.11.41.26.63.35a.44.44,0,0,0,.39,0c.44-.38.86-.79,1.26-1.16-.89-1.83-.89-1.83,1-2.51V31.09c-.51-.3-1.27-.1-1.56-.79s.42-1.08.52-1.54L41.4,27.3c-.53.14-.91.79-1.59.52s-.49-1-.79-1.55h-2c-.46,1.83-.74,2-2.53.94-.19.22-.37.5-.6.73-.68.7-.69.69-.23,1.54a.85.85,0,0,1-.58,1.35l-.88.24ZM7.63,51.19c.1,1.51.31,1.66,1.6,1.66q14,0,27.93,0a1.23,1.23,0,0,0,.51,0,1.64,1.64,0,0,0,.72-.56,3.83,3.83,0,0,0,.22-1.06H26.46c-.27.69-.43.81-1.15.81-1.44,0-2.88,0-4.31,0-.65,0-1.13-.13-1.26-.83Z"/><path d="M49.68,31.26h1.66v9.66a4.17,4.17,0,0,1-4.46,4.44h-6.3V43.7H46.8a2.54,2.54,0,0,0,2.88-2.86V31.26Z"/><path d="M20.56,42H19V40.41h1.58Z"/><path d="M23.9,42H22.3v-1.6h1.6Z"/><path d="M27.22,42h-1.6v-1.6h1.6Z"/><path d="M38.05,28.74a3.33,3.33,0,1,1-3.32,3.33A3.34,3.34,0,0,1,38.05,28.74Zm0,5a1.66,1.66,0,1,0-1.66-1.64A1.67,1.67,0,0,0,38.05,33.72Z"/></svg>