<svg id="Layer_1" data-name="Layer 1" xmlns="http://www.w3.org/2000/svg" xmlns:xlink="http://www.w3.org/1999/xlink" viewBox="0 0 60 60"><defs><style>.cls-1{fill:none;}.cls-2{clip-path:url(#clip-path);}.cls-3{fill:#161632;}</style><clipPath id="clip-path"><rect id="SVGID" class="cls-1" x="4.18" y="3.99" width="52.01" height="52.01"/></clipPath></defs><title>mobileapp</title><g class="cls-2"><path class="cls-3" d="M15.1,30H11.68A2.6,2.6,0,0,1,9,27.33Q9,23.64,9,20a2.56,2.56,0,0,1,2.4-2.63c1-.09,1.92,0,2.88-.05h.81v-.78c0-2.44-.05-4.87,0-7.3A5.35,5.35,0,0,1,20.47,4Q29.59,4,38.71,4a5.46,5.46,0,0,1,5.4,5.55c0,3.68,0,7.36,0,11v.65l.22.08a7.55,7.55,0,0,0,.54-1.06c.21-.61.37-.74,1-.6a11.19,11.19,0,0,1,3.78,1.55c.57.36.62.59.3,1.15a1.6,1.6,0,0,0,.17,2,1.58,1.58,0,0,0,2.07.17c.51-.32.88-.21,1.1.29.56,1.24,1.11,2.49,1.58,3.77.24.64,0,.86-.62,1.06A1.61,1.61,0,0,0,53,31.27a1.59,1.59,0,0,0,1.32,1.55c.6.12.75.44.63,1a11.52,11.52,0,0,1-1.64,3.93.67.67,0,0,1-1,.23A1.59,1.59,0,0,0,50,40.14a.7.7,0,0,1-.25,1.09,12.18,12.18,0,0,1-3.94,1.63c-.51.12-.79-.1-.94-.61a6.94,6.94,0,0,0-.53-1.1l-.23.06v9A5.55,5.55,0,0,1,38.29,56H20.72a5.52,5.52,0,0,1-5.52-4.4A9.38,9.38,0,0,1,15.09,50V30.81C15.1,30.56,15.1,30.32,15.1,30ZM42.85,11.94H16.37v5.35h8.44a2.69,2.69,0,0,1,3,3c0,2.31,0,4.62,0,6.93A2.62,2.62,0,0,1,25,30c-2.56,0-5.12,0-7.68,0h-.93V45H42.85V41a1.45,1.45,0,0,0-1.07,1.19c-.09.5-.37.77-.9.65a12.1,12.1,0,0,1-4-1.65.68.68,0,0,1-.23-1.05,1.59,1.59,0,0,0-.14-2.07,1.55,1.55,0,0,0-2.12-.14.65.65,0,0,1-1-.22,11.6,11.6,0,0,1-1.67-4,.68.68,0,0,1,.61-.92,1.6,1.6,0,0,0,1.35-1.53,1.63,1.63,0,0,0-1.27-1.59c-.71-.21-.9-.41-.64-1.11.45-1.26,1-2.49,1.56-3.7.29-.61.54-.63,1.13-.29a1.59,1.59,0,0,0,2.23-2.2c-.33-.58-.29-.8.27-1.16a11,11,0,0,1,3.77-1.56c.69-.14.88,0,1,.64a1.44,1.44,0,0,0,1.08,1.17C42.85,18.29,42.85,15.13,42.85,11.94Zm0,34.42H16.38a1.15,1.15,0,0,0,0,.2c0,1.37,0,2.74,0,4.11a4.1,4.1,0,0,0,3.61,4,28.08,28.08,0,0,0,3.18.09H38.29a4.23,4.23,0,0,0,4.55-4C43,49.32,42.86,47.86,42.86,46.36Zm-4.94-5.88,2.67,1.11a2.94,2.94,0,0,1,5.5,0l2.65-1.12a2.8,2.8,0,0,1,.6-3.29,2.87,2.87,0,0,1,3.24-.53L53.68,34a2.93,2.93,0,0,1,0-5.48c-.37-.86-.73-1.74-1.1-2.63a3,3,0,0,1-3.27-.58A2.85,2.85,0,0,1,48.73,22l-2.67-1.08a2.94,2.94,0,0,1-5.49,0L37.92,22a2.84,2.84,0,0,1-.56,3.27,3.07,3.07,0,0,1-3.31.61l-1,2.54c.07.13.08.16.1.16a2.86,2.86,0,0,1,.18,5.21.47.47,0,0,0-.18.42c.3.82.63,1.61,1,2.42a2.87,2.87,0,0,1,3.29.58A2.8,2.8,0,0,1,37.92,40.48ZM10.22,22.15c0,1.8,0,3.52,0,5.23a1.38,1.38,0,0,0,1.48,1.4H25.09A1.39,1.39,0,0,0,26.48,27H21.35c-.42,0-.82-.09-.83-.6s.4-.65.85-.65h5.19v-5.4c0-1.33-.48-1.79-1.82-1.8H15.59c-1.31,0-2.62,0-3.93,0a1.37,1.37,0,0,0-1.43,1.36c0,.32,0,.64,0,1h2.26c.44,0,.76.17.76.62s-.32.61-.76.6C11.76,22.14,11,22.15,10.22,22.15ZM42.81,10.61a4.38,4.38,0,0,0-4.39-5.37c-2.68,0-5.37,0-8,0H20.8a4.34,4.34,0,0,0-4.36,5.39Z"/><path class="cls-3" d="M11.44,44.53a3.63,3.63,0,1,1-7.26-.08,3.61,3.61,0,0,1,3.66-3.58A3.65,3.65,0,0,1,11.44,44.53Zm-6,0a2.4,2.4,0,0,0,2.41,2.41,2.46,2.46,0,0,0,2.4-2.38,2.41,2.41,0,0,0-2.41-2.42A2.35,2.35,0,0,0,5.41,44.5Z"/><path class="cls-3" d="M53.19,7.66a3,3,0,1,1-3,3A3,3,0,0,1,53.19,7.66Zm0,1.23A1.79,1.79,0,1,0,55,10.67,1.79,1.79,0,0,0,53.18,8.89Z"/><path class="cls-3" d="M49.83,4a1,1,0,0,1,.93.94.92.92,0,0,1-1.83,0A.94.94,0,0,1,49.83,4Z"/><path class="cls-3" d="M47.39,54.78a1,1,0,0,1-.89-1,.94.94,0,0,1,.94-.86.9.9,0,0,1,.88,1A.93.93,0,0,1,47.39,54.78Z"/><path class="cls-3" d="M11.15,13.08a.88.88,0,0,1-.92-.84.92.92,0,0,1,.88-1,1,1,0,0,1,.94.93A.91.91,0,0,1,11.15,13.08Z"/><path class="cls-3" d="M5.07,5.23A.94.94,0,0,1,6,6.16a1,1,0,0,1-.92.89.91.91,0,0,1,0-1.82Z"/><path class="cls-3" d="M12.36,54.17a.92.92,0,0,1,.9.88,1,1,0,0,1-.93.94.93.93,0,0,1-.89-1A.89.89,0,0,1,12.36,54.17Z"/><path class="cls-3" d="M6.6,33.3a.93.93,0,0,1-.88.94.89.89,0,0,1-.93-.86.86.86,0,0,1,.89-1A.9.9,0,0,1,6.6,33.3Z"/><path class="cls-3" d="M52.25,16.72a.93.93,0,0,1,.93.92,1,1,0,0,1-.91.9.91.91,0,0,1-.91-.93A.87.87,0,0,1,52.25,16.72Z"/><path class="cls-3" d="M54.07,43.88a.9.9,0,0,1-.91-.87,1,1,0,0,1,.92-.94A.92.92,0,0,1,55,43,.86.86,0,0,1,54.07,43.88Z"/><path class="cls-3" d="M23.51,42.71H19.58c-.43,0-.87-.05-.88-.62s.42-.64.86-.64h7.92c.45,0,.87.1.88.63s-.42.63-.87.63Z"/><path class="cls-3" d="M23.52,37.85H19.47c-.42,0-.75-.1-.76-.58s.34-.64.78-.64h8.1c.43,0,.76.15.77.59s-.33.64-.78.63Z"/><path class="cls-3" d="M23.49,35.45H19.56c-.43,0-.87-.05-.86-.62s.44-.62.88-.62h7.86c.47,0,.92.08.92.64s-.49.61-.94.61Z"/><path class="cls-3" d="M23.53,39.07h4c.43,0,.83.08.84.57s-.38.66-.84.66h-8c-.46,0-.85-.11-.83-.66s.42-.57.83-.57Z"/><path class="cls-3" d="M29.6,53a2.42,2.42,0,1,1,2.46-2.37A2.41,2.41,0,0,1,29.6,53Zm0-3.58a1.19,1.19,0,0,0-1.23,1.17,1.21,1.21,0,0,0,1.18,1.18,1.18,1.18,0,0,0,1.22-1.18A1.15,1.15,0,0,0,29.64,49.37Z"/><path class="cls-3" d="M49.44,31.23a6.12,6.12,0,1,1-6.13-6.11A6.09,6.09,0,0,1,49.44,31.23Zm-11,0a4.88,4.88,0,1,0,4.88-4.86A4.88,4.88,0,0,0,38.45,31.21Z"/><path class="cls-3" d="M16,23.64c0-.65,0-1.3,0-2s.44-.86,1-.57q1.74,1,3.45,2c.55.33.53.82,0,1.16-1.12.67-2.25,1.32-3.4,2-.55.3-1,0-1-.6S16,24.3,16,23.64Zm2.94,0-1.69-1v1.95Z"/><path class="cls-3" d="M29.57,8.88H27.91c-.42,0-.74-.15-.74-.62s.33-.6.75-.6h3.37c.43,0,.75.17.74.61s-.33.62-.75.62Z"/><path class="cls-3" d="M46.71,31.25a3.38,3.38,0,1,1-3.38-3.4A3.4,3.4,0,0,1,46.71,31.25Zm-5.54,0a2.16,2.16,0,1,0,4.32.07,2.16,2.16,0,0,0-4.32-.07Z"/></g><rect class="cls-1" width="60" height="60"/></svg>