<svg width="29" height="29" viewBox="0 0 29 29" fill="none" xmlns="http://www.w3.org/2000/svg">
<g clip-path="url(#clip0_57_24)">
<path d="M6.08848 14.5014C5.41613 14.5014 4.80125 14.5042 4.1835 14.5014C3.32151 14.4956 2.69514 13.8759 2.68939 13.0122C2.68364 11.6436 2.68364 10.2749 2.68939 8.90624C2.69226 8.11718 3.23244 7.50889 4.02547 7.44003C4.5599 7.39412 5.0972 7.41995 5.6345 7.41421C5.76955 7.41421 5.90459 7.41421 6.08561 7.41421C6.08561 7.24492 6.08561 7.11293 6.08561 6.97807C6.08848 5.6209 6.05975 4.26372 6.10572 2.90941C6.16319 1.29686 7.47053 0.022894 9.08244 0.0142861C12.4729 -0.00866828 15.8662 -0.00866828 19.2567 0.0142861C20.9462 0.0286326 22.2564 1.39442 22.2679 3.11026C22.2823 5.16181 22.2708 7.21623 22.2708 9.26777C22.2708 9.38828 22.2708 9.50593 22.2708 9.62644C22.311 9.64365 22.3541 9.658 22.3943 9.67521C22.4978 9.4801 22.6271 9.29073 22.696 9.08414C22.811 8.73982 22.9029 8.67096 23.2678 8.74556C24.0235 8.90337 24.7246 9.19891 25.3739 9.61209C25.69 9.81294 25.7187 9.94206 25.5406 10.2548C25.305 10.6709 25.3366 11.084 25.6325 11.3853C25.9313 11.6895 26.3738 11.7411 26.7905 11.48C27.072 11.3021 27.2818 11.3652 27.4053 11.6407C27.7156 12.3322 28.0231 13.0294 28.2846 13.741C28.4167 14.0997 28.3075 14.2231 27.9369 14.3321C27.4829 14.4641 27.2071 14.7998 27.2128 15.2101C27.2186 15.6261 27.5002 15.9848 27.9513 16.0737C28.2817 16.1397 28.365 16.3176 28.3018 16.6103C28.1323 17.3965 27.8248 18.1282 27.3852 18.8025C27.2329 19.0349 27.0519 19.075 26.8048 18.9287C26.3508 18.6561 25.9687 18.6905 25.6498 19.0033C25.3366 19.3103 25.2963 19.7178 25.5549 20.1568C25.7044 20.4121 25.6727 20.6015 25.4199 20.7622C24.7418 21.1983 24.0062 21.4939 23.2218 21.6718C22.9345 21.7377 22.7822 21.6144 22.696 21.3303C22.6328 21.1151 22.5006 20.9229 22.4001 20.7191C22.357 20.7306 22.3139 20.7421 22.2708 20.7536C22.2708 20.8712 22.2708 20.986 22.2708 21.1036C22.2708 22.6531 22.2737 24.2053 22.2708 25.7548C22.2679 27.6829 20.952 28.9971 19.024 28.9999C15.7571 28.9999 12.493 29.0028 9.2261 28.9999C7.69464 28.9971 6.46201 28.0158 6.14882 26.5438C6.08848 26.2569 6.08848 25.9556 6.08561 25.6601C6.08273 22.0907 6.08273 18.5213 6.08273 14.9519C6.08848 14.8141 6.08848 14.6793 6.08848 14.5014ZM21.5668 4.43014C16.6363 4.43014 11.723 4.43014 6.80105 4.43014C6.80105 5.42865 6.80105 6.40421 6.80105 7.41708C6.95334 7.41708 7.08838 7.41708 7.22343 7.41708C8.65144 7.41708 10.0795 7.41421 11.5046 7.41708C12.5706 7.41995 13.1596 8.01389 13.1625 9.06692C13.1625 10.3552 13.1654 11.6436 13.1625 12.9319C13.1596 13.8845 12.5476 14.4956 11.6052 14.4985C10.1772 14.5014 8.74914 14.4985 7.32399 14.4985C7.15447 14.4985 6.98782 14.4985 6.8068 14.4985C6.8068 17.319 6.8068 20.1051 6.8068 22.8912C11.7431 22.8912 16.6564 22.8912 21.564 22.8912C21.564 22.1308 21.564 21.3992 21.564 20.6388C21.2077 20.7564 21.0295 20.9802 20.9692 21.3045C20.9175 21.5857 20.7623 21.7349 20.4664 21.6689C19.6705 21.491 18.9234 21.1926 18.2367 20.745C17.9982 20.59 17.9695 20.4064 18.1074 20.1625C18.366 19.7034 18.3344 19.3161 18.0298 19.0062C17.7051 18.6791 17.3374 18.6475 16.8489 18.9287C16.6133 19.0636 16.438 19.0234 16.2944 18.8053C15.8461 18.1224 15.5329 17.3822 15.3663 16.5816C15.306 16.2947 15.3979 16.1311 15.7025 16.068C16.1622 15.9676 16.4409 15.6376 16.4553 15.2158C16.4696 14.8055 16.1909 14.4555 15.7456 14.3263C15.3519 14.2116 15.2485 14.0997 15.3893 13.7123C15.645 13.0093 15.941 12.3207 16.2599 11.6464C16.4208 11.305 16.5645 11.2964 16.892 11.4857C17.2971 11.7182 17.7281 11.6809 18.0241 11.3882C18.3229 11.0926 18.366 10.668 18.1333 10.2577C17.9494 9.93345 17.9752 9.81007 18.2855 9.61209C18.9349 9.19604 19.6331 8.9005 20.3888 8.74269C20.7738 8.66235 20.8772 8.71974 20.9721 9.10135C21.0525 9.42272 21.2192 9.64939 21.5755 9.74982C21.5668 7.97085 21.5668 6.21197 21.5668 4.43014ZM21.5726 23.6229C16.6305 23.6229 11.7172 23.6229 6.8068 23.6229C6.79531 23.6745 6.78094 23.7061 6.78094 23.7376C6.78094 24.5009 6.76945 25.2641 6.78381 26.0273C6.8068 27.1665 7.65442 28.1277 8.79511 28.2625C9.38126 28.3314 9.9789 28.3142 10.5708 28.3142C13.3895 28.3199 16.2053 28.3199 19.024 28.3142C20.452 28.3113 21.4548 27.4505 21.5611 26.0761C21.6243 25.2727 21.5726 24.4636 21.5726 23.6229ZM18.8142 20.3461C19.3314 20.5613 19.817 20.7622 20.3026 20.963C21.0209 19.4825 22.7707 19.6259 23.3684 20.9659C23.8626 20.7564 24.3539 20.547 24.851 20.3375C24.5637 19.6001 24.6786 19.0004 25.1814 18.504C25.6871 18.0077 26.302 17.9589 26.9916 18.2085C27.2013 17.6949 27.4025 17.2071 27.6007 16.7222C26.2388 16.0824 26.1497 14.3809 27.6007 13.6664C27.3996 13.1844 27.1985 12.6966 26.9916 12.2002C26.2876 12.4154 25.6727 12.3867 25.1642 11.876C24.6556 11.3624 24.5752 10.7483 24.8424 10.0425C24.3252 9.83303 23.8396 9.63504 23.354 9.43706C22.6845 10.8459 20.9548 10.8287 20.2911 9.43706C19.8055 9.63791 19.3171 9.84163 18.8171 10.0482C19.0901 10.7627 18.9981 11.3624 18.501 11.8702C17.9896 12.3982 17.3546 12.4039 16.6564 12.2088C16.4524 12.7109 16.257 13.1901 16.076 13.6291C16.1191 13.7008 16.122 13.7152 16.1306 13.7181C17.4839 14.3177 17.392 16.091 16.234 16.6218C16.1737 16.6505 16.1133 16.7968 16.1335 16.8571C16.3001 17.3104 16.4869 17.7552 16.6679 18.2056C17.3948 17.9445 18.0068 18.0191 18.5039 18.527C18.9924 19.0263 19.0987 19.6202 18.8142 20.3461ZM3.37036 10.1228C3.37036 11.1271 3.35887 12.0854 3.37611 13.0409C3.38472 13.5143 3.7209 13.8214 4.19786 13.8214C6.68612 13.8271 9.17151 13.8271 11.6598 13.8214C12.2028 13.8214 12.516 13.4225 12.4384 12.8343C12.3206 12.8343 12.1999 12.8343 12.0764 12.8343C11.2431 12.8343 10.4099 12.8343 9.57664 12.8343C9.3439 12.8343 9.11979 12.7855 9.11404 12.4986C9.1083 12.1916 9.33529 12.1371 9.58526 12.1371C10.2806 12.1371 10.9759 12.1371 11.6741 12.1371C11.9327 12.1371 12.1913 12.1371 12.4787 12.1371C12.4787 11.1013 12.4787 10.1142 12.4787 9.12431C12.4787 8.3869 12.2143 8.12579 11.4644 8.12292C9.7634 8.12292 8.0653 8.12292 6.36432 8.12292C5.6345 8.12292 4.90469 8.11718 4.17488 8.12866C3.70653 8.13727 3.40771 8.42707 3.37611 8.88903C3.36461 9.06692 3.37323 9.24482 3.37323 9.44854C3.81859 9.44854 4.22947 9.45141 4.63747 9.44854C4.87883 9.44567 5.05697 9.5461 5.05697 9.79286C5.05697 10.0396 4.8817 10.1372 4.63747 10.1314C4.2266 10.1171 3.81859 10.1228 3.37036 10.1228ZM21.5438 3.68986C21.834 2.04575 20.7393 0.708656 19.0929 0.69431C17.5988 0.679963 16.1019 0.691441 14.6078 0.691441C12.8263 0.691441 11.0449 0.69431 9.26633 0.691441C7.60844 0.688571 6.49074 2.08305 6.83841 3.69273C11.7402 3.68986 16.642 3.68986 21.5438 3.68986Z" fill="#161632"/>
<path d="M4.05132 22.6014C4.04558 23.7032 3.12325 24.6214 2.01704 24.6214C0.896463 24.6214 -0.0143666 23.6889 -1.99827e-07 22.5612C0.0143662 21.4422 0.928069 20.547 2.0429 20.5642C3.15773 20.5786 4.0542 21.491 4.05132 22.6014ZM0.686713 22.5899C0.689587 23.336 1.29585 23.9414 2.03141 23.9328C2.74973 23.9242 3.35599 23.3187 3.36748 22.6014C3.37898 21.8697 2.76984 21.2586 2.02566 21.2557C1.26712 21.2528 0.686713 21.8353 0.686713 22.5899Z" fill="#161632"/>
<path d="M27.3278 2.04578C28.2759 2.04865 29.0086 2.7918 29 3.74154C28.9943 4.68554 28.2472 5.41147 27.2904 5.40573C26.3652 5.39999 25.6325 4.65685 25.6325 3.72432C25.6354 2.77746 26.3767 2.04292 27.3278 2.04578ZM27.3249 2.72868C26.7732 2.72581 26.325 3.16194 26.3164 3.70998C26.3106 4.26088 26.7474 4.71423 27.2933 4.72571C27.8593 4.73719 28.3162 4.28958 28.3162 3.72432C28.3162 3.17055 27.8766 2.73155 27.3249 2.72868Z" fill="#161632"/>
<path d="M25.4544 0.0114507C25.7302 0.00571209 25.9773 0.252472 25.9744 0.530794C25.9716 0.800508 25.7475 1.02144 25.4745 1.02431C25.1958 1.03005 24.9717 0.820593 24.9573 0.548009C24.9429 0.266818 25.1728 0.0171893 25.4544 0.0114507Z" fill="#161632"/>
<path d="M24.0982 28.317C23.8195 28.3084 23.581 28.0473 23.5982 27.7776C23.6183 27.5107 23.854 27.2955 24.124 27.3013C24.4114 27.307 24.6269 27.5423 24.6125 27.8378C24.5981 28.1104 24.3654 28.3256 24.0982 28.317Z" fill="#161632"/>
<path d="M3.89042 5.06716C3.60884 5.07289 3.38759 4.87204 3.37323 4.59659C3.35886 4.30966 3.58298 4.0629 3.86456 4.05429C4.13752 4.04569 4.39037 4.29531 4.39037 4.57077C4.3875 4.83761 4.16338 5.06142 3.89042 5.06716Z" fill="#161632"/>
<path d="M0.497078 0.688623C0.775786 0.685754 1.02289 0.935383 1.01427 1.20797C1.00565 1.47481 0.775786 1.69862 0.505698 1.70435C0.21837 1.70722 -0.00574529 1.47768 1.26414e-06 1.18501C0.0086211 0.912428 0.22699 0.691492 0.497078 0.688623Z" fill="#161632"/>
<path d="M4.5599 27.9814C4.83286 27.9842 5.05985 28.2052 5.06559 28.472C5.07134 28.7417 4.81562 29 4.54553 28.9942C4.26682 28.9913 4.04271 28.7475 4.05133 28.4577C4.06282 28.1793 4.27544 27.9785 4.5599 27.9814Z" fill="#161632"/>
<path d="M1.35044 16.3435C1.35906 16.6132 1.13207 16.8543 0.86198 16.8657C0.589019 16.8801 0.35341 16.6649 0.339043 16.3866C0.321804 16.0853 0.534426 15.8586 0.836121 15.8557C1.11483 15.8529 1.34182 16.0681 1.35044 16.3435Z" fill="#161632"/>
<path d="M26.8077 7.09854C27.0921 7.09567 27.3335 7.33382 27.3249 7.61214C27.3163 7.87325 27.0806 8.10566 26.8163 8.1114C26.5318 8.11427 26.3049 7.88186 26.3106 7.59206C26.3164 7.30226 26.5204 7.10141 26.8077 7.09854Z" fill="#161632"/>
<path d="M27.8191 22.2427C27.5404 22.2398 27.322 22.0304 27.3134 21.7578C27.3048 21.4823 27.5519 21.2298 27.8248 21.2327C28.1035 21.2356 28.3334 21.4794 28.3219 21.7635C28.3133 22.0476 28.1064 22.2456 27.8191 22.2427Z" fill="#161632"/>
<path d="M10.7805 21.5885C10.0507 21.5885 9.32092 21.5914 8.58823 21.5885C8.34687 21.5885 8.10265 21.5598 8.09977 21.2442C8.0969 20.9343 8.33251 20.8884 8.57674 20.8884C10.0479 20.8884 11.5218 20.8884 12.993 20.8884C13.2429 20.8884 13.4814 20.9401 13.4843 21.2356C13.49 21.5311 13.2516 21.5914 13.0016 21.5914C12.2632 21.5885 11.5218 21.5885 10.7805 21.5885Z" fill="#161632"/>
<path d="M10.7863 18.8799C10.0335 18.8799 9.28069 18.877 8.52789 18.8828C8.29516 18.8828 8.10839 18.8283 8.10265 18.5586C8.0969 18.2716 8.29228 18.2028 8.53651 18.2028C10.0421 18.2028 11.5506 18.2056 13.0562 18.2028C13.2947 18.2028 13.4814 18.2888 13.4872 18.5356C13.4958 18.8053 13.3004 18.8885 13.0476 18.8857C12.2919 18.877 11.5391 18.8799 10.7863 18.8799Z" fill="#161632"/>
<path d="M10.769 17.5429C10.0392 17.5429 9.30942 17.5429 8.57674 17.5429C8.33538 17.5429 8.09402 17.5113 8.09977 17.1928C8.10839 16.8829 8.344 16.8485 8.58823 16.8485C10.0479 16.8485 11.5104 16.8485 12.97 16.8485C13.2314 16.8485 13.4872 16.8916 13.4843 17.2072C13.4814 17.5285 13.2113 17.5486 12.9585 17.5457C12.2287 17.5429 11.4989 17.5429 10.769 17.5429Z" fill="#161632"/>
<path d="M10.792 19.56C11.5333 19.56 12.2747 19.5629 13.016 19.5571C13.2573 19.5542 13.4786 19.6059 13.4872 19.8785C13.4929 20.1683 13.2746 20.2429 13.016 20.2429C11.5333 20.24 10.0507 20.24 8.56525 20.2429C8.30953 20.2429 8.09403 20.1826 8.10265 19.8756C8.11127 19.5772 8.33539 19.5571 8.56812 19.5571C9.30943 19.56 10.0507 19.56 10.792 19.56Z" fill="#161632"/>
<path d="M14.1739 27.2985C13.4297 27.2956 12.8292 26.693 12.8321 25.9499C12.8349 25.2096 13.4383 24.6099 14.1825 24.6071C14.941 24.6042 15.5674 25.2326 15.5473 25.9757C15.5272 26.7217 14.9238 27.3042 14.1739 27.2985ZM14.1997 25.3014C13.8176 25.2957 13.5101 25.5884 13.513 25.9556C13.513 26.3057 13.8118 26.607 14.1681 26.6156C14.5417 26.6242 14.8491 26.3258 14.8491 25.9528C14.8491 25.5884 14.5704 25.3072 14.1997 25.3014Z" fill="#161632"/>
<path d="M25.2418 15.1901C25.2475 17.0781 23.7275 18.6045 21.8398 18.6045C19.9492 18.6045 18.4263 17.0924 18.4177 15.2044C18.4091 13.3336 19.9492 11.7842 21.8225 11.7785C23.6988 11.7727 25.236 13.3107 25.2418 15.1901ZM19.1102 15.1757C19.1016 16.6792 20.3026 17.913 21.7909 17.9274C23.3109 17.9417 24.5435 16.7337 24.5493 15.2216C24.5579 13.7038 23.3454 12.4728 21.834 12.4671C20.3457 12.4614 19.1188 13.6808 19.1102 15.1757Z" fill="#161632"/>
<path d="M6.5913 10.9577C6.5913 10.5933 6.58268 10.2289 6.59417 9.86453C6.60279 9.53457 6.83553 9.38249 7.12573 9.54317C7.77509 9.89897 8.41583 10.2691 9.05083 10.6507C9.35539 10.8344 9.34677 11.1069 9.03646 11.2934C8.41008 11.6665 7.77796 12.0337 7.1401 12.3866C6.83265 12.5559 6.60279 12.4067 6.59417 12.0538C6.58268 11.6865 6.5913 11.3221 6.5913 10.9577ZM8.23194 10.9663C7.90151 10.777 7.60844 10.6106 7.28663 10.4269C7.28663 10.82 7.28663 11.1442 7.28663 11.5115C7.60844 11.325 7.89864 11.1586 8.23194 10.9663Z" fill="#161632"/>
<path d="M14.1566 2.72577C13.8492 2.72577 13.5418 2.72864 13.2343 2.72577C13.0016 2.7229 12.8234 2.63969 12.8234 2.37858C12.8234 2.10887 13.0045 2.04287 13.2372 2.04574C13.8636 2.04861 14.4899 2.05148 15.1163 2.04574C15.3577 2.04287 15.5358 2.13756 15.5329 2.38432C15.5301 2.63108 15.3491 2.72864 15.1134 2.72864C14.7945 2.7229 14.4756 2.72577 14.1566 2.72577Z" fill="#161632"/>
<path d="M23.716 15.1987C23.716 16.2431 22.8684 17.0953 21.8312 17.0953C20.7939 17.0953 19.9463 16.2431 19.9463 15.1987C19.9463 14.1514 20.7882 13.3049 21.8312 13.3049C22.877 13.3078 23.716 14.1514 23.716 15.1987ZM20.6301 15.1815C20.6244 15.8557 21.1646 16.4095 21.8312 16.4124C22.4805 16.4124 23.0293 15.873 23.038 15.2216C23.0466 14.5416 22.5179 14.0079 21.834 14.0079C21.1617 14.0022 20.6359 14.5158 20.6301 15.1815Z" fill="#161632"/>
</g>
<defs>
<clipPath id="clip0_57_24">
<rect width="29" height="29" fill="white"/>
</clipPath>
</defs>
</svg>
