<svg xmlns="http://www.w3.org/2000/svg" xmlns:xlink="http://www.w3.org/1999/xlink" viewBox="0 0 600 600"><defs><style>.cls-1{fill:url(#linear-gradient);}.cls-2{fill:#fff;}.cls-3{fill:#ddd;}.cls-4{fill:none;}</style><linearGradient id="linear-gradient" x1="96.68" y1="117.67" x2="492.49" y2="403.17" gradientUnits="userSpaceOnUse"><stop offset="0" stop-color="#f7a500"/><stop offset="1" stop-color="#1814db"/></linearGradient></defs><title>secure</title><g id="Layer_5" data-name="Layer 5"><path class="cls-1" d="M294.94,12.1S231.27,117.7,79.56,124v96.66c0,272.21,215.38,304,215.38,304s215.37-31.79,215.37-304V124C358.61,117.7,294.94,12.1,294.94,12.1Z" transform="translate(-1.5 0.5)"/><path class="cls-2" d="M350.5,257.05H239.37a24.48,24.48,0,0,0-24.49,24.49v99.59a24.49,24.49,0,0,0,24.49,24.49H350.5A24.5,24.5,0,0,0,375,381.13V281.54A24.49,24.49,0,0,0,350.5,257.05ZM284.45,371.1l-29-29,10.81-10.81,16.17,16.17,39.51-55.89,12.48,8.83Z" transform="translate(-1.5 0.5)"/><path class="cls-2" d="M260,206.72a34.91,34.91,0,0,1,69.82,0v37.51h15.39V206.72a50.31,50.31,0,0,0-100.61,0v37.51H260Z" transform="translate(-1.5 0.5)"/><ellipse class="cls-3" cx="293.44" cy="564.4" rx="86.04" ry="15.1"/></g><g id="rectangle"><rect class="cls-4" width="600" height="600"/></g></svg>