<svg xmlns="http://www.w3.org/2000/svg" viewBox="0 0 600 600"><defs><style>.cls-1{fill:#fafafa;}.cls-2{fill:#e1e1e1;}.cls-3{fill:#2707ca;}.cls-4{fill:#2b454e;}.cls-5{fill:#1a2e35;}.cls-6{fill:#375a64;}.cls-7{opacity:0.25;}.cls-10,.cls-11,.cls-14,.cls-16,.cls-17,.cls-8{fill:#fff;}.cls-15,.cls-8{opacity:0.1;}.cls-11,.cls-12,.cls-9{opacity:0.3;}.cls-13{fill:#ff8500;}.cls-14,.cls-19,.cls-20{opacity:0.2;}.cls-16{opacity:0.7;}.cls-17,.cls-18{opacity:0.55;}.cls-21{opacity:0.15;}.cls-22{fill:#f5f5f5;}.cls-23{fill:#ffaaa8;}.cls-24{fill:#ff9090;}.cls-25{fill:#c76668;}.cls-26{fill:none;}</style></defs><title>uiux</title><g id="Layer_6" data-name="Layer 6"><path id="Floor" class="cls-1" d="M97.93,275.66c-111.42,64.33-111.42,168.63,0,233S390,573,501.44,508.62s111.41-168.63,0-233S209.35,211.33,97.93,275.66Z" transform="translate(-1.5 0.5)"/><ellipse id="Shadow" class="cls-2" cx="496.02" cy="421.34" rx="64.11" ry="37.01"/><ellipse id="Shadow-2" data-name="Shadow" class="cls-2" cx="107.64" cy="465.43" rx="32.19" ry="18.58"/><path id="Shadow-3" data-name="Shadow" class="cls-2" d="M310.33,385.52l-170,98.08c-2,1.15-2,3,0,4.15L167,503.07a7.94,7.94,0,0,0,7.2,0l170-98.08c2-1.15,2-3,0-4.16l-26.6-15.31A7.94,7.94,0,0,0,310.33,385.52Z" transform="translate(-1.5 0.5)"/><path id="Shadow-4" data-name="Shadow" class="cls-2" d="M389.31,508.82a5.12,5.12,0,0,1-5-4.11l-.83-4.42a54.67,54.67,0,0,1-5.64-1.4l-8.59,4a6.08,6.08,0,0,1-5.38-.25l-8.8-5.08a4.37,4.37,0,0,1-.37-7.43l4.62-3.32q-.33-.48-.63-1L348,485.16a4.91,4.91,0,0,1-4.58-4.88v-6.55a4.91,4.91,0,0,1,4.59-4.88l10.74-.68q.3-.48.63-1l-4.62-3.32a4.37,4.37,0,0,1,.38-7.44l8.79-5.07a5.91,5.91,0,0,1,2.95-.76,5.79,5.79,0,0,1,2.43.52l8.59,4a54.67,54.67,0,0,1,5.64-1.4l.84-4.42a5.1,5.1,0,0,1,5-4.11h12.93a5.1,5.1,0,0,1,5,4.11l.84,4.42a56.47,56.47,0,0,1,5.63,1.4l8.6-4a5.72,5.72,0,0,1,2.43-.52,5.85,5.85,0,0,1,2.94.76l8.8,5.08a4.36,4.36,0,0,1,.38,7.43l-4.62,3.32q.33.48.63,1l10.74.68a4.91,4.91,0,0,1,4.59,4.88v6.55a4.91,4.91,0,0,1-4.58,4.88l-10.75.68q-.3.48-.63,1l4.61,3.32a4.37,4.37,0,0,1-.37,7.44l-8.8,5.07a5.85,5.85,0,0,1-2.94.76h0a5.94,5.94,0,0,1-2.43-.51l-8.6-4a56.47,56.47,0,0,1-5.63,1.4l-.84,4.43a5.1,5.1,0,0,1-5,4.1Zm6.48-40.23a26.79,26.79,0,0,0-13,3.06c-2.73,1.57-4.3,3.53-4.3,5.36s1.57,3.78,4.3,5.36a29.21,29.21,0,0,0,26,0c2.73-1.57,4.3-3.53,4.3-5.35s-1.57-3.79-4.3-5.36A26.77,26.77,0,0,0,395.79,468.59Z" transform="translate(-1.5 0.5)"/><path id="Shadow-5" data-name="Shadow" class="cls-2" d="M305.35,537.23c-.21,0-.43,0-.64,0l-9-.94a6,6,0,0,1-5.31-6.64l.17-1.4c-.76-.27-1.5-.57-2.22-.88,0,0,0,0,0,0h-.1l-6.84,2.14a6.74,6.74,0,0,1-2.07.31,7.68,7.68,0,0,1-4.81-1.66l-4.6-3.83a5.35,5.35,0,0,1,1-9l1.56-.78-4.22-.72a5.76,5.76,0,0,1-4.55-7.44l1.25-4a6.63,6.63,0,0,1,6.2-4.54l7.65.3-1-1.05a5.39,5.39,0,0,1,1.95-8.84l7.2-2.88a7.23,7.23,0,0,1,2.69-.5,7.7,7.7,0,0,1,4.19,1.2l4.67,3.1h.05c1.34-.23,2.72-.41,4.1-.53l1.39-2.72a6.93,6.93,0,0,1,6-3.65,4.87,4.87,0,0,1,.66,0l9,.94a5.94,5.94,0,0,1,5.3,6.64l-.16,1.39c.76.28,1.51.58,2.23.89,0,0,0,0,0,0h.1L334.1,490a7,7,0,0,1,2.07-.3,7.68,7.68,0,0,1,4.81,1.66l4.59,3.83a5.34,5.34,0,0,1-1,9L343,505l4.22.72a5.76,5.76,0,0,1,4.55,7.44l-1.25,4a6.64,6.64,0,0,1-6.2,4.54l-7.65-.3,1,1a5.4,5.4,0,0,1-1.95,8.85l-7.21,2.88a7.14,7.14,0,0,1-2.68.5,7.7,7.7,0,0,1-4.19-1.2l-4.67-3.11h-.05c-1.33.23-2.71.4-4.1.53l-1.39,2.71A6.92,6.92,0,0,1,305.35,537.23Zm2.38-33a22,22,0,0,0-8.15,1.46c-3.17,1.26-4.47,2.88-4.63,3.87s.86,2,1.47,2.5c2.41,2,6.76,3.26,11.34,3.26a22.25,22.25,0,0,0,8.16-1.46c3.17-1.27,4.47-2.88,4.63-3.87s-.86-2-1.47-2.5C316.66,505.44,312.32,504.19,307.73,504.19Z" transform="translate(-1.5 0.5)"/><g id="Frame"><path class="cls-3" d="M402.86,97.26H401.7V95.51a2.35,2.35,0,0,0,0-.27l-.08-.22,0-.07,0-.1a.77.77,0,0,0-.07-.16l-.23-.28a.78.78,0,0,0-.62-.1l-.2-1.14a2,2,0,0,1,1.22.15,1.24,1.24,0,0,1,.31.18,1.33,1.33,0,0,1,.24.23l.13.15a1.21,1.21,0,0,1,.14.22,2.08,2.08,0,0,1,.19.43,1,1,0,0,1,.06.2l.09.18,0,.1s0,.09,0,.13,0,.24,0,.37Z" transform="translate(-1.5 0.5)"/><path class="cls-3" d="M342.43,223.23a1.85,1.85,0,0,1-.44-.06,1.06,1.06,0,0,1-.34-.12l-.26-.13a2.74,2.74,0,0,1-.88-1.08,3.68,3.68,0,0,1-.33-1.54v-1.25h1.15v1.25a2.53,2.53,0,0,0,.21,1,1.74,1.74,0,0,0,.43.6l.14.08.14.05.19,0,.13,1.15h-.14Zm4.4-2.21-.57-1,3.94-2.28.58,1Zm7.89-4.55-.58-1,3.95-2.28.57,1Zm-13.39-2h-1.15v-4.56h1.15Zm21.28-2.59-.58-1,3.94-2.27.58,1Zm7.88-4.55-.58-1,3.95-2.28.57,1Zm-29.16-2h-1.15v-4.55h1.15Zm37.05-2.59-.58-1,3.94-2.28.58,1Zm7.88-4.56-.58-1,3.95-2.28.57,1Zm-44.93-2h-1.15v-4.55h1.15Zm52.82-2.59-.58-1,3.94-2.28.58,1Zm7.7-5.2-1-.63a4.69,4.69,0,0,0,.81-2.45v-1.6h1.16v1.6A5.86,5.86,0,0,1,401.85,188.49Zm-60.52-1.31h-1.15v-4.56h1.15Zm61.53-7.93H401.7V174.7h1.16Zm-61.53-1.18h-1.15v-4.56h1.15Zm61.53-7.92H401.7v-4.56h1.16ZM341.33,169h-1.15v-4.55h1.15ZM402.86,161H401.7v-4.56h1.16Zm-61.53-1.19h-1.15V155.3h1.15Zm61.53-7.92H401.7v-4.55h1.16Zm-61.53-1.18h-1.15v-4.56h1.15Zm61.53-7.93H401.7v-4.55h1.16Zm-61.53-1.18h-1.15v-4.55h1.15Zm61.53-7.92H401.7v-4.56h1.16Zm-61.53-1.19h-1.15V131a5.89,5.89,0,0,1,1.05-3.15l1,.64a4.76,4.76,0,0,0-.86,2.51ZM345.6,126l-.58-1,4-2.27.57,1Zm57.26-1.36H401.7v-4.55h1.16Zm-49.37-3.19-.58-1,3.94-2.28.58,1Zm7.88-4.55-.57-1,3.94-2.28.58,1Zm41.49-1.37H401.7V111h1.16Zm-33.6-3.19-.57-1,3.94-2.28.58,1Zm7.89-4.55-.58-1,3.95-2.27.57,1Zm25.71-1.36H401.7v-4.56h1.16ZM385,103.21l-.58-1,4-2.27.57,1Zm7.89-4.55-.58-1,3.94-2.28.58,1Z" transform="translate(-1.5 0.5)"/></g><g id="Frame-2" data-name="Frame"><path class="cls-3" d="M109.72,325.15h-1.16V323.4a2.17,2.17,0,0,0,0-.26l-.07-.22,0-.07,0-.12a1.11,1.11,0,0,0-.07-.16l-.25-.3a.88.88,0,0,0-.6-.07l-.19-1.14a1.89,1.89,0,0,1,1.21.15,1.45,1.45,0,0,1,.32.18,2.49,2.49,0,0,1,.23.22l.14.17a1.35,1.35,0,0,1,.13.21,1.66,1.66,0,0,1,.19.43.83.83,0,0,1,.06.19l.1.17,0,.12s0,.08,0,.13,0,.25,0,.37Z" transform="translate(-1.5 0.5)"/><path class="cls-3" d="M49.28,451.12a1.84,1.84,0,0,1-.43-.06,1.25,1.25,0,0,1-.34-.12,1.53,1.53,0,0,1-.25-.13,2.68,2.68,0,0,1-.89-1.08,3.68,3.68,0,0,1-.33-1.54v-1.25h1.15v1.25a2.44,2.44,0,0,0,.21,1,1.71,1.71,0,0,0,.43.61l.16.08.13.05.19,0,.12,1.15h-.15Zm4.42-2.21-.58-1,3.94-2.28.58,1Zm7.88-4.55-.58-1,4-2.28.57,1Zm-13.39-2H47v-4.56h1.15Zm21.28-2.59-.58-1,3.94-2.27.58,1Zm7.88-4.55-.58-1,4-2.28.57,1Zm-29.16-2H47v-4.56h1.15Zm37.05-2.59-.58-1,3.94-2.28.58,1Zm7.88-4.56-.57-1,3.94-2.27.58,1Zm-44.93-2H47v-4.55h1.15ZM101,421.58l-.58-1,3.94-2.28.58,1Zm7.7-5.2-1-.63a4.69,4.69,0,0,0,.81-2.45v-1.6h1.16v1.6A5.86,5.86,0,0,1,108.71,416.38Zm-60.52-1.32H47v-4.55h1.15Zm61.53-7.92h-1.16v-4.55h1.16ZM48.19,406H47V401.4h1.15ZM109.72,398h-1.16v-4.55h1.16Zm-61.53-1.18H47V392.3h1.15Zm61.53-7.92h-1.16v-4.56h1.16Zm-61.53-1.19H47v-4.55h1.15Zm61.53-7.92h-1.16v-4.55h1.16Zm-61.53-1.18H47v-4.56h1.15Zm61.53-7.93h-1.16v-4.55h1.16Zm-61.53-1.18H47V365h1.15Zm61.53-7.92h-1.16v-4.56h1.16Zm-61.53-1.19H47V358.9a6,6,0,0,1,1.06-3.16l.95.65a4.85,4.85,0,0,0-.86,2.51Zm4.27-6.56-.58-1,3.95-2.27.57,1Zm57.26-1.36h-1.16v-4.56h1.16Zm-49.37-3.19-.58-1L63.71,346l.58,1Zm7.88-4.55-.57-1,3.94-2.28.58,1Zm41.49-1.37h-1.16v-4.55h1.16Zm-33.6-3.19-.57-1,3.94-2.27.58,1ZM84,335.65l-.58-1,3.95-2.27.57,1Zm25.71-1.36h-1.16v-4.56h1.16ZM91.9,331.1l-.58-1,4-2.27.57,1Zm7.89-4.55-.58-1,3.94-2.28.58,1Z" transform="translate(-1.5 0.5)"/></g><g id="Magnifying_Glass" data-name="Magnifying Glass"><path class="cls-4" d="M96.19,456.53a.86.86,0,0,1,0-.16l3.65-96.74h0c0-1.38.91-2.74,2.72-3.77a14.54,14.54,0,0,1,13.13.18c1.81,1.08,2.71,2.47,2.71,3.84h0l3.69,96.84a.75.75,0,0,0,0,.15c0,.09,0,.17,0,.26a12.76,12.76,0,0,1-13,12.82,13.2,13.2,0,0,1-13-13.17C96.18,456.69,96.19,456.61,96.19,456.53Z" transform="translate(-1.5 0.5)"/><path class="cls-5" d="M115.69,356c3.62,2.15,3.62,5.55,0,7.6a14.47,14.47,0,0,1-13.13-.18c-3.62-2.15-3.62-5.55,0-7.6A14.54,14.54,0,0,1,115.69,356Z" transform="translate(-1.5 0.5)"/><path class="cls-6" d="M113.92,453.28l-2.09-88.36a12,12,0,0,0,3.86-1.27c1.8-1,2.71-2.36,2.72-3.74l3.68,96.81a.75.75,0,0,0,0,.15c0,.09,0,.17,0,.26a12.76,12.76,0,0,1-13,12.82C113.17,469,114.16,462,113.92,453.28Z" transform="translate(-1.5 0.5)"/><path class="cls-2" d="M105.16,331.78a8.73,8.73,0,0,1,7.93.11,2.82,2.82,0,0,1,1.65,2.32h0v25.62h0a2.73,2.73,0,0,1-1.65,2.27,8.76,8.76,0,0,1-7.93-.1,2.85,2.85,0,0,1-1.65-2.32V334.05h0A2.74,2.74,0,0,1,105.16,331.78Z" transform="translate(-1.5 0.5)"/><path class="cls-7" d="M114.74,348.29v-9.52c-3.77.84-7.52,1.52-11.23,2v9.37Q109.12,349.46,114.74,348.29Z" transform="translate(-1.5 0.5)"/><path class="cls-3" d="M167.91,196.5l-19-10.95c-10.62-6.13-25.3-5.24-41.51,4.11C75,208.38,48.72,253.91,48.72,291.35c0,18.73,6.57,31.88,17.2,38l18.93,10.93a30.21,30.21,0,0,0,15.29,3.91c7.89,0,16.8-2.58,26.23-8,32.42-18.72,58.7-64.25,58.7-101.69C185.07,215.79,178.51,202.64,167.91,196.5Zm-27,80.26c-10.29,17.81-23.82,32.16-38.11,40.41-7.48,4.32-14.76,6.66-21.08,6.76-3.06-5.43-4.7-12.76-4.7-21.65,0-16.49,5.66-35.38,16-53.19s23.81-32.17,38.1-40.42c7.49-4.32,14.77-6.66,21.09-6.76,3,5.45,4.69,12.78,4.69,21.65C156.81,240.06,151.15,259,140.87,276.76Z" transform="translate(-1.5 0.5)"/><path class="cls-8" d="M64.06,236.79l27,15.6c.6-1.1,1.21-2.21,1.85-3.3a133.21,133.21,0,0,1,10.62-15.74L76.48,217.72A143.75,143.75,0,0,0,64.06,236.79Zm26.73-34.74c-2.73,2.5-5.37,5.18-7.92,8l27.19,15.7a103.69,103.69,0,0,1,8.15-7.88Z" transform="translate(-1.5 0.5)"/><path class="cls-7" d="M84.78,340.24,65.92,329.36c-10.63-6.13-17.2-19.28-17.2-38,0-.71,0-1.43.05-2.16l18.92,10.93c0,.73,0,1.44,0,2.16C67.66,321,74.2,334.09,84.78,340.24Z" transform="translate(-1.5 0.5)"/><g class="cls-9"><path class="cls-10" d="M152.59,201.9h-.47c3,5.45,4.69,12.78,4.69,21.65,0,16.5-5.66,35.39-15.94,53.2s-23.82,32.16-38.11,40.41c-7.48,4.32-14.76,6.66-21.08,6.76,4,7.06,10.28,10.94,18.46,10.94,6.44,0,13.89-2.34,21.56-6.77,14.29-8.24,27.82-22.59,38.1-40.4s15.95-36.71,15.95-53.21C175.75,214.09,167.1,201.9,152.59,201.9Z" transform="translate(-1.5 0.5)"/></g><path class="cls-7" d="M152.59,201.9h-.47c3,5.45,4.69,12.78,4.69,21.65,0,16.5-5.66,35.39-15.94,53.2s-23.82,32.16-38.11,40.41c-7.48,4.32-14.76,6.66-21.08,6.76,4,7.06,10.28,10.94,18.46,10.94,6.44,0,13.89-2.34,21.56-6.77,14.29-8.24,27.82-22.59,38.1-40.4s15.95-36.71,15.95-53.21C175.75,214.09,167.1,201.9,152.59,201.9Z" transform="translate(-1.5 0.5)"/><path class="cls-11" d="M166.94,229.43c0,16.49-5.66,35.4-15.95,53.21s-23.81,32.16-38.1,40.4c-7.67,4.43-15.12,6.77-21.56,6.77a22.43,22.43,0,0,1-5.78-.72h0a23.73,23.73,0,0,1-3.86-5.16c-3.06-5.43-4.7-12.76-4.7-21.65,0-16.49,5.66-35.38,16-53.19s23.81-32.17,38.1-40.42c7.49-4.32,14.77-6.66,21.09-6.76h.47a21.76,21.76,0,0,1,5.81.74C163.9,208.13,166.94,217.33,166.94,229.43Z" transform="translate(-1.5 0.5)"/><path class="cls-8" d="M126.37,200.6c-32.43,18.72-58.71,64.24-58.71,101.69s26.28,52.61,58.71,33.89,58.71-64.25,58.71-101.69S158.79,181.88,126.37,200.6ZM121.7,328.1c-7.67,4.43-15.12,6.77-21.56,6.77-8.18,0-14.5-3.88-18.46-10.94-3.06-5.43-4.7-12.76-4.7-21.65,0-16.49,5.66-35.38,16-53.19s23.81-32.17,38.1-40.42c7.49-4.32,14.77-6.66,21.09-6.76h.47c14.51,0,23.16,12.19,23.16,32.59,0,16.5-5.66,35.4-15.95,53.21S136,319.86,121.7,328.1Z" transform="translate(-1.5 0.5)"/><g class="cls-9"><path class="cls-10" d="M126.37,200.6c-32.43,18.72-58.71,64.24-58.71,101.69s26.28,52.61,58.71,33.89,58.71-64.25,58.71-101.69S158.79,181.88,126.37,200.6ZM121.7,328.1c-7.67,4.43-15.12,6.77-21.56,6.77-8.18,0-14.5-3.88-18.46-10.94-3.06-5.43-4.7-12.76-4.7-21.65,0-16.49,5.66-35.38,16-53.19s23.81-32.17,38.1-40.42c7.49-4.32,14.77-6.66,21.09-6.76h.47c14.51,0,23.16,12.19,23.16,32.59,0,16.5-5.66,35.4-15.95,53.21S136,319.86,121.7,328.1Z" transform="translate(-1.5 0.5)"/></g><g class="cls-9"><path class="cls-10" d="M81.9,249.8A135.59,135.59,0,0,0,70,283.16a95.56,95.56,0,0,0-2,17.59,65.47,65.47,0,0,0,1.92,17.54,38.85,38.85,0,0,0,7.79,15.65,28.13,28.13,0,0,0,14.74,9.11,36.91,36.91,0,0,0,17.51-.27,63,63,0,0,0,16.43-6.6A63.05,63.05,0,0,1,110,343.11a37.05,37.05,0,0,1-17.7.39,28.72,28.72,0,0,1-15.07-9.17,39.33,39.33,0,0,1-8-15.87,65.69,65.69,0,0,1-1.83-17.72,94.78,94.78,0,0,1,2.12-17.68,125.13,125.13,0,0,1,5-17.08A145.54,145.54,0,0,1,81.9,249.8Z" transform="translate(-1.5 0.5)"/></g><g class="cls-9"><path class="cls-10" d="M152.59,201.9a22.51,22.51,0,0,1,8.61,1.58,19.86,19.86,0,0,1,7.16,5.11,26.43,26.43,0,0,1,4.62,7.54,39.42,39.42,0,0,1,2.44,8.51,67.76,67.76,0,0,1,.5,17.65,96.76,96.76,0,0,1-3.28,17.37,114,114,0,0,1-6.06,16.6,136.31,136.31,0,0,1-8.29,15.61A121.53,121.53,0,0,1,135.77,319a85.5,85.5,0,0,1-14.44,10.3,50,50,0,0,1-16.74,6,27.38,27.38,0,0,1-9-.1,20.44,20.44,0,0,1-8.31-3.66,20.88,20.88,0,0,1-3.33-3.11,23.73,23.73,0,0,1-2.62-3.69A32.65,32.65,0,0,1,78,316.5a58.71,58.71,0,0,1-1.48-17.65,90.75,90.75,0,0,1,2.73-17.44,113.84,113.84,0,0,1,5.72-16.67,128,128,0,0,1,8-15.65A127.18,127.18,0,0,0,80.1,281.62a91.09,91.09,0,0,0-2.45,17.28,57.19,57.19,0,0,0,1.7,17.22,31.2,31.2,0,0,0,3.29,7.9,21,21,0,0,0,5.58,6.31,18.61,18.61,0,0,0,7.65,3.32,25.35,25.35,0,0,0,8.47.05,48.17,48.17,0,0,0,16.12-5.92,84,84,0,0,0,14.08-10.14A119.54,119.54,0,0,0,156.85,291a131.19,131.19,0,0,0,14.42-31.71,94.78,94.78,0,0,0,3.48-17.08,67.48,67.48,0,0,0-.22-17.39,38.64,38.64,0,0,0-2.2-8.4,25.82,25.82,0,0,0-4.34-7.48,19.51,19.51,0,0,0-6.9-5.17A22.15,22.15,0,0,0,152.59,201.9Z" transform="translate(-1.5 0.5)"/></g></g><g id="Mobile"><path class="cls-4" d="M329.81,395.77V54.46c0-8.79-4.36-11.21-8.23-13.44s-10.26-3.59-15.76-.42L164.88,122c-5.51,3.17-10,10.9-10,17.26V480.55c0,6.36,4,10.11,7.86,12.34s10.63,4.7,16.13,1.52l141-81.38C325.35,409.86,329.81,404.62,329.81,395.77Z" transform="translate(-1.5 0.5)"/><path class="cls-5" d="M320.85,399,175.92,482.68l0-342.79-18.13-10.47a20.38,20.38,0,0,0-2.92,9.82V480.55c0,6.36,4,10.11,7.86,12.34s10.63,4.7,16.13,1.52l141-81.38a19,19,0,0,0,8.63-9.63l-.57-.32Z" transform="translate(-1.5 0.5)"/><path class="cls-6" d="M319.58,51.51,178.24,133.12a15.46,15.46,0,0,0-7,12.1V483.77c0,6.82,4.85,9.61,10.76,6.19l137.58-79.43c4.36-2.52,7.93-8.69,7.93-13.73V56.08C327.51,51,323.94,49,319.58,51.51Z" transform="translate(-1.5 0.5)"/><path d="M320.61,72.26V388.72a16.7,16.7,0,0,1-7.52,13.06L185.66,475.35c-4.15,2.41-7.52.47-7.52-4.34V152.22a16.8,16.8,0,0,1,5.28-11.35l.71-.64a13.43,13.43,0,0,1,1.53-1l35.84-20.69,2.34-1.35c1.29-.75,2.34-.15,2.34,1.35s1.11,2.06,2.49,1.25l41.77-24.11a5.38,5.38,0,0,0,2.5-4.13,5.28,5.28,0,0,1,2.1-3.92l.24-.15L310.34,67.2l.74-.44C316.33,63.74,320.61,66.21,320.61,72.26Z" transform="translate(-1.5 0.5)"/><path class="cls-5" d="M302.15,393.32a16.68,16.68,0,0,0,7.53-13.05V67.58l-34.4,19.85-.24.15a5.28,5.28,0,0,0-2.1,3.92,5.38,5.38,0,0,1-2.5,4.13l-41.77,24.11c-1.38.81-2.49.23-2.49-1.25s-1.05-2.1-2.34-1.35l-2.34,1.35-35.84,20.69a13.43,13.43,0,0,0-1.53,1l-.71.64a16.8,16.8,0,0,0-5.28,11.35V464.93Z" transform="translate(-1.5 0.5)"/><path class="cls-5" d="M235,107l19.14-11c1.15-.66,2.07-.19,2.07,1a4.42,4.42,0,0,1-2.07,3.43L235,111.49c-1.15.65-2.07.19-2.07-1A4.42,4.42,0,0,1,235,107Z" transform="translate(-1.5 0.5)"/><path class="cls-5" d="M264,89.37c1.29-.74,2.33-.14,2.33,1.34a5.14,5.14,0,0,1-2.33,4c-1.29.74-2.33.14-2.33-1.35A5.14,5.14,0,0,1,264,89.37Z" transform="translate(-1.5 0.5)"/><path class="cls-6" d="M168,180.19a8.39,8.39,0,0,0-3.69-6.66,2.42,2.42,0,0,0-2.52-.21c-.47.28-2.28,1.29-2.77,1.58a2.88,2.88,0,0,0-1.13,2.61v27.81a8.44,8.44,0,0,0,3.68,6.67,2.53,2.53,0,0,0,2.44.26c.5-.27,2.36-1.35,2.84-1.63A2.87,2.87,0,0,0,168,208Z" transform="translate(-1.5 0.5)"/><path class="cls-4" d="M165.24,181.77v27.81c0,2.5-1.65,3.58-3.69,2.41a8.44,8.44,0,0,1-3.68-6.67V177.51c0-2.5,1.65-3.58,3.68-2.4A8.38,8.38,0,0,1,165.24,181.77Z" transform="translate(-1.5 0.5)"/><path class="cls-6" d="M168,228.86a8.42,8.42,0,0,0-3.69-6.66,2.44,2.44,0,0,0-2.52-.21c-.47.28-2.28,1.29-2.77,1.58a2.89,2.89,0,0,0-1.13,2.62V254a8.43,8.43,0,0,0,3.68,6.66,2.51,2.51,0,0,0,2.44.26c.5-.27,2.36-1.34,2.84-1.63a2.87,2.87,0,0,0,1.15-2.62Z" transform="translate(-1.5 0.5)"/><path class="cls-4" d="M165.24,230.44v27.81c0,2.51-1.65,3.59-3.69,2.41a8.43,8.43,0,0,1-3.68-6.66V226.19c0-2.51,1.65-3.58,3.68-2.41A8.41,8.41,0,0,1,165.24,230.44Z" transform="translate(-1.5 0.5)"/></g><g id="Window"><g id="Window-2" data-name="Window"><path class="cls-3" d="M341.71,79.79c-1.75-1-4.16-.87-6.81.67l-.76.44-35.59,20.54c-.08,0-.17.09-.25.15a5.37,5.37,0,0,0-2.12,4,5.46,5.46,0,0,1-2.54,4.19l-42.4,24.48-.1,0a1.63,1.63,0,0,0-.69-1.44L248,131.43a1.66,1.66,0,0,0-1.68.17C245,132.34,244,133,244,133l-36.38,21A15.33,15.33,0,0,0,206,155l-.72.66c-3.12,2.91-5.36,7.57-5.36,11.52V490.82c0,2.43.85,4.14,2.22,4.93l2.47,1.43c1.38.79,3.29.68,5.4-.55L339.38,422c4.21-2.42,7.64-8.38,7.64-13.25V87.45c0-3.06-1.08-5.22-2.83-6.23Z" transform="translate(-1.5 0.5)"/><path class="cls-12" d="M210.75,495.58v.64l-.73.41c-2.1,1.22-4,1.34-5.39.55l-2.46-1.43c-1.38-.8-2.23-2.5-2.23-4.93V167.21a16,16,0,0,1,2.63-8.17l2.92,1.69a15.42,15.42,0,0,0-2.56,7.89V492.23a5.91,5.91,0,0,0,1,3.69,3.25,3.25,0,0,0,2.62,1.23,6.46,6.46,0,0,0,3.15-1Z" transform="translate(-1.5 0.5)"/><path class="cls-12" d="M300.06,104.5a4.48,4.48,0,0,0-.89,2.48,5.51,5.51,0,0,1-.94,2.84l-2.94-1.69a4.86,4.86,0,0,0,.89-2.57,5.13,5.13,0,0,1,.95-2.75Z" transform="translate(-1.5 0.5)"/><path class="cls-1" d="M206.6,497.15a3.25,3.25,0,0,1-2.62-1.23,5.89,5.89,0,0,1-1-3.69V168.62a16.6,16.6,0,0,1,5.19-11.12l.23-.21.48-.43a11.94,11.94,0,0,1,1.47-1l36.38-21,2.37-1.37a1.6,1.6,0,0,1,.8-.25c.69,0,.76.8.76,1.15a2,2,0,0,0,1.89,2.19,3,3,0,0,0,1.46-.45l42.4-24.48a5.93,5.93,0,0,0,2.81-4.66,4.8,4.8,0,0,1,1.9-3.53.82.82,0,0,1,.2-.12l35.59-20.55.76-.44a8.28,8.28,0,0,1,4-1.24c3,0,4.83,2.44,4.83,6.35V408.7a16.31,16.31,0,0,1-7.37,12.78L209.75,496.16A6.36,6.36,0,0,1,206.6,497.15Z" transform="translate(-1.5 0.5)"/><path class="cls-3" d="M341.65,81.1a8.28,8.28,0,0,0-4,1.24l-.76.45-35.59,20.54a1.32,1.32,0,0,0-.2.12,4.8,4.8,0,0,0-1.9,3.53,6,6,0,0,1-2.81,4.67L254,136.12a2.87,2.87,0,0,1-1.46.45,2,2,0,0,1-1.89-2.19c0-.35-.07-1.15-.76-1.15a1.71,1.71,0,0,0-.8.25l-2.37,1.37-36.38,21a11.94,11.94,0,0,0-1.47,1l-.48.43-.23.21a16.62,16.62,0,0,0-5.19,11.12V202.8l143.55-82.9V87.46C346.48,83.54,344.63,81.1,341.65,81.1Z" transform="translate(-1.5 0.5)"/><g class="cls-9"><path class="cls-10" d="M341.65,81.1a8.28,8.28,0,0,0-4,1.24l-.76.45-35.59,20.54a1.32,1.32,0,0,0-.2.12,4.8,4.8,0,0,0-1.9,3.53,6,6,0,0,1-2.81,4.67L254,136.12a2.87,2.87,0,0,1-1.46.45,2,2,0,0,1-1.89-2.19c0-.35-.07-1.15-.76-1.15a1.71,1.71,0,0,0-.8.25l-2.37,1.37-36.38,21a11.94,11.94,0,0,0-1.47,1l-.48.43-.23.21a16.62,16.62,0,0,0-5.19,11.12V202.8l143.55-82.9V87.46C346.48,83.54,344.63,81.1,341.65,81.1Z" transform="translate(-1.5 0.5)"/></g><path class="cls-1" d="M213.28,168.73a.54.54,0,0,1-.05.21.38.38,0,0,1-.14.16l-.29.17a.1.1,0,0,1-.13,0,.18.18,0,0,1-.06-.15V163.9l-1.15,1.83a.31.31,0,0,1-.14.14.12.12,0,0,1-.13,0l-.17-.19a.19.19,0,0,1,0-.17.4.4,0,0,1,.07-.21l1.52-2.43a.43.43,0,0,1,.12-.14.41.41,0,0,1,.11-.07l.29-.17a.12.12,0,0,1,.14,0,.18.18,0,0,1,.05.14Z" transform="translate(-1.5 0.5)"/><path class="cls-1" d="M216.27,167a.54.54,0,0,1-.05.21.41.41,0,0,1-.14.15l-.29.17a.12.12,0,0,1-.14,0,.2.2,0,0,1-.05-.14v-5.22L214.45,164a.33.33,0,0,1-.15.14c-.05,0-.09,0-.12,0l-.17-.19a.18.18,0,0,1,0-.17.44.44,0,0,1,.07-.21l1.52-2.43a.38.38,0,0,1,.12-.13l.11-.08.29-.17a.12.12,0,0,1,.14,0,.21.21,0,0,1,.05.15Z" transform="translate(-1.5 0.5)"/><path class="cls-1" d="M218,161.83a.1.1,0,0,1,.13,0,.18.18,0,0,1,.06.15v.63a.49.49,0,0,1-.06.22.32.32,0,0,1-.13.15l-.48.27c-.05,0-.09,0-.13,0a.18.18,0,0,1-.06-.15v-.64a.42.42,0,0,1,.06-.21.39.39,0,0,1,.13-.15Zm0,3.32a.1.1,0,0,1,.13,0s.06.07.06.14v.64a.42.42,0,0,1-.06.21.32.32,0,0,1-.13.15l-.48.28a.1.1,0,0,1-.13,0,.18.18,0,0,1-.06-.15v-.63a.42.42,0,0,1,.06-.21.36.36,0,0,1,.13-.16Z" transform="translate(-1.5 0.5)"/><path class="cls-1" d="M219.6,163.62a.55.55,0,0,0,.4.47,1,1,0,0,0,.73-.16,2.26,2.26,0,0,0,.44-.34,2.32,2.32,0,0,0,.35-.46,2.1,2.1,0,0,0,.25-.57,2.36,2.36,0,0,0,.08-.65,1.42,1.42,0,0,0-.08-.55.52.52,0,0,0-.25-.29.46.46,0,0,0-.35,0,1.21,1.21,0,0,0-.44.17,1.39,1.39,0,0,0-.43.33,2.42,2.42,0,0,0-.27.32,3.23,3.23,0,0,0-.18.28.64.64,0,0,1-.19.18l-.36.21c-.05,0-.08,0-.11,0a.17.17,0,0,1-.05-.12l.21-3.29a.42.42,0,0,1,.06-.21.32.32,0,0,1,.14-.16l2.5-1.45c.06,0,.1,0,.14,0a.18.18,0,0,1,.06.15v.34a.42.42,0,0,1-.06.21.37.37,0,0,1-.14.16L220,159.34l-.12,1.7q.12-.14.33-.33a2.9,2.9,0,0,1,.53-.38,1.87,1.87,0,0,1,.69-.25.92.92,0,0,1,.58.11,1.06,1.06,0,0,1,.39.48,2.25,2.25,0,0,1,.14.85,3.79,3.79,0,0,1-.14,1,4.8,4.8,0,0,1-.39.93,4,4,0,0,1-.58.77,3.14,3.14,0,0,1-.69.55,1.93,1.93,0,0,1-.68.26,1.06,1.06,0,0,1-.57,0,.84.84,0,0,1-.4-.35,1.34,1.34,0,0,1-.15-.64.39.39,0,0,1,0-.18.33.33,0,0,1,.11-.12l.33-.19a.09.09,0,0,1,.11,0S219.58,163.56,219.6,163.62Z" transform="translate(-1.5 0.5)"/><path class="cls-1" d="M223.8,161.31a1.09,1.09,0,0,0,.1.25.33.33,0,0,0,.19.16.65.65,0,0,0,.34,0,2,2,0,0,0,.54-.24,2.07,2.07,0,0,0,.42-.31,2.44,2.44,0,0,0,.35-.43,2.17,2.17,0,0,0,.24-.51,1.85,1.85,0,0,0,.09-.58,1,1,0,0,0-.09-.47.39.39,0,0,0-.23-.21.58.58,0,0,0-.34,0,1.63,1.63,0,0,0-.44.19l-.59.34a.1.1,0,0,1-.13,0,.18.18,0,0,1-.06-.15V159a.38.38,0,0,1,0-.17l.08-.18,1.27-2.57-2,1.18a.12.12,0,0,1-.14,0,.21.21,0,0,1-.05-.15v-.34a.54.54,0,0,1,.05-.21.41.41,0,0,1,.14-.15l2.8-1.62a.1.1,0,0,1,.13,0,.18.18,0,0,1,.06.15v.34a.42.42,0,0,1,0,.18,1,1,0,0,1-.09.21l-1.26,2.54a1.82,1.82,0,0,1,.65-.23.77.77,0,0,1,.51.1.74.74,0,0,1,.32.42,1.89,1.89,0,0,1,.12.73,3.47,3.47,0,0,1-.14,1,4.16,4.16,0,0,1-.38.86,4.42,4.42,0,0,1-.56.73,3.35,3.35,0,0,1-.69.53,2.19,2.19,0,0,1-.82.33.94.94,0,0,1-.57-.06.75.75,0,0,1-.33-.35,1.43,1.43,0,0,1-.12-.54.37.37,0,0,1,.05-.17.36.36,0,0,1,.11-.13l.33-.19a.11.11,0,0,1,.12,0A.21.21,0,0,1,223.8,161.31Z" transform="translate(-1.5 0.5)"/><path class="cls-1" d="M234.88,150.16h0m0,0-2.18,7.47v-3.25l-2.44,1.4,4.62-5.62m0-.56h0a.54.54,0,0,0-.26.09.4.4,0,0,0-.12.1l0,0-4.62,5.62a.56.56,0,0,0,0,.71.57.57,0,0,0,.43.2.5.5,0,0,0,.28-.08l1.6-.92v2.29a.56.56,0,0,0,.48.55h.08a.56.56,0,0,0,.53-.4l2.17-7.41a.52.52,0,0,0,0-.21.55.55,0,0,0-.55-.56Zm0,1.12h0Z" transform="translate(-1.5 0.5)"/><polygon class="cls-1" points="309.33 113.1 308.14 113.78 308.14 111.46 309.33 110.77 309.33 113.1"/><polygon class="cls-1" points="311.21 112.01 310.02 112.69 310.02 109.37 311.21 108.68 311.21 112.01"/><polygon class="cls-1" points="313.1 110.92 311.91 111.61 311.91 107.02 313.1 106.33 313.1 110.92"/><polygon class="cls-3" points="314.99 109.83 313.8 110.52 313.8 104.71 314.99 104.03 314.99 109.83"/><path class="cls-1" d="M324.77,98.59a9,9,0,0,0-3.15,3.52l.79.63a6.56,6.56,0,0,1,2.36-2.65,2.12,2.12,0,0,1,2.37-.09l.79-1.53A2.85,2.85,0,0,0,324.77,98.59Zm-2,4.39.72.58a3.72,3.72,0,0,1,1.33-1.5,1.16,1.16,0,0,1,1.34,0l.72-1.41a1.83,1.83,0,0,0-2.06.07A5.7,5.7,0,0,0,322.72,103Zm1.06.85,1,.79,1-2a.88.88,0,0,0-1,0A2.7,2.7,0,0,0,323.78,103.83Z" transform="translate(-1.5 0.5)"/><path class="cls-3" d="M339.12,90.46c.43-.25.77,0,.77.58v3.75a1.82,1.82,0,0,1-.77,1.47l-6.69,3.86c-.42.25-.77,0-.77-.58V95.79a1.87,1.87,0,0,1,.77-1.47l6.69-3.86m0-.32L332.43,94a2.44,2.44,0,0,0-1,1.93v3.75c0,.74.46,1.09,1,.76l6.69-3.86a2.42,2.42,0,0,0,1-1.93V90.9c0-.74-.45-1.08-1-.76Z" transform="translate(-1.5 0.5)"/><path class="cls-1" d="M336.41,96.89l-3.76,2.18c-.18.1-.32,0-.32-.24v-3.1a.74.74,0,0,1,.32-.6L336.41,93c.18-.1.32,0,.32.24V96.3A.72.72,0,0,1,336.41,96.89Z" transform="translate(-1.5 0.5)"/><path class="cls-3" d="M340.85,93.38l-.27.15v-2l.27-.16c.15-.09.27.3.27.86A1.83,1.83,0,0,1,340.85,93.38Z" transform="translate(-1.5 0.5)"/><path class="cls-1" d="M328.94,114.29a3,3,0,0,0-1.28,2.43c0,.94.57,1.37,1.28,1a3.07,3.07,0,0,0,1.27-2.43C330.21,114.32,329.64,113.89,328.94,114.29Zm9.68-5.59a3.07,3.07,0,0,0-1.27,2.43c0,.94.57,1.37,1.27,1a3.07,3.07,0,0,0,1.27-2.44C339.89,108.73,339.32,108.3,338.62,108.7Zm-4.84,2.8a3,3,0,0,0-1.27,2.43c0,.94.56,1.37,1.27,1a3.05,3.05,0,0,0,1.27-2.43C335.05,111.52,334.48,111.09,333.78,111.5Z" transform="translate(-1.5 0.5)"/><path class="cls-13" d="M341.65,81.65h0c2.68,0,4.28,2.17,4.28,5.8V408.7c0,4.46-3.25,10.1-7.1,12.31L209.48,495.69a5.83,5.83,0,0,1-2.88.91c-2,0-3.13-1.63-3.13-4.37V168.62a16,16,0,0,1,5-10.71l.25-.23.42-.38a12,12,0,0,1,1.42-1l36.39-21,2.37-1.37a1.1,1.1,0,0,1,.52-.18c.21,0,.22.54.22.61a2.47,2.47,0,0,0,2.43,2.73,3.45,3.45,0,0,0,1.73-.52l42.41-24.48a6.54,6.54,0,0,0,3.07-5.13,4.3,4.3,0,0,1,1.67-3.09l.16-.09,35.6-20.55.75-.44a7.75,7.75,0,0,1,3.76-1.16m0-1.09a8.71,8.71,0,0,0-4.3,1.31l-.76.44L301,102.85l-.25.16a5.35,5.35,0,0,0-2.12,4,5.43,5.43,0,0,1-2.54,4.19l-42.4,24.48a2.43,2.43,0,0,1-1.19.37c-.8,0-1.35-.6-1.35-1.64s-.53-1.7-1.3-1.7a2.19,2.19,0,0,0-1.07.33l-2.37,1.37-36.38,21a14,14,0,0,0-1.56,1.07l-.72.65c-3.12,2.91-5.36,7.57-5.36,11.52V492.23c0,3.46,1.71,5.46,4.21,5.46a6.9,6.9,0,0,0,3.43-1.06L339.38,422c4.21-2.42,7.64-8.38,7.64-13.25V87.45c0-4.36-2.19-6.89-5.37-6.89Z" transform="translate(-1.5 0.5)"/></g></g><g id="Gear"><path class="cls-3" d="M321.67,487.27a2,2,0,0,1-1.35-2l.42-3.42a1.57,1.57,0,0,0-1.4-1.75l-9-.94a2.53,2.53,0,0,0-2.33,1.26l-1.79,3.49a3.14,3.14,0,0,1-2.33,1.52c-1.57.12-3.13.31-4.66.58a4.67,4.67,0,0,1-2.91-.58l-4.84-3.22a3.42,3.42,0,0,0-2.83-.29l-7.2,2.88a1.06,1.06,0,0,0-.74.92h0v.08h0v7.36h0a1.21,1.21,0,0,0,.35.81l.42.44a3.8,3.8,0,0,1-2,.62l-8.23-.33a2.19,2.19,0,0,0-2.08,1.46l-1.25,4a1.67,1.67,0,0,0-.05.49h0V508h0a1.35,1.35,0,0,0,1.16,1.29l6.38,1.09-2.49,1.25a1,1,0,0,0-.65.9h0V520h0a1.11,1.11,0,0,0,.45.82l4.6,3.83a3.27,3.27,0,0,0,2.76.55l7-2.2a4.9,4.9,0,0,1,3,.2,37.9,37.9,0,0,0,3.76,1.38,1.93,1.93,0,0,1,.92.65v5h0a1.56,1.56,0,0,0,1.4,1.54l9,.94a2.51,2.51,0,0,0,2.32-1.26l1.8-3.49a3.12,3.12,0,0,1,2.33-1.52c1.57-.12,3.13-.31,4.66-.58a4.55,4.55,0,0,1,2.91.58l4.84,3.22a3.41,3.41,0,0,0,2.82.29l7.21-2.89a1,1,0,0,0,.74-1h0V518.7h0a1.15,1.15,0,0,0-.35-.8l-.42-.45a3.78,3.78,0,0,1,2-.61l8.23.33a2.21,2.21,0,0,0,2.08-1.46l1.25-4a1.88,1.88,0,0,0,.06-.46h0v-7.39h0a1.35,1.35,0,0,0-1.14-1.38l-6.38-1.09,2.49-1.24a1,1,0,0,0,.64-.92h0v-7.4h0a1.12,1.12,0,0,0-.45-.86l-4.6-3.83a3.28,3.28,0,0,0-2.76-.54l-7,2.19a4.91,4.91,0,0,1-3-.19A35.36,35.36,0,0,0,321.67,487.27ZM291.8,505.91a13.4,13.4,0,0,1,6.14-4.45c7.81-3.12,18.53-2,23.94,2.5a11,11,0,0,1,1.84,1.94,13.35,13.35,0,0,1-6.17,4.47c-7.8,3.13-18.52,2-23.94-2.5A9.66,9.66,0,0,1,291.8,505.91Z" transform="translate(-1.5 0.5)"/><path class="cls-14" d="M321.67,487.27a2,2,0,0,1-1.35-2l.42-3.42a1.57,1.57,0,0,0-1.4-1.75l-9-.94a2.53,2.53,0,0,0-2.33,1.26l-1.79,3.49a3.14,3.14,0,0,1-2.33,1.52c-1.57.12-3.13.31-4.66.58a4.67,4.67,0,0,1-2.91-.58l-4.84-3.22a3.42,3.42,0,0,0-2.83-.29l-7.2,2.88a1.06,1.06,0,0,0-.74.92h0v.08h0v7.36h0a1.21,1.21,0,0,0,.35.81l.42.44a3.8,3.8,0,0,1-2,.62l-8.23-.33a2.19,2.19,0,0,0-2.08,1.46l-1.25,4a1.67,1.67,0,0,0-.05.49h0V508h0a1.35,1.35,0,0,0,1.16,1.29l6.38,1.09-2.49,1.25a1,1,0,0,0-.65.9h0V520h0a1.11,1.11,0,0,0,.45.82l4.6,3.83a3.27,3.27,0,0,0,2.76.55l7-2.2a4.9,4.9,0,0,1,3,.2,37.9,37.9,0,0,0,3.76,1.38,1.93,1.93,0,0,1,.92.65v5h0a1.56,1.56,0,0,0,1.4,1.54l9,.94a2.51,2.51,0,0,0,2.32-1.26l1.8-3.49a3.12,3.12,0,0,1,2.33-1.52c1.57-.12,3.13-.31,4.66-.58a4.55,4.55,0,0,1,2.91.58l4.84,3.22a3.41,3.41,0,0,0,2.82.29l7.21-2.89a1,1,0,0,0,.74-1h0V518.7h0a1.15,1.15,0,0,0-.35-.8l-.42-.45a3.78,3.78,0,0,1,2-.61l8.23.33a2.21,2.21,0,0,0,2.08-1.46l1.25-4a1.88,1.88,0,0,0,.06-.46h0v-7.39h0a1.35,1.35,0,0,0-1.14-1.38l-6.38-1.09,2.49-1.24a1,1,0,0,0,.64-.92h0v-7.4h0a1.12,1.12,0,0,0-.45-.86l-4.6-3.83a3.28,3.28,0,0,0-2.76-.54l-7,2.19a4.91,4.91,0,0,1-3-.19A35.36,35.36,0,0,0,321.67,487.27ZM291.8,505.91a13.4,13.4,0,0,1,6.14-4.45c7.81-3.12,18.53-2,23.94,2.5a11,11,0,0,1,1.84,1.94,13.35,13.35,0,0,1-6.17,4.47c-7.8,3.13-18.52,2-23.94-2.5A9.66,9.66,0,0,1,291.8,505.91Z" transform="translate(-1.5 0.5)"/><path class="cls-15" d="M278.78,505.08a2.67,2.67,0,0,0-1.91-1.83L269,501.91a1.36,1.36,0,0,1-1.16-1.22V508a1.34,1.34,0,0,0,1.15,1.29l6.38,1.09,3.3-1.65a1.55,1.55,0,0,0,.66-2.12A11,11,0,0,1,278.78,505.08Zm1.92-12h0a1.22,1.22,0,0,0,.34.81l.43.45a3.38,3.38,0,0,0,.68-.52,17,17,0,0,1,2-1.76,1.39,1.39,0,0,0,.2-2.11l-3.27-3.47a1.15,1.15,0,0,1-.35-.8Z" transform="translate(-1.5 0.5)"/><path class="cls-15" d="M298,494.05c-6.74,2.7-9.11,7.67-6.14,11.87a13.33,13.33,0,0,1,6.13-4.46c7.81-3.12,18.53-2,23.95,2.5a10.79,10.79,0,0,1,1.82,1.94c2.08-3,1.6-6.5-1.82-9.35C316.47,492,305.76,490.93,298,494.05Z" transform="translate(-1.5 0.5)"/><path class="cls-3" d="M310,519.69a2.49,2.49,0,0,0-.74.86l-1.8,3.5a2.58,2.58,0,0,1-1.33,1.11v7.41a2.44,2.44,0,0,0,1.32-1.11l1.8-3.5a2.79,2.79,0,0,1,.77-.85Zm24.77-1h0a1,1,0,0,1-.75,1l-7.19,2.89a3.34,3.34,0,0,1-1.89.07V530a3.34,3.34,0,0,0,1.89-.07l7.21-2.89a1,1,0,0,0,.74-1ZM287,515.6l-6.91,2.17a3,3,0,0,1-1.74,0v7.4a3.17,3.17,0,0,0,1.75,0L287,523Zm60.63-11.72a1.71,1.71,0,0,1-.08.43l-1.23,4a2.22,2.22,0,0,1-2.08,1.46l-8.23-.33a3.26,3.26,0,0,0-1.29.26v7.41a3.36,3.36,0,0,1,1.28-.26l8.23.33a2.22,2.22,0,0,0,2.08-1.46l1.24-4a1.26,1.26,0,0,0,.07-.46Zm-4.4-12a.58.58,0,0,1-.06.26.74.74,0,0,1-.25.38,1.27,1.27,0,0,1-.36.25l-5.78,2.91a.89.89,0,0,0-.34.25,1.41,1.41,0,0,0-.4.6,1.57,1.57,0,0,0-.08.58,1.5,1.5,0,0,0,0,.29,3.17,3.17,0,0,0,.14.4,10.07,10.07,0,0,1,.59,1.55,2.67,2.67,0,0,0,1.91,1.84l1.45.24,2.49-1.24a1,1,0,0,0,.64-.92h0Z" transform="translate(-1.5 0.5)"/><path class="cls-16" d="M310,519.69a2.49,2.49,0,0,0-.74.86l-1.8,3.5a2.58,2.58,0,0,1-1.33,1.11v7.41a2.44,2.44,0,0,0,1.32-1.11l1.8-3.5a2.79,2.79,0,0,1,.77-.85Zm24.77-1h0a1,1,0,0,1-.75,1l-7.19,2.89a3.34,3.34,0,0,1-1.89.07V530a3.34,3.34,0,0,0,1.89-.07l7.21-2.89a1,1,0,0,0,.74-1ZM287,515.6l-6.91,2.17a3,3,0,0,1-1.74,0v7.4a3.17,3.17,0,0,0,1.75,0L287,523Zm60.63-11.72a1.71,1.71,0,0,1-.08.43l-1.23,4a2.22,2.22,0,0,1-2.08,1.46l-8.23-.33a3.26,3.26,0,0,0-1.29.26v7.41a3.36,3.36,0,0,1,1.28-.26l8.23.33a2.22,2.22,0,0,0,2.08-1.46l1.24-4a1.26,1.26,0,0,0,.07-.46Zm-4.4-12a.58.58,0,0,1-.06.26.74.74,0,0,1-.25.38,1.27,1.27,0,0,1-.36.25l-5.78,2.91a.89.89,0,0,0-.34.25,1.41,1.41,0,0,0-.4.6,1.57,1.57,0,0,0-.08.58,1.5,1.5,0,0,0,0,.29,3.17,3.17,0,0,0,.14.4,10.07,10.07,0,0,1,.59,1.55,2.67,2.67,0,0,0,1.91,1.84l1.45.24,2.49-1.24a1,1,0,0,0,.64-.92h0Z" transform="translate(-1.5 0.5)"/><path class="cls-3" d="M335.41,486.65l-7,2.19a4.91,4.91,0,0,1-3-.19,35.36,35.36,0,0,0-3.75-1.38,2,2,0,0,1-1.35-2l.42-3.42a1.57,1.57,0,0,0-1.4-1.75l-9-.94a2.53,2.53,0,0,0-2.33,1.26l-1.79,3.49a3.14,3.14,0,0,1-2.33,1.52c-1.57.12-3.13.31-4.66.58a4.67,4.67,0,0,1-2.91-.58l-4.84-3.22a3.42,3.42,0,0,0-2.83-.29l-7.2,2.88a1,1,0,0,0-.39,1.76l3.27,3.48a1.39,1.39,0,0,1-.2,2.11,19.92,19.92,0,0,0-2,1.75A4,4,0,0,1,279.5,495l-8.23-.33a2.19,2.19,0,0,0-2.08,1.46l-1.25,4a1.37,1.37,0,0,0,1.1,1.8l7.83,1.34a2.67,2.67,0,0,1,1.91,1.83,11,11,0,0,0,.59,1.56,1.57,1.57,0,0,1-.66,2.12l-5.78,2.9a1,1,0,0,0-.2,1.74l4.6,3.83a3.27,3.27,0,0,0,2.76.54l7-2.19a4.9,4.9,0,0,1,3,.19,38.88,38.88,0,0,0,3.76,1.39,2,2,0,0,1,1.35,2l-.42,3.42a1.56,1.56,0,0,0,1.4,1.75l9,.94a2.51,2.51,0,0,0,2.33-1.26l1.79-3.49a3.17,3.17,0,0,1,2.33-1.52c1.57-.12,3.13-.31,4.66-.58a4.62,4.62,0,0,1,2.91.59l4.84,3.21a3.41,3.41,0,0,0,2.82.29l7.21-2.88a1,1,0,0,0,.39-1.76l-3.27-3.48a1.39,1.39,0,0,1,.2-2.11,19.92,19.92,0,0,0,2-1.75,4,4,0,0,1,2.66-1.14l8.23.34a2.2,2.2,0,0,0,2.08-1.47l1.25-4a1.37,1.37,0,0,0-1.1-1.8l-7.83-1.34a2.65,2.65,0,0,1-1.91-1.83,12.4,12.4,0,0,0-.59-1.56,1.56,1.56,0,0,1,.66-2.12l5.78-2.9a1,1,0,0,0,.2-1.74l-4.6-3.83A3.28,3.28,0,0,0,335.41,486.65Zm-13.52,9.9c5.41,4.51,3.47,10.69-4.34,13.82s-18.52,2-23.94-2.5-3.47-10.69,4.33-13.82S316.47,492,321.89,496.55Z" transform="translate(-1.5 0.5)"/><path class="cls-17" d="M335.41,486.65l-7,2.19a4.91,4.91,0,0,1-3-.19,35.36,35.36,0,0,0-3.75-1.38,2,2,0,0,1-1.35-2l.42-3.42a1.57,1.57,0,0,0-1.4-1.75l-9-.94a2.53,2.53,0,0,0-2.33,1.26l-1.79,3.49a3.14,3.14,0,0,1-2.33,1.52c-1.57.12-3.13.31-4.66.58a4.67,4.67,0,0,1-2.91-.58l-4.84-3.22a3.42,3.42,0,0,0-2.83-.29l-7.2,2.88a1,1,0,0,0-.39,1.76l3.27,3.48a1.39,1.39,0,0,1-.2,2.11,19.92,19.92,0,0,0-2,1.75A4,4,0,0,1,279.5,495l-8.23-.33a2.19,2.19,0,0,0-2.08,1.46l-1.25,4a1.37,1.37,0,0,0,1.1,1.8l7.83,1.34a2.67,2.67,0,0,1,1.91,1.83,11,11,0,0,0,.59,1.56,1.57,1.57,0,0,1-.66,2.12l-5.78,2.9a1,1,0,0,0-.2,1.74l4.6,3.83a3.27,3.27,0,0,0,2.76.54l7-2.19a4.9,4.9,0,0,1,3,.19,38.88,38.88,0,0,0,3.76,1.39,2,2,0,0,1,1.35,2l-.42,3.42a1.56,1.56,0,0,0,1.4,1.75l9,.94a2.51,2.51,0,0,0,2.33-1.26l1.79-3.49a3.17,3.17,0,0,1,2.33-1.52c1.57-.12,3.13-.31,4.66-.58a4.62,4.62,0,0,1,2.91.59l4.84,3.21a3.41,3.41,0,0,0,2.82.29l7.21-2.88a1,1,0,0,0,.39-1.76l-3.27-3.48a1.39,1.39,0,0,1,.2-2.11,19.92,19.92,0,0,0,2-1.75,4,4,0,0,1,2.66-1.14l8.23.34a2.2,2.2,0,0,0,2.08-1.47l1.25-4a1.37,1.37,0,0,0-1.1-1.8l-7.83-1.34a2.65,2.65,0,0,1-1.91-1.83,12.4,12.4,0,0,0-.59-1.56,1.56,1.56,0,0,1,.66-2.12l5.78-2.9a1,1,0,0,0,.2-1.74l-4.6-3.83A3.28,3.28,0,0,0,335.41,486.65Zm-13.52,9.9c5.41,4.51,3.47,10.69-4.34,13.82s-18.52,2-23.94-2.5-3.47-10.69,4.33-13.82S316.47,492,321.89,496.55Z" transform="translate(-1.5 0.5)"/><g class="cls-18"><path class="cls-10" d="M310.14,480h.1l9,.94a.71.71,0,0,1,.47.25.7.7,0,0,1,.14.51l-.41,3.41a2.86,2.86,0,0,0,2,3,36.56,36.56,0,0,1,3.66,1.35,5.89,5.89,0,0,0,2.22.42,4.79,4.79,0,0,0,1.38-.19l7-2.2a1.83,1.83,0,0,1,.49-.06,2.45,2.45,0,0,1,1.43.44l4.59,3.83a1,1,0,0,1,.14.13.51.51,0,0,1-.16.12l-5.78,2.9a2.44,2.44,0,0,0-1.07,3.3,10,10,0,0,1,.54,1.43,3.57,3.57,0,0,0,2.62,2.47l7.83,1.34a.47.47,0,0,1,.36.22.5.5,0,0,1,0,.42l-1.24,4a1.33,1.33,0,0,1-1.19.84h0l-8.23-.33h-.12a5,5,0,0,0-3.22,1.4,19.18,19.18,0,0,1-1.88,1.68,2.36,2.36,0,0,0-.93,1.68,2.24,2.24,0,0,0,.63,1.74l3.26,3.48c.11.11.12.18.12.19s0,.07-.19.13l-7.2,2.88a1.9,1.9,0,0,1-.72.12,2.51,2.51,0,0,1-1.27-.32l-4.85-3.22a5.48,5.48,0,0,0-2.83-.78,4,4,0,0,0-.72.06c-1.49.26-3,.45-4.58.57a4,4,0,0,0-3.06,2l-1.79,3.5a1.67,1.67,0,0,1-1.34.78h-.09l-9-.94a.71.71,0,0,1-.46-.25.69.69,0,0,1-.14-.5l.41-3.42a2.87,2.87,0,0,0-2-3,36.56,36.56,0,0,1-3.66-1.35,5.89,5.89,0,0,0-2.22-.42,4.79,4.79,0,0,0-1.38.19l-7,2.2a1.83,1.83,0,0,1-.49.06,2.45,2.45,0,0,1-1.43-.44l-4.6-3.83a1.3,1.3,0,0,1-.13-.13.51.51,0,0,1,.16-.12l5.78-2.9a2.44,2.44,0,0,0,1.07-3.3,10,10,0,0,1-.54-1.43,3.57,3.57,0,0,0-2.62-2.47L269.19,501a.47.47,0,0,1-.36-.22.5.5,0,0,1,0-.42l1.24-4a1.33,1.33,0,0,1,1.19-.84h0l8.23.33h.12a5,5,0,0,0,3.22-1.4,19.31,19.31,0,0,1,1.88-1.68,2.36,2.36,0,0,0,.93-1.68,2.24,2.24,0,0,0-.63-1.74l-3.27-3.48a.36.36,0,0,1-.11-.19s0-.07.19-.13l7.2-2.88a1.9,1.9,0,0,1,.72-.12,2.51,2.51,0,0,1,1.27.32l4.84,3.22a5.52,5.52,0,0,0,2.84.78,4,4,0,0,0,.72-.06c1.48-.26,3-.45,4.58-.57a4,4,0,0,0,3.06-2l1.79-3.5a1.67,1.67,0,0,1,1.33-.78h0m-2.38,33a27.54,27.54,0,0,0,10.13-1.84c4.49-1.8,7.36-4.7,7.88-7.95.41-2.64-.76-5.26-3.31-7.39-3.37-2.8-8.88-4.48-14.73-4.48a27.53,27.53,0,0,0-10.12,1.84c-4.49,1.8-7.36,4.7-7.88,7.95-.41,2.64.76,5.27,3.31,7.39,3.37,2.8,8.87,4.48,14.72,4.48m2.38-33.93a2.55,2.55,0,0,0-2.13,1.27l-1.79,3.49a3.14,3.14,0,0,1-2.33,1.52c-1.57.12-3.13.31-4.66.58a3.48,3.48,0,0,1-.57,0,4.61,4.61,0,0,1-2.34-.62l-4.84-3.22a3.32,3.32,0,0,0-1.77-.47,3,3,0,0,0-1.06.18l-7.2,2.88a1,1,0,0,0-.39,1.76l3.27,3.48a1.39,1.39,0,0,1-.2,2.11,19.92,19.92,0,0,0-2,1.75,4,4,0,0,1-2.58,1.14h-.08l-8.23-.33h-.07a2.22,2.22,0,0,0-2,1.47l-1.25,4a1.37,1.37,0,0,0,1.1,1.8l7.83,1.34a2.67,2.67,0,0,1,1.91,1.83,11,11,0,0,0,.59,1.56,1.57,1.57,0,0,1-.66,2.12l-5.78,2.9a1,1,0,0,0-.2,1.74l4.6,3.83a3.28,3.28,0,0,0,2,.65,2.33,2.33,0,0,0,.76-.11l7-2.19a3.89,3.89,0,0,1,1.12-.15,4.9,4.9,0,0,1,1.86.34,38.88,38.88,0,0,0,3.76,1.39,2,2,0,0,1,1.34,2l-.41,3.42a1.56,1.56,0,0,0,1.4,1.75l9,.94h.19a2.53,2.53,0,0,0,2.14-1.27l1.79-3.49a3.17,3.17,0,0,1,2.33-1.52c1.57-.12,3.13-.31,4.66-.58a3.48,3.48,0,0,1,.57,0,4.52,4.52,0,0,1,2.34.63l4.84,3.21a3.32,3.32,0,0,0,1.77.47,2.69,2.69,0,0,0,1-.18l7.21-2.88a1,1,0,0,0,.39-1.76l-3.27-3.48a1.39,1.39,0,0,1,.2-2.11,19.92,19.92,0,0,0,2-1.75,4,4,0,0,1,2.58-1.14H336l8.23.34h.07a2.22,2.22,0,0,0,2-1.47l1.25-4a1.37,1.37,0,0,0-1.1-1.8l-7.83-1.34a2.65,2.65,0,0,1-1.91-1.83,12.4,12.4,0,0,0-.59-1.56,1.56,1.56,0,0,1,.66-2.12l5.78-2.9a1,1,0,0,0,.2-1.74l-4.6-3.83a3.28,3.28,0,0,0-2-.65,2.63,2.63,0,0,0-.76.11l-7,2.19a3.82,3.82,0,0,1-1.11.15,4.9,4.9,0,0,1-1.86-.34,36.37,36.37,0,0,0-3.76-1.38,2,2,0,0,1-1.35-2l.42-3.42a1.57,1.57,0,0,0-1.4-1.75l-9-.94Zm-2.38,33c-5.45,0-10.8-1.49-14.15-4.27-5.41-4.51-3.47-10.69,4.33-13.82a26.62,26.62,0,0,1,9.79-1.77c5.45,0,10.81,1.49,14.16,4.27,5.41,4.51,3.47,10.69-4.34,13.82a26.58,26.58,0,0,1-9.79,1.77Z" transform="translate(-1.5 0.5)"/></g></g><g id="Gear-2" data-name="Gear"><path class="cls-3" d="M434.59,452.05l-8.8-5.08a2.39,2.39,0,0,0-1.94-.09L414.93,451a3.25,3.25,0,0,1-2,.13,51.85,51.85,0,0,0-6.93-1.65,1.68,1.68,0,0,1-1.29-1.25l-1.11-5.88a1.39,1.39,0,0,0-1.31-1.08H389.31a1.37,1.37,0,0,0-1.3,1.08l-1.11,5.88a1.71,1.71,0,0,1-1.29,1.25,51.49,51.49,0,0,0-6.93,1.65,3.24,3.24,0,0,1-2-.13l-8.92-4.13a2.41,2.41,0,0,0-2,.09l-8.8,5.08a.7.7,0,0,0-.4.6h0l0,7.63h0a.77.77,0,0,0,.35.6l4.05,2.91a1.9,1.9,0,0,1-1,.41l-11.72.75a1.18,1.18,0,0,0-1.1,1.16v5h0l0,9.17a1.19,1.19,0,0,0,1.1,1.17l11.72.74a2.08,2.08,0,0,1,1,.43l-4,2.9a.73.73,0,0,0-.35.59h0l0,7.63h0a.74.74,0,0,0,.41.6l8.8,5.08a2.41,2.41,0,0,0,1.95.09l8.92-4.14a3.31,3.31,0,0,1,2-.12,53.05,53.05,0,0,0,6.93,1.65,1.71,1.71,0,0,1,1.29,1.25L388,504a1.37,1.37,0,0,0,1.3,1.08h12.94a1.37,1.37,0,0,0,1.3-1.08l1.12-5.88a1.68,1.68,0,0,1,1.29-1.25,52.9,52.9,0,0,0,6.92-1.65,3.31,3.31,0,0,1,2,.12l8.93,4.14a2.39,2.39,0,0,0,1.94-.09l8.8-5.08a.72.72,0,0,0,.41-.58h0l0-7.65h0a.73.73,0,0,0-.35-.58l-4-2.91a2,2,0,0,1,1-.42l11.73-.74a1.19,1.19,0,0,0,1.09-1.17l0-7.59s0,0,0,0V466.1a1.18,1.18,0,0,0-1.1-1.16l-11.73-.75a1.91,1.91,0,0,1-1-.43l4-2.89a.73.73,0,0,0,.35-.59h0l0-7.63h0A.71.71,0,0,0,434.59,452.05Zm-59.4,19.76c.63-2.11,2.51-4.17,5.73-6,8.21-4.74,21.52-4.74,29.73,0,3,1.74,5,3.65,5.86,5.61-.7,2.4-2.65,4.7-5.86,6.56-8.21,4.74-21.52,4.74-29.73,0C377.89,476.21,376,474.06,375.19,471.81Z" transform="translate(-1.5 0.5)"/><path class="cls-14" d="M434.59,452.05l-8.8-5.08a2.39,2.39,0,0,0-1.94-.09L414.93,451a3.25,3.25,0,0,1-2,.13,51.85,51.85,0,0,0-6.93-1.65,1.68,1.68,0,0,1-1.29-1.25l-1.11-5.88a1.39,1.39,0,0,0-1.31-1.08H389.31a1.37,1.37,0,0,0-1.3,1.08l-1.11,5.88a1.71,1.71,0,0,1-1.29,1.25,51.49,51.49,0,0,0-6.93,1.65,3.24,3.24,0,0,1-2-.13l-8.92-4.13a2.41,2.41,0,0,0-2,.09l-8.8,5.08a.7.7,0,0,0-.4.6h0l0,7.63h0a.77.77,0,0,0,.35.6l4.05,2.91a1.9,1.9,0,0,1-1,.41l-11.72.75a1.18,1.18,0,0,0-1.1,1.16v5h0l0,9.17a1.19,1.19,0,0,0,1.1,1.17l11.72.74a2.08,2.08,0,0,1,1,.43l-4,2.9a.73.73,0,0,0-.35.59h0l0,7.63h0a.74.74,0,0,0,.41.6l8.8,5.08a2.41,2.41,0,0,0,1.95.09l8.92-4.14a3.31,3.31,0,0,1,2-.12,53.05,53.05,0,0,0,6.93,1.65,1.71,1.71,0,0,1,1.29,1.25L388,504a1.37,1.37,0,0,0,1.3,1.08h12.94a1.37,1.37,0,0,0,1.3-1.08l1.12-5.88a1.68,1.68,0,0,1,1.29-1.25,52.9,52.9,0,0,0,6.92-1.65,3.31,3.31,0,0,1,2,.12l8.93,4.14a2.39,2.39,0,0,0,1.94-.09l8.8-5.08a.72.72,0,0,0,.41-.58h0l0-7.65h0a.73.73,0,0,0-.35-.58l-4-2.91a2,2,0,0,1,1-.42l11.73-.74a1.19,1.19,0,0,0,1.09-1.17l0-7.59s0,0,0,0V466.1a1.18,1.18,0,0,0-1.1-1.16l-11.73-.75a1.91,1.91,0,0,1-1-.43l4-2.89a.73.73,0,0,0,.35-.59h0l0-7.63h0A.71.71,0,0,0,434.59,452.05Zm-59.4,19.76c.63-2.11,2.51-4.17,5.73-6,8.21-4.74,21.52-4.74,29.73,0,3,1.74,5,3.65,5.86,5.61-.7,2.4-2.65,4.7-5.86,6.56-8.21,4.74-21.52,4.74-29.73,0C377.89,476.21,376,474.06,375.19,471.81Z" transform="translate(-1.5 0.5)"/><path class="cls-15" d="M361.53,475.61a2.16,2.16,0,0,0-1.59-1.06l-11.73-.74a1.18,1.18,0,0,1-1.09-1.16V471.1l0,9.17a1.19,1.19,0,0,0,1.1,1.17l11.72.74a1.94,1.94,0,0,1,1,.43l2.94-2.12a.93.93,0,0,0,.13-1.43A17.63,17.63,0,0,1,361.53,475.61Zm-5-15.33h0a.74.74,0,0,0,.34.59l4.05,2.92a1.87,1.87,0,0,0,.58-.65,18.12,18.12,0,0,1,2.5-3.45.93.93,0,0,0-.13-1.43l-7-5a.84.84,0,0,1-.35-.51Z" transform="translate(-1.5 0.5)"/><path class="cls-15" d="M410.65,460.8c-8.21-4.74-21.52-4.75-29.73,0-5.19,3-7.1,7.17-5.73,11,.62-2.11,2.51-4.17,5.73-6,8.21-4.75,21.51-4.74,29.73,0,3,1.74,5,3.64,5.86,5.6C417.61,467.65,415.64,463.68,410.65,460.8Z" transform="translate(-1.5 0.5)"/><path class="cls-3" d="M444.44,472.8a1.23,1.23,0,0,1-1.09,1l-11.72.73a1.58,1.58,0,0,0-.59.16l0,7.64a1.63,1.63,0,0,1,.58-.16l11.73-.75a1.18,1.18,0,0,0,1.1-1.16ZM435,452.64h0a.4.4,0,0,1-.05.23.44.44,0,0,1-.14.23.73.73,0,0,1-.16.14l-7,5a.5.5,0,0,0-.17.15.89.89,0,0,0-.22.43,1,1,0,0,0,0,.29l0,.15a1.23,1.23,0,0,0,.24.41l.13.15a17.21,17.21,0,0,1,2.36,3.3,2.33,2.33,0,0,0,.56.63l4-2.9a.75.75,0,0,0,.35-.58h0Zm0,33.53a.75.75,0,0,1-.41.54l-8.8,5.07a2.28,2.28,0,0,1-1.36.24l0,7.62a2.27,2.27,0,0,0,1.36-.23l8.8-5.08a.7.7,0,0,0,.41-.58Zm-57.48,1.35a2.77,2.77,0,0,0-.88.21l-8.92,4.14a2,2,0,0,1-.79.17l0,7.61a2.32,2.32,0,0,0,.8-.15l8.91-4.14a2.85,2.85,0,0,1,.88-.2Zm25.82,9.37a1.39,1.39,0,0,1-1.08.58H389.31a1.29,1.29,0,0,1-.79-.28v7.63a1.33,1.33,0,0,0,.79.28h12.93a1.37,1.37,0,0,0,1.13-.65Z" transform="translate(-1.5 0.5)"/><path class="cls-16" d="M444.44,472.8a1.23,1.23,0,0,1-1.09,1l-11.72.73a1.58,1.58,0,0,0-.59.16l0,7.64a1.63,1.63,0,0,1,.58-.16l11.73-.75a1.18,1.18,0,0,0,1.1-1.16ZM435,452.64h0a.4.4,0,0,1-.05.23.44.44,0,0,1-.14.23.73.73,0,0,1-.16.14l-7,5a.5.5,0,0,0-.17.15.89.89,0,0,0-.22.43,1,1,0,0,0,0,.29l0,.15a1.23,1.23,0,0,0,.24.41l.13.15a17.21,17.21,0,0,1,2.36,3.3,2.33,2.33,0,0,0,.56.63l4-2.9a.75.75,0,0,0,.35-.58h0Zm0,33.53a.75.75,0,0,1-.41.54l-8.8,5.07a2.28,2.28,0,0,1-1.36.24l0,7.62a2.27,2.27,0,0,0,1.36-.23l8.8-5.08a.7.7,0,0,0,.41-.58Zm-57.48,1.35a2.77,2.77,0,0,0-.88.21l-8.92,4.14a2,2,0,0,1-.79.17l0,7.61a2.32,2.32,0,0,0,.8-.15l8.91-4.14a2.85,2.85,0,0,1,.88-.2Zm25.82,9.37a1.39,1.39,0,0,1-1.08.58H389.31a1.29,1.29,0,0,1-.79-.28v7.63a1.33,1.33,0,0,0,.79.28h12.93a1.37,1.37,0,0,0,1.13-.65Z" transform="translate(-1.5 0.5)"/><path class="cls-3" d="M423.85,446.88,414.93,451a3.25,3.25,0,0,1-2,.13,51.85,51.85,0,0,0-6.93-1.65,1.68,1.68,0,0,1-1.29-1.25l-1.11-5.88a1.39,1.39,0,0,0-1.31-1.08H389.31a1.37,1.37,0,0,0-1.3,1.08l-1.11,5.88a1.71,1.71,0,0,1-1.29,1.25,51.49,51.49,0,0,0-6.93,1.65,3.24,3.24,0,0,1-2-.13l-8.92-4.13a2.41,2.41,0,0,0-2,.09l-8.8,5.08a.65.65,0,0,0-.05,1.19l7,5a.93.93,0,0,1,.13,1.43,17.34,17.34,0,0,0-2.49,3.45,2.12,2.12,0,0,1-1.59,1.05l-11.72.75a1.18,1.18,0,0,0-1.1,1.16v6.55a1.18,1.18,0,0,0,1.1,1.16l11.72.75a2.12,2.12,0,0,1,1.59,1.05,17.34,17.34,0,0,0,2.49,3.45.93.93,0,0,1-.13,1.43l-7,5a.65.65,0,0,0,.05,1.19l8.8,5.08a2.41,2.41,0,0,0,2,.09l8.92-4.13a3.24,3.24,0,0,1,2-.13,51.49,51.49,0,0,0,6.93,1.65,1.71,1.71,0,0,1,1.29,1.25l1.11,5.88a1.37,1.37,0,0,0,1.3,1.08h12.94a1.39,1.39,0,0,0,1.31-1.08l1.11-5.88a1.68,1.68,0,0,1,1.29-1.25,51.85,51.85,0,0,0,6.93-1.65,3.25,3.25,0,0,1,2,.13l8.92,4.13a2.39,2.39,0,0,0,1.94-.09l8.8-5.08a.65.65,0,0,0,.06-1.19l-7-5a.93.93,0,0,1-.13-1.43,17.34,17.34,0,0,0,2.49-3.45,2.15,2.15,0,0,1,1.58-1.05l11.73-.75a1.18,1.18,0,0,0,1.1-1.16V466.1a1.18,1.18,0,0,0-1.1-1.16l-11.73-.75a2.12,2.12,0,0,1-1.58-1.05,17.34,17.34,0,0,0-2.49-3.45.93.93,0,0,1,.13-1.43l7-5a.65.65,0,0,0-.06-1.19l-8.8-5.08A2.39,2.39,0,0,0,423.85,446.88Zm-13.2,13.91c8.21,4.74,8.21,12.43,0,17.17s-21.52,4.74-29.73,0-8.21-12.43,0-17.17S402.44,456.05,410.65,460.79Z" transform="translate(-1.5 0.5)"/><path class="cls-17" d="M423.85,446.88,414.93,451a3.25,3.25,0,0,1-2,.13,51.85,51.85,0,0,0-6.93-1.65,1.68,1.68,0,0,1-1.29-1.25l-1.11-5.88a1.39,1.39,0,0,0-1.31-1.08H389.31a1.37,1.37,0,0,0-1.3,1.08l-1.11,5.88a1.71,1.71,0,0,1-1.29,1.25,51.49,51.49,0,0,0-6.93,1.65,3.24,3.24,0,0,1-2-.13l-8.92-4.13a2.41,2.41,0,0,0-2,.09l-8.8,5.08a.65.65,0,0,0-.05,1.19l7,5a.93.93,0,0,1,.13,1.43,17.34,17.34,0,0,0-2.49,3.45,2.12,2.12,0,0,1-1.59,1.05l-11.72.75a1.18,1.18,0,0,0-1.1,1.16v6.55a1.18,1.18,0,0,0,1.1,1.16l11.72.75a2.12,2.12,0,0,1,1.59,1.05,17.34,17.34,0,0,0,2.49,3.45.93.93,0,0,1-.13,1.43l-7,5a.65.65,0,0,0,.05,1.19l8.8,5.08a2.41,2.41,0,0,0,2,.09l8.92-4.13a3.24,3.24,0,0,1,2-.13,51.49,51.49,0,0,0,6.93,1.65,1.71,1.71,0,0,1,1.29,1.25l1.11,5.88a1.37,1.37,0,0,0,1.3,1.08h12.94a1.39,1.39,0,0,0,1.31-1.08l1.11-5.88a1.68,1.68,0,0,1,1.29-1.25,51.85,51.85,0,0,0,6.93-1.65,3.25,3.25,0,0,1,2,.13l8.92,4.13a2.39,2.39,0,0,0,1.94-.09l8.8-5.08a.65.65,0,0,0,.06-1.19l-7-5a.93.93,0,0,1-.13-1.43,17.34,17.34,0,0,0,2.49-3.45,2.15,2.15,0,0,1,1.58-1.05l11.73-.75a1.18,1.18,0,0,0,1.1-1.16V466.1a1.18,1.18,0,0,0-1.1-1.16l-11.73-.75a2.12,2.12,0,0,1-1.58-1.05,17.34,17.34,0,0,0-2.49-3.45.93.93,0,0,1,.13-1.43l7-5a.65.65,0,0,0-.06-1.19l-8.8-5.08A2.39,2.39,0,0,0,423.85,446.88Zm-13.2,13.91c8.21,4.74,8.21,12.43,0,17.17s-21.52,4.74-29.73,0-8.21-12.43,0-17.17S402.44,456.05,410.65,460.79Z" transform="translate(-1.5 0.5)"/><g class="cls-18"><path class="cls-10" d="M402.25,441.91h0a.76.76,0,0,1,.69.57l1.12,5.87a2.29,2.29,0,0,0,1.8,1.76,52.59,52.59,0,0,1,6.84,1.62,3.4,3.4,0,0,0,1,.14,3.6,3.6,0,0,0,1.49-.29l8.92-4.13a1.5,1.5,0,0,1,.6-.11,1.6,1.6,0,0,1,.77.17l8.8,5.08.09.06h0a.28.28,0,0,1-.08.08l-7,5a1.55,1.55,0,0,0-.66,1.11,1.6,1.6,0,0,0,.44,1.25,16.74,16.74,0,0,1,2.4,3.33,2.79,2.79,0,0,0,2.09,1.38l11.73.74a.56.56,0,0,1,.51.54v6.55a.56.56,0,0,1-.51.54l-11.73.74a2.79,2.79,0,0,0-2.09,1.38,17.15,17.15,0,0,1-2.4,3.33,1.62,1.62,0,0,0-.44,1.25,1.57,1.57,0,0,0,.66,1.11l7,5,.08.06h0a.24.24,0,0,1-.09.08l-8.8,5.08a1.6,1.6,0,0,1-.77.17,1.5,1.5,0,0,1-.6-.11l-8.92-4.13a3.6,3.6,0,0,0-1.49-.29,3.4,3.4,0,0,0-1,.14,52.59,52.59,0,0,1-6.84,1.62,2.29,2.29,0,0,0-1.8,1.76l-1.12,5.88a.76.76,0,0,1-.69.56H389.31a.75.75,0,0,1-.68-.57l-1.12-5.87a2.29,2.29,0,0,0-1.8-1.76,52.59,52.59,0,0,1-6.84-1.62,3.45,3.45,0,0,0-1-.14,3.57,3.57,0,0,0-1.49.29l-8.92,4.13a1.5,1.5,0,0,1-.6.11,1.57,1.57,0,0,1-.77-.17l-8.8-5.08-.09-.06h0l.09-.08,7-5a1.52,1.52,0,0,0,.66-1.11,1.57,1.57,0,0,0-.43-1.25,16.74,16.74,0,0,1-2.4-3.33,2.79,2.79,0,0,0-2.1-1.38l-11.72-.74a.56.56,0,0,1-.51-.54v-6.54a.56.56,0,0,1,.51-.55l11.72-.74a2.79,2.79,0,0,0,2.1-1.38,16.74,16.74,0,0,1,2.4-3.33,1.57,1.57,0,0,0,.43-1.25,1.52,1.52,0,0,0-.66-1.11l-7-5s-.07-.06-.09-.06h0a.31.31,0,0,1,.1-.08l8.8-5.08a1.57,1.57,0,0,1,.77-.17,1.5,1.5,0,0,1,.6.11l8.92,4.13a3.57,3.57,0,0,0,1.49.29,3.4,3.4,0,0,0,1-.14,52.59,52.59,0,0,1,6.84-1.62,2.29,2.29,0,0,0,1.8-1.76l1.12-5.87a.75.75,0,0,1,.68-.57h12.94m-6.47,40.23A30.79,30.79,0,0,0,411,478.5c4.18-2.41,6.47-5.65,6.47-9.12s-2.29-6.72-6.47-9.13a33.45,33.45,0,0,0-30.35,0c-4.18,2.41-6.48,5.65-6.48,9.13s2.3,6.71,6.47,9.12a30.85,30.85,0,0,0,15.18,3.64m6.47-40.86H389.31a1.37,1.37,0,0,0-1.3,1.08l-1.11,5.88a1.71,1.71,0,0,1-1.29,1.25,51.49,51.49,0,0,0-6.93,1.65,2.9,2.9,0,0,1-.81.1,3,3,0,0,1-1.23-.23l-8.92-4.13a2.13,2.13,0,0,0-.86-.17,2.28,2.28,0,0,0-1.09.26l-8.8,5.08a.65.65,0,0,0-.05,1.19l7,5a.93.93,0,0,1,.13,1.43,17.34,17.34,0,0,0-2.49,3.45,2.12,2.12,0,0,1-1.59,1.05l-11.72.75a1.18,1.18,0,0,0-1.1,1.16v6.55a1.18,1.18,0,0,0,1.1,1.16l11.72.75a2.12,2.12,0,0,1,1.59,1.05,17.34,17.34,0,0,0,2.49,3.45.93.93,0,0,1-.13,1.43l-7,5a.65.65,0,0,0,.05,1.19l8.8,5.08a2.28,2.28,0,0,0,1.09.26,2.13,2.13,0,0,0,.86-.17l8.92-4.13a3,3,0,0,1,1.23-.23,2.9,2.9,0,0,1,.81.1,51.49,51.49,0,0,0,6.93,1.65,1.71,1.71,0,0,1,1.29,1.25l1.11,5.88a1.37,1.37,0,0,0,1.3,1.08h12.94a1.39,1.39,0,0,0,1.31-1.08l1.11-5.88a1.68,1.68,0,0,1,1.29-1.25,51.34,51.34,0,0,0,6.92-1.65,3,3,0,0,1,.82-.1,3,3,0,0,1,1.23.23l8.92,4.13a2.13,2.13,0,0,0,.86.17,2.21,2.21,0,0,0,1.08-.26l8.8-5.08a.65.65,0,0,0,.06-1.19l-7-5a.93.93,0,0,1-.13-1.43,17.34,17.34,0,0,0,2.49-3.45,2.15,2.15,0,0,1,1.58-1.05l11.73-.75a1.18,1.18,0,0,0,1.1-1.16V466.1a1.18,1.18,0,0,0-1.1-1.16l-11.73-.75a2.12,2.12,0,0,1-1.58-1.05,17.34,17.34,0,0,0-2.49-3.45.93.93,0,0,1,.13-1.43l7-5a.65.65,0,0,0-.06-1.19l-8.8-5.08a2.21,2.21,0,0,0-1.08-.26,2.13,2.13,0,0,0-.86.17L414.93,451a3,3,0,0,1-1.23.23,2.9,2.9,0,0,1-.81-.1,51.85,51.85,0,0,0-6.93-1.65,1.68,1.68,0,0,1-1.29-1.25l-1.11-5.88a1.39,1.39,0,0,0-1.31-1.08Zm-6.47,40.23A30.35,30.35,0,0,1,380.92,478c-8.21-4.74-8.21-12.43,0-17.17a32.9,32.9,0,0,1,29.73,0c8.21,4.74,8.21,12.43,0,17.17a30.42,30.42,0,0,1-14.87,3.55Z" transform="translate(-1.5 0.5)"/></g></g><g id="Frame-3" data-name="Frame"><path class="cls-3" d="M283.19,190.66H282V188.9a2.11,2.11,0,0,0,0-.26l-.08-.23,0-.07,0-.1a.8.8,0,0,0-.08-.16l-.23-.28-.08,0a.86.86,0,0,0-.53-.06l-.2-1.13a2,2,0,0,1,1.21.14,1.92,1.92,0,0,1,.31.18l.08.07a1.29,1.29,0,0,1,.17.16l.13.16a1,1,0,0,1,.13.21,1.82,1.82,0,0,1,.19.43,1.42,1.42,0,0,1,.06.21l.09.18,0,.09a.69.69,0,0,1,0,.13c0,.13,0,.25,0,.37Z" transform="translate(-1.5 0.5)"/><path class="cls-3" d="M222.78,316.63a1.93,1.93,0,0,1-.45-.06,1.6,1.6,0,0,1-.35-.12l-.25-.14a2.76,2.76,0,0,1-.89-1.07,3.71,3.71,0,0,1-.33-1.54v-1.25h1.16v1.25a2.48,2.48,0,0,0,.2,1,2,2,0,0,0,.43.61l.15.08V316l.13-.56.19,0,.13,1.15Zm4.39-2.21-.58-1,3.95-2.28.57,1Zm7.88-4.56-.57-1,3.94-2.28.58,1Zm-13.38-2h-1.16v-4.55h1.16Zm21.27-2.58-.58-1,3.95-2.28.57,1Zm7.89-4.56-.58-1,3.94-2.27.58,1Zm-29.16-2h-1.16v-4.55h1.16Zm37-2.59-.58-1,3.95-2.28.57,1Zm7.89-4.55-.58-1,3.94-2.28.58,1Zm-44.93-2h-1.16v-4.56h1.16Zm52.81-2.6-.57-1,3.94-2.28.57,1Zm7.71-5.2-1-.62a4.71,4.71,0,0,0,.82-2.45V277.2h1.15v1.61A5.9,5.9,0,0,1,282.19,281.88Zm-60.52-1.31h-1.16V276h1.16Zm61.52-7.92H282v-4.56h1.15Zm-61.52-1.19h-1.16v-4.55h1.16Zm61.52-7.92H282V259h1.15Zm-61.52-1.18h-1.16V257.8h1.16Zm61.52-7.93H282v-4.55h1.15Zm-61.52-1.18h-1.16V248.7h1.16Zm61.52-7.92H282v-4.56h1.15Zm-61.52-1.19h-1.16v-4.55h1.16Zm61.52-7.92H282v-4.55h1.15ZM221.67,235h-1.16v-4.56h1.16Zm61.52-7.93H282v-4.55h1.15Zm-61.52-1.18h-1.16v-1.52a5.91,5.91,0,0,1,1.06-3.16l1,.64a4.82,4.82,0,0,0-.86,2.52Zm4.26-6.56-.57-1,3.94-2.28.58,1ZM283.19,218H282v-4.55h1.15Zm-49.37-3.19-.58-1,3.95-2.28.57,1Zm7.89-4.55-.58-1,4-2.27.57,1Zm41.48-1.36H282v-4.56h1.15Zm-33.59-3.19-.58-1,3.94-2.27.58,1Zm7.88-4.55-.57-1,3.94-2.28.58,1Zm25.71-1.37H282v-4.55h1.15Zm-17.82-3.18-.57-1,3.94-2.28.58,1Zm7.89-4.55-.58-1,3.95-2.28.57,1Z" transform="translate(-1.5 0.5)"/></g><g id="Frame-4" data-name="Frame"><path class="cls-3" d="M283.19,322.13H282v-1.76a2.11,2.11,0,0,0,0-.26l-.07-.23,0-.07,0-.1a.35.35,0,0,0-.07-.15l-.22-.28-.08,0a.91.91,0,0,0-.54-.06l-.2-1.13a2,2,0,0,1,1.21.14,2.58,2.58,0,0,1,.32.18l.09.09a.58.58,0,0,1,.14.14h0l.12.15a1,1,0,0,1,.13.21,1.72,1.72,0,0,1,.19.44.67.67,0,0,1,.06.21l.09.18,0,.08a.69.69,0,0,1,0,.13c0,.13,0,.25,0,.37Z" transform="translate(-1.5 0.5)"/><path class="cls-3" d="M222.76,448.1a1.85,1.85,0,0,1-.44-.06,2.3,2.3,0,0,1-.34-.12l-.25-.13a2.86,2.86,0,0,1-.89-1.08,3.71,3.71,0,0,1-.33-1.54v-1.25h1.16v1.25a2.48,2.48,0,0,0,.2,1,1.68,1.68,0,0,0,.44.61l.28.13.19,0,.13,1.15Zm4.41-2.21-.58-1,3.95-2.27.57,1Zm7.88-4.55-.57-1,3.94-2.28.58,1Zm-13.38-2h-1.16v-4.55h1.16Zm21.27-2.58-.58-1,3.95-2.28.57,1Zm7.89-4.56-.58-1,3.94-2.27.58,1Zm-29.16-2h-1.16V425.7h1.16Zm37-2.59-.58-1,3.95-2.28.57,1Zm7.89-4.56-.58-1,3.94-2.28.58,1Zm-44.93-2h-1.16v-4.56h1.16Zm52.81-2.6-.57-1,3.94-2.28.57,1Zm7.71-5.19-1-.63a4.71,4.71,0,0,0,.82-2.45v-1.61h1.15v1.61A5.93,5.93,0,0,1,282.19,413.36ZM221.67,412h-1.16v-4.55h1.16Zm61.52-7.92H282v-4.55h1.15Zm-61.52-1.19h-1.16v-4.55h1.16ZM283.19,395H282v-4.55h1.15Zm-61.52-1.18h-1.16v-4.56h1.16Zm61.52-7.93H282v-4.55h1.15Zm-61.52-1.18h-1.16v-4.55h1.16Zm61.52-7.92H282v-4.56h1.15Zm-61.52-1.19h-1.16v-4.55h1.16Zm61.52-7.92H282v-4.55h1.15Zm-61.52-1.18h-1.16V362h1.16Zm61.52-7.93H282V354h1.15Zm-61.52-1.18h-1.16v-1.52a5.91,5.91,0,0,1,1.06-3.16l1,.64a4.82,4.82,0,0,0-.86,2.52Zm4.26-6.56-.57-1,3.94-2.28.58,1Zm57.26-1.36H282v-4.56h1.15Zm-49.37-3.2-.58-1,3.95-2.28.57,1Zm7.89-4.55-.58-1,4-2.28.57,1Zm41.48-1.36H282v-4.56h1.15Zm-33.59-3.19-.58-1,3.94-2.27.58,1Zm7.88-4.55-.57-1,3.94-2.28.58,1Zm25.71-1.37H282v-4.55h1.15Zm-17.82-3.18-.57-1,3.94-2.28.58,1Zm7.89-4.55-.58-1,3.95-2.28.57,1Z" transform="translate(-1.5 0.5)"/></g><g id="Code_Icon" data-name="Code Icon"><g id="Speech_Bubble" data-name="Speech Bubble"><path class="cls-3" d="M445.34,26.39,388,59.46a4.66,4.66,0,0,0-2.12,3.66v53.13a4.59,4.59,0,0,0,2.13,3.64l4,2.29a4.76,4.76,0,0,0,4.24,0L453.63,89.1a4.69,4.69,0,0,0,2.12-3.67V32.3a4.62,4.62,0,0,0-2.13-3.64l-4-2.29A4.78,4.78,0,0,0,445.34,26.39Z" transform="translate(-1.5 0.5)"/><path class="cls-19" d="M396.31,122.16a4.82,4.82,0,0,1-4.24,0l-4-2.29a4.6,4.6,0,0,1-2.13-3.64V63.12a4.36,4.36,0,0,1,.67-2.16l8.24,4.77a4.18,4.18,0,0,0-.62,2.08v53.12C394.2,122.17,395.07,122.88,396.31,122.16Z" transform="translate(-1.5 0.5)"/><g class="cls-20"><path class="cls-10" d="M455.72,31.92c-.17-1.07-1-1.45-2.09-.84L396.32,64.14a4.34,4.34,0,0,0-1.5,1.59L386.57,61a4.13,4.13,0,0,1,1.46-1.5l57.32-33.07a4.75,4.75,0,0,1,4.24,0l4,2.29A4.68,4.68,0,0,1,455.72,31.92Z" transform="translate(-1.5 0.5)"/></g><path class="cls-3" d="M453.63,31.08,396.31,64.14a4.68,4.68,0,0,0-2.11,3.67v53.13c0,1.35.94,1.89,2.11,1.22L453.63,89.1a4.69,4.69,0,0,0,2.12-3.67V32.3C455.75,31,454.8,30.41,453.63,31.08Z" transform="translate(-1.5 0.5)"/></g><g id="_" data-name="&lt;/&gt;"><path class="cls-13" d="M399.87,90.62a3.47,3.47,0,0,1,.23-1.32,9.81,9.81,0,0,1,.67-1.23l12.5-20.2a2.07,2.07,0,0,1,.2-.24,1,1,0,0,1,.15-.1.35.35,0,0,1,.46,0,.8.8,0,0,1,.19.61V76a3.39,3.39,0,0,1-.36,1.63,11.57,11.57,0,0,1-.64,1.07L407.8,87l5.47,2.14a2.39,2.39,0,0,1,.64.3c.24.15.36.55.36,1.19v7.79a1.84,1.84,0,0,1-.19.83,1.2,1.2,0,0,1-.46.56l-.15.06a.66.66,0,0,1-.2,0l-12.5-5.78a1.79,1.79,0,0,1-.67-.45,1.71,1.71,0,0,1-.23-1Z" transform="translate(-1.5 0.5)"/><path class="cls-13" d="M427.11,56.37a7,7,0,0,1,.47-1.26,2.27,2.27,0,0,1,.91-1l4.18-2.41a.38.38,0,0,1,.49,0,.86.86,0,0,1,.2.63,2.31,2.31,0,0,1-.06.47l-10.56,45a6.45,6.45,0,0,1-.44,1.21,2.27,2.27,0,0,1-.94,1l-4.09,2.37a.37.37,0,0,1-.48,0,.83.83,0,0,1-.21-.63,1.77,1.77,0,0,1,.07-.46Z" transform="translate(-1.5 0.5)"/><path class="cls-13" d="M450.07,63.65a3.23,3.23,0,0,1-.23,1.31,9.21,9.21,0,0,1-.67,1.24l-12.5,20.2a1.29,1.29,0,0,1-.2.23.6.6,0,0,1-.14.11.36.36,0,0,1-.47,0,.8.8,0,0,1-.19-.61V78.32a3.25,3.25,0,0,1,.36-1.61c.24-.42.45-.77.64-1l5.47-8.45-5.47-2.08a2.3,2.3,0,0,1-.64-.33c-.24-.17-.36-.57-.36-1.21V55.81a1.84,1.84,0,0,1,.19-.83,1.16,1.16,0,0,1,.47-.56.35.35,0,0,1,.14-.06h.2l12.5,5.78a1.68,1.68,0,0,1,.67.45,1.64,1.64,0,0,1,.23,1Z" transform="translate(-1.5 0.5)"/></g></g><g id="Image"><path id="Shadow-6" data-name="Shadow" class="cls-21" d="M368.06,137a2.31,2.31,0,0,0-1.12.34l-56.47,32.59a5.6,5.6,0,0,0-2.53,4.37v89.29a3.06,3.06,0,0,0,.27,1.28,2.18,2.18,0,0,0,.66.84l.22.12a.81.81,0,0,0,.22.07,1.12,1.12,0,0,0,.32,0h0a1.66,1.66,0,0,0,.8-.24L366.94,233a5.57,5.57,0,0,0,2.53-4.37v-89.9c0-.11,0-.22,0-.32a1.85,1.85,0,0,0,0-.23s0,0,0-.05a.71.71,0,0,0-.06-.22.94.94,0,0,0-.15-.32.5.5,0,0,0-.08-.14.65.65,0,0,0-.08-.09.61.61,0,0,0-.16-.16l0,0a.88.88,0,0,0-.21-.12,1.27,1.27,0,0,0-.58-.13Z" transform="translate(-1.5 0.5)"/><g id="Window-3" data-name="Window"><path class="cls-6" d="M380.72,142.1a2.28,2.28,0,0,0-1.12.34L323.12,175a5.61,5.61,0,0,0-2.52,4.37v89.3a3,3,0,0,0,.26,1.27,2.18,2.18,0,0,0,.66.84l.23.12a.74.74,0,0,0,.21.07,1.25,1.25,0,0,0,.32.05h0a1.74,1.74,0,0,0,.8-.24l56.48-32.64a5.56,5.56,0,0,0,2.52-4.36V143.9a3,3,0,0,0,0-.31.93.93,0,0,0,0-.24s0,0,0,0a1.42,1.42,0,0,0-.05-.22,1.87,1.87,0,0,0-.15-.32.38.38,0,0,0-.09-.13.22.22,0,0,0-.07-.09.69.69,0,0,0-.17-.17v0a.94.94,0,0,0-.22-.12,1.36,1.36,0,0,0-.57-.13Z" transform="translate(-1.5 0.5)"/><path class="cls-4" d="M381.29,142.23a1.81,1.81,0,0,0-1.7.22L323.12,175a5.13,5.13,0,0,0-1.76,1.87h0l-6.46-3.69a5,5,0,0,1,1.75-1.83l56.48-32.6a1.78,1.78,0,0,1,1.84-.15C375.41,138.91,380.75,142,381.29,142.23Z" transform="translate(-1.5 0.5)"/><path class="cls-1" d="M367.82,152.73a3.77,3.77,0,0,0-1.43,3c0,1.21.64,1.82,1.43,1.37a3.79,3.79,0,0,0,1.42-3C369.24,152.89,368.6,152.28,367.82,152.73Z" transform="translate(-1.5 0.5)"/><path class="cls-1" d="M372.94,149.77a3.76,3.76,0,0,0-1.42,3c0,1.21.64,1.83,1.42,1.37a3.74,3.74,0,0,0,1.43-3C374.37,149.93,373.73,149.31,372.94,149.77Z" transform="translate(-1.5 0.5)"/><path class="cls-1" d="M378.07,146.8a3.77,3.77,0,0,0-1.43,3c0,1.21.64,1.82,1.43,1.37a3.79,3.79,0,0,0,1.42-3C379.49,147,378.85,146.35,378.07,146.8Z" transform="translate(-1.5 0.5)"/><path class="cls-5" d="M320.86,270a3.22,3.22,0,0,1-.26-1.27V187.64h0V179.4a5.17,5.17,0,0,1,.75-2.5l-6.46-3.69a5.16,5.16,0,0,0-.77,2.52v8.19h0V265a3,3,0,0,0,.29,1.33,2.16,2.16,0,0,0,.77.86l6,3.46.31.18A2.25,2.25,0,0,1,320.86,270Z" transform="translate(-1.5 0.5)"/></g><path class="cls-3" d="M372.47,225.92l-42.22,24.37c-1.85,1.07-3.35-.06-3.35-2.53V193.63a8,8,0,0,1,3.35-6.4l42.22-24.37c1.85-1.07,3.35.06,3.35,2.53v54.13A8,8,0,0,1,372.47,225.92Z" transform="translate(-1.5 0.5)"/><polygon class="cls-13" points="330.65 237.75 369.07 215.57 359.46 201.48 354.66 214.29 343.95 190.9 330.65 237.75"/><ellipse class="cls-13" cx="361.71" cy="186.42" rx="6.23" ry="3.52" transform="translate(47.05 446.76) rotate(-66.95)"/></g><g id="Type"><path id="Shadow-7" data-name="Shadow" class="cls-21" d="M368.06,268.57a2.31,2.31,0,0,0-1.12.34L310.47,301.5a5.62,5.62,0,0,0-2.53,4.37v89.3a3,3,0,0,0,.27,1.27,2.18,2.18,0,0,0,.66.84l.22.12a.81.81,0,0,0,.22.07,1.13,1.13,0,0,0,.32,0h0a1.77,1.77,0,0,0,.8-.24l56.47-32.64a5.57,5.57,0,0,0,2.53-4.36V270.37a2.85,2.85,0,0,0,0-.31,1.72,1.72,0,0,0,0-.24s0,0,0-.05a.79.79,0,0,0-.06-.22,1,1,0,0,0-.15-.32.35.35,0,0,0-.08-.13.39.39,0,0,0-.08-.1.61.61,0,0,0-.16-.16l0,0a.88.88,0,0,0-.21-.12,1.41,1.41,0,0,0-.58-.13Z" transform="translate(-1.5 0.5)"/><g id="Window-4" data-name="Window"><path class="cls-6" d="M380.72,273.72a2.28,2.28,0,0,0-1.12.34l-56.48,32.59A5.57,5.57,0,0,0,320.6,311v89.3a3,3,0,0,0,.26,1.27,2.31,2.31,0,0,0,.66.85l.23.11.21.08a1.87,1.87,0,0,0,.32,0h0a1.63,1.63,0,0,0,.8-.24l56.48-32.63a5.59,5.59,0,0,0,2.52-4.37V275.51a3,3,0,0,0,0-.31.85.85,0,0,0,0-.23,0,0,0,0,0,0-.05,1.32,1.32,0,0,0-.05-.23,1.87,1.87,0,0,0-.15-.32.38.38,0,0,0-.09-.13.31.31,0,0,0-.07-.09.69.69,0,0,0-.17-.17h0a1,1,0,0,0-.22-.13,1.35,1.35,0,0,0-.57-.12Z" transform="translate(-1.5 0.5)"/><path class="cls-4" d="M381.29,273.84a1.81,1.81,0,0,0-1.7.22l-56.47,32.58a5.21,5.21,0,0,0-1.76,1.87h0l-6.46-3.69a5,5,0,0,1,1.75-1.83l56.48-32.59a1.76,1.76,0,0,1,1.84-.16C375.41,270.52,380.75,273.56,381.29,273.84Z" transform="translate(-1.5 0.5)"/><path class="cls-1" d="M367.82,284.34a3.77,3.77,0,0,0-1.43,3c0,1.21.64,1.82,1.43,1.37a3.79,3.79,0,0,0,1.42-3C369.24,284.5,368.6,283.89,367.82,284.34Z" transform="translate(-1.5 0.5)"/><path class="cls-1" d="M372.94,281.38a3.76,3.76,0,0,0-1.42,3c0,1.21.64,1.83,1.42,1.37a3.74,3.74,0,0,0,1.43-3C374.37,281.54,373.73,280.93,372.94,281.38Z" transform="translate(-1.5 0.5)"/><path class="cls-1" d="M378.07,278.41a3.77,3.77,0,0,0-1.43,3c0,1.21.64,1.82,1.43,1.37a3.78,3.78,0,0,0,1.42-3C379.49,278.57,378.85,278,378.07,278.41Z" transform="translate(-1.5 0.5)"/><path class="cls-5" d="M320.86,401.58a3.18,3.18,0,0,1-.26-1.27V319.25h0V311a5.17,5.17,0,0,1,.75-2.51l-6.46-3.69a5.19,5.19,0,0,0-.77,2.52v8.19h0v81a3,3,0,0,0,.29,1.33,2.1,2.1,0,0,0,.77.86l6,3.46.31.19A2.46,2.46,0,0,1,320.86,401.58Z" transform="translate(-1.5 0.5)"/></g><path class="cls-3" d="M372.47,357.53l-42.22,24.38c-1.85,1.07-3.35-.07-3.35-2.54V325.25a8,8,0,0,1,3.35-6.41l42.22-24.37c1.85-1.07,3.35.06,3.35,2.53v54.13A8,8,0,0,1,372.47,357.53Z" transform="translate(-1.5 0.5)"/><path class="cls-13" d="M369.89,336.24v-8.57c0-4.59-1.34-8.6-6.85-5.42a19.75,19.75,0,0,0-5.91,5.45l.74,2.32a16.13,16.13,0,0,1,4.69-4.41c3.68-2.13,4.09,1,4.09,2.93V329c-7,4-10.82,9.23-10.82,14.77,0,3.31,1.86,5.5,5.5,3.4a14.24,14.24,0,0,0,5.51-6.59l.11-.06.26,2.73,3-1.72A36,36,0,0,1,369.89,336.24Zm-3.16-.4a7,7,0,0,1-.19,1.43,10.25,10.25,0,0,1-4.35,6.35c-1.68,1-3.09.5-3.09-2.2,0-4.44,4.06-7.59,7.63-9.56Zm-25.68-9.36-8.52,36.82,3.35-1.94,2.6-11.53,8.9-5.14,2.67,8.49,3.46-2-8.55-27Zm-1.9,19.74,2.46-10.65c.48-2.22.89-4.39,1.26-6.5l.08,0c.37,1.63.74,3.31,1.3,5.07l2.46,7.76Z" transform="translate(-1.5 0.5)"/></g><g id="Design"><path id="Shadow-8" data-name="Shadow" class="cls-21" d="M244.9,384.18a2.28,2.28,0,0,0-1.12.34L187.3,417.11a5.57,5.57,0,0,0-2.52,4.36v89.3A3,3,0,0,0,185,512a2.41,2.41,0,0,0,.66.85l.23.11a.76.76,0,0,0,.21.08,1.86,1.86,0,0,0,.33,0h0a1.63,1.63,0,0,0,.8-.24l56.48-32.63a5.59,5.59,0,0,0,2.52-4.37V386a3,3,0,0,0,0-.31.59.59,0,0,0,0-.23,0,0,0,0,0,0-.05.78.78,0,0,0,0-.23,1.87,1.87,0,0,0-.15-.32.38.38,0,0,0-.09-.13.31.31,0,0,0-.07-.09.87.87,0,0,0-.16-.17h0a1,1,0,0,0-.22-.13,1.32,1.32,0,0,0-.57-.12Z" transform="translate(-1.5 0.5)"/><g id="Window-5" data-name="Window"><path class="cls-6" d="M257.55,389.32a2.31,2.31,0,0,0-1.12.34L200,422.25a5.58,5.58,0,0,0-2.53,4.37v89.29a3.1,3.1,0,0,0,.27,1.28,2.18,2.18,0,0,0,.66.84,1.41,1.41,0,0,0,.22.11.83.83,0,0,0,.22.08,1.75,1.75,0,0,0,.32,0h0a1.66,1.66,0,0,0,.8-.24l56.47-32.63A5.58,5.58,0,0,0,259,481v-89.9c0-.11,0-.22,0-.32a1.57,1.57,0,0,0,0-.23s0,0,0-.05a.71.71,0,0,0-.06-.22,1,1,0,0,0-.15-.33.35.35,0,0,0-.08-.13.65.65,0,0,0-.08-.09.52.52,0,0,0-.16-.17h0a1.48,1.48,0,0,0-.21-.13,1.4,1.4,0,0,0-.58-.12Z" transform="translate(-1.5 0.5)"/><path class="cls-4" d="M258.13,389.44a1.83,1.83,0,0,0-1.7.22L200,422.24a5.32,5.32,0,0,0-1.77,1.87h0l-6.46-3.69a5,5,0,0,1,1.76-1.83L250,386a1.75,1.75,0,0,1,1.83-.16C252.25,386.12,257.59,389.16,258.13,389.44Z" transform="translate(-1.5 0.5)"/><path class="cls-1" d="M244.65,400a3.76,3.76,0,0,0-1.42,3c0,1.21.64,1.82,1.42,1.37a3.74,3.74,0,0,0,1.43-3C246.08,400.11,245.44,399.49,244.65,400Z" transform="translate(-1.5 0.5)"/><path class="cls-1" d="M249.78,397a3.77,3.77,0,0,0-1.43,3c0,1.21.64,1.82,1.43,1.37a3.79,3.79,0,0,0,1.42-3C251.2,397.14,250.56,396.53,249.78,397Z" transform="translate(-1.5 0.5)"/><path class="cls-1" d="M254.9,394a3.76,3.76,0,0,0-1.42,3c0,1.21.64,1.83,1.42,1.37a3.74,3.74,0,0,0,1.43-3C256.33,394.18,255.69,393.56,254.9,394Z" transform="translate(-1.5 0.5)"/><path class="cls-5" d="M197.7,517.19a3.41,3.41,0,0,1-.27-1.28v-81h0v-8.24a5.1,5.1,0,0,1,.75-2.51l-6.46-3.69a5.23,5.23,0,0,0-.77,2.52v8.2h0v81.05a3.13,3.13,0,0,0,.29,1.33,2.1,2.1,0,0,0,.77.86l6,3.47.31.18A2.24,2.24,0,0,1,197.7,517.19Z" transform="translate(-1.5 0.5)"/></g><path class="cls-3" d="M249.3,473.14l-42.22,24.37c-1.85,1.07-3.35-.07-3.35-2.53V440.85a8,8,0,0,1,3.35-6.4l42.22-24.38c1.85-1.07,3.35.07,3.35,2.53v54.13A8,8,0,0,1,249.3,473.14Z" transform="translate(-1.5 0.5)"/><path class="cls-13" d="M222,440.3h.14l.08,0,12-6.94a1.07,1.07,0,0,0,.5-.86V427c0-.25-.24-.33-.49-.19l-12,6.94a1.12,1.12,0,0,0-.5.86v5.3C221.68,440.16,221.8,440.3,222,440.3Zm.13,1h0Zm5.82,34.86v-22.3c-.75.26-1.32-.28-1.32-1.33a3.86,3.86,0,0,1,1.6-3.07c.89-.51,1.6,0,1.6,1.21a4,4,0,0,1-1.32,2.87v22.3l8.21-26.69a1.18,1.18,0,0,0-.21-1c-2-2.37-3.42-5.9-3.93-10.65a.34.34,0,0,0-.55-.28l-7.59,4.38a1.25,1.25,0,0,0-.55.86A51.93,51.93,0,0,1,219.76,458a1.49,1.49,0,0,0,0,1Zm15.44-7.51a1.13,1.13,0,0,0-1.13,1.12,1.06,1.06,0,0,0,.05.31l-10.57,6.11c6.45-5.44,11.35-14.74,11.76-22.83a1.13,1.13,0,1,0-.42,0c-.48,9.32-7,20.28-14.95,24.87-4,2.29-7.68,2.67-10.46,1.06-2.56-1.48-4-4.47-4.28-8.5a1.13,1.13,0,1,0-.42,0c.23,4.18,1.8,7.3,4.49,8.85a8,8,0,0,0,4,1,11.47,11.47,0,0,0,3.42-.56l-11,6.33-.15-.15,0,0a1.12,1.12,0,1,0,.46.9,1.35,1.35,0,0,0-.06-.35l28.35-16.37a1.45,1.45,0,0,0,.22.21l0,0a1.08,1.08,0,0,0,.64.2,1.13,1.13,0,0,0,0-2.25Z" transform="translate(-1.5 0.5)"/></g><g id="Speech_Bubble-2" data-name="Speech Bubble"><g id="Speech_Bubble-3" data-name="Speech Bubble"><path class="cls-3" d="M84.76,153.15l-5-9.39,4-11.59v-7.09l-12.3,7.09v7.1l5.29,9.15a.74.74,0,0,0,.36.32h0Z" transform="translate(-1.5 0.5)"/><path class="cls-19" d="M84.76,153.15l-5-9.39,4-11.59v-7.09l-12.3,7.09v7.1l5.29,9.15a.74.74,0,0,0,.36.32h0Z" transform="translate(-1.5 0.5)"/><path class="cls-3" d="M176.1,33.45a8.14,8.14,0,0,0-3.68-6.38l-3-1.74a8.18,8.18,0,0,0-7.37,0L51.3,89.66A8.14,8.14,0,0,0,47.62,96v49.71a8.17,8.17,0,0,0,3.68,6.39l3,1.73a8.18,8.18,0,0,0,7.37,0l17.54-10.13,5.28,9.13a.78.78,0,0,0,1.42-.13l5.57-16.09,80.94-47.11a8.14,8.14,0,0,0,3.68-6.38Z" transform="translate(-1.5 0.5)"/><path class="cls-19" d="M47.62,145.75a8.17,8.17,0,0,0,3.68,6.39l3,1.73a8.27,8.27,0,0,0,6.74.3c-1.73.65-3-.33-3-2.43V102a7.46,7.46,0,0,1,1.08-3.63l-10.37-6A7.49,7.49,0,0,0,47.62,96Z" transform="translate(-1.5 0.5)"/><path class="cls-11" d="M176,32.4c-.43-1.56-1.86-2.06-3.56-1.08L61.67,95.65a7.25,7.25,0,0,0-2.59,2.75l-10.37-6a7.41,7.41,0,0,1,2.59-2.75L162,25.33a8.24,8.24,0,0,1,7.37,0l3,1.74A8.11,8.11,0,0,1,176,32.4Z" transform="translate(-1.5 0.5)"/></g><path class="cls-13" d="M86.93,94.6a.55.55,0,0,1,.65,0,.83.83,0,0,1,.28.72v18.88a24.39,24.39,0,0,1-.62,5.52,21.3,21.3,0,0,1-1.87,5,19.43,19.43,0,0,1-3.11,4.35,18.51,18.51,0,0,1-4.32,3.39,10.93,10.93,0,0,1-4.33,1.61,4.34,4.34,0,0,1-3.09-.77,5.56,5.56,0,0,1-1.85-2.9,16.52,16.52,0,0,1-.61-4.81V106.74a2.32,2.32,0,0,1,.28-1A1.73,1.73,0,0,1,69,105l2.8-1.62a.54.54,0,0,1,.65,0,.83.83,0,0,1,.28.71V122.7a9.65,9.65,0,0,0,.38,3,2.87,2.87,0,0,0,1.07,1.57,2.2,2.2,0,0,0,1.66.29,6.67,6.67,0,0,0,2.1-.82,10.61,10.61,0,0,0,2.13-1.62,9.38,9.38,0,0,0,1.67-2.21,11.82,11.82,0,0,0,1.09-2.82,13.73,13.73,0,0,0,.4-3.45V98a2.13,2.13,0,0,1,.28-1,1.81,1.81,0,0,1,.65-.75Z" transform="translate(-1.5 0.5)"/><path class="cls-13" d="M94,122.76a.57.57,0,0,1-.66,0,.86.86,0,0,1-.28-.72V92.3a2.32,2.32,0,0,1,.28-1,1.73,1.73,0,0,1,.66-.74l2.8-1.62a.54.54,0,0,1,.65,0,.83.83,0,0,1,.28.72v29.75a2.13,2.13,0,0,1-.28,1,1.69,1.69,0,0,1-.65.75Z" transform="translate(-1.5 0.5)"/><path class="cls-13" d="M112.94,77a5.94,5.94,0,0,1,.52-1.25,2.55,2.55,0,0,1,1-1L117,73.27a.47.47,0,0,1,.54,0,.7.7,0,0,1,.22.59,2.15,2.15,0,0,1-.06.45L106,118.3a5.54,5.54,0,0,1-.48,1.2,2.59,2.59,0,0,1-1,1.06L102.06,122a.47.47,0,0,1-.54,0,.68.68,0,0,1-.22-.58,1.72,1.72,0,0,1,.07-.46Z" transform="translate(-1.5 0.5)"/><path class="cls-13" d="M140,64a.54.54,0,0,1,.65,0,.83.83,0,0,1,.28.71V83.56a24.52,24.52,0,0,1-.62,5.52,21.63,21.63,0,0,1-1.87,5,19.43,19.43,0,0,1-3.11,4.35,19.06,19.06,0,0,1-4.32,3.39,10.89,10.89,0,0,1-4.33,1.6,4.25,4.25,0,0,1-3.09-.77,5.53,5.53,0,0,1-1.85-2.89,16.59,16.59,0,0,1-.6-4.81V76.1a2.26,2.26,0,0,1,.27-1,1.83,1.83,0,0,1,.66-.75l2.8-1.62a.55.55,0,0,1,.65,0,.81.81,0,0,1,.28.71V92.06a9.42,9.42,0,0,0,.38,3,2.91,2.91,0,0,0,1.07,1.57,2.24,2.24,0,0,0,1.66.29,6.62,6.62,0,0,0,2.1-.83,10.9,10.9,0,0,0,2.13-1.62,9.18,9.18,0,0,0,1.67-2.21,11.18,11.18,0,0,0,1.09-2.81,13.87,13.87,0,0,0,.4-3.46V67.35a2.2,2.2,0,0,1,.28-1,1.72,1.72,0,0,1,.65-.74Z" transform="translate(-1.5 0.5)"/><path class="cls-13" d="M161.78,83.63c-.46.26-.79.3-1,.11s-.35-.33-.45-.43l-5.49-7-5.46,13.34c-.09.2-.24.52-.45,1a2.36,2.36,0,0,1-1,1L145,93.3a.55.55,0,0,1-.66,0,.86.86,0,0,1-.27-.72,1.89,1.89,0,0,1,.1-.56l7.91-19.26-7.56-9.68a1.06,1.06,0,0,1-.11-.45,2.13,2.13,0,0,1,.28-1,1.65,1.65,0,0,1,.66-.75l2.9-1.68c.46-.26.79-.3,1-.11s.35.33.45.43L155,66.2l5.18-12.71c.09-.2.24-.52.45-1a2.43,2.43,0,0,1,1-1l2.9-1.67a.54.54,0,0,1,.65,0,.83.83,0,0,1,.28.71,1.9,1.9,0,0,1-.1.57l-7.64,18.64,7.84,10a1.06,1.06,0,0,1,.11.45,2.13,2.13,0,0,1-.28,1,1.69,1.69,0,0,1-.65.75Z" transform="translate(-1.5 0.5)"/></g><g id="Colors"><path class="cls-3" d="M422,275.41c1.7,1,4.05.84,6.64-.66,5.18-3,9.38-10.26,9.38-16.25,0-3-1.05-5.09-2.75-6.07l-6-3.45c-1.7-1-4-.84-6.63.65-5.19,3-9.39,10.27-9.39,16.25,0,3,1,5.1,2.75,6.08Z" transform="translate(-1.5 0.5)"/><path class="cls-12" d="M422,275.41c1.7,1,4.05.84,6.64-.66,5.18-3,9.38-10.26,9.38-16.25,0-3-1.05-5.09-2.75-6.07l-6-3.45c-1.7-1-4-.84-6.63.65-5.19,3-9.39,10.27-9.39,16.25,0,3,1,5.1,2.75,6.08Z" transform="translate(-1.5 0.5)"/><path class="cls-3" d="M438,258.5c0-3-1.05-5.09-2.75-6.07s-4-.84-6.63.66c-5.18,3-9.38,10.26-9.38,16.25,0,3,1.05,5.09,2.74,6.07s4.05.84,6.64-.66C433.77,271.76,438,264.49,438,258.5Z" transform="translate(-1.5 0.5)"/><path class="cls-2" d="M422,311.22c1.7,1,4.05.84,6.64-.66,5.18-3,9.38-10.27,9.38-16.25,0-3-1.05-5.09-2.75-6.08l-6-3.45c-1.7-1-4-.84-6.63.66-5.19,3-9.39,10.27-9.39,16.25,0,3,1,5.09,2.75,6.07Z" transform="translate(-1.5 0.5)"/><path class="cls-22" d="M438,294.31c0-3-1.05-5.1-2.75-6.08s-4-.83-6.63.66c-5.18,3-9.38,10.27-9.38,16.25,0,3,1.05,5.1,2.74,6.08s4.05.84,6.64-.66C433.77,307.57,438,300.29,438,294.31Z" transform="translate(-1.5 0.5)"/><path class="cls-5" d="M422,347c1.7,1,4.05.84,6.64-.66,5.18-3,9.38-10.26,9.38-16.25,0-3-1.05-5.09-2.75-6.07l-6-3.45c-1.7-1-4-.84-6.63.65-5.19,3-9.39,10.27-9.39,16.25,0,3,1,5.1,2.75,6.08Z" transform="translate(-1.5 0.5)"/><path class="cls-6" d="M438,330.11c0-3-1.05-5.09-2.75-6.07s-4-.84-6.63.66c-5.18,3-9.38,10.26-9.38,16.25,0,3,1.05,5.09,2.74,6.07s4.05.84,6.64-.66C433.77,343.37,438,336.1,438,330.11Z" transform="translate(-1.5 0.5)"/><path class="cls-3" d="M422,239.61c1.7,1,4.05.84,6.64-.66,5.18-3,9.38-10.27,9.38-16.25,0-3-1.05-5.09-2.75-6.08l-6-3.45c-1.7-1-4-.84-6.63.66-5.19,3-9.39,10.27-9.39,16.25,0,3,1,5.09,2.75,6.07Z" transform="translate(-1.5 0.5)"/><path class="cls-3" d="M438,222.7c0-3-1.05-5.1-2.75-6.08s-4-.83-6.63.66c-5.18,3-9.38,10.27-9.38,16.25,0,3,1.05,5.1,2.74,6.08s4.05.84,6.64-.66C433.77,236,438,228.68,438,222.7Z" transform="translate(-1.5 0.5)"/><path class="cls-11" d="M438,222.7c0-3-1.05-5.1-2.75-6.08s-4-.83-6.63.66c-5.18,3-9.38,10.27-9.38,16.25,0,3,1.05,5.1,2.74,6.08s4.05.84,6.64-.66C433.77,236,438,228.68,438,222.7Z" transform="translate(-1.5 0.5)"/></g><g id="Character"><g id="Arm"><path class="cls-23" d="M547.66,259.12c-.46,4.84.13,9.1-.24,11.5a53.76,53.76,0,0,1-.95,5.61,13.8,13.8,0,0,1-2.06,4,28.39,28.39,0,0,1-2.14,4.69,24.13,24.13,0,0,1-3.8,4c-1,2.28-1,2.52-1.37,3.5a1.86,1.86,0,0,1-.57.89.82.82,0,0,1-.86-.12,2.1,2.1,0,0,1-.77-1.49c-.28-1.49.32-2.9.72-4.36a38,38,0,0,0,1.34-6,3.69,3.69,0,0,1-.45,1c-.25.53-.38,1.09-.62,1.63l-3.36,7.67a1.39,1.39,0,0,1-.44.62.83.83,0,0,1-.86,0,1.61,1.61,0,0,1-.55-.71,5.36,5.36,0,0,1,0-3.36,39.9,39.9,0,0,1,1.21-4.31,33.64,33.64,0,0,0,1.28-4.62,22.07,22.07,0,0,0,.66-6.21c-.19-1.56-1.84.45-2.17.92a18,18,0,0,1-1.76,2.31,4.36,4.36,0,0,1-3.27,1.34,1.17,1.17,0,0,1-.53-.15,1,1,0,0,1-.33-1.06,3.85,3.85,0,0,1,.55-1l.15-.25c1.94-3.26,2.29-6.87,4-9.78.54-.92,1.52-2.84,2.15-4.2a13.42,13.42,0,0,0,1.91-5.05c.33-2.59-.42-30.25-.42-30.25L524.41,199c-2.38-10.76-1-19.76,2.09-24.12,7.72-.82,11,3.09,14,10.39a151.13,151.13,0,0,1,5.6,15.1c3.09,9.56,3.54,10.92,5.26,19,.91,4.26,0,7.91-1.12,17.81C549.27,245.81,548.11,254.29,547.66,259.12Z" transform="translate(-1.5 0.5)"/><path class="cls-24" d="M540.4,265.42a14.57,14.57,0,0,0,.35-1.45,1.88,1.88,0,0,0,0-1.24,1.34,1.34,0,0,0-.3.79,11.92,11.92,0,0,1-.38,1.33,13.88,13.88,0,0,1-1.08,2.31,6.21,6.21,0,0,1-1.17,1.48c-.64.6-1.45,1-2,1.64a.51.51,0,0,0-.17.29.77.77,0,0,0,.61,0,6.09,6.09,0,0,0,3.13-2.65A11.46,11.46,0,0,0,540.4,265.42Zm-.27,10.07a25.63,25.63,0,0,1-2.26,8.49c-.5,1.07-1.33,2.21-1.32,3.44,0,.71.38,1.75,1.18,1.85.13,0,.12-.24,0-.29-1.35-1-.72-2.37-.08-3.64a24.33,24.33,0,0,0,1.32-3.06,23.67,23.67,0,0,0,1.24-6.78C540.27,275.37,540.14,275.35,540.13,275.49Zm4,4.83s-1.54,1.51-1.68,1.67a1.87,1.87,0,0,1-.74.57c-.68.24-1.1-.3-1.13-.92a3.16,3.16,0,0,1,.29-1.49c.25-.45.53-.89.78-1.34a14.62,14.62,0,0,0,2-7.58c0-.05,0,0-.06,0a35.4,35.4,0,0,1-1.24,5,19.29,19.29,0,0,1-1.26,2.73,5.14,5.14,0,0,0-.87,2.06,2.47,2.47,0,0,0,.29,1.44,1.17,1.17,0,0,0,.51.45c.67.34,1.3-.42,1.72-.85s.88-1.06,1.32-1.58A.15.15,0,0,0,544.13,280.32Z" transform="translate(-1.5 0.5)"/><path class="cls-3" d="M524.85,172.28c10.31-1,14.56,3.12,18.47,16.23,3.61,12.13,5.95,20.08,5.95,20.08a24.48,24.48,0,0,1-8.42,6.61c-6.93,3.24-10.11,2.9-10.11,2.9s-5.74-14.86-6.82-19S519.25,177,524.85,172.28Z" transform="translate(-1.5 0.5)"/></g><g id="Bottom"><path class="cls-5" d="M487.42,406.93c-.75-.09-.8,1.75-.35,2.64,1.3,2.56,5,5.37,10.42,6.68s16.18.08,19.43,0,8.81,1.7,12,2.28c5.87,1.07,9.93-.48,11.9-2.34a3.58,3.58,0,0,0,.85-2.76c0-2.24-.2-2.7-.44-2.68Z" transform="translate(-1.5 0.5)"/><path class="cls-4" d="M540.74,404.23a27.39,27.39,0,0,1,.36,8.08c-.71,1.65-2.55,2.56-4,3-3.87,1.13-7.64.83-11.86-.16a31.36,31.36,0,0,0-8.33-1.12c-3.35.12-10.75.73-14.12.71a22.88,22.88,0,0,1-9.1-1.94c-2.2-1.08-5.52-3.43-6.23-5.16-.65-4-.2-6.42,2.15-7.74s6-1.61,10.82-1.88c1.45-.08,3.28-.13,4.06-.2,2.93-.26,5.67-.43,7.9-.53a12.59,12.59,0,0,0,5.49-1.08,3.72,3.72,0,0,0,1.84-1.72c.48-1-.13-2.52.77-2.59,0,0,17.14,3.14,18.47,3.3C540.49,395.38,539.43,397.57,540.74,404.23Z" transform="translate(-1.5 0.5)"/><path class="cls-1" d="M503.19,397.63a4.58,4.58,0,0,0-1.25,1.43,8.67,8.67,0,0,0-.8,1.91c-.23.84.8,1,1.23.06a10.87,10.87,0,0,1,1.23-2.27,2.62,2.62,0,0,1,1.46-1l.84-.07C505.69,397.06,503.84,397.22,503.19,397.63Z" transform="translate(-1.5 0.5)"/><path class="cls-1" d="M510.68,396.91a2,2,0,0,0-1.57.44,3.88,3.88,0,0,0-1.2,1.73,15.29,15.29,0,0,0-.72,2.48c-.07.55,1.21.55,1.36,0a21.54,21.54,0,0,1,.7-2.26c.15-.38.84-1.79,1.72-1.91l.4,0c0-.19-.24-.32-.42-.37Z" transform="translate(-1.5 0.5)"/><path class="cls-1" d="M515.07,396.87a1.68,1.68,0,0,0-1,.54,4.68,4.68,0,0,0-.71,1.3,9.06,9.06,0,0,0-.44,2.67c0,.69,1.25.54,1.3.07a7,7,0,0,1,.91-3.5,3.26,3.26,0,0,1,1.12-1.13c0-.13-.22-.15-.34-.13A5.82,5.82,0,0,0,515.07,396.87Z" transform="translate(-1.5 0.5)"/><path class="cls-23" d="M538.86,376.33s0,15.31-.09,18.84c0,1.13-2.09,1.78-3.13,2.35a13.3,13.3,0,0,0-3.56,2.5c-2.52,3-4.55,3.84-6.66-.84a1.7,1.7,0,0,0-2.35-1,7.89,7.89,0,0,1-2.83.66c-.15-.08-.08-.32,0-.47a4.75,4.75,0,0,0,.66-3.9c-1-6.16-1.87-12.37-2.78-18.55Z" transform="translate(-1.5 0.5)"/><path class="cls-5" d="M447.37,426.2c-.75-.08-.77,1.76-.3,2.65,1.35,2.54,5.08,5.27,10.55,6.47s16.18-.23,19.43-.35,8.84,1.52,12.07,2c5.89.95,9.92-.68,11.85-2.57a3.66,3.66,0,0,0,.8-2.78c0-2.24-.25-2.69-.5-2.67Z" transform="translate(-1.5 0.5)"/><path class="cls-4" d="M500.63,422.46a27.75,27.75,0,0,1,.52,8.08c-.68,1.66-2.51,2.61-4,3.07-3.85,1.2-7.63,1-11.86.06a31,31,0,0,0-8.36-.95c-3.35.18-10.74.93-14.1,1a23,23,0,0,1-9.14-1.77c-2.22-1-5.58-3.31-6.33-5-.73-4-.32-6.42,2-7.78s6-1.72,10.79-2.09c1.45-.11,3.27-.19,4.05-.28,2.93-.32,5.66-.54,7.88-.68a12.72,12.72,0,0,0,5.48-1.19,3.73,3.73,0,0,0,1.8-1.75c.46-1,.45-2.53,1.35-2.62,0,0,16.57,2.82,17.91,3C500.2,413.62,499.19,415.83,500.63,422.46Z" transform="translate(-1.5 0.5)"/><path class="cls-1" d="M463,416.6a4.45,4.45,0,0,0-1.23,1.45A8.35,8.35,0,0,0,461,420c-.22.85.83,1,1.23,0a11.3,11.3,0,0,1,1.19-2.3,2.63,2.63,0,0,1,1.44-1l.84-.09C465.44,416,463.6,416.17,463,416.6Z" transform="translate(-1.5 0.5)"/><path class="cls-1" d="M470.43,415.73a2,2,0,0,0-1.56.47A3.93,3.93,0,0,0,467.7,418a16.45,16.45,0,0,0-.67,2.5c-.06.54,1.22.53,1.36-.07s.42-1.66.65-2.27c.15-.38.81-1.81,1.69-1.95l.4,0c0-.19-.25-.32-.43-.36A1.28,1.28,0,0,0,470.43,415.73Z" transform="translate(-1.5 0.5)"/><path class="cls-1" d="M474.82,415.6a1.7,1.7,0,0,0-1,.56,4.54,4.54,0,0,0-.68,1.31,9,9,0,0,0-.39,2.68c0,.7,1.26.52,1.3.05a7,7,0,0,1,.84-3.52,3.32,3.32,0,0,1,1.1-1.15c0-.13-.23-.14-.35-.12A7.86,7.86,0,0,0,474.82,415.6Z" transform="translate(-1.5 0.5)"/><path class="cls-23" d="M500.33,395.62s-1.43,15.24-1.79,18.76c-.12,1.12-2.24,1.57-3.34,2.05a13.37,13.37,0,0,0-3.77,2.16c-2.78,2.77-4.88,3.42-6.55-1.43a1.71,1.71,0,0,0-2.26-1.18,7.89,7.89,0,0,1-2.87.4c-.15-.1-.06-.32,0-.47a4.8,4.8,0,0,0,1-3.82c-.48-6.24-.74-12.49-1.09-18.73Z" transform="translate(-1.5 0.5)"/><path class="cls-6" d="M539.72,334.42a73.8,73.8,0,0,0-3-12.84s1.84-26.7,2.64-46.87a145.11,145.11,0,0,0-2.1-30.34l-62.41.89s-.42,35-.28,56.3c.13,20.58.43,26.2,1.35,39.27.49,6.95,1.43,20,2,31.5.62,12.49,2.11,30.39,2.11,30.39a22.36,22.36,0,0,0,8.66,2.41c8.48.12,10-1.11,11.2-2,0,0,1.1-9.17,3.46-26.39,1.55-11.25,2.25-19.55,2.23-25,0-4.12.31-7.2-.42-12l2.23-24.53c.51,3.46,1.08,6.92,1.78,11.18,1.15,6.88,3.32,19.75,5,31.17,1.79,12.38,5,30.06,5,30.06s5.67,1.83,9.88,1.49c8.45-.69,9.43-2.7,10.56-3.68,0,0,.39-8.72,1.12-26.08A164.6,164.6,0,0,0,539.72,334.42Z" transform="translate(-1.5 0.5)"/><path class="cls-19" d="M514.79,285.39c13.39-4.81,14.64-11.84,14.64-11.84C520,281.41,512.14,282,512.14,282l-4.78,33.17,3.35,20.6-.66-20.65Z" transform="translate(-1.5 0.5)"/></g><g id="Top"><path class="cls-4" d="M530.8,173.53c5.27,2.58,9.33,10.54,8.61,21.28-.67,9.94-1.29,16.09-2.59,26.58a82.19,82.19,0,0,0-.27,15.23c.46,8.43,1.86,17.54,1.86,17.54s-6.9,10.85-25.7,12.52c-22.72,2-38.21-3.74-38.21-3.74s-.45-31.17-.45-38.52c0-18.58-.31-25.46,1.64-31.48,1.44-3.33,8.5-18.28,12.38-17.14,4.78,1.4,10.56-.12,15.29-.71C520.38,173,525.28,170.84,530.8,173.53Z" transform="translate(-1.5 0.5)"/><path class="cls-23" d="M497.52,168.11l.43,8.2c5.12.88,16.84,1.13,19.59-.91l-.36-8.92Z" transform="translate(-1.5 0.5)"/><path class="cls-24" d="M488.62,141.74a71,71,0,0,0-5.26,8.41l3.29,2.11Z" transform="translate(-1.5 0.5)"/><path class="cls-23" d="M499,125.85c-6.37-.41-9.11,5.73-11.55,19.41-2.37,13.3-1.29,18.6.21,20.65,3.66,2.69,7.63,3.57,13.3,2.84,4.32-.56,15.31-2.37,20.66-8.47,6.29-7.18,9.31-18.95,4.39-24.13C519.12,128.87,502.41,126.06,499,125.85Z" transform="translate(-1.5 0.5)"/><path class="cls-25" d="M490.65,157a.41.41,0,0,0-.22.07l-.12.13-.28.25a3.82,3.82,0,0,1-.7.42,4.63,4.63,0,0,1-1.43.36.11.11,0,0,0-.08.07.14.14,0,0,0,0,.14c.07.1.24.1.36.11a2.68,2.68,0,0,0,.4,0,3.56,3.56,0,0,0,1.59-.62,2.78,2.78,0,0,0,.33-.27.93.93,0,0,0,.14-.14.48.48,0,0,0,.12-.31S490.74,157,490.65,157Z" transform="translate(-1.5 0.5)"/><path class="cls-24" d="M487.7,165.91c.83,1.13,6.39,3.69,9.91,3.76l-.11-2.75A35.1,35.1,0,0,1,487.7,165.91Z" transform="translate(-1.5 0.5)"/><path class="cls-5" d="M497.34,135.28a5.24,5.24,0,0,0,.39,3.16,6.16,6.16,0,0,0,3.14,3,12.58,12.58,0,0,0-2.16,5.38,3,3,0,0,0,.13,1.8,1.14,1.14,0,0,0,2.05.25A15.56,15.56,0,0,1,503,146.2a5.59,5.59,0,0,1,3.71-1.44c5.14.17,4,8.21,1.63,10.67-3.94,4-6.27.8-6.27.8s-2.66,6.65,1.81,10.27c0,0,7.56,2.88,13.32.82,4.15-4.9,8.88-9.06,11.64-13.24,6.53-9.89,5.57-18.66,1-21.17,0-4.38-3.6-7.58-7.21-9.47-4.91-2.58-10.17-1.58-15.45-2.31a17.73,17.73,0,0,1-7.56-2.94c-1-.68-2.23-1.51-3.32-1a2.42,2.42,0,0,0-1,1,5.57,5.57,0,0,0-.27,4.92c-1.25-1.19-3.77-1.07-5.33-.14-2.23,1.34-2.82,3.2-2.48,6C487.46,130.7,490,136.39,497.34,135.28Z" transform="translate(-1.5 0.5)"/><path class="cls-5" d="M529.41,133.94l5.22-2.16a2.82,2.82,0,0,0-5.22,2.16Z" transform="translate(-1.5 0.5)"/><g id="Arm-2" data-name="Arm"><path class="cls-24" d="M434.93,118.3c-.67-4-1.21-5.88-2-7.26s-3.14-6.72-4.27-8.52c-.72-1.15-2.55,0-2.34,2.18.17,1.68,1.57,5,2.08,6.63s.15,6.11.15,6.11Z" transform="translate(-1.5 0.5)"/><path class="cls-23" d="M484.31,175.75l-32.72-17.19s-14.32-20.07-15.4-22.45-.48-11.34-.59-14.12c-.16-3.78-1.38-4.46-2.52-5.27-3.75-2.65-4.73-3.07-5.85-3.29a2,2,0,0,0-1.86.66c-1-.73-2.25-2-3.79-.73a5.22,5.22,0,0,0-1.15,1.09,1.33,1.33,0,0,0-.88-.22c-1.53.15-3.07,4.24-3,5.71.07,1,.8,1.84,2,2.7,1,.72,1.44-.57,1.44-.57l1.17,1.26c.84,4.45-2.62,8.33.11,12.54a33.51,33.51,0,0,1,3.5,5c5.27,12.83,13,28.27,15.1,31.68,1.44,2.36,3.73,4,11.77,9.77l18.17,13.09Z" transform="translate(-1.5 0.5)"/><path class="cls-24" d="M425.37,113.73l4.64,3-4-3.41A2,2,0,0,0,425.37,113.73Z" transform="translate(-1.5 0.5)"/><path class="cls-24" d="M420.43,114.09l5,3.72-4.54-4.25A3.58,3.58,0,0,0,420.43,114.09Z" transform="translate(-1.5 0.5)"/><path class="cls-24" d="M419.13,116.63a1.89,1.89,0,0,0,.1,1.1,4.29,4.29,0,0,0,.51,1l0-.1c-.1.34-.2.7-.29,1.05l.21,0a1.24,1.24,0,0,0-.88-.51,1.63,1.63,0,0,0-.95.21,1.93,1.93,0,0,1,.92,0,1.24,1.24,0,0,1,.72.47l.14.2.07-.23c.1-.35.2-.7.29-1v-.06l0,0a6.58,6.58,0,0,1-.55-.92A2.34,2.34,0,0,1,419.13,116.63Z" transform="translate(-1.5 0.5)"/><path class="cls-24" d="M419.76,118.35a19.79,19.79,0,0,0,1.51,1.67,2.45,2.45,0,0,0-.27,1.39,14.09,14.09,0,0,0,.18,1.56L420,121.71a2.71,2.71,0,0,0-.68-2.11Z" transform="translate(-1.5 0.5)"/><path class="cls-3" d="M488.42,175.84c-2.54-1.87-8.16-3.35-12.87-5.4-1.83-.8-8.91-3.81-14.66-7-4.57,4.77-8.19,8.82-10.16,15.63a28.17,28.17,0,0,0-.68,3c6.33,4.72,14.21,10.57,17.89,14.69,6.8,7.62,6.29,8.45,6.9,10s7.92,3.18,12.09-7S490.36,180.14,488.42,175.84Z" transform="translate(-1.5 0.5)"/></g></g></g></g><g id="rectangle"><rect class="cls-26" width="600" height="600"/></g></svg>