<svg id="Layer_1" data-name="Layer 1" xmlns="http://www.w3.org/2000/svg" viewBox="0 0 914.88 955.51"><defs><style>.cls-1{fill:#e1e1e1;}.cls-2{fill:#f5f5f5;}.cls-3{fill:#ececec;}.cls-4{fill:#fff;}.cls-5{fill:#1a2e35;}.cls-6{fill:#ff735d;}.cls-7{opacity:0.3;}.cls-8{fill:#ff6b00;}.cls-9{fill:#fafafa;}.cls-10{fill:#375a64;}.cls-11{opacity:0.4;}.cls-12{fill:#000bda;}.cls-13{fill:#0c0ce1;}.cls-14{fill:#ffbf9d;}.cls-15{fill:#ff9a6c;}.cls-16{fill:none;stroke:#44555b;stroke-miterlimit:10;stroke-width:0.05px;}</style></defs><title>MA</title><path class="cls-1" d="M243.23,70.75h75.25a0,0,0,0,1,0,0V183.43a0,0,0,0,1,0,0H239.16a0,0,0,0,1,0,0V74.82A4.07,4.07,0,0,1,243.23,70.75Z"/><path class="cls-2" d="M390.53,107.06l-54.79-.25-160-.74L156.46,106l-47.95-.22A43.05,43.05,0,0,0,65.2,148.57L62.28,838.13a43,43,0,0,0,42.91,43.18l282,1.29a43,43,0,0,0,43.3-42.8l2.93-689.57A43,43,0,0,0,390.53,107.06Z" transform="translate(-42.12 -22.32)"/><path class="cls-1" d="M376,207c0,.67-59.56,1.21-133,1.21s-133-.54-133-1.21,59.55-1.22,133-1.22S376,206.3,376,207Z" transform="translate(-42.12 -22.32)"/><rect class="cls-1" x="64.74" y="218.11" width="279.06" height="18.67"/><path class="cls-1" d="M376,313.93c0,.67-59.56,1.22-133,1.22s-133-.55-133-1.22,59.55-1.22,133-1.22S376,313.25,376,313.93Z" transform="translate(-42.12 -22.32)"/><path class="cls-1" d="M376,347.91c0,.67-59.56,1.22-133,1.22s-133-.55-133-1.22,59.55-1.22,133-1.22S376,347.23,376,347.91Z" transform="translate(-42.12 -22.32)"/><path class="cls-1" d="M376,381.89c0,.67-59.56,1.22-133,1.22s-133-.55-133-1.22,59.55-1.22,133-1.22S376,381.21,376,381.89Z" transform="translate(-42.12 -22.32)"/><path class="cls-1" d="M376,415.87c0,.67-59.56,1.22-133,1.22s-133-.55-133-1.22,59.55-1.22,133-1.22S376,415.2,376,415.87Z" transform="translate(-42.12 -22.32)"/><path class="cls-1" d="M376,449.85c0,.68-59.56,1.22-133,1.22s-133-.54-133-1.22,59.55-1.22,133-1.22S376,449.18,376,449.85Z" transform="translate(-42.12 -22.32)"/><path class="cls-1" d="M379.77,488.38c0,.67-59.57,1.22-133,1.22s-133-.55-133-1.22,59.55-1.22,133-1.22S379.77,487.71,379.77,488.38Z" transform="translate(-42.12 -22.32)"/><rect class="cls-3" x="68.11" y="528.82" width="279.76" height="270.66"/><path class="cls-1" d="M299.57,632.27a20.14,20.14,0,1,1-20.13-20.14A20.13,20.13,0,0,1,299.57,632.27Z" transform="translate(-42.12 -22.32)"/><path class="cls-1" d="M368.37,572.34,132,572.15c.26-.3-2.54,2.54-1.36,1.37v30.63q0,15.21,0,30.14c0,19.88,0,39.36,0,58.32,0,37.91.09,73.74.13,106.71v1.17H132l171.65-.59,47.94-.3q8.12-.09,12.56-.13l3.19-.07a5.37,5.37,0,0,0,1-.07l-57.3-98.22-38.46,47.28-63.3-89L133.15,798.1c0-32.63.08-68.05.13-105.49,0-19,0-38.44,0-58.32q0-14.92,0-30.14V574.82l233.91-.19c.24,67.08.44,123,.58,162.28.13,19.71.23,35.23.3,46,.06,5.23.1,9.3.13,12.18,0,1.31.05,2.34.06,3.15a9.42,9.42,0,0,0,.07,1.11,5.53,5.53,0,0,0,.06-1c0-.78,0-1.77.06-3q.06-4.24.14-12c.07-10.67.17-26.11.29-45.71.15-39.71.35-96.26.59-164.15v-1.15Z" transform="translate(-42.12 -22.32)"/><path class="cls-3" d="M387.27,104.7a11.59,11.59,0,0,0-11.59-11.63H295.15a11.59,11.59,0,0,1,11.58,11.58V217.72L347.07,195l40.34,20.66S387.15,135.3,387.27,104.7Z" transform="translate(-42.12 -22.32)"/><path class="cls-4" d="M349.63,135.38l2.81,5.69a1.61,1.61,0,0,0,1.21.88l6.28.91a1.61,1.61,0,0,1,.89,2.74L356.27,150a1.62,1.62,0,0,0-.46,1.43l1.07,6.25a1.61,1.61,0,0,1-2.33,1.7l-5.62-3a1.63,1.63,0,0,0-1.49,0l-5.62,3a1.61,1.61,0,0,1-2.34-1.7l1.08-6.25a1.65,1.65,0,0,0-.46-1.43l-4.55-4.43a1.6,1.6,0,0,1,.89-2.74l6.28-.91a1.61,1.61,0,0,0,1.21-.88l2.81-5.69A1.61,1.61,0,0,1,349.63,135.38Z" transform="translate(-42.12 -22.32)"/><path class="cls-1" d="M704,65.11h75.25a0,0,0,0,1,0,0V177.8a0,0,0,0,1,0,0H699.93a0,0,0,0,1,0,0V69.18A4.07,4.07,0,0,1,704,65.11Z"/><path class="cls-2" d="M851.31,101.42l-54.79-.25-160-.74-19.27-.09-48-.22A43.05,43.05,0,0,0,526,142.93L523.05,832.5A43,43,0,0,0,566,875.67L848,877a43,43,0,0,0,43.3-42.81l2.93-689.57A43.05,43.05,0,0,0,851.31,101.42Z" transform="translate(-42.12 -22.32)"/><path class="cls-1" d="M836.74,201.34c0,.67-59.57,1.22-133,1.22s-133-.55-133-1.22,59.55-1.22,133-1.22S836.74,200.67,836.74,201.34Z" transform="translate(-42.12 -22.32)"/><rect class="cls-1" x="525.51" y="212.47" width="279.06" height="18.67"/><path class="cls-1" d="M836.74,308.29c0,.67-59.57,1.22-133,1.22s-133-.55-133-1.22,59.55-1.22,133-1.22S836.74,307.62,836.74,308.29Z" transform="translate(-42.12 -22.32)"/><path class="cls-1" d="M836.74,342.27c0,.68-59.57,1.22-133,1.22s-133-.54-133-1.22,59.55-1.22,133-1.22S836.74,341.6,836.74,342.27Z" transform="translate(-42.12 -22.32)"/><path class="cls-1" d="M836.74,376.25c0,.68-59.57,1.22-133,1.22s-133-.54-133-1.22,59.55-1.22,133-1.22S836.74,375.58,836.74,376.25Z" transform="translate(-42.12 -22.32)"/><path class="cls-1" d="M836.74,410.23c0,.68-59.57,1.23-133,1.23s-133-.55-133-1.23,59.55-1.22,133-1.22S836.74,409.56,836.74,410.23Z" transform="translate(-42.12 -22.32)"/><path class="cls-1" d="M836.74,444.21c0,.68-59.57,1.22-133,1.22s-133-.54-133-1.22,59.55-1.21,133-1.21S836.74,443.54,836.74,444.21Z" transform="translate(-42.12 -22.32)"/><path class="cls-1" d="M840.55,482.74c0,.68-59.57,1.23-133,1.23s-133-.55-133-1.23,59.55-1.22,133-1.22S840.55,482.07,840.55,482.74Z" transform="translate(-42.12 -22.32)"/><rect class="cls-3" x="528.88" y="523.18" width="279.76" height="270.66"/><path class="cls-1" d="M760.35,626.63a20.14,20.14,0,1,1-20.13-20.13A20.13,20.13,0,0,1,760.35,626.63Z" transform="translate(-42.12 -22.32)"/><path class="cls-1" d="M829.14,566.7l-236.35-.18c.26-.3-2.54,2.54-1.36,1.37v30.62q0,15.22,0,30.14c0,19.89,0,39.37,0,58.32,0,37.91.09,73.75.12,106.71v1.17h1.17l171.65-.59,47.94-.31,12.56-.13,3.19-.07a5.88,5.88,0,0,0,1-.06l-57.29-98.22-38.46,47.27-63.31-89L593.93,792.47c0-32.64.08-68.05.13-105.5,0-19,0-38.43,0-58.32q0-14.92,0-30.14V569.18L828,569c.24,67.08.44,123,.58,162.29.12,19.71.23,35.23.29,46q.09,7.86.14,12.18c0,1.32.05,2.35.06,3.16s0,1.09.06,1.11a4,4,0,0,0,.07-1c0-.78,0-1.77.06-3q0-4.24.13-12c.07-10.67.18-26.11.3-45.71.14-39.71.35-96.26.59-164.15v-1.14Z" transform="translate(-42.12 -22.32)"/><path class="cls-3" d="M848,99.06a11.57,11.57,0,0,0-11.58-11.62H755.92A11.58,11.58,0,0,1,767.51,99V212.08l40.34-22.69,40.34,20.67S847.93,129.67,848,99.06Z" transform="translate(-42.12 -22.32)"/><path class="cls-4" d="M810.4,129.74l2.81,5.69a1.6,1.6,0,0,0,1.21.88l6.29.92a1.61,1.61,0,0,1,.89,2.74l-4.55,4.43a1.6,1.6,0,0,0-.46,1.42l1.07,6.26a1.6,1.6,0,0,1-2.33,1.69l-5.62-3a1.59,1.59,0,0,0-1.5,0l-5.62,3a1.61,1.61,0,0,1-2.33-1.69l1.08-6.26a1.63,1.63,0,0,0-.47-1.42L796.33,140a1.6,1.6,0,0,1,.89-2.74l6.28-.92a1.58,1.58,0,0,0,1.21-.88l2.81-5.69A1.61,1.61,0,0,1,810.4,129.74Z" transform="translate(-42.12 -22.32)"/><path class="cls-4" d="M762.6,378.09l17.73-31.26a83.71,83.71,0,1,1,20.06,22.32l0,0Z" transform="translate(-42.12 -22.32)"/><path class="cls-5" d="M762.6,378.09l37.76-9.17-.16.43,0,0a.26.26,0,0,1,.06-.38.26.26,0,0,1,.33,0,86,86,0,0,0,17.14,10.2,83.83,83.83,0,0,0,22.77,6.39,75.46,75.46,0,0,0,13.12.62c2.26-.14,4.55-.2,6.87-.4l7-1.08a83.57,83.57,0,0,0,51.63-33.3A82.51,82.51,0,0,0,933,319.42a84.29,84.29,0,0,0-1-36.74,81.57,81.57,0,0,0-17.71-34L910.92,245c-1.11-1.25-2.43-2.28-3.63-3.42s-2.39-2.31-3.74-3.27l-4-3a33.88,33.88,0,0,0-4.1-2.72l-4.19-2.54c-1.46-.72-2.93-1.43-4.38-2.13a38.89,38.89,0,0,0-4.43-2,84.4,84.4,0,0,0-37-5.71,81.6,81.6,0,0,0-34,10,84.12,84.12,0,0,0-39.38,48.24,89.64,89.64,0,0,0-3.69,26.94,83.07,83.07,0,0,0,12.18,41.23.26.26,0,0,1,0,.27l-18,31.13,17.5-31.39V347a83.32,83.32,0,0,1-12.5-41.49,90.66,90.66,0,0,1,3.63-27.21A84.84,84.84,0,0,1,811,229.39a82.44,82.44,0,0,1,34.42-10.17A85.3,85.3,0,0,1,882.89,225a40.64,40.64,0,0,1,4.49,2l4.44,2.16,4.24,2.58a34.8,34.8,0,0,1,4.16,2.75l4,3c1.37,1,2.52,2.21,3.79,3.31s2.56,2.2,3.68,3.47l3.42,3.76a82.44,82.44,0,0,1,17.93,34.41,85.25,85.25,0,0,1,1,37.22A83.56,83.56,0,0,1,919.91,352a84.46,84.46,0,0,1-52.29,33.56l-7.07,1.07c-2.34.19-4.66.25-6.94.37a73.8,73.8,0,0,1-13.24-.67,83.87,83.87,0,0,1-22.94-6.55,86,86,0,0,1-17.21-10.38l.39-.38,0,0a.27.27,0,0,1,0,.38.22.22,0,0,1-.11.05Z" transform="translate(-42.12 -22.32)"/><path class="cls-6" d="M835.08,263.48h-8.93a7.69,7.69,0,0,0-7.7,7.73c.07,20.35-.1,49.22-.1,49.22l53.65-.79V271.18a7.71,7.71,0,0,1,7.71-7.7Z" transform="translate(-42.12 -22.32)"/><g class="cls-7"><path d="M835.08,263.48h-8.93a7.69,7.69,0,0,0-7.7,7.73c.07,20.35-.1,49.22-.1,49.22l53.65-.79V271.18a7.71,7.71,0,0,1,7.71-7.7Z" transform="translate(-42.12 -22.32)"/></g><path class="cls-8" d="M886,271.19a7.67,7.67,0,0,0-7.7-7.71H824.71a7.71,7.71,0,0,1,7.71,7.7v71.46a2.17,2.17,0,0,0,3.24,1.9l23.58-13.26,23.65,12.11a2.17,2.17,0,0,0,3.17-1.94C886,329.15,885.91,288.35,886,271.19Z" transform="translate(-42.12 -22.32)"/><path class="cls-4" d="M859.21,291l2,4a1.1,1.1,0,0,0,.85.62l4.39.64a1.12,1.12,0,0,1,.62,1.91l-3.18,3.1a1.14,1.14,0,0,0-.32,1l.75,4.38a1.12,1.12,0,0,1-1.63,1.18l-3.93-2.06a1.12,1.12,0,0,0-1,0l-3.93,2.06a1.12,1.12,0,0,1-1.63-1.18l.75-4.38a1.14,1.14,0,0,0-.32-1l-3.18-3.1a1.12,1.12,0,0,1,.62-1.91l4.39-.64a1.11,1.11,0,0,0,.85-.62l2-4A1.13,1.13,0,0,1,859.21,291Z" transform="translate(-42.12 -22.32)"/><path class="cls-8" d="M348.92,0h75.25a0,0,0,0,1,0,0V112.69a0,0,0,0,1,0,0H344.85a0,0,0,0,1,0,0V4.07A4.07,4.07,0,0,1,348.92,0Z"/><g class="cls-7"><path d="M348.88,0h75.29a0,0,0,0,1,0,0V112.69a0,0,0,0,1,0,0H344.85a0,0,0,0,1,0,0V4a4,4,0,0,1,4-4Z"/></g><path class="cls-9" d="M496.23,36.31l-54.8-.25-160-.74-19.27-.09-48-.22a43.06,43.06,0,0,0-43.31,42.81L168,767.39a43.05,43.05,0,0,0,42.91,43.17l282,1.3a43.05,43.05,0,0,0,43.31-42.81l2.92-689.57A43,43,0,0,0,496.23,36.31Z" transform="translate(-42.12 -22.32)"/><path class="cls-5" d="M496.23,36.31l1.43,0,1.79.08a15.17,15.17,0,0,1,2.48.26l3.14.49,3.74,1c1.34.43,2.75,1,4.28,1.54,1.44.75,3.08,1.37,4.64,2.36a43.25,43.25,0,0,1,9.7,7.64,41.52,41.52,0,0,1,8.26,12.39,43.05,43.05,0,0,1,3.61,17q0,9.31,0,19.82c-.2,56-.48,137.06-.83,237.2s-.86,219.39-1.38,351.79q-.09,24.84-.2,50.26,0,12.72-.1,25.57c0,2.15,0,4.28-.08,6.45l-.18,3.26-.5,3.23A42.51,42.51,0,0,1,531.76,789,45.51,45.51,0,0,1,524,799.59a46.73,46.73,0,0,1-10.64,7.82,44.79,44.79,0,0,1-12.57,4.27l-3.3.49-3.34.17c-2.23.11-4.42,0-6.64,0L434,812.13l-223-1a43.88,43.88,0,0,1-26.82-9.35,43.26,43.26,0,0,1-15.36-23.68,51.25,51.25,0,0,1-1.32-14.15q0-7,.06-14.08.06-14.05.12-28,.24-55.82.48-109.91c.31-72.06.62-141.57.91-207.78s.58-129.13.85-188q.19-44.16.39-85.2.1-20.5.19-40.16c0-3.28,0-6.54,0-9.78,0-1.62,0-3.23.1-4.86l.14-2.43c.06-.81.23-1.6.34-2.4A43.2,43.2,0,0,1,208.69,35a68.32,68.32,0,0,1,8.9-.34l8.76,0,17.16.09,63.71.34,102,.56,64.48.4,16.77.14c3.78,0,5.72.08,5.72.08s-1.94,0-5.72,0l-16.77,0-64.48-.2-102-.37L243.5,35.5l-17.15-.07-8.76,0a68.17,68.17,0,0,0-8.81.35,42.37,42.37,0,0,0-36.92,35.68c-.11.79-.28,1.57-.34,2.36l-.13,2.39c-.12,1.58-.09,3.21-.1,4.83,0,3.24,0,6.49,0,9.77q-.08,19.65-.15,40.16-.16,41-.33,85.21c-.24,58.88-.49,121.8-.75,188s-.55,135.72-.85,207.78q-.22,54-.46,109.91,0,14-.11,28l-.06,14.08a49.58,49.58,0,0,0,1.29,13.88,42.14,42.14,0,0,0,15,23.08A42.79,42.79,0,0,0,210.94,810l223,1,53.54.26c2.2,0,4.43.08,6.6,0l3.26-.16,3.23-.48a43.75,43.75,0,0,0,12.26-4.16,45.88,45.88,0,0,0,10.38-7.63,44.61,44.61,0,0,0,7.59-10.33A41.53,41.53,0,0,0,535,776.45l.49-3.15.18-3.18c.11-2.12,0-4.29.08-6.42q.06-12.86.11-25.57.12-25.43.22-50.26c.61-132.4,1.16-251.65,1.61-351.79s.91-181.18,1.19-237.2q0-10.5.08-19.82a42.82,42.82,0,0,0-3.53-16.84,41.57,41.57,0,0,0-8.16-12.33,43.47,43.47,0,0,0-9.61-7.64c-1.55-1-3.18-1.61-4.61-2.37-1.52-.56-2.92-1.12-4.24-1.56l-3.73-1-3.13-.52a15.18,15.18,0,0,0-2.47-.28l-1.78-.11C496.71,36.36,496.23,36.31,496.23,36.31Z" transform="translate(-42.12 -22.32)"/><rect class="cls-8" x="170.43" y="483.19" width="279.06" height="18.67"/><path class="cls-5" d="M481.66,579c0,.67-59.57,1.22-133,1.22s-133-.55-133-1.22,59.55-1.22,133-1.22S481.66,578.34,481.66,579Z" transform="translate(-42.12 -22.32)"/><path class="cls-5" d="M481.66,136.23c0,.67-59.57,1.22-133,1.22s-133-.55-133-1.22,59.55-1.22,133-1.22S481.66,135.55,481.66,136.23Z" transform="translate(-42.12 -22.32)"/><path class="cls-5" d="M481.66,613c0,.68-59.57,1.22-133,1.22s-133-.54-133-1.22,59.55-1.22,133-1.22S481.66,612.32,481.66,613Z" transform="translate(-42.12 -22.32)"/><path class="cls-5" d="M481.66,647c0,.68-59.57,1.22-133,1.22s-133-.54-133-1.22,59.55-1.22,133-1.22S481.66,646.3,481.66,647Z" transform="translate(-42.12 -22.32)"/><path class="cls-5" d="M481.66,681c0,.68-59.57,1.22-133,1.22s-133-.54-133-1.22,59.55-1.22,133-1.22S481.66,680.28,481.66,681Z" transform="translate(-42.12 -22.32)"/><path class="cls-5" d="M481.66,714.93c0,.68-59.57,1.22-133,1.22s-133-.54-133-1.22,59.55-1.21,133-1.21S481.66,714.26,481.66,714.93Z" transform="translate(-42.12 -22.32)"/><path class="cls-5" d="M485.46,753.46c0,.67-59.56,1.22-133,1.22s-133-.55-133-1.22,59.56-1.22,133-1.22S485.46,752.79,485.46,753.46Z" transform="translate(-42.12 -22.32)"/><rect class="cls-10" x="173.48" y="152.65" width="279.76" height="270.66"/><g class="cls-7"><path d="M404.94,256.1A20.13,20.13,0,1,1,384.81,236,20.14,20.14,0,0,1,404.94,256.1Z" transform="translate(-42.12 -22.32)"/></g><g class="cls-7"><path d="M473.74,196.18,237.38,196c.26-.3-2.54,2.54-1.36,1.37V228q0,15.21,0,30.13c0,19.89,0,39.37,0,58.33.05,37.9.09,73.74.13,106.71v1.17h1.16L409,423.73l47.95-.3,12.56-.14,3.18-.06a5.37,5.37,0,0,0,1-.07l-57.3-98.22L378,372.22l-63.3-89L238.52,421.94c0-32.64.08-68.05.13-105.49,0-19,0-38.44,0-58.33q0-14.91,0-30.13V198.65l233.91-.18c.24,67.08.44,123,.58,162.28.13,19.71.23,35.23.3,46,.06,5.24.1,9.31.13,12.18,0,1.32.05,2.35.06,3.16a9.42,9.42,0,0,0,.07,1.11,5.53,5.53,0,0,0,.06-1c0-.78,0-1.77.07-3q0-4.25.13-12c.07-10.68.17-26.11.3-45.71.14-39.71.34-96.26.58-164.16v-1.14Z" transform="translate(-42.12 -22.32)"/></g><path class="cls-8" d="M493,34a11.58,11.58,0,0,0-11.58-11.63H400.84a11.58,11.58,0,0,1,11.58,11.59V147l40.35-22.69L493.11,145S492.84,64.55,493,34Z" transform="translate(-42.12 -22.32)"/><path class="cls-4" d="M455.32,64.63l2.81,5.69a1.62,1.62,0,0,0,1.21.88l6.28.91a1.61,1.61,0,0,1,.89,2.75L462,79.29a1.6,1.6,0,0,0-.46,1.42L462.58,87a1.61,1.61,0,0,1-2.33,1.69l-5.62-3a1.59,1.59,0,0,0-1.5,0l-5.62,3A1.6,1.6,0,0,1,445.18,87l1.07-6.26a1.6,1.6,0,0,0-.46-1.42l-4.55-4.43a1.62,1.62,0,0,1,.9-2.75l6.28-.91a1.62,1.62,0,0,0,1.21-.88l2.81-5.69A1.6,1.6,0,0,1,455.32,64.63Z" transform="translate(-42.12 -22.32)"/><path class="cls-5" d="M643.56,977.26l-277.22-.17A60.39,60.39,0,0,1,306,916.69l.14-695a60.38,60.38,0,0,1,60.42-60.37l277.22.16a60.39,60.39,0,0,1,60.35,60.4l-.14,695A60.38,60.38,0,0,1,643.56,977.26Z" transform="translate(-42.12 -22.32)"/><path class="cls-9" d="M643.48,186.07l-53.75,0c-7.21,0-13.06,6.1-13.05,13.64v9.75c0,7.53-5.84,13.64-13,13.63L458.85,223c-7.21,0-13.05-6.12-13.05-13.65V199.6c0-7.54-5.85-13.65-13.05-13.65H413.85l-47,0a42.3,42.3,0,0,0-42.32,42.28l-.13,678.37a42.3,42.3,0,0,0,42.27,42.3l276.66.16a42.3,42.3,0,0,0,42.32-42.28l.13-678.37A42.29,42.29,0,0,0,643.48,186.07Z" transform="translate(-42.12 -22.32)"/><path class="cls-5" d="M484.67,892.11a5.31,5.31,0,1,1-5.36-5.27A5.32,5.32,0,0,1,484.67,892.11Z" transform="translate(-42.12 -22.32)"/><path class="cls-5" d="M514.43,891.86a5.31,5.31,0,1,1-5.36-5.26A5.32,5.32,0,0,1,514.43,891.86Z" transform="translate(-42.12 -22.32)"/><circle class="cls-5" cx="538.87" cy="891.66" r="5.31" transform="translate(-517.71 632.03) rotate(-45.69)"/><rect class="cls-8" x="333.73" y="614.77" width="257.04" height="16.79"/><path class="cls-5" d="M629.21,692.31c0,.61-57.7,1.1-128.87,1.1s-128.88-.49-128.88-1.1,57.69-1.09,128.88-1.09S629.21,691.71,629.21,692.31Z" transform="translate(-42.12 -22.32)"/><path class="cls-5" d="M629.21,722.88c0,.61-57.7,1.1-128.87,1.1s-128.88-.49-128.88-1.1,57.69-1.09,128.88-1.09S629.21,722.28,629.21,722.88Z" transform="translate(-42.12 -22.32)"/><path class="cls-5" d="M629.21,753.45c0,.61-57.7,1.1-128.87,1.1s-128.88-.49-128.88-1.1,57.69-1.09,128.88-1.09S629.21,752.85,629.21,753.45Z" transform="translate(-42.12 -22.32)"/><path class="cls-5" d="M629.21,784c0,.61-57.7,1.1-128.87,1.1s-128.88-.49-128.88-1.1,57.69-1.1,128.88-1.1S629.21,783.42,629.21,784Z" transform="translate(-42.12 -22.32)"/><path class="cls-5" d="M629.21,814.59c0,.61-57.7,1.1-128.87,1.1s-128.88-.49-128.88-1.1,57.69-1.09,128.88-1.09S629.21,814,629.21,814.59Z" transform="translate(-42.12 -22.32)"/><path class="cls-5" d="M632.9,849.25c0,.61-57.71,1.1-128.87,1.1s-128.88-.49-128.88-1.1,57.69-1.09,128.88-1.09S632.9,848.65,632.9,849.25Z" transform="translate(-42.12 -22.32)"/><rect class="cls-10" x="331.13" y="322.75" width="117.35" height="113.53"/><g class="cls-7"><path d="M452.68,379.1a8.45,8.45,0,1,1-8.45-8.44A8.45,8.45,0,0,1,452.68,379.1Z" transform="translate(-42.12 -22.32)"/></g><g class="cls-7"><path d="M481.53,354l-99.14-.08c.11-.13-1.06,1.06-.57.57v12.85q0,6.38,0,12.64c0,8.34,0,16.51,0,24.46,0,15.9,0,30.94.06,44.76v.49h.48l72-.25,20.11-.12,5.27-.06,1.34,0,.43,0-24-41.2-16.13,19.83-26.56-37.34-31.94,58.19c0-13.69,0-28.54.05-44.25,0-8,0-16.12,0-24.46V355l98.11-.08c.11,28.13.19,51.58.25,68.07.05,8.26.09,14.78.12,19.28,0,2.19.05,3.9.06,5.11,0,.55,0,1,0,1.32a2.61,2.61,0,0,0,0,.47,2.11,2.11,0,0,0,0-.42c0-.32,0-.74,0-1.27,0-1.18,0-2.86.05-5,0-4.47.07-11,.13-19.17.06-16.65.14-40.37.24-68.85V354Z" transform="translate(-42.12 -22.32)"/></g><rect class="cls-10" x="476.68" y="322.75" width="117.35" height="113.53"/><g class="cls-7"><path d="M598.22,379.1a8.45,8.45,0,1,1-8.44-8.44A8.44,8.44,0,0,1,598.22,379.1Z" transform="translate(-42.12 -22.32)"/></g><g class="cls-7"><path d="M627.08,354l-99.14-.08c.11-.13-1.07,1.06-.57.57V380c0,8.34,0,16.51,0,24.46,0,15.9,0,30.94.05,44.76v.49h.49l72-.25,20.11-.12,5.27-.06,1.33,0,.44,0-24-41.2-16.14,19.83-26.55-37.34-31.94,58.19c0-13.69,0-28.54.05-44.25,0-8,0-16.12,0-24.46q0-6.26,0-12.64V355l98.11-.08c.1,28.13.18,51.58.24,68.07.06,8.26.1,14.78.13,19.28,0,2.19,0,3.9,0,5.11,0,.55,0,1,0,1.32a3.16,3.16,0,0,0,0,.47,1.83,1.83,0,0,0,0-.42c0-.32,0-.74,0-1.27,0-1.18,0-2.86.06-5,0-4.47.07-11,.12-19.17.06-16.65.15-40.37.25-68.85V354Z" transform="translate(-42.12 -22.32)"/></g><rect class="cls-10" x="331.13" y="457.33" width="117.35" height="113.53"/><g class="cls-7"><path d="M452.68,513.68a8.45,8.45,0,1,1-8.45-8.44A8.45,8.45,0,0,1,452.68,513.68Z" transform="translate(-42.12 -22.32)"/></g><g class="cls-7"><path d="M481.53,488.55l-99.14-.08c.11-.13-1.06,1.06-.57.57v12.85q0,6.38,0,12.64c0,8.34,0,16.51,0,24.46,0,15.9,0,30.94.06,44.76v.49h.48l72-.25,20.11-.12,5.27-.06,1.34,0,.43,0-24-41.2-16.13,19.83-26.56-37.34-31.94,58.19c0-13.69,0-28.54.05-44.25,0-8,0-16.12,0-24.46V489.59l98.11-.08c.11,28.13.19,51.58.25,68.07.05,8.26.09,14.77.12,19.28,0,2.19.05,3.9.06,5.11,0,.55,0,1,0,1.32a2.61,2.61,0,0,0,0,.47,2.11,2.11,0,0,0,0-.42c0-.32,0-.74,0-1.27,0-1.19,0-2.86.05-5,0-4.47.07-10.95.13-19.17.06-16.66.14-40.37.24-68.85v-.48Z" transform="translate(-42.12 -22.32)"/></g><rect class="cls-10" x="476.61" y="457.33" width="117.35" height="113.53"/><g class="cls-7"><path d="M598.15,513.68a8.45,8.45,0,1,1-8.45-8.44A8.45,8.45,0,0,1,598.15,513.68Z" transform="translate(-42.12 -22.32)"/></g><g class="cls-7"><path d="M627,488.55l-99.14-.08c.11-.13-1.07,1.06-.57.57v25.49c0,8.34,0,16.51,0,24.46,0,15.9,0,30.94,0,44.76v.49h.49l72-.25,20.11-.12,5.27-.06,1.33,0,.44,0-24-41.2-16.13,19.83-26.55-37.34-31.95,58.19c0-13.69,0-28.54.06-44.25,0-8,0-16.12,0-24.46q0-6.25,0-12.64v-12.3l98.11-.08c.1,28.13.18,51.58.24,68.07.06,8.26.1,14.77.13,19.28,0,2.19,0,3.9.05,5.11,0,.55,0,1,0,1.32a3.16,3.16,0,0,0,0,.47,1.83,1.83,0,0,0,0-.42c0-.32,0-.74,0-1.27,0-1.19,0-2.86.06-5,0-4.47.07-10.95.12-19.17.06-16.66.14-40.37.25-68.85v-.48Z" transform="translate(-42.12 -22.32)"/></g><path class="cls-5" d="M637.44,276.54a8.56,8.56,0,1,1,8.2-8.55,8.73,8.73,0,0,1-1.34,4.68l1.31,3.13a.42.42,0,0,1-.08.44.39.39,0,0,1-.42.08L642.17,275A7.92,7.92,0,0,1,637.44,276.54Zm0-16.32a7.78,7.78,0,0,0,0,15.54,7.21,7.21,0,0,0,4.45-1.55.35.35,0,0,1,.38,0l2.26,1-1-2.4a.39.39,0,0,1,0-.38,8,8,0,0,0,1.33-4.42A7.62,7.62,0,0,0,637.44,260.22Z" transform="translate(-42.12 -22.32)"/><path class="cls-6" d="M666.87,276.83a.36.36,0,0,1-.22-.07l-6-4.26-6,4.26a.38.38,0,0,1-.6-.31V260.59a.38.38,0,0,1,.38-.38h12.39a.38.38,0,0,1,.38.38v15.86a.39.39,0,0,1-.21.34A.33.33,0,0,1,666.87,276.83Zm-6.2-5.17a.34.34,0,0,1,.22.07l5.6,4V261H654.86v14.75l5.6-4A.33.33,0,0,1,660.67,271.66Z" transform="translate(-42.12 -22.32)"/><path class="cls-5" d="M342.73,277.9a3.27,3.27,0,0,1,.53,0l1.46-.06,5.34-.15-.18.19c0-1.19-.05-2.49-.07-3.89,0-.72-.07-1.39,0-2.24a2.13,2.13,0,0,1,1.85-1.7c.87,0,1.61-.06,2.57,0a2.14,2.14,0,0,1,1.81,2.12c0,1.82,0,3.71.07,5.67l-.32-.31,6.76-.07-.32.33c0-2.73-.05-5.54-.07-8.42,0-.72,0-1.44,0-2.15a2.13,2.13,0,0,0-.93-1.55l-3-2.91-2.85-2.82L354,258.53c-.48-.47-.84-.93-1.37-1a1.78,1.78,0,0,0-1.5.28c-.39.34-.84.83-1.25,1.23l-2.43,2.45c-1.52,1.58-3.12,3-4.27,4.38a4.79,4.79,0,0,0-.34,2.5c0,.83,0,1.62,0,2.37,0,1.45,0,2.72,0,3.84,0,.95,0,1.76,0,2.46a6.76,6.76,0,0,1,0,.89,6.24,6.24,0,0,1-.05-.8c0-.69-.05-1.48-.08-2.41,0-1.13-.07-2.42-.1-3.88q0-1.15-.06-2.43a5.17,5.17,0,0,1,.36-2.77c1.26-1.56,2.74-2.9,4.28-4.54l2.4-2.47c.44-.43.79-.84,1.31-1.3a2.37,2.37,0,0,1,2-.39,3.62,3.62,0,0,1,1.65,1.17l1.39,1.36,2.86,2.8,3,2.91a2.76,2.76,0,0,1,1.13,2c0,.72,0,1.44,0,2.16,0,2.88,0,5.7.06,8.42v.33h-.32l-6.76,0h-.31v-.31c0-2,0-3.85,0-5.66a1.57,1.57,0,0,0-1.32-1.59c-.75,0-1.69,0-2.43,0a1.61,1.61,0,0,0-1.42,1.27c-.06.66,0,1.47,0,2.15,0,1.4,0,2.69,0,3.89V278h-.18l-5.46-.06-1.42,0A2.49,2.49,0,0,1,342.73,277.9Z" transform="translate(-42.12 -22.32)"/><rect class="cls-1" x="333.48" y="231.06" width="246.78" height="28.33" rx="5.12"/><path class="cls-5" d="M404.89,267.11V272h-2.48v-4.53c0-1.38-.64-2-1.74-2s-2.06.73-2.06,2.31V272h-2.49V260.19h2.49v4.15a3.78,3.78,0,0,1,2.73-1C403.36,263.31,404.89,264.49,404.89,267.11Z" transform="translate(-42.12 -22.32)"/><path class="cls-5" d="M412.67,271.6a3.53,3.53,0,0,1-2,.55c-2,0-3.21-1-3.21-3.08v-3.52h-1.32v-1.92h1.32v-2.08h2.49v2.08h2.14v1.92h-2.14V269a1,1,0,0,0,1.07,1.13,1.64,1.64,0,0,0,1-.32Z" transform="translate(-42.12 -22.32)"/><path class="cls-5" d="M419.42,271.6a3.54,3.54,0,0,1-2,.55c-2,0-3.2-1-3.2-3.08v-3.52h-1.32v-1.92h1.32v-2.08h2.49v2.08h2.13v1.92h-2.13V269a1,1,0,0,0,1.06,1.13,1.67,1.67,0,0,0,1-.32Z" transform="translate(-42.12 -22.32)"/><path class="cls-5" d="M430.16,267.73a4.17,4.17,0,0,1-4.27,4.42,3.33,3.33,0,0,1-2.58-1v4h-2.49V263.44h2.38v1a3.32,3.32,0,0,1,2.69-1.12A4.17,4.17,0,0,1,430.16,267.73Zm-2.52,0a2.19,2.19,0,1,0-2.18,2.38A2.16,2.16,0,0,0,427.64,267.73Z" transform="translate(-42.12 -22.32)"/><path class="cls-5" d="M431.22,264.86a1.55,1.55,0,0,1,3.09,0,1.55,1.55,0,1,1-3.09,0Zm0,5.72a1.55,1.55,0,0,1,3.09,0,1.55,1.55,0,1,1-3.09,0Z" transform="translate(-42.12 -22.32)"/><path class="cls-5" d="M440.43,258.6h2.22l-5.26,15h-2.22Z" transform="translate(-42.12 -22.32)"/><path class="cls-5" d="M445.52,258.6h2.21l-5.26,15h-2.21Z" transform="translate(-42.12 -22.32)"/><path class="cls-6" d="M342.26,777.92a47.82,47.82,0,0,0-78.36,18.82l5.67,21.92c2.15-7.47,6.77-14.69,13.91-17.76,7.42-3.2,16-1.38,23.63,1.38s15.06,6.46,23.14,7,17.18-3.33,19.59-11C352.12,790.93,347.74,783.19,342.26,777.92Z" transform="translate(-42.12 -22.32)"/><g class="cls-11"><path d="M342.26,777.92a47.82,47.82,0,0,0-78.36,18.82l5.67,21.92c2.15-7.47,6.77-14.69,13.91-17.76,7.42-3.2,16-1.38,23.63,1.38s15.06,6.46,23.14,7,17.18-3.33,19.59-11C352.12,790.93,347.74,783.19,342.26,777.92Z" transform="translate(-42.12 -22.32)"/></g><path class="cls-8" d="M205.62,851.09c-11.85-11.25-11.26-30.84-5.35-46.06s18.8-26.93,33.2-34.63a105.15,105.15,0,0,1,91.64-3A43.49,43.49,0,0,0,290,788.08c-6.49,10.78-7.94,23.86-13.3,35.24a55.47,55.47,0,0,1-71,27.77" transform="translate(-42.12 -22.32)"/><path class="cls-8" d="M199.92,783.5C186.81,768,185.07,743.18,187,723s6.61-40.52,3.42-60.55c-1.88-11.87-6.49-23.2-8-35.12s.65-25.39,9.88-33.08c10.61-8.84,27.32-6.75,38.36,1.55s17.44,21.34,22.11,34.34c10.27,28.55,14,60.21,5.6,89.36s-28.23,55.21-57.27,64" transform="translate(-42.12 -22.32)"/><path class="cls-5" d="M193.63,910.48a11,11,0,0,1,0-1.78c0-1.17,0-2.9.1-5.11.17-4.44.59-10.86,1.59-18.75a250.32,250.32,0,0,1,5-27.45,126.31,126.31,0,0,1,12.52-31.78,132.58,132.58,0,0,1,20.47-27.36,129.8,129.8,0,0,1,21.46-17.85c3.28-2.26,6.44-4,9.17-5.58s5.24-2.67,7.24-3.63l4.71-2a11.57,11.57,0,0,1,1.68-.62,12,12,0,0,1-1.59.82l-4.62,2.17c-2,1-4.37,2.27-7.12,3.78s-5.81,3.39-9,5.69a134.76,134.76,0,0,0-41.41,45.1c-12.06,21.09-15.36,43.26-17.75,58.8-1.09,7.85-1.63,14.25-1.93,18.67-.13,2.14-.23,3.83-.3,5.1A9.93,9.93,0,0,1,193.63,910.48Z" transform="translate(-42.12 -22.32)"/><path class="cls-8" d="M80.54,722.44c-24.26,14.64-24.18,28-20.13,40.54s18.94,21.31,31.28,16.6c7-2.66,12-8.73,16.35-14.82s8.37-12.62,14.42-17a21.19,21.19,0,0,1,14.7-4Z" transform="translate(-42.12 -22.32)"/><path class="cls-8" d="M137.16,743.72l6.2,2.33A13.54,13.54,0,0,0,137.16,743.72Z" transform="translate(-42.12 -22.32)"/><g class="cls-11"><path d="M80.54,722.44c-24.26,14.64-24.18,28-20.13,40.54s18.94,21.31,31.28,16.6c7-2.66,12-8.73,16.35-14.82s8.37-12.62,14.42-17a21.19,21.19,0,0,1,14.7-4Z" transform="translate(-42.12 -22.32)"/></g><path d="M150.57,749.89l-22.5-8.45,9.23,1.23a14.64,14.64,0,0,1,6.68,2.52Z" transform="translate(-42.12 -22.32)"/><path class="cls-8" d="M62.38,738.49c6.34-8.76,22-11.3,31.91-6.93s17.14,13.05,23.63,21.71,12.8,17.8,21.78,23.82,21.54,8.2,30.5,2.14c5.88-4,9.29-10.92,10.36-17.94s0-14.2-1.43-21.15c-2.14-10.18-5.63-20.8-13.77-27.27-9.08-7.2-21.67-7.54-33.25-7.16-13.28.43-26.77,1.43-39.24,6s-25.2,14.56-30.49,26.75" transform="translate(-42.12 -22.32)"/><path class="cls-5" d="M173.47,891.06a2.07,2.07,0,0,1-.07-.54c0-.41-.05-.93-.08-1.56,0-1.46-.12-3.48-.21-6-.15-5.32-.37-12.86-.63-22.15s-.68-20.47-1.35-32.81-1.61-25.91-3.48-40a129,129,0,0,0-4-20.33,106.52,106.52,0,0,0-7.43-17.79,103.25,103.25,0,0,0-9.38-14.72,95.88,95.88,0,0,0-10.25-11.24,75.12,75.12,0,0,0-18.15-12.38c-1.19-.54-2.22-1.07-3.15-1.45l-2.37-.92-1.45-.59a2.36,2.36,0,0,1-.48-.23,1.57,1.57,0,0,1,.51.13l1.5.48,2.41.83c1,.35,2,.85,3.21,1.37a72.51,72.51,0,0,1,18.49,12.19,95.28,95.28,0,0,1,10.44,11.26,102,102,0,0,1,9.55,14.81,104.59,104.59,0,0,1,7.56,17.94,127.26,127.26,0,0,1,4.08,20.49c1.88,14.18,2.77,27.77,3.41,40.13s.92,23.49,1.11,32.84.27,16.93.29,22.16q0,3.83,0,6c0,.64,0,1.15,0,1.57A2.1,2.1,0,0,1,173.47,891.06Z" transform="translate(-42.12 -22.32)"/><path class="cls-5" d="M182.2,902a69.28,69.28,0,0,1-2.66-10.42,109.64,109.64,0,0,1-1.11-29.27c1-12.37,4.2-26.88,9.24-42.46s11.74-32.3,17.51-50.24a230,230,0,0,0,7-26.58,237,237,0,0,0,3.44-25.36,369.7,369.7,0,0,0,.77-43.37c-.42-12.35-1.07-22.34-1.48-29.25-.2-3.4-.36-6.06-.47-8,0-.86-.07-1.54-.1-2.07a3.59,3.59,0,0,1,0-.71,5,5,0,0,1,.1.7c.05.53.12,1.21.21,2.07.16,1.88.38,4.54.67,7.93.54,6.9,1.31,16.89,1.83,29.25a358.68,358.68,0,0,1-.54,43.48,233.67,233.67,0,0,1-3.4,25.48,227.92,227.92,0,0,1-7,26.71c-5.8,18-12.58,34.67-17.6,50.22s-8.3,29.93-9.43,42.22a113.08,113.08,0,0,0,.77,29.13c.59,3.39,1.14,6,1.62,7.78.2.84.36,1.5.49,2A3.6,3.6,0,0,1,182.2,902Z" transform="translate(-42.12 -22.32)"/><polygon class="cls-12" points="200.22 890.66 86.31 890.66 83.71 868.73 200.22 868.73 200.22 890.66"/><polygon class="cls-12" points="98.54 888.16 112.78 953.93 174.67 953.93 187.99 888.16 98.54 888.16"/><path class="cls-12" d="M242.34,913c0,.3-25.05.47-55.93.39s-55.93-.4-55.93-.7,25-.48,55.93-.39S242.34,912.68,242.34,913Z" transform="translate(-42.12 -22.32)"/><path class="cls-5" d="M222.79,945.44c-.15.22-3.36-3.09-10-5.75a35.7,35.7,0,0,0-12.2-2.45,43,43,0,0,0-15,2.76c-5.19,1.75-10,3.79-14.76,4.92a35,35,0,0,1-12.76.38,26.17,26.17,0,0,1-8.2-2.59,17.34,17.34,0,0,1-2-1.26c-.42-.32-.63-.5-.61-.53s1,.56,2.78,1.41a28.64,28.64,0,0,0,8.12,2.22,36,36,0,0,0,12.43-.6c4.56-1.14,9.4-3.21,14.64-5a42.67,42.67,0,0,1,15.37-2.73A35.11,35.11,0,0,1,213.05,939a32.5,32.5,0,0,1,7.42,4.33,20.84,20.84,0,0,1,1.77,1.53A2.91,2.91,0,0,1,222.79,945.44Z" transform="translate(-42.12 -22.32)"/><path class="cls-4" d="M221.92,949.84c-.15.22-3.24-3-9.63-5.68a32.84,32.84,0,0,0-11.76-2.42A42.11,42.11,0,0,0,186,944.35c-5,1.68-9.73,3.62-14.22,4.83a36.57,36.57,0,0,1-12.26,1.38,20.91,20.91,0,0,1-8-2.15,15.26,15.26,0,0,1-1.92-1.21c-.41-.32-.61-.49-.59-.52s.94.54,2.69,1.35a22,22,0,0,0,7.9,1.76,37.48,37.48,0,0,0,11.95-1.57c4.4-1.24,9.07-3.2,14.15-4.9a42,42,0,0,1,14.87-2.58,32.19,32.19,0,0,1,12,2.72,31.74,31.74,0,0,1,7.11,4.3,20,20,0,0,1,1.7,1.49C221.77,949.61,222,949.81,221.92,949.84Z" transform="translate(-42.12 -22.32)"/><path class="cls-4" d="M223.92,941.08c-.14.21-3.48-3.15-10.3-6.07a37.92,37.92,0,0,0-12.51-3c-4.85-.34-10.14.9-15.47,2.72s-10.35,4-15.29,5a38.94,38.94,0,0,1-13.17,0,29.64,29.64,0,0,1-8.46-2.68,15.62,15.62,0,0,1-2.06-1.28c-.44-.33-.66-.51-.64-.54s1,.58,2.88,1.44a32.9,32.9,0,0,0,8.4,2.3,39.82,39.82,0,0,0,12.86-.25c4.73-1,9.73-3.22,15.13-5s10.86-3.11,15.88-2.7a38.39,38.39,0,0,1,20.35,7.87,21,21,0,0,1,1.83,1.58C223.75,940.84,223.94,941.05,223.92,941.08Z" transform="translate(-42.12 -22.32)"/><path class="cls-5" d="M243.35,913.07c0,.3-25.63.55-57.23.55s-57.23-.25-57.23-.55,25.62-.54,57.23-.54S243.35,912.77,243.35,913.07Z" transform="translate(-42.12 -22.32)"/><path class="cls-5" d="M751.34,419q-2.46-46.34-4.91-92.67c-.4-7.53-.82-15.16-3.14-22.34s-6.8-14-13.49-17.44-15.75-2.88-20.9,2.64l3.64,5q-4.49,85.09-3.82,170.35c0,4.25.17,8.81,2.66,12.25,4.19,5.79,12.68,5.73,19.79,5.08,6.09-.55,13-1.57,16.41-6.65a18.86,18.86,0,0,0,2.46-7.13C753.07,452,752.21,435.43,751.34,419Z" transform="translate(-42.12 -22.32)"/><path class="cls-13" d="M721.93,299.64c-1.95-4.24-5.24-8.12-9.67-9.55s-10,.27-12,4.51l10.47,11.81a10.49,10.49,0,0,0,4.36,4.07,6,6,0,0,0,5.78-.31,6.21,6.21,0,0,0,2.42-5A12.55,12.55,0,0,0,721.93,299.64Z" transform="translate(-42.12 -22.32)"/><path class="cls-5" d="M739.54,348.92c-1.8-20-12.37-39.45-29.31-50.25s-40.11-11.87-57.06-1.11c-10.78,6.85-18.53,17.84-23,29.81s-2.52,21.87-2.42,34.64c0,6.62.89,24.4,6.6,27.74l89.11,16C734.88,389.21,741.35,368.92,739.54,348.92Z" transform="translate(-42.12 -22.32)"/><path class="cls-5" d="M736.4,333.58c-2-11.89-13.61-23.44-22.66-31.4-10.33-9.1-11.78-8.69-25.54-9-14.51-.36-30.36-.3-41.68,8.78-6.27,5-10.34,12.28-13.61,19.63-7.56,17-6.39,36.36-4.08,54.79S635,412.18,650.13,423l63.43-9.82c14-5.19,18.66-21.17,22.62-35.56S738.87,348.3,736.4,333.58Z" transform="translate(-42.12 -22.32)"/><path class="cls-14" d="M631,345.42c.89-17.45,19.46-35.08,36.85-33.45l56.46,10-.07,9.38.64,117.15a491.45,491.45,0,0,1-65.06,10.32l-.5-23.5S637,431.92,632,402.92C629.57,388.5,630,364.8,631,345.42Z" transform="translate(-42.12 -22.32)"/><path class="cls-5" d="M641.58,368.5a3.73,3.73,0,0,0,3.64,3.72,3.57,3.57,0,0,0,3.8-3.41,3.73,3.73,0,0,0-3.63-3.72A3.58,3.58,0,0,0,641.58,368.5Z" transform="translate(-42.12 -22.32)"/><path class="cls-5" d="M637.29,357.69c.47.48,3.27-1.65,7.28-1.69s7,1.94,7.4,1.44c.21-.22-.27-1.09-1.56-2a10.24,10.24,0,0,0-5.93-1.75,9.79,9.79,0,0,0-5.79,1.95C637.47,356.59,637.06,357.47,637.29,357.69Z" transform="translate(-42.12 -22.32)"/><path class="cls-5" d="M677.26,368.5a3.73,3.73,0,0,0,3.64,3.72,3.57,3.57,0,0,0,3.8-3.41,3.73,3.73,0,0,0-3.64-3.72A3.57,3.57,0,0,0,677.26,368.5Z" transform="translate(-42.12 -22.32)"/><path class="cls-5" d="M676.72,358c.47.48,3.27-1.64,7.28-1.68s7,1.93,7.4,1.43c.21-.22-.27-1.09-1.57-2A10.24,10.24,0,0,0,683.9,354a9.82,9.82,0,0,0-5.78,1.95C676.9,356.86,676.49,357.74,676.72,358Z" transform="translate(-42.12 -22.32)"/><path class="cls-5" d="M662.53,387.87c0-.23-2.49-.63-6.53-1.1-1-.09-2-.28-2.18-1s.17-1.84.65-3l2.93-7.83c4.07-11.16,7-20.32,6.56-20.48s-4.12,8.75-8.19,19.9c-1,2.75-1.92,5.37-2.81,7.88-.37,1.17-1,2.49-.48,4a2.54,2.54,0,0,0,1.7,1.48,6.89,6.89,0,0,0,1.74.22C660,388.11,662.51,388.1,662.53,387.87Z" transform="translate(-42.12 -22.32)"/><path class="cls-15" d="M659.34,435.43s20.55.95,39.77-10.92c0,0-9.56,20.46-39.67,18.16Z" transform="translate(-42.12 -22.32)"/><path class="cls-15" d="M664.34,397.51a7.23,7.23,0,0,1,6.44-2.76,6.66,6.66,0,0,1,4.59,2.39,4.18,4.18,0,0,1,.37,4.78c-1.06,1.53-3.32,1.91-5.24,1.39a15.12,15.12,0,0,1-5.16-3,4.45,4.45,0,0,1-1.16-1.17,1.33,1.33,0,0,1,0-1.49" transform="translate(-42.12 -22.32)"/><path class="cls-5" d="M674.36,390.5c-.65,0-.61,4.32-4.3,7.46s-8.32,2.71-8.35,3.32c-.06.27,1,.83,3,.86a10.9,10.9,0,0,0,7-2.52,9.46,9.46,0,0,0,3.32-6.25C675.16,391.55,674.66,390.47,674.36,390.5Z" transform="translate(-42.12 -22.32)"/><path class="cls-5" d="M675.68,346.64c.41,1.09,4.41.52,9.12,1s8.53,1.74,9.14.76c.28-.47-.4-1.49-1.94-2.53a15.9,15.9,0,0,0-13.91-1.36C676.37,345.26,675.51,346.13,675.68,346.64Z" transform="translate(-42.12 -22.32)"/><path class="cls-5" d="M637.25,343.93c.72.9,3.47-.08,6.79-.16s6.14.54,6.78-.42c.27-.47-.18-1.38-1.42-2.22a9.81,9.81,0,0,0-10.93.47C637.31,342.55,636.93,343.49,637.25,343.93Z" transform="translate(-42.12 -22.32)"/><path class="cls-5" d="M650.52,303.87c-10.7,7.25-18.1,19.19-21.69,32.27l1.76,10.74c2.5-5.2,2.82-10.77,7.95-16.11,3.45-3.59,9.82-7,16.59-8.68,19.36-4.93,25.88-12,34.43-24.61C677,294.34,661.22,296.62,650.52,303.87Z" transform="translate(-42.12 -22.32)"/><path class="cls-5" d="M734.1,332.27c-5.39-19.41-23-34.81-43-37.57l-1.58,2.78-14.7,17.19c-1.22,1.43-2.49,3-2.77,4.83-.37,2.49,1.18,4.91,3.13,6.5,4.66,3.82,11.19,4.06,17.22,4.22s12.61.65,17,4.78c5.46,5.14,5.34,13.87,3.5,21.15a91.09,91.09,0,0,0-1.8,26.46c.67,6.69,9.52-9.56,15.33-6.19,1.62.94-2.75,27.19-1.06,26.39s1.51-10.25,2.06-12c3-9.51,6-19.06,7.56-28.9S736.77,341.87,734.1,332.27Z" transform="translate(-42.12 -22.32)"/><path class="cls-14" d="M717.6,382.74c.45-6.32,7.43-10.39,12.85-7.11,3,1.81,5.2,5.36,4.78,12.06-1.12,17.9-18.85,13.08-18.85,12.56C716.38,399.93,717.07,390.14,717.6,382.74Z" transform="translate(-42.12 -22.32)"/><path class="cls-15" d="M722.24,393.81c.09-.06.3.23.81.51a3.11,3.11,0,0,0,2.33.2c1.93-.56,3.72-3.46,4-6.68a10.27,10.27,0,0,0-.57-4.52,3.59,3.59,0,0,0-2.19-2.54,1.58,1.58,0,0,0-1.89.73c-.27.48-.18.85-.28.87s-.36-.32-.17-1.05a2,2,0,0,1,.78-1.08,2.37,2.37,0,0,1,1.75-.34,4.4,4.4,0,0,1,3.07,3,10.6,10.6,0,0,1,.75,5.06c-.36,3.6-2.43,6.85-5.06,7.42a3.33,3.33,0,0,1-2.82-.66C722.25,394.24,722.18,393.83,722.24,393.81Z" transform="translate(-42.12 -22.32)"/><path class="cls-10" d="M722.13,308.78a59,59,0,0,1,6.37,9,74.84,74.84,0,0,1,5.24,10.8,77.19,77.19,0,0,1,4,14.14,68.87,68.87,0,0,1-.29,26.59,22.26,22.26,0,0,1-.56,2.37c-.21.74-.4,1.44-.58,2.1a28.33,28.33,0,0,1-1.09,3.3c-.32.85-.58,1.54-.77,2.06a.38.38,0,1,1-.11,0L735,377a32.08,32.08,0,0,0,1-3.32c.16-.66.34-1.36.53-2.1s.4-1.52.53-2.36a71.08,71.08,0,0,0,.12-26.41,79.27,79.27,0,0,0-3.92-14.06,78,78,0,0,0-5.1-10.79c-.43-.73-.83-1.44-1.21-2.1l-1.18-1.82-1-1.58c-.32-.49-.65-.9-.93-1.29l-1.28-1.78A3.85,3.85,0,0,1,722.13,308.78Z" transform="translate(-42.12 -22.32)"/><path class="cls-10" d="M723.85,314.22a1.89,1.89,0,0,1-.09.55,4.42,4.42,0,0,1-.72,1.44,9.72,9.72,0,0,1-4.9,3.17c-2.36.78-5.21,1.47-8.4,2.18a75.47,75.47,0,0,1-10.52,1.53,51.43,51.43,0,0,1-10.63-.3,40.33,40.33,0,0,1-8.43-2.1,31.4,31.4,0,0,1-5.29-2.51,15.7,15.7,0,0,1-1.34-.86c-.3-.21-.45-.32-.44-.34s.67.37,1.88,1a37,37,0,0,0,5.32,2.33,42.56,42.56,0,0,0,8.37,2,53.43,53.43,0,0,0,10.53.26A95.14,95.14,0,0,0,718,319a9.92,9.92,0,0,0,4.85-2.92A6.58,6.58,0,0,0,723.85,314.22Z" transform="translate(-42.12 -22.32)"/><path class="cls-10" d="M720.63,308.05s-.09.14-.29.36a13.28,13.28,0,0,1-.94.95,21.25,21.25,0,0,1-4,2.91,32.12,32.12,0,0,1-15.62,3.93,65.64,65.64,0,0,1-16-2.25c-2-.5-3.62-.95-4.73-1.27a10.87,10.87,0,0,1-1.71-.56,11.1,11.1,0,0,1,1.76.35l4.77,1.1a70.75,70.75,0,0,0,15.92,2.08,33,33,0,0,0,15.43-3.72A31.58,31.58,0,0,0,720.63,308.05Z" transform="translate(-42.12 -22.32)"/><path class="cls-10" d="M717,306.07a6.07,6.07,0,0,1-1.27.44c-.82.26-2,.56-3.54.88a58.24,58.24,0,0,1-12,1.19,57.48,57.48,0,0,1-12-1.33c-1.51-.33-2.71-.65-3.53-.92a5.66,5.66,0,0,1-1.27-.45,5.71,5.71,0,0,1,1.32.25c.83.2,2,.46,3.56.75a67.68,67.68,0,0,0,11.9,1.15,66.67,66.67,0,0,0,11.91-1c1.51-.26,2.72-.51,3.56-.7A6.83,6.83,0,0,1,717,306.07Z" transform="translate(-42.12 -22.32)"/><path class="cls-10" d="M693.1,290.82a7.32,7.32,0,0,1-.44,1.28,33.89,33.89,0,0,1-1.51,3.34,49.93,49.93,0,0,1-15.72,18.18,36,36,0,0,1-3.09,2,6.78,6.78,0,0,1-1.2.62,5.7,5.7,0,0,1,1.09-.8c.72-.47,1.74-1.18,3-2.11a55.33,55.33,0,0,0,15.61-18c.73-1.35,1.3-2.46,1.66-3.25A6,6,0,0,1,693.1,290.82Z" transform="translate(-42.12 -22.32)"/><path class="cls-10" d="M629.53,329.24s.09-.17.31-.47.53-.72,1-1.25c.87-1.08,2.17-2.6,3.91-4.37a45.7,45.7,0,0,1,6.64-5.6,38.48,38.48,0,0,1,4.42-2.63,37.82,37.82,0,0,1,5.12-2.1A47.62,47.62,0,0,1,670,310.73a42,42,0,0,1,5.78.94c.67.14,1.18.31,1.54.4a2.31,2.31,0,0,1,.52.18,18.39,18.39,0,0,1-2.11-.37,54.07,54.07,0,0,0-5.77-.77,49.61,49.61,0,0,0-18.92,2.23A41.19,41.19,0,0,0,635,323.43c-1.76,1.71-3.1,3.19-4,4.22l-1.06,1.19A2.59,2.59,0,0,1,629.53,329.24Z" transform="translate(-42.12 -22.32)"/><path class="cls-10" d="M643,310a9.77,9.77,0,0,1,1.37-.9c.44-.28,1-.61,1.67-.95s1.41-.76,2.29-1.12,1.81-.81,2.86-1.18,2.17-.74,3.37-1.1a50.21,50.21,0,0,1,8-1.51,49.35,49.35,0,0,1,8.13-.07c1.25.12,2.43.22,3.53.43s2.11.38,3,.59,1.74.46,2.46.66a18.54,18.54,0,0,1,1.83.61,9.61,9.61,0,0,1,1.52.62,9.21,9.21,0,0,1-1.59-.42c-.5-.16-1.11-.35-1.84-.51s-1.54-.42-2.46-.58-1.93-.39-3-.52-2.26-.27-3.49-.38a53.38,53.38,0,0,0-8.05.11,54.71,54.71,0,0,0-7.91,1.45c-1.18.35-2.32.66-3.35,1.05s-2,.74-2.86,1.1-1.63.73-2.3,1-1.25.61-1.71.86A8.11,8.11,0,0,1,643,310Z" transform="translate(-42.12 -22.32)"/><path class="cls-6" d="M731.76,398.3c.33-.17.86,0,1.47.66a6.81,6.81,0,0,1,1.61,3.36,8.12,8.12,0,0,1,0,2.8,7.54,7.54,0,0,1-1.35,3.21,7.82,7.82,0,0,1-3,2.52,6.86,6.86,0,0,1-4.64.43,7,7,0,0,1-3.79-2.58,8.06,8.06,0,0,1-1.54-3.61,7.93,7.93,0,0,1,1.5-5.93,7,7,0,0,1,2.87-2.34c.81-.33,1.37-.29,1.6,0,.5.6-.5,2.07-1.06,4.14a5.26,5.26,0,0,0,0,3.07,3.07,3.07,0,0,0,1.82,2,2,2,0,0,0,1.13-.06,3.9,3.9,0,0,0,1.27-.79,4.91,4.91,0,0,0,1.35-2.68C731.37,400.4,731.06,398.65,731.76,398.3Z" transform="translate(-42.12 -22.32)"/><polygon class="cls-8" points="574.68 517.04 588.1 577.03 581.75 617.29 729.15 617.29 719.51 429.33 682.76 426.21 592.98 441.36 574.68 517.04"/><path class="cls-8" d="M654.3,462.6s-38.39-3.51-56.68,22.6c-11.19,16-26.9,52.7-26.9,52.7l51.11,8.81Z" transform="translate(-42.12 -22.32)"/><g class="cls-7"><path d="M705.69,519.37c10.79,13.33,15.85,30.23,22.9,45.85,9.09,20.14,21.68,38.46,34.19,56.66.94,1.36,2.22,2.89,3.87,2.69s2.58-2.13,3-3.79c2.71-10.27,1.37-21.3-2.19-31.31s-9.23-19.12-15.28-27.84a323.8,323.8,0,0,0-31.71-38.85c-2.08-2.18-4.31-4.4-7.17-5.31s-6.53,0-7.79,2.71" transform="translate(-42.12 -22.32)"/></g><g class="cls-7"><path d="M629.7,588.93q3.75-14.71,7.48-29.43a22.23,22.23,0,0,1,2-5.7,22,22,0,0,1,5.21-5.51c2.41-2,4.91-4.09,7.91-5,2.45-.75,5.14-.7,7.43-1.84,3.14-1.57,4.83-5,6.11-8.27,1-2.51,1.82-5.48.39-7.75s-4.24-2.77-6.8-2.84A31.13,31.13,0,0,0,631,540.07c-3.84,8.19-3.83,17.59-3.76,26.64l.2,24.19" transform="translate(-42.12 -22.32)"/></g><path class="cls-16" d="M676.86,590.08" transform="translate(-42.12 -22.32)"/><path class="cls-16" d="M641.85,585.51" transform="translate(-42.12 -22.32)"/><path class="cls-5" d="M676.86,590.08c0-.14-2,.2-5.24.45a60.39,60.39,0,0,1-24.82-3.24c-3.06-1.07-4.88-1.91-4.95-1.78s.4.33,1.21.76a36.45,36.45,0,0,0,3.51,1.62,51.28,51.28,0,0,0,25.12,3.27,33.9,33.9,0,0,0,3.81-.66A4.31,4.31,0,0,0,676.86,590.08Z" transform="translate(-42.12 -22.32)"/><path class="cls-5" d="M741.16,592.72c-.07-.24-20.93,5.7-46.58,13.27s-46.4,13.9-46.33,14.14,20.92-5.71,46.59-13.28S741.23,593,741.16,592.72Z" transform="translate(-42.12 -22.32)"/><g class="cls-7"><path d="M644,586.52c2.22,6.33,8.22,10.63,14.87,11.44a18.44,18.44,0,0,0,17.29-8c-10.8,1.35-22.07.7-32.16-3.4" transform="translate(-42.12 -22.32)"/></g><g class="cls-7"><path d="M653.86,618.29l.54.21c13.16,2.36,25.49-.08,38.11-4.49s24.37-11,36-17.5Z" transform="translate(-42.12 -22.32)"/></g><path class="cls-5" d="M732.23,616.83c.12,0,.3,1.47-.07,3.81a22.4,22.4,0,0,1-9.93,15.06c-2,1.25-3.43,1.67-3.48,1.56s1.21-.83,3-2.21a25.88,25.88,0,0,0,9.61-14.57C731.94,618.26,732.05,616.82,732.23,616.83Z" transform="translate(-42.12 -22.32)"/><path class="cls-5" d="M739.84,625.92c.11.06-.36,1.3-1.62,3a20.62,20.62,0,0,1-14.13,8c-2.12.19-3.43,0-3.42-.17,0-.35,5.29-.18,10.76-3.33S739.56,625.7,739.84,625.92Z" transform="translate(-42.12 -22.32)"/><path class="cls-12" d="M816.55,796.37c-2.72-11.14-22.39-83.09-26.17-93.92l-17.69-50.71L771.49,635,621.3,639.62S599.92,665.94,592,695.8c-6.81,25.6-10.25,64.42,5.87,165.41,10.61,56,22.89,115.67,22.89,115.67h90l-12-206.29,33.38,115.52,30.42,90.73,96.25-.52Z" transform="translate(-42.12 -22.32)"/><path class="cls-5" d="M613.29,664.07a6,6,0,0,1-.25.78c-.2.56-.47,1.3-.82,2.25l-1.36,3.64c-.56,1.43-1.18,3.09-1.75,5a196,196,0,0,0-7.84,32.8c-2.27,14.08-3.21,31.09-2.81,49.93s2.34,39.53,4.69,61.18c4.79,43.31,13.3,81.91,19.51,109.76,3.18,13.87,5.77,25.11,7.57,33,.87,3.84,1.56,6.85,2,9,.21,1,.38,1.76.51,2.34a4.76,4.76,0,0,1,.13.81,4.43,4.43,0,0,1-.24-.78c-.16-.58-.36-1.34-.62-2.32-.52-2.09-1.28-5.09-2.24-8.91-1.93-7.75-4.67-19-7.91-32.89-6.41-27.81-15-66.42-19.85-109.81-2.35-21.66-4.2-42.37-4.61-61.27s.68-36,3.06-50.08a185.46,185.46,0,0,1,8.21-32.82c.6-1.91,1.25-3.56,1.84-5S611.61,668,612,667s.69-1.67.92-2.21A3.65,3.65,0,0,1,613.29,664.07Z" transform="translate(-42.12 -22.32)"/><path class="cls-5" d="M639.86,969.09c.29-.07.81,1,1.16,2.46s.38,2.64.08,2.71-.82-1-1.16-2.46S639.56,969.17,639.86,969.09Z" transform="translate(-42.12 -22.32)"/><path class="cls-5" d="M635,948.62c.29-.07,1.08,2.17,1.75,5s1,5.17.68,5.24-1.08-2.16-1.75-5S634.67,948.7,635,948.62Z" transform="translate(-42.12 -22.32)"/><path class="cls-5" d="M630.19,928.12c.3-.07,1.07,2.17,1.73,5s.94,5.19.64,5.26-1.07-2.17-1.72-5S629.9,928.19,630.19,928.12Z" transform="translate(-42.12 -22.32)"/><path class="cls-5" d="M625.63,907.57c.3-.07,1,2.18,1.66,5s.89,5.19.59,5.26-1-2.18-1.67-5S625.33,907.63,625.63,907.57Z" transform="translate(-42.12 -22.32)"/><path class="cls-5" d="M621.37,887c.3-.05,1,2.21,1.58,5s.8,5.21.5,5.27-1-2.2-1.58-5S621.07,887,621.37,887Z" transform="translate(-42.12 -22.32)"/><path class="cls-5" d="M617.51,866.27c.3,0,1,2.22,1.48,5.08s.69,5.22.39,5.27-1-2.21-1.48-5.07S617.2,866.33,617.51,866.27Z" transform="translate(-42.12 -22.32)"/><path class="cls-5" d="M614.14,845.51c.3,0,.91,2.25,1.35,5.11s.57,5.23.26,5.28-.9-2.24-1.35-5.11S613.84,845.56,614.14,845.51Z" transform="translate(-42.12 -22.32)"/><path class="cls-5" d="M611.37,824.67c.3,0,.84,2.27,1.2,5.14s.41,5.25.1,5.29-.84-2.26-1.2-5.15S611.06,824.7,611.37,824.67Z" transform="translate(-42.12 -22.32)"/><path class="cls-5" d="M609.16,803.75c.3,0,.79,2.29,1.08,5.17s.28,5.26,0,5.29-.79-2.28-1.08-5.17S608.85,803.78,609.16,803.75Z" transform="translate(-42.12 -22.32)"/><path class="cls-5" d="M607.34,782.79c.31,0,.74,2.31,1,5.2s.17,5.26-.14,5.29-.73-2.3-1-5.2S607,782.81,607.34,782.79Z" transform="translate(-42.12 -22.32)"/><path class="cls-5" d="M606.23,761.79c.3,0,.65,2.33.77,5.23s0,5.26-.32,5.28-.66-2.33-.78-5.23S605.92,761.8,606.23,761.79Z" transform="translate(-42.12 -22.32)"/><path class="cls-5" d="M606.16,740.76c.31,0,.53,2.36.49,5.26s-.31,5.25-.61,5.25-.53-2.35-.49-5.26S605.86,740.75,606.16,740.76Z" transform="translate(-42.12 -22.32)"/><path class="cls-5" d="M607.53,719.76c.3,0,.35,2.4.11,5.29s-.69,5.21-1,5.19-.35-2.38-.11-5.28S607.22,719.73,607.53,719.76Z" transform="translate(-42.12 -22.32)"/><path class="cls-5" d="M610.7,699c.29.06.13,2.42-.38,5.27s-1.15,5.13-1.46,5.08-.13-2.4.38-5.27S610.4,698.92,610.7,699Z" transform="translate(-42.12 -22.32)"/><path class="cls-5" d="M616,678.63c.29.09-.13,2.42-.93,5.2s-1.7,5-2,4.9.12-2.4.93-5.2S615.7,678.53,616,678.63Z" transform="translate(-42.12 -22.32)"/><path class="cls-5" d="M621.47,663.85c.28.12.07,1.32-.48,2.67s-1.23,2.36-1.51,2.25-.07-1.3.48-2.67S621.19,663.73,621.47,663.85Z" transform="translate(-42.12 -22.32)"/><path class="cls-5" d="M708.44,781.78c-.27.15-1.77-1.71-3.36-4.15s-2.68-4.57-2.43-4.75,1.74,1.67,3.36,4.15S708.71,781.63,708.44,781.78Z" transform="translate(-42.12 -22.32)"/><path class="cls-5" d="M717.56,800.94c-.29.11-1.45-2-2.61-4.66s-1.86-5-1.59-5.1,1.45,2,2.61,4.66S717.84,800.83,717.56,800.94Z" transform="translate(-42.12 -22.32)"/><path class="cls-5" d="M724.42,821c-.29.09-1.25-2.1-2.14-4.89s-1.38-5.13-1.1-5.23,1.25,2.09,2.15,4.89S724.71,820.94,724.42,821Z" transform="translate(-42.12 -22.32)"/><path class="cls-5" d="M730.39,841.41c-.29.08-1.19-2.13-2-4.95s-1.24-5.16-.94-5.25,1.19,2.13,2,4.95S730.69,841.32,730.39,841.41Z" transform="translate(-42.12 -22.32)"/><path class="cls-5" d="M736.31,861.8c-.3.09-1.2-2.13-2-4.94s-1.24-5.17-.95-5.25,1.19,2.12,2,4.94S736.6,861.72,736.31,861.8Z" transform="translate(-42.12 -22.32)"/><path class="cls-5" d="M742.22,882.2c-.29.08-1.19-2.13-2-5s-1.24-5.16-1-5.25,1.2,2.13,2,5S742.51,882.11,742.22,882.2Z" transform="translate(-42.12 -22.32)"/><path class="cls-5" d="M748.14,902.59c-.3.09-1.2-2.13-2-4.94s-1.24-5.17-1-5.25,1.19,2.12,2,4.94S748.43,902.51,748.14,902.59Z" transform="translate(-42.12 -22.32)"/><path class="cls-5" d="M754.05,923c-.29.08-1.19-2.13-2-5s-1.24-5.17-.95-5.25,1.2,2.13,2,4.94S754.34,922.9,754.05,923Z" transform="translate(-42.12 -22.32)"/><path class="cls-5" d="M760,943.38c-.29.09-1.19-2.13-2-4.94s-1.24-5.17-.94-5.26,1.19,2.13,2,5S760.26,943.3,760,943.38Z" transform="translate(-42.12 -22.32)"/><path class="cls-5" d="M765.88,963.78c-.3.08-1.19-2.13-2-4.95s-1.24-5.17-1-5.25,1.19,2.13,2,4.94S766.17,963.69,765.88,963.78Z" transform="translate(-42.12 -22.32)"/><path class="cls-5" d="M770,977.83c-.29.08-.78-.71-1.09-1.78s-.32-2,0-2.08.78.71,1.09,1.78S770.25,977.74,770,977.83Z" transform="translate(-42.12 -22.32)"/><path class="cls-5" d="M713.82,637.81A5.44,5.44,0,0,1,714,639c0,.93.12,2.1.2,3.54.14,3.07.29,7.53.34,13,.14,11-.13,26.23-1.31,43-1.34,19.4-3.7,36.56-5.47,47.36l0,.28h-.28l-9.69.21h-2.58a3.53,3.53,0,0,1-.89-.06,3.7,3.7,0,0,1,.89-.13l2.56-.18,9.68-.53-.32.28c1.51-10.82,3.7-28,5-47.33,1.17-16.73,1.57-31.92,1.63-42.92,0-5.38,0-9.8,0-13,0-1.44,0-2.61,0-3.55A4.69,4.69,0,0,1,713.82,637.81Z" transform="translate(-42.12 -22.32)"/><path class="cls-5" d="M696.05,644.35c.07.08-.3.37-.74,1a5.94,5.94,0,0,0-.91,3.17,5.71,5.71,0,0,0,1.84,4.29,5.31,5.31,0,0,0,8.34-4.2,5.73,5.73,0,0,0-2.36-4,6,6,0,0,0-3.09-1.15c-.8-.05-1.25.07-1.28,0s.4-.31,1.27-.4a5.74,5.74,0,0,1,3.54.94,6.31,6.31,0,0,1,2.93,4.59,6.24,6.24,0,0,1-10,5,6.3,6.3,0,0,1-2-5.09,5.79,5.79,0,0,1,1.35-3.4C695.56,644.48,696,644.31,696.05,644.35Z" transform="translate(-42.12 -22.32)"/><path class="cls-5" d="M666,643.44a10.08,10.08,0,0,1-.27,2.47,37.86,37.86,0,0,1-1.82,6.5A43,43,0,0,1,631,679.84a37.59,37.59,0,0,1-6.73.61,9,9,0,0,1-2.47-.18c0-.21,3.54,0,9-1.2a44.53,44.53,0,0,0,32.32-26.94C665.33,646.91,665.79,643.4,666,643.44Z" transform="translate(-42.12 -22.32)"/><path class="cls-5" d="M783.4,683.53a9.39,9.39,0,0,1-2.24-.91,39.35,39.35,0,0,1-5.6-3.44c-4.56-3.22-10-8.75-15.33-15.26S750,651.46,747.17,646.7a50.09,50.09,0,0,1-3.13-5.78,8.93,8.93,0,0,1-.85-2.25c.17-.08,1.57,3,4.63,7.61a201.74,201.74,0,0,0,13.26,16.93c5.34,6.5,10.58,12,14.95,15.35S783.49,683.35,783.4,683.53Z" transform="translate(-42.12 -22.32)"/><path class="cls-5" d="M693.68,918.82a8.2,8.2,0,0,1-2.13.13,54,54,0,0,1-5.78-.31,77.06,77.06,0,0,1-35.63-13,53.28,53.28,0,0,1-4.62-3.49A8.57,8.57,0,0,1,644,900.7c.12-.15,2.5,1.71,6.6,4.3a88.18,88.18,0,0,0,35.29,12.86C690.67,918.52,693.68,918.63,693.68,918.82Z" transform="translate(-42.12 -22.32)"/><path class="cls-5" d="M815.25,904.5c.12.07-1,2.37-3.17,6s-5.24,8.43-9,13.58-7.4,9.62-10.15,12.75-4.59,5-4.69,4.85,1.5-2.11,4.09-5.36,6.13-7.76,9.85-12.89,6.93-9.88,9.22-13.35S815.11,904.41,815.25,904.5Z" transform="translate(-42.12 -22.32)"/><path class="cls-5" d="M737.6,494.41c-.64-7.82,8.3-17,10.84-24.42,5.15-15,4.62-21.46,2.9-50.95l-26.12-5.57c-.8,9.84.61,6-.32,16.63s-3.63,21.31-9.33,30.34c-4.07,6.46-9.77,12.45-10.55,20.05-1.11,11,8.54,20.46,9.15,31.49.85,15.31-15.69,27.93-13.7,43.12.45,3.36,2,6.82,5,8.38,2.17,1.14,4.73,1.13,7.17,1.1l16.11-.22c1.72,0,3.63-.12,4.86-1.33,2-1.95,1-5.24.53-8-1.8-11.95,11-21.75,11.3-33.83C745.71,511.82,738.38,503.74,737.6,494.41Z" transform="translate(-42.12 -22.32)"/><path class="cls-14" d="M720.77,531.56s45,100.25,71.19,103.32c13.19,1.54,21.23-5.66,24.06-19.34s-6.61-103.31-6.61-103.31l-45.28,12.59,3.43,17.36-27.11-27Z" transform="translate(-42.12 -22.32)"/><path class="cls-8" d="M761.63,451.66s25.34,2.43,34.78,23.19S818.91,519,818.91,519l-55.72,12.54s-7.8-41.92-8.39-56.71C754.14,458.65,752.46,451.19,761.63,451.66Z" transform="translate(-42.12 -22.32)"/><path class="cls-15" d="M806.16,580.31s-.19-.27-.63-.71l-1.92-1.89-7.11-6.91c-6-5.84-14.26-13.94-23.32-22.93l-23.12-23.15-7-7-1.92-1.9c-.45-.42-.69-.64-.71-.61a3.68,3.68,0,0,0,.58.74l1.8,2c1.57,1.73,3.89,4.21,6.78,7.24,5.77,6.07,13.86,14.34,22.94,23.34s17.4,17,23.51,22.76c3.06,2.86,5.56,5.15,7.31,6.71l2,1.76A4,4,0,0,0,806.16,580.31Z" transform="translate(-42.12 -22.32)"/><path class="cls-14" d="M681,453.72l17.62,6.86s9.68.09,10.93,3.21L712,470s5.93,1.5,7.18,4.81,11.56,25.8,11.56,25.8l9.68,14.52-19.68,16.39s-4.06-5.31-8.12-8.12-20.92-17-21.23-20.81-9.43-25.48-9.53-27.78-.34-7.31,1.94-6.06,5.4,7.5,5.4,7.5l-2.18-8.44a13.42,13.42,0,0,1-3.22-3.12,13,13,0,0,1-2.64-6.23Z" transform="translate(-42.12 -22.32)"/><path class="cls-15" d="M718,504.58a18.88,18.88,0,0,0-1.81-2.59c-1.34-1.74-3.09-4-5.18-6.74l-.1-.13h-.18l-6.71-.06h-.24l-.13.24a5.29,5.29,0,0,1-5.61,3.62,19.31,19.31,0,0,1-2.64-.08l.34.64,1.2-2.4,4.29-8.62-.39.24,11.87-.1-.15,0,6.57,3.07a15.16,15.16,0,0,0,2.47,1,14.18,14.18,0,0,0-2.31-1.34L712.83,488l-.06,0h-.08l-11.87-.1h-.26l-.12.24c-1.36,2.71-2.82,5.6-4.32,8.6-.42.82-.82,1.64-1.2,2.4l-.29.58.62.07a20.41,20.41,0,0,0,2.8.08l1.35-.07a4.33,4.33,0,0,0,1.4-.33,7.85,7.85,0,0,0,3.57-3.76l-.37.23,6.71-.06-.27-.13,5.42,6.55A20.19,20.19,0,0,0,718,504.58Z" transform="translate(-42.12 -22.32)"/><path class="cls-15" d="M712,477.67a16.6,16.6,0,0,0-2.91-.19l-7.87-.15-1.36,0,1.21.66a24.1,24.1,0,0,1,5.14,3.45c.38.38.66.83.5,1.09a2.77,2.77,0,0,1-1.13,1,16.53,16.53,0,0,1-3.4,1.36h.12a16.18,16.18,0,0,1-6.64-2.2c-1.81-1-2.34-3.33-2.54-5.32a25.35,25.35,0,0,1,.24-6l-.38.33,13.72-1.08,3.91-.38A5.7,5.7,0,0,0,712,470a5.34,5.34,0,0,0-1.41,0l-3.92.15-13.74.76-.33,0,0,.32a25.09,25.09,0,0,0-.31,6.18,11.65,11.65,0,0,0,.72,3.27,5.22,5.22,0,0,0,2.25,2.75,16.67,16.67,0,0,0,7.09,2.29h0l.07,0a16.84,16.84,0,0,0,3.58-1.47,3.42,3.42,0,0,0,1.47-1.43,1.34,1.34,0,0,0-.09-1.19,4,4,0,0,0-.6-.77,23.49,23.49,0,0,0-5.41-3.49l-.15.64,7.87-.15A16.6,16.6,0,0,0,712,477.67Z" transform="translate(-42.12 -22.32)"/><path class="cls-15" d="M740.45,515.17a1,1,0,0,0-.14-.27l-.45-.74L738,511.29l-7-10.78,0,0-6.63-15q-1.89-4.29-4-9c-.37-.81-.66-1.55-1.11-2.45a6.7,6.7,0,0,0-2-2,16.75,16.75,0,0,0-5.15-2.35l.27.23c-.54-1.34-1.08-2.71-1.63-4.1l-.84-2.11a3.87,3.87,0,0,0-1.82-1.78,15.63,15.63,0,0,0-4.64-1.33,37,37,0,0,0-4.87-.42l.16,0-17.62-6.87-.64-.25,0,.68c.08,1.65.12,3.29.24,5.07a13.94,13.94,0,0,0,1.87,5,16,16,0,0,0,4.18,4.41l-.21-.27c.75,2.87,1.48,5.69,2.19,8.43l.83-.31a43.54,43.54,0,0,0-2.34-4,12.66,12.66,0,0,0-3.1-3.54,1.62,1.62,0,0,0-1.44-.25,1.73,1.73,0,0,0-.94,1.09,8.06,8.06,0,0,0-.39,2.32c0,.76,0,1.5,0,2.24a10.67,10.67,0,0,0,.07,1.11,6,6,0,0,0,.27,1.14c1.81,5.57,3.93,10.68,5.75,15.63.92,2.47,1.81,4.88,2.59,7.23a26.89,26.89,0,0,1,.93,3.48,7.67,7.67,0,0,0,1.7,3.28,81.72,81.72,0,0,0,9.14,9.18c3,2.61,5.69,4.87,8.13,6.78,1.22,1,2.43,1.8,3.48,2.57a32.31,32.31,0,0,1,2.71,2.36c1.56,1.5,2.68,2.76,3.43,3.61l.85,1a1.87,1.87,0,0,0,.3.32,1.9,1.9,0,0,0-.24-.37l-.78-1a49.42,49.42,0,0,0-3.33-3.73,32.28,32.28,0,0,0-2.7-2.44c-1.07-.82-2.22-1.64-3.43-2.62-2.41-1.94-5.12-4.23-8-6.86a83.35,83.35,0,0,1-9-9.16,7.14,7.14,0,0,1-1.54-2.94,25.77,25.77,0,0,0-.94-3.63c-.77-2.38-1.65-4.79-2.56-7.27-1.79-5-3.91-10.13-5.67-15.59a6,6,0,0,1-.24-1c-.05-.33,0-.72-.06-1.07,0-.72,0-1.45,0-2.17.06-1.31.35-3.36,1.44-2.45a11.79,11.79,0,0,1,2.82,3.28,41.57,41.57,0,0,1,2.28,4l1.85,3.61-1-3.93c-.71-2.73-1.44-5.55-2.18-8.43l0-.16-.17-.11a15.22,15.22,0,0,1-3.86-4.12,12.8,12.8,0,0,1-1.75-4.68c-.11-1.63-.15-3.36-.23-5l-.61.43L698.44,461l.07,0h.09c3.17.12,6.46.38,9.13,1.63a3,3,0,0,1,1.43,1.35l.85,2.1,1.65,4.1.07.18.2.06a16,16,0,0,1,4.9,2.2,5.91,5.91,0,0,1,1.76,1.8c.35.68.72,1.57,1.07,2.33l4.09,9c2.58,5.69,4.86,10.72,6.79,15v0h0l7.24,10.66,1.94,2.79.51.71A1.1,1.1,0,0,0,740.45,515.17Z" transform="translate(-42.12 -22.32)"/><path class="cls-5" d="M767,541.66c.25,0-.55-6.21-1.79-13.79s-2.44-13.68-2.69-13.64.56,6.21,1.8,13.79S766.76,541.7,767,541.66Z" transform="translate(-42.12 -22.32)"/><path class="cls-5" d="M640.87,452.27l5.49,69.32a4.52,4.52,0,0,0,4.8,4.16l38.64-2.51a4.53,4.53,0,0,0,4.22-4.92L687.7,449a4.52,4.52,0,0,0-4.8-4.1l-37.81,2.45A4.53,4.53,0,0,0,640.87,452.27Z" transform="translate(-42.12 -22.32)"/><path class="cls-14" d="M585.57,540.52S574,618.51,574.48,629s12.3,33.72,28.25,36,31-12.3,31.44-31.44S637,553.89,637,553.89l-11.9-6.56Z" transform="translate(-42.12 -22.32)"/><path class="cls-15" d="M614,545.13a3,3,0,0,0-.41.79c-.28.63-.61,1.41-1,2.35-.86,2.05-2.15,5-3.81,8.6-3.27,7.23-8.19,17-13.26,28.07a197.41,197.41,0,0,0-11.05,29c-.59,1.91-.94,3.68-1.33,5.21s-.63,2.87-.82,4-.31,1.85-.43,2.53a3.3,3.3,0,0,0-.09.89,3.19,3.19,0,0,0,.27-.86c.16-.67.36-1.49.59-2.49s.54-2.4,1-3.92.83-3.27,1.45-5.15a225.42,225.42,0,0,1,11.25-28.85c5.07-11,9.9-20.87,13-28.18,1.59-3.65,2.8-6.64,3.55-8.73.35-1,.63-1.76.87-2.41A3.71,3.71,0,0,0,614,545.13Z" transform="translate(-42.12 -22.32)"/><path class="cls-14" d="M651.28,476.08s-11.95,7.35-15.48,9.26-3.07,16.17-3.07,16.17l-20.1,46.74,24.24,8.68s8.62-16.35,11.11-18.42a16.64,16.64,0,0,1,5.78-2.89s1.24,4.55,5,2.48,7.85-7,7.85-7,3.31,2.07,4.55-.41,3.31-7.86,3.31-7.86-7-9.1-9.92-9.1-17.79.83-17.79.83.83-1.24,5-2.89,28.76-8.9,29.91-9.35c1.73-.67,3.69-5.19-1.69-5.61s-35.66,5-35.66,5-1.66-7.82-.42-9.48S655.83,483.52,651.28,476.08Z" transform="translate(-42.12 -22.32)"/><path class="cls-15" d="M666.61,530.7a7.59,7.59,0,0,0-.09-3.4,6.09,6.09,0,0,0-1.83-3.35,7,7,0,0,0-4.44-1.35,41.4,41.4,0,0,0-8.15.3,10,10,0,0,0-3.29.77c0,.27,5.12-.58,11.38-.17a6.64,6.64,0,0,1,4,1.08,5.85,5.85,0,0,1,1.74,2.87C666.41,529.4,666.45,530.72,666.61,530.7Z" transform="translate(-42.12 -22.32)"/><path class="cls-15" d="M661.82,532.19c-.16-.2-2.07,1.08-4.65,2.19s-4.81,1.66-4.77,1.92,2.44.09,5.13-1.09S662,532.37,661.82,532.19Z" transform="translate(-42.12 -22.32)"/><path class="cls-15" d="M645.64,501.51c0-.23-2.3.2-4.27,2.12s-2.49,4.16-2.26,4.2,1.07-1.83,2.88-3.55S645.73,501.76,645.64,501.51Z" transform="translate(-42.12 -22.32)"/><path class="cls-5" d="M957,976.88c0,.31-204.82.56-457.42.56s-457.46-.25-457.46-.56,204.78-.55,457.46-.55S957,976.58,957,976.88Z" transform="translate(-42.12 -22.32)"/></svg>